G04 #@! TF.GenerationSoftware,KiCad,Pcbnew,8.0.1*
G04 #@! TF.CreationDate,2025-01-05T22:43:36+02:00*
G04 #@! TF.ProjectId,DeeDee_v1,44656544-6565-45f7-9631-2e6b69636164,v1.0.0*
G04 #@! TF.SameCoordinates,Original*
G04 #@! TF.FileFunction,Paste,Bot*
G04 #@! TF.FilePolarity,Positive*
%FSLAX46Y46*%
G04 Gerber Fmt 4.6, Leading zero omitted, Abs format (unit mm)*
G04 Created by KiCad (PCBNEW 8.0.1) date 2025-01-05 22:43:36*
%MOMM*%
%LPD*%
G01*
G04 APERTURE LIST*
G04 Aperture macros list*
%AMRoundRect*
0 Rectangle with rounded corners*
0 $1 Rounding radius*
0 $2 $3 $4 $5 $6 $7 $8 $9 X,Y pos of 4 corners*
0 Add a 4 corners polygon primitive as box body*
4,1,4,$2,$3,$4,$5,$6,$7,$8,$9,$2,$3,0*
0 Add four circle primitives for the rounded corners*
1,1,$1+$1,$2,$3*
1,1,$1+$1,$4,$5*
1,1,$1+$1,$6,$7*
1,1,$1+$1,$8,$9*
0 Add four rect primitives between the rounded corners*
20,1,$1+$1,$2,$3,$4,$5,0*
20,1,$1+$1,$4,$5,$6,$7,0*
20,1,$1+$1,$6,$7,$8,$9,0*
20,1,$1+$1,$8,$9,$2,$3,0*%
%AMRotRect*
0 Rectangle, with rotation*
0 The origin of the aperture is its center*
0 $1 length*
0 $2 width*
0 $3 Rotation angle, in degrees counterclockwise*
0 Add horizontal line*
21,1,$1,$2,0,0,$3*%
G04 Aperture macros list end*
%ADD10R,1.300000X0.300000*%
%ADD11R,2.200000X1.800000*%
%ADD12RoundRect,0.250000X0.519855X0.034014X0.226279X0.469259X-0.519855X-0.034014X-0.226279X-0.469259X0*%
%ADD13RoundRect,0.250000X0.474974X-0.214024X0.420096X0.308100X-0.474974X0.214024X-0.420096X-0.308100X0*%
%ADD14RoundRect,0.250000X0.443036X0.274090X-0.020512X0.520563X-0.443036X-0.274090X0.020512X-0.520563X0*%
%ADD15RoundRect,0.250000X-0.020512X-0.520563X0.443036X-0.274090X0.020512X0.520563X-0.443036X0.274090X0*%
%ADD16RoundRect,0.250000X0.420096X-0.308100X0.474974X0.214024X-0.420096X0.308100X-0.474974X-0.214024X0*%
%ADD17RoundRect,0.250000X0.226279X-0.469259X0.519855X-0.034014X-0.226279X0.469259X-0.519855X0.034014X0*%
%ADD18RoundRect,0.250000X0.274090X-0.443036X0.520563X0.020512X-0.274090X0.443036X-0.520563X-0.020512X0*%
%ADD19RoundRect,0.090000X-0.210000X-0.535000X0.210000X-0.535000X0.210000X0.535000X-0.210000X0.535000X0*%
%ADD20RoundRect,0.105000X0.445000X-0.245000X0.445000X0.245000X-0.445000X0.245000X-0.445000X-0.245000X0*%
%ADD21RoundRect,0.250000X0.520563X-0.020512X0.274090X0.443036X-0.520563X0.020512X-0.274090X-0.443036X0*%
%ADD22RotRect,1.400000X1.000000X28.000000*%
%ADD23RotRect,0.900000X1.200000X96.000000*%
%ADD24RotRect,2.600000X2.600000X152.000000*%
%ADD25RotRect,0.900000X1.200000X124.000000*%
%ADD26RotRect,1.400000X1.000000X332.000000*%
%ADD27RotRect,2.600000X2.600000X208.000000*%
%ADD28RotRect,0.900000X1.200000X152.000000*%
%ADD29RotRect,0.900000X1.200000X62.000000*%
%ADD30RotRect,2.600000X2.600000X264.000000*%
%ADD31RotRect,0.900000X1.200000X208.000000*%
%ADD32RotRect,1.400000X1.000000X84.000000*%
%ADD33RotRect,1.400000X1.000000X56.000000*%
%ADD34RotRect,1.400000X1.000000X304.000000*%
%ADD35RotRect,2.600000X2.600000X236.000000*%
%ADD36RotRect,2.600000X2.600000X96.000000*%
%ADD37RotRect,2.600000X2.600000X124.000000*%
%ADD38RotRect,0.900000X1.200000X264.000000*%
%ADD39RotRect,0.900000X1.200000X236.000000*%
%ADD40RotRect,0.900000X1.200000X118.000000*%
%ADD41RotRect,1.400000X1.000000X276.000000*%
G04 APERTURE END LIST*
D10*
X219056467Y-144986688D03*
X219056468Y-144486689D03*
X219056467Y-143986688D03*
X219056466Y-143486687D03*
X219056466Y-142986689D03*
X219056467Y-142486688D03*
X219056467Y-141986688D03*
X219056466Y-141486687D03*
X219056466Y-140986689D03*
X219056467Y-140486688D03*
X219056470Y-139986688D03*
X219056467Y-139486688D03*
D11*
X222306466Y-137586688D03*
X222306466Y-146886688D03*
D12*
X178014106Y-162621365D03*
X176993576Y-161108373D03*
D13*
X184401861Y-188005294D03*
X184211097Y-186190294D03*
D14*
X169579444Y-100490099D03*
X167968062Y-99633315D03*
X193397521Y-96165841D03*
X191786139Y-95309057D03*
X160457012Y-143207555D03*
X158845630Y-142350771D03*
D15*
X258458503Y-113275592D03*
X260069885Y-112418808D03*
X291541037Y-94552725D03*
X293152419Y-93695941D03*
X261619832Y-78750153D03*
X263231214Y-77893369D03*
D14*
X178499407Y-83714091D03*
X176888025Y-82857307D03*
D16*
X228099570Y-179551858D03*
X228290334Y-177736858D03*
D15*
X270539794Y-95526153D03*
X272151176Y-94669369D03*
X313950702Y-96228138D03*
X315562084Y-95371354D03*
D14*
X166418115Y-65964656D03*
X164806733Y-65107872D03*
X127576949Y-98543237D03*
X125965567Y-97686453D03*
D17*
X238351970Y-155574546D03*
X239372502Y-154061554D03*
D15*
X240618582Y-79723584D03*
X242229964Y-78866800D03*
X273701113Y-61000716D03*
X275312495Y-60143932D03*
D14*
X175557605Y-129717851D03*
X173946223Y-128861067D03*
D18*
X140970743Y-126178518D03*
X141827529Y-124567139D03*
X142758711Y-127129199D03*
X143615499Y-125517818D03*
X144546681Y-128079880D03*
X145403469Y-126468499D03*
X146334651Y-129030559D03*
X147191437Y-127419180D03*
D15*
X243560382Y-125727347D03*
X245171764Y-124870563D03*
X258660978Y-139217045D03*
X260272360Y-138360261D03*
X225720466Y-92175336D03*
X227331848Y-91318552D03*
X282621078Y-77776722D03*
X284232460Y-76919938D03*
X252699872Y-61974153D03*
X254311254Y-61117369D03*
X296110784Y-62676130D03*
X297722166Y-61819346D03*
D19*
X208056467Y-189101038D03*
X205056468Y-189101040D03*
X203556469Y-189101040D03*
D20*
X209506469Y-192251040D03*
X209506469Y-189951041D03*
X202106467Y-192251037D03*
X202106467Y-189951038D03*
D14*
X105167283Y-100218644D03*
X103555901Y-99361860D03*
X123007199Y-66666638D03*
X121395817Y-65809854D03*
X160659484Y-117266102D03*
X159048102Y-116409318D03*
X184477559Y-112941845D03*
X182866177Y-112085061D03*
X157498154Y-82740662D03*
X155886772Y-81883878D03*
X136496904Y-81767234D03*
X134885522Y-80910450D03*
X114087243Y-83442640D03*
X112475861Y-82585856D03*
D21*
X265278285Y-129030559D03*
X264421499Y-127419180D03*
X267066255Y-128079880D03*
X266209469Y-126468499D03*
X268854223Y-127129199D03*
X267997437Y-125517818D03*
X270642193Y-126178518D03*
X269785407Y-124567139D03*
D15*
X249538543Y-96499590D03*
X251149925Y-95642806D03*
D14*
X148578196Y-99516662D03*
X146966814Y-98659878D03*
D15*
X305030744Y-79452133D03*
X306642126Y-78595349D03*
X234640426Y-108951339D03*
X236251808Y-108094555D03*
D14*
X145416866Y-64991222D03*
X143805484Y-64134438D03*
D22*
X269131860Y-94236145D03*
X268474599Y-93000017D03*
X263706682Y-95535163D03*
X264363943Y-96771291D03*
D23*
X173667328Y-190629234D03*
X173322384Y-187347312D03*
D22*
X290133113Y-93262711D03*
X289475852Y-92026583D03*
X284707935Y-94561729D03*
X285365196Y-95797857D03*
D24*
X173006647Y-90023989D03*
X163841438Y-82659106D03*
D22*
X257253052Y-137927030D03*
X256595791Y-136690902D03*
X251827874Y-139226048D03*
X252485135Y-140462176D03*
D25*
X169767937Y-169977718D03*
X167922601Y-167241894D03*
D26*
X168250232Y-97744718D03*
X168907493Y-96508590D03*
X164139576Y-93973444D03*
X163482315Y-95209572D03*
D22*
X224312540Y-90885320D03*
X223655279Y-89649192D03*
X218887362Y-92184338D03*
X219544623Y-93420466D03*
D27*
X299881795Y-69901497D03*
X288650912Y-73381408D03*
D24*
X139924108Y-71301125D03*
X130758899Y-63936242D03*
D26*
X183148352Y-110196469D03*
X183805613Y-108960341D03*
X179037696Y-106425195D03*
X178380435Y-107661323D03*
D28*
X162590785Y-76331274D03*
X159677057Y-74782020D03*
X189570193Y-106532456D03*
X186656465Y-104983202D03*
D29*
X126060987Y-120218702D03*
X127610241Y-117304974D03*
D26*
X174228389Y-126972471D03*
X174885650Y-125736343D03*
X170117733Y-123201197D03*
X169460472Y-124437325D03*
D28*
X156629682Y-153574168D03*
X153715954Y-152024914D03*
X156832156Y-127632716D03*
X153918428Y-126083462D03*
D26*
X165088903Y-63219277D03*
X165746164Y-61983149D03*
X160978247Y-59448003D03*
X160320986Y-60684131D03*
D27*
X317721713Y-103453509D03*
X306490830Y-106933420D03*
D26*
X103838074Y-97473268D03*
X104495335Y-96237140D03*
X99727418Y-93701994D03*
X99070157Y-94938122D03*
D30*
X236198386Y-180465925D03*
X232803135Y-191722689D03*
D26*
X121677993Y-63921259D03*
X122335254Y-62685131D03*
X117567337Y-60149985D03*
X116910076Y-61386113D03*
D31*
X257604024Y-104612746D03*
X254690296Y-106161998D03*
D24*
X164086689Y-106799995D03*
X154921480Y-99435112D03*
D22*
X248130619Y-95209577D03*
X247473358Y-93973449D03*
X242705441Y-96508595D03*
X243362702Y-97744723D03*
D26*
X156168944Y-79995285D03*
X156826205Y-78759157D03*
X152058288Y-76224011D03*
X151401027Y-77460139D03*
D27*
X262431990Y-146442412D03*
X251201107Y-149922323D03*
D31*
X313096221Y-87565287D03*
X310182493Y-89114539D03*
D24*
X154964251Y-149517458D03*
X145799042Y-142152575D03*
D31*
X260765351Y-70087306D03*
X257851623Y-71636558D03*
X304176264Y-70789282D03*
X301262536Y-72338534D03*
X233785942Y-100288489D03*
X230872214Y-101837741D03*
D27*
X229491476Y-99400699D03*
X218260593Y-102880610D03*
D28*
X119179876Y-77033251D03*
X116266148Y-75483997D03*
D27*
X265390844Y-85975525D03*
X254159961Y-89455436D03*
D28*
X165752114Y-110856710D03*
X162838386Y-109307456D03*
D31*
X242705904Y-117064491D03*
X239792176Y-118613743D03*
D28*
X174672074Y-94080707D03*
X171758346Y-92531453D03*
D24*
X122084193Y-104853134D03*
X112918984Y-97488251D03*
X108594487Y-89752538D03*
X99429278Y-82387655D03*
D31*
X322016183Y-104341294D03*
X319102455Y-105890546D03*
D27*
X277472131Y-68226087D03*
X266241248Y-71705998D03*
D28*
X141589536Y-75357844D03*
X138675808Y-73808590D03*
D22*
X233232497Y-107661323D03*
X232575236Y-106425195D03*
X227807319Y-108960341D03*
X228464580Y-110196469D03*
X239210654Y-78433569D03*
X238553393Y-77197441D03*
X233785476Y-79732587D03*
X234442737Y-80968715D03*
D31*
X290686560Y-85889877D03*
X287772832Y-87439129D03*
X299606518Y-102665878D03*
X296692790Y-104215130D03*
D27*
X262229511Y-120500958D03*
X250998628Y-123980869D03*
D32*
X226242788Y-179997717D03*
X224850458Y-179851378D03*
X224286004Y-185221797D03*
X225678334Y-185368136D03*
D26*
X159127795Y-140462175D03*
X159785056Y-139226047D03*
X155017139Y-136690901D03*
X154359878Y-137927029D03*
D24*
X99674528Y-106528543D03*
X90509319Y-99163660D03*
D27*
X256470880Y-69199514D03*
X245239997Y-72679425D03*
D24*
X131004151Y-88077127D03*
X121838942Y-80712244D03*
D26*
X192068307Y-93420465D03*
X192725568Y-92184337D03*
X187957651Y-89649191D03*
X187300390Y-90885319D03*
D31*
X266726455Y-147330203D03*
X263812727Y-148879455D03*
D22*
X260211905Y-77460140D03*
X259554644Y-76224012D03*
X254786727Y-78759158D03*
X255443988Y-79995286D03*
D33*
X236503219Y-155096509D03*
X235342566Y-154313639D03*
X232322923Y-158790441D03*
X233483576Y-159573311D03*
D31*
X248684058Y-87836737D03*
X245770330Y-89385989D03*
X281766593Y-69113870D03*
X278852865Y-70663122D03*
X266523982Y-121388747D03*
X263610254Y-122937999D03*
D27*
X295312047Y-101778093D03*
X284081164Y-105258004D03*
D34*
X178129353Y-159573310D03*
X179290006Y-158790440D03*
X176270363Y-154313638D03*
X175109710Y-155096508D03*
D27*
X308801756Y-86677498D03*
X297570873Y-90157409D03*
D26*
X112758033Y-80697265D03*
X113415294Y-79461137D03*
X108647377Y-76925991D03*
X107990116Y-78162119D03*
D22*
X257050577Y-111985575D03*
X256393316Y-110749447D03*
X251625399Y-113284593D03*
X252282660Y-114520721D03*
D31*
X269685314Y-86863310D03*
X266771586Y-88412562D03*
D22*
X281213149Y-76486704D03*
X280555888Y-75250576D03*
X275787971Y-77785722D03*
X276445232Y-79021850D03*
D35*
X245073681Y-160183783D03*
X236791122Y-168528944D03*
D28*
X132669578Y-92133847D03*
X129755850Y-90584593D03*
D27*
X253309557Y-103724956D03*
X242078674Y-107204867D03*
X286392093Y-85002086D03*
X275161210Y-88481997D03*
D22*
X312542777Y-94938121D03*
X311885516Y-93701993D03*
X307117599Y-96237139D03*
X307774860Y-97473267D03*
D24*
X117514445Y-72976532D03*
X108349236Y-65611649D03*
D28*
X101339953Y-110585260D03*
X98426225Y-109036006D03*
D26*
X126247736Y-95797857D03*
X126904997Y-94561729D03*
X122137080Y-92026583D03*
X121479819Y-93262711D03*
D28*
X144750867Y-109883279D03*
X141837139Y-108334025D03*
D22*
X303622817Y-78162112D03*
X302965556Y-76925984D03*
X298197639Y-79461130D03*
X298854900Y-80697258D03*
D28*
X123749618Y-108909846D03*
X120835890Y-107360592D03*
D22*
X272293195Y-59710704D03*
X271635934Y-58474576D03*
X266868017Y-61009722D03*
X267525278Y-62245850D03*
D24*
X152005400Y-89050560D03*
X142840191Y-81685677D03*
D36*
X176099206Y-186980041D03*
X177079852Y-175263350D03*
D37*
X170201963Y-165613979D03*
X165567169Y-154808367D03*
D28*
X171730276Y-140084465D03*
X168816548Y-138535211D03*
D26*
X159330271Y-114520731D03*
X159987532Y-113284603D03*
X155219615Y-110749457D03*
X154562354Y-111985585D03*
D38*
X239335831Y-177402086D03*
X238990887Y-180684008D03*
D28*
X153670825Y-93107277D03*
X150757097Y-91558023D03*
D26*
X135167694Y-79021851D03*
X135824955Y-77785723D03*
X131057038Y-75250577D03*
X130399777Y-76486705D03*
D24*
X187904760Y-102475743D03*
X178739551Y-95110860D03*
D27*
X274310803Y-102751522D03*
X263079920Y-106231433D03*
X238411435Y-116176706D03*
X227180552Y-119656617D03*
D28*
X110259914Y-93809255D03*
X107346186Y-92260001D03*
D31*
X278605270Y-103639308D03*
X275691542Y-105188560D03*
D24*
X143085441Y-105826563D03*
X133920232Y-98461680D03*
X178984805Y-119251743D03*
X169819596Y-111886860D03*
X170064846Y-136027749D03*
X160899637Y-128662866D03*
D22*
X251291947Y-60684133D03*
X250634686Y-59448005D03*
X245866769Y-61983151D03*
X246524030Y-63219279D03*
D39*
X249282264Y-158951522D03*
X247436928Y-161687346D03*
D27*
X244389594Y-86948953D03*
X233158711Y-90428864D03*
D26*
X144087654Y-62245848D03*
X144744915Y-61009720D03*
X139976998Y-58474574D03*
X139319737Y-59710702D03*
D27*
X247331397Y-132952713D03*
X236100514Y-136432624D03*
D26*
X177170187Y-80968715D03*
X177827448Y-79732587D03*
X173059531Y-77197441D03*
X172402270Y-78433569D03*
X147248985Y-96771286D03*
X147906246Y-95535158D03*
X143138329Y-93000012D03*
X142481068Y-94236140D03*
D40*
X287899303Y-124633433D03*
X286350051Y-121719705D03*
D31*
X251625863Y-133840496D03*
X248712135Y-135389748D03*
D22*
X242152456Y-124437325D03*
X241495195Y-123201197D03*
X236727278Y-125736343D03*
X237384539Y-126972471D03*
D24*
X155166728Y-123576002D03*
X146001519Y-116211119D03*
X160925362Y-72274552D03*
X151760153Y-64909669D03*
D41*
X185934594Y-185368134D03*
X187326924Y-185221796D03*
X186762470Y-179851376D03*
X185370140Y-179997714D03*
D28*
X180650228Y-123308465D03*
X177736500Y-121759211D03*
D22*
X294702855Y-61386111D03*
X294045594Y-60149983D03*
X289277677Y-62685129D03*
X289934938Y-63921257D03*
M02*
