G04 #@! TF.GenerationSoftware,KiCad,Pcbnew,8.0.1*
G04 #@! TF.CreationDate,2025-01-05T22:43:36+02:00*
G04 #@! TF.ProjectId,DeeDee_v1,44656544-6565-45f7-9631-2e6b69636164,v1.0.0*
G04 #@! TF.SameCoordinates,Original*
G04 #@! TF.FileFunction,Soldermask,Top*
G04 #@! TF.FilePolarity,Negative*
%FSLAX46Y46*%
G04 Gerber Fmt 4.6, Leading zero omitted, Abs format (unit mm)*
G04 Created by KiCad (PCBNEW 8.0.1) date 2025-01-05 22:43:36*
%MOMM*%
%LPD*%
G01*
G04 APERTURE LIST*
G04 Aperture macros list*
%AMRoundRect*
0 Rectangle with rounded corners*
0 $1 Rounding radius*
0 $2 $3 $4 $5 $6 $7 $8 $9 X,Y pos of 4 corners*
0 Add a 4 corners polygon primitive as box body*
4,1,4,$2,$3,$4,$5,$6,$7,$8,$9,$2,$3,0*
0 Add four circle primitives for the rounded corners*
1,1,$1+$1,$2,$3*
1,1,$1+$1,$4,$5*
1,1,$1+$1,$6,$7*
1,1,$1+$1,$8,$9*
0 Add four rect primitives between the rounded corners*
20,1,$1+$1,$2,$3,$4,$5,0*
20,1,$1+$1,$4,$5,$6,$7,0*
20,1,$1+$1,$6,$7,$8,$9,0*
20,1,$1+$1,$8,$9,$2,$3,0*%
%AMHorizOval*
0 Thick line with rounded ends*
0 $1 width*
0 $2 $3 position (X,Y) of the first rounded end (center of the circle)*
0 $4 $5 position (X,Y) of the second rounded end (center of the circle)*
0 Add line between two ends*
20,1,$1,$2,$3,$4,$5,0*
0 Add two circle primitives to create the rounded ends*
1,1,$1,$2,$3*
1,1,$1,$4,$5*%
%AMRotRect*
0 Rectangle, with rotation*
0 The origin of the aperture is its center*
0 $1 length*
0 $2 width*
0 $3 Rotation angle, in degrees counterclockwise*
0 Add horizontal line*
21,1,$1,$2,0,0,$3*%
G04 Aperture macros list end*
%ADD10C,3.800000*%
%ADD11RotRect,1.000000X1.000000X118.000000*%
%ADD12HorizOval,1.000000X0.000000X0.000000X0.000000X0.000000X0*%
%ADD13RotRect,3.200000X2.000000X152.000000*%
%ADD14C,1.500000*%
%ADD15RotRect,2.000000X2.000000X152.000000*%
%ADD16C,2.000000*%
%ADD17RotRect,3.200000X2.000000X28.000000*%
%ADD18RotRect,2.000000X2.000000X28.000000*%
%ADD19RoundRect,0.240000X-0.360000X-0.635000X0.360000X-0.635000X0.360000X0.635000X-0.360000X0.635000X0*%
%ADD20O,1.200000X1.750000*%
%ADD21C,2.100000*%
%ADD22R,1.000000X5.500000*%
%ADD23R,1.600000X3.000000*%
%ADD24C,1.900000*%
%ADD25C,3.000000*%
%ADD26C,3.400000*%
%ADD27C,1.700000*%
G04 APERTURE END LIST*
D10*
X193525000Y-160925000D03*
X218200000Y-160925000D03*
X157118565Y-133164714D03*
D11*
X219605556Y-84222313D03*
D12*
X220726899Y-83626083D03*
D10*
X254494365Y-133164711D03*
D13*
X128239013Y-127028304D03*
X133497094Y-117139291D03*
D14*
X123513741Y-121004867D03*
X125861099Y-116590129D03*
D15*
X136316481Y-127812203D03*
D16*
X138663838Y-123397467D03*
X137490160Y-125604835D03*
D10*
X185150000Y-133900000D03*
X230872274Y-170597886D03*
D17*
X278078279Y-117068654D03*
X283336360Y-126957667D03*
D14*
X285714275Y-116519491D03*
X288061630Y-120934228D03*
D18*
X272911534Y-123326828D03*
D16*
X275258891Y-127741566D03*
X274085212Y-125534195D03*
D10*
X284635100Y-68438087D03*
X126977827Y-68438087D03*
D19*
X198006462Y-162821682D03*
D20*
X200006464Y-162821684D03*
D10*
X236654447Y-99612701D03*
X226550000Y-133900000D03*
X174958486Y-99612703D03*
X302475018Y-101990096D03*
D21*
X230439162Y-74180268D03*
X235537760Y-69383987D03*
D22*
X212806466Y-164321686D03*
X210806467Y-164321687D03*
X208806465Y-164321684D03*
X206806466Y-164321686D03*
D23*
X215206466Y-166571686D03*
X204406466Y-166571686D03*
D10*
X109137913Y-101990096D03*
X180740646Y-170597884D03*
D24*
X177764560Y-85815024D03*
D25*
X170114992Y-88486469D03*
D26*
X172908348Y-83232930D03*
D25*
X166733092Y-84196626D03*
D24*
X168052136Y-80650836D03*
X299052997Y-63603383D03*
D25*
X296990141Y-71439016D03*
D26*
X294196785Y-66185477D03*
D25*
X291542565Y-71843888D03*
D24*
X289340573Y-68767571D03*
X144682021Y-67092160D03*
D25*
X137032453Y-69763605D03*
D26*
X139825809Y-64510066D03*
D25*
X133650553Y-65473762D03*
D24*
X134969597Y-61927972D03*
X316892915Y-97155395D03*
D25*
X314830059Y-104991028D03*
D26*
X312036703Y-99737489D03*
D25*
X309382483Y-105395900D03*
D24*
X307180491Y-102319583D03*
X230513559Y-177631168D03*
D26*
X229938650Y-183101039D03*
D25*
X235856054Y-183722983D03*
X233145467Y-188465630D03*
D24*
X229363741Y-188570910D03*
X168844602Y-102591030D03*
D25*
X161195034Y-105262475D03*
D26*
X163988390Y-100008936D03*
D25*
X157813134Y-100972632D03*
D24*
X159132178Y-97426842D03*
X261603192Y-140144298D03*
D25*
X259540336Y-147979931D03*
D26*
X256746980Y-142726392D03*
D25*
X254092760Y-148384803D03*
D24*
X251890768Y-145308486D03*
X159722164Y-145308493D03*
D25*
X152072596Y-147979938D03*
D26*
X154865952Y-142726399D03*
D25*
X148690696Y-143690095D03*
D24*
X150009740Y-140144305D03*
X228662678Y-93102585D03*
D25*
X226599822Y-100938218D03*
D26*
X223806466Y-95684679D03*
D25*
X221152246Y-101343090D03*
D24*
X218950254Y-98266773D03*
X264562046Y-79677411D03*
D25*
X262499190Y-87513044D03*
D26*
X259705834Y-82259505D03*
D25*
X257051614Y-87917916D03*
D24*
X254849622Y-84841599D03*
X126842106Y-100644169D03*
D25*
X119192538Y-103315614D03*
D26*
X121985894Y-98062075D03*
D25*
X115810638Y-99025771D03*
D24*
X117129682Y-95479981D03*
X113352400Y-85543573D03*
D25*
X105702832Y-88215018D03*
D26*
X108496188Y-82961479D03*
D25*
X102320932Y-83925175D03*
D24*
X103639976Y-80379385D03*
X276643333Y-61927973D03*
D25*
X274580477Y-69763606D03*
D26*
X271787121Y-64510067D03*
D25*
X269132901Y-70168478D03*
D24*
X266930909Y-67092161D03*
X261400713Y-114202844D03*
D25*
X259337857Y-122038477D03*
D26*
X256544501Y-116784938D03*
D25*
X253890281Y-122443349D03*
D24*
X251688289Y-119367032D03*
D27*
X213426466Y-83984679D03*
X213426467Y-86524677D03*
X213426466Y-89064678D03*
X213426466Y-91604682D03*
X213426465Y-94144678D03*
X213426466Y-96684678D03*
X213426465Y-99224678D03*
X213426467Y-101764676D03*
X213426466Y-104304678D03*
X213426467Y-106844679D03*
X213426466Y-109384677D03*
X213426466Y-111924678D03*
X198186466Y-111924678D03*
X198186466Y-109384677D03*
X198186465Y-106844679D03*
X198186466Y-104304678D03*
X198186466Y-101764674D03*
X198186467Y-99224678D03*
X198186466Y-96684678D03*
X198186467Y-94144678D03*
X198186465Y-91604680D03*
X198186466Y-89064678D03*
X198186465Y-86524677D03*
X198186466Y-83984679D03*
X200726466Y-109384678D03*
X203266466Y-109384679D03*
X205806466Y-109384678D03*
D24*
X104432441Y-102319578D03*
D25*
X96782873Y-104991023D03*
D26*
X99576229Y-99737484D03*
D25*
X93400973Y-100701180D03*
D24*
X94720017Y-97155390D03*
X255642082Y-62901400D03*
D25*
X253579226Y-70737033D03*
D26*
X250785870Y-65483494D03*
D25*
X248131650Y-71141905D03*
D24*
X245929658Y-68065588D03*
X135762064Y-83868162D03*
D25*
X128112496Y-86539607D03*
D26*
X130905852Y-81286068D03*
D25*
X124730596Y-82249764D03*
D24*
X126049640Y-78703974D03*
X294483249Y-95479979D03*
D25*
X292420393Y-103315612D03*
D26*
X289627037Y-98062073D03*
D25*
X286972817Y-103720484D03*
D24*
X284770825Y-100644167D03*
X307972958Y-80379384D03*
D25*
X305910102Y-88215017D03*
D26*
X303116746Y-82961478D03*
D25*
X300462526Y-88619889D03*
D24*
X298260534Y-85543572D03*
X241385111Y-155011977D03*
D25*
X243242324Y-162898882D03*
D26*
X238309550Y-159571684D03*
D25*
X238622477Y-165813848D03*
D24*
X235233989Y-164131391D03*
X252480759Y-97426842D03*
D25*
X250417903Y-105262475D03*
D26*
X247624547Y-100008936D03*
D25*
X244970327Y-105667347D03*
D24*
X242768335Y-102591030D03*
X285563295Y-78703972D03*
D25*
X283500439Y-86539605D03*
D26*
X280707083Y-81286066D03*
D25*
X278052863Y-86944477D03*
D24*
X275850871Y-83868160D03*
X122272358Y-68767567D03*
D25*
X114622790Y-71439012D03*
D26*
X117416146Y-66185473D03*
D25*
X111240890Y-67149169D03*
D24*
X112559934Y-63603379D03*
X156763313Y-84841595D03*
D25*
X149113745Y-87513040D03*
D26*
X151907101Y-82259501D03*
D25*
X145731845Y-83223197D03*
D24*
X147050889Y-79677407D03*
X182249190Y-188570907D03*
D25*
X175756877Y-183722982D03*
D26*
X181674282Y-183101037D03*
D25*
X177422183Y-178520409D03*
D24*
X181099374Y-177631167D03*
X176378942Y-164131389D03*
D25*
X168370607Y-162898880D03*
D26*
X173303381Y-159571682D03*
D25*
X167398526Y-157523467D03*
D24*
X170227820Y-155011975D03*
X192662673Y-98266778D03*
D25*
X185013105Y-100938223D03*
D26*
X187806461Y-95684684D03*
D25*
X181631205Y-96648380D03*
D24*
X182950249Y-93102590D03*
X273482005Y-96453408D03*
D25*
X271419149Y-104289041D03*
D26*
X268625793Y-99035502D03*
D25*
X265971573Y-104693913D03*
D24*
X263769581Y-101617596D03*
X237582637Y-109878592D03*
D25*
X235519781Y-117714225D03*
D26*
X232726425Y-112460686D03*
D25*
X230072205Y-118119097D03*
D24*
X227870213Y-115042780D03*
X147843354Y-101617598D03*
D25*
X140193786Y-104289043D03*
D26*
X142987142Y-99035504D03*
D25*
X136811886Y-99999200D03*
D24*
X138130930Y-96453410D03*
X183742718Y-115042778D03*
D25*
X176093150Y-117714223D03*
D26*
X178886506Y-112460684D03*
D25*
X172711250Y-113424380D03*
D24*
X174030294Y-109878590D03*
X174822759Y-131818784D03*
D25*
X167173191Y-134490229D03*
D26*
X169966547Y-129236690D03*
D25*
X163791291Y-130200386D03*
D24*
X165110335Y-126654596D03*
X243560796Y-80650839D03*
D25*
X241497940Y-88486472D03*
D26*
X238704584Y-83232933D03*
D25*
X236050364Y-88891344D03*
D24*
X233848372Y-85815027D03*
X246502599Y-126654599D03*
D25*
X244439743Y-134490232D03*
D26*
X241646387Y-129236693D03*
D25*
X238992167Y-134895104D03*
D24*
X236790175Y-131818787D03*
X159924641Y-119367037D03*
D25*
X152275073Y-122038482D03*
D26*
X155068429Y-116784943D03*
D25*
X148893173Y-117748639D03*
D24*
X150212217Y-114202849D03*
X165683275Y-68065587D03*
D25*
X158033707Y-70737032D03*
D26*
X160827063Y-65483493D03*
D25*
X154651807Y-66447189D03*
D24*
X155970851Y-62901399D03*
M02*
