M48
; DRILL file {KiCad 8.0.1} date 2025-01-05T22:45:00+0200
; FORMAT={-:-/ absolute / metric / decimal}
; #@! TF.CreationDate,2025-01-05T22:45:00+02:00
; #@! TF.GenerationSoftware,Kicad,Pcbnew,8.0.1
; #@! TF.FileFunction,NonPlated,1,2,NPTH
FMAT,2
METRIC
; #@! TA.AperFunction,NonPlated,NPTH,ComponentDrill
T1C1.900
; #@! TA.AperFunction,NonPlated,NPTH,ComponentDrill
T2C3.000
; #@! TA.AperFunction,NonPlated,NPTH,ComponentDrill
T3C3.400
%
G90
G05
T1
X94.72Y-97.155
X103.64Y-80.379
X104.432Y-102.32
X112.56Y-63.603
X113.352Y-85.544
X117.13Y-95.48
X122.272Y-68.768
X126.05Y-78.704
X126.842Y-100.644
X134.97Y-61.928
X135.762Y-83.868
X138.131Y-96.453
X144.682Y-67.092
X147.051Y-79.677
X147.843Y-101.618
X150.01Y-140.144
X150.212Y-114.203
X155.971Y-62.901
X156.763Y-84.842
X159.132Y-97.427
X159.722Y-145.308
X159.925Y-119.367
X165.11Y-126.655
X165.683Y-68.066
X168.052Y-80.651
X168.845Y-102.591
X170.228Y-155.012
X174.03Y-109.879
X174.823Y-131.819
X176.379Y-164.131
X177.765Y-85.815
X181.099Y-177.631
X182.249Y-188.571
X182.95Y-93.103
X183.743Y-115.043
X192.663Y-98.267
X218.95Y-98.267
X227.87Y-115.043
X228.663Y-93.103
X229.364Y-188.571
X230.514Y-177.631
X233.848Y-85.815
X235.234Y-164.131
X236.79Y-131.819
X237.583Y-109.879
X241.385Y-155.012
X242.768Y-102.591
X243.561Y-80.651
X245.93Y-68.066
X246.503Y-126.655
X251.688Y-119.367
X251.891Y-145.308
X252.481Y-97.427
X254.85Y-84.842
X255.642Y-62.901
X261.401Y-114.203
X261.603Y-140.144
X263.77Y-101.618
X264.562Y-79.677
X266.931Y-67.092
X273.482Y-96.453
X275.851Y-83.868
X276.643Y-61.928
X284.771Y-100.644
X285.563Y-78.704
X289.341Y-68.768
X294.483Y-95.48
X298.261Y-85.544
X299.053Y-63.603
X307.18Y-102.32
X307.973Y-80.379
X316.893Y-97.155
T2
X93.401Y-100.701
X96.783Y-104.991
X102.321Y-83.925
X105.703Y-88.215
X111.241Y-67.149
X114.623Y-71.439
X115.811Y-99.026
X119.193Y-103.316
X124.731Y-82.25
X128.112Y-86.54
X133.651Y-65.474
X136.812Y-99.999
X137.032Y-69.764
X140.194Y-104.289
X145.732Y-83.223
X148.691Y-143.69
X148.893Y-117.749
X149.114Y-87.513
X152.073Y-147.98
X152.275Y-122.038
X154.652Y-66.447
X157.813Y-100.973
X158.034Y-70.737
X161.195Y-105.262
X163.791Y-130.2
X166.733Y-84.197
X167.173Y-134.49
X167.399Y-157.523
X168.371Y-162.899
X170.115Y-88.486
X172.711Y-113.424
X175.757Y-183.723
X176.093Y-117.714
X177.422Y-178.52
X181.631Y-96.648
X185.013Y-100.938
X221.152Y-101.343
X226.6Y-100.938
X230.072Y-118.119
X233.145Y-188.466
X235.52Y-117.714
X235.856Y-183.723
X236.05Y-88.891
X238.622Y-165.814
X238.992Y-134.895
X241.498Y-88.486
X243.242Y-162.899
X244.44Y-134.49
X244.97Y-105.667
X248.132Y-71.142
X250.418Y-105.262
X253.579Y-70.737
X253.89Y-122.443
X254.093Y-148.385
X257.052Y-87.918
X259.338Y-122.038
X259.54Y-147.98
X262.499Y-87.513
X265.972Y-104.694
X269.133Y-70.168
X271.419Y-104.289
X274.58Y-69.764
X278.053Y-86.944
X283.5Y-86.54
X286.973Y-103.72
X291.543Y-71.844
X292.42Y-103.316
X296.99Y-71.439
X300.463Y-88.62
X305.91Y-88.215
X309.382Y-105.396
X314.83Y-104.991
T3
X99.576Y-99.737
X108.496Y-82.961
X117.416Y-66.185
X121.986Y-98.062
X130.906Y-81.286
X139.826Y-64.51
X142.987Y-99.036
X151.907Y-82.26
X154.866Y-142.726
X155.068Y-116.785
X160.827Y-65.483
X163.988Y-100.009
X169.967Y-129.237
X172.908Y-83.233
X173.303Y-159.572
X178.887Y-112.461
X181.674Y-183.101
X187.806Y-95.685
X223.806Y-95.685
X229.939Y-183.101
X232.726Y-112.461
X238.31Y-159.572
X238.705Y-83.233
X241.646Y-129.237
X247.625Y-100.009
X250.786Y-65.483
X256.545Y-116.785
X256.747Y-142.726
X259.706Y-82.26
X268.626Y-99.036
X271.787Y-64.51
X280.707Y-81.286
X289.627Y-98.062
X294.197Y-66.185
X303.117Y-82.961
X312.037Y-99.737
M30
