M48
; DRILL file {KiCad 8.0.1} date 2025-01-05T22:45:00+0200
; FORMAT={-:-/ absolute / metric / decimal}
; #@! TF.CreationDate,2025-01-05T22:45:00+02:00
; #@! TF.GenerationSoftware,Kicad,Pcbnew,8.0.1
; #@! TF.FileFunction,Plated,1,2,PTH
FMAT,2
METRIC
; #@! TA.AperFunction,Plated,PTH,ViaDrill
T1C0.300
; #@! TA.AperFunction,Plated,PTH,ViaDrill
T2C0.400
; #@! TA.AperFunction,Plated,PTH,ComponentDrill
T3C0.650
; #@! TA.AperFunction,Plated,PTH,ComponentDrill
T4C0.750
; #@! TA.AperFunction,Plated,PTH,ComponentDrill
T5C1.000
; #@! TA.AperFunction,Plated,PTH,ComponentDrill
T6C1.300
; #@! TA.AperFunction,Plated,PTH,ComponentDrill
T7C1.500
; #@! TA.AperFunction,Plated,PTH,ComponentDrill
T8C2.200
%
G90
G05
T1
X107.897Y-106.052
X108.344Y-98.106
X112.183Y-92.598
X118.914Y-58.25
X120.074Y-95.676
X121.493Y-58.223
X122.831Y-72.891
X124.859Y-109.488
X126.123Y-121.656
X133.779Y-92.712
X134.224Y-57.487
X142.706Y-75.983
X144.138Y-111.002
X146.224Y-121.903
X148.377Y-121.689
X149.09Y-96.14
X149.138Y-69.85
X152.797Y-110.682
X152.929Y-94.501
X157.942Y-128.211
X158.103Y-153.453
X162.045Y-77.43
X162.792Y-84.641
X165.209Y-111.843
X171.164Y-141.115
X172.663Y-171.092
X174.106Y-95.111
X175.813Y-190.444
X178.876Y-100.037
X179.141Y-80.423
X180.081Y-124.451
X181.128Y-129.33
X182.156Y-129.274
X184.355Y-126.728
X185.693Y-90.023
X190.674Y-107.121
X190.676Y-184.487
X190.977Y-185.229
X193.534Y-86.5
X193.684Y-84.0
X201.138Y-112.197
X203.266Y-112.897
X206.829Y-159.763
X207.708Y-140.908
X208.748Y-140.311
X208.829Y-159.813
X211.958Y-140.975
X213.275Y-140.387
X220.096Y-106.325
X221.424Y-185.12
X224.218Y-176.094
X226.534Y-88.108
X231.132Y-132.207
X231.406Y-131.36
X232.564Y-161.011
X232.74Y-98.399
X232.949Y-81.752
X236.504Y-152.596
X237.173Y-177.227
X239.178Y-111.797
X243.861Y-116.44
X247.512Y-157.785
X248.28Y-90.363
X249.33Y-129.557
X249.372Y-89.103
X251.192Y-141.196
X252.167Y-58.68
X257.853Y-109.975
X258.029Y-124.677
X258.583Y-104.082
X261.737Y-71.655
X262.92Y-97.541
X263.148Y-71.433
X265.275Y-145.363
X265.579Y-116.67
X265.85Y-62.9
X265.963Y-120.137
X270.256Y-87.909
X279.452Y-105.036
X282.478Y-70.424
X285.457Y-124.212
X287.149Y-70.564
X291.352Y-91.031
X291.469Y-87.332
X299.819Y-104.4
X303.13Y-68.9
X305.97Y-98.428
X312.006Y-85.7
T2
X97.116Y-101.59
X100.479Y-92.164
X102.484Y-98.484
X106.879Y-99.191
X109.285Y-75.497
X111.49Y-81.754
X115.643Y-84.201
X116.024Y-59.319
X120.41Y-65.091
X122.907Y-90.668
X124.767Y-66.401
X125.037Y-96.885
X129.309Y-99.395
X131.609Y-73.663
X132.807Y-68.865
X133.814Y-80.033
X135.746Y-124.139
X137.941Y-82.522
X138.253Y-57.546
X139.143Y-127.988
X142.754Y-63.324
X143.809Y-91.69
X146.002Y-97.896
X146.584Y-124.756
X146.858Y-65.858
X150.126Y-100.259
X152.752Y-74.87
X153.863Y-135.656
X154.878Y-81.096
X155.961Y-109.307
X157.202Y-119.393
X157.788Y-141.527
X158.02Y-115.555
X158.346Y-81.072
X159.355Y-58.618
X161.301Y-141.577
X161.528Y-115.665
X161.712Y-68.605
X163.956Y-64.348
X164.857Y-92.575
X166.896Y-98.756
X167.242Y-64.34
X168.301Y-77.941
X170.427Y-98.821
X170.846Y-121.707
X173.041Y-127.983
X173.806Y-75.532
X174.805Y-141.922
X175.381Y-105.8
X175.993Y-82.074
X176.382Y-128.093
X176.483Y-159.981
X177.672Y-153.356
X178.351Y-164.647
X178.672Y-69.298
X179.585Y-82.342
X179.792Y-104.99
X181.141Y-78.259
X181.92Y-101.006
X182.057Y-111.347
X184.345Y-184.951
X185.89Y-113.725
X186.346Y-187.761
X186.47Y-88.777
X186.695Y-178.03
X190.823Y-94.546
X193.847Y-105.511
X194.266Y-94.565
X196.125Y-162.925
X198.0Y-164.9
X210.8Y-169.75
X212.825Y-160.275
X212.825Y-168.1
X216.62Y-99.306
X217.25Y-92.95
X217.62Y-112.906
X217.62Y-108.356
X221.3Y-139.975
X222.738Y-183.943
X225.12Y-106.456
X225.513Y-90.281
X227.656Y-180.811
X229.395Y-176.214
X230.77Y-95.506
X231.228Y-160.2
X232.346Y-87.413
X232.99Y-78.293
X233.72Y-103.406
X235.18Y-126.569
X235.552Y-174.688
X237.488Y-156.337
X237.751Y-187.806
X237.918Y-104.44
X239.364Y-79.971
X241.91Y-95.069
X242.334Y-126.029
X243.543Y-78.118
X244.256Y-62.846
X244.278Y-123.195
X244.767Y-128.195
X248.328Y-96.723
X249.087Y-146.039
X250.117Y-140.117
X250.853Y-111.889
X251.445Y-62.221
X252.598Y-94.936
X254.391Y-77.22
X256.377Y-60.932
X257.248Y-113.499
X257.499Y-139.533
X259.281Y-110.806
X259.328Y-136.747
X259.778Y-141.587
X260.344Y-79.065
X260.411Y-116.933
X262.307Y-76.239
X262.911Y-94.096
X264.65Y-142.648
X264.914Y-124.842
X266.096Y-59.615
X269.264Y-95.841
X270.62Y-74.256
X271.227Y-93.015
X272.381Y-61.339
X272.974Y-127.356
X274.99Y-76.235
X275.473Y-124.112
X277.129Y-60.193
X281.263Y-78.149
X283.355Y-75.354
X283.912Y-93.122
X288.526Y-61.222
X290.07Y-100.956
X290.292Y-94.697
X292.275Y-92.13
X294.861Y-62.934
X296.819Y-60.098
X297.332Y-77.889
X303.717Y-79.801
X305.671Y-76.853
X306.299Y-94.754
X310.62Y-81.906
X312.787Y-96.545
X314.682Y-93.694
T3
X219.606Y-84.222
X220.727Y-83.626
T4
X198.006Y-162.822
X200.006Y-162.822
T5
X123.514Y-121.005
X125.861Y-116.59
X136.316Y-127.812
X137.49Y-125.605
X138.664Y-123.397
X198.186Y-86.525
X198.186Y-91.605
X198.186Y-106.845
X198.186Y-83.985
X198.186Y-89.065
X198.186Y-96.685
X198.186Y-101.765
X198.186Y-104.305
X198.186Y-109.385
X198.186Y-111.925
X198.186Y-94.145
X198.186Y-99.225
X200.726Y-109.385
X203.266Y-109.385
X205.806Y-109.385
X213.426Y-94.145
X213.426Y-99.225
X213.426Y-83.985
X213.426Y-89.065
X213.426Y-91.605
X213.426Y-96.685
X213.426Y-104.305
X213.426Y-109.385
X213.426Y-111.925
X213.426Y-86.525
X213.426Y-101.765
X213.426Y-106.845
X229.455Y-71.674
X233.096Y-68.248
X272.912Y-123.327
X274.085Y-125.534
X275.259Y-127.742
X285.714Y-116.519
X288.062Y-120.934
T6
X230.439Y-74.18
X235.538Y-69.384
T8
X109.138Y-101.99
X126.978Y-68.438
X157.119Y-133.165
X174.958Y-99.613
X180.741Y-170.598
X185.15Y-133.9
X193.525Y-160.925
X218.2Y-160.925
X226.55Y-133.9
X230.872Y-170.598
X236.654Y-99.613
X254.494Y-133.165
X284.635Y-68.438
X302.475Y-101.99
T7
X128.813Y-127.333G85X127.665Y-126.723
G05
X134.071Y-117.444G85X132.923Y-116.834
G05
X277.504Y-117.374G85X278.652Y-116.763
G05
X282.762Y-127.263G85X283.91Y-126.653
G05
M30
