G04 #@! TF.GenerationSoftware,KiCad,Pcbnew,8.0.1*
G04 #@! TF.CreationDate,2025-01-05T22:43:36+02:00*
G04 #@! TF.ProjectId,DeeDee_v1,44656544-6565-45f7-9631-2e6b69636164,v1.0.0*
G04 #@! TF.SameCoordinates,Original*
G04 #@! TF.FileFunction,Profile,NP*
%FSLAX46Y46*%
G04 Gerber Fmt 4.6, Leading zero omitted, Abs format (unit mm)*
G04 Created by KiCad (PCBNEW 8.0.1) date 2025-01-05 22:43:36*
%MOMM*%
%LPD*%
G01*
G04 APERTURE LIST*
G04 #@! TA.AperFunction,Profile*
%ADD10C,0.150000*%
G04 #@! TD*
G04 #@! TA.AperFunction,Profile*
%ADD11C,0.100000*%
G04 #@! TD*
G04 #@! TA.AperFunction,Profile*
%ADD12C,0.050000*%
G04 #@! TD*
G04 #@! TA.AperFunction,Profile*
%ADD13C,0.120000*%
G04 #@! TD*
G04 APERTURE END LIST*
D10*
X142064800Y-143370247D02*
X145405811Y-136743146D01*
X144741151Y-134186652D02*
G75*
G02*
X145405795Y-136743138I-1121252J-1656148D01*
G01*
X196863583Y-80144802D02*
X214749347Y-80144809D01*
X236146874Y-60808915D02*
X254937023Y-50818021D01*
X253294382Y-157026956D02*
X241573811Y-174403419D01*
X276456109Y-49642479D02*
X297645750Y-51226680D01*
X276214396Y-49639063D02*
G75*
G02*
X276456109Y-49642473I92704J-1996937D01*
G01*
X255783363Y-50586059D02*
X276214396Y-49639062D01*
X112350396Y-52282172D02*
G75*
G02*
X113967184Y-51226694I1765805J-938828D01*
G01*
X193659596Y-192901925D02*
X173931377Y-194975447D01*
X253294382Y-157026956D02*
G75*
G02*
X254033925Y-156368735I1658418J-1118744D01*
G01*
X102358569Y-113675152D02*
X86465514Y-105224666D01*
X239884841Y-193138235D02*
G75*
G02*
X237681552Y-194975458I-1994241J151835D01*
G01*
X241237661Y-175369974D02*
G75*
G02*
X241573838Y-174403441I1993740J-151727D01*
G01*
X105063410Y-112848200D02*
G75*
G02*
X102358571Y-113675148I-1765910J939000D01*
G01*
X117690407Y-115873149D02*
X109065497Y-110034041D01*
X306549530Y-112848197D02*
X305434552Y-110751251D01*
X156675911Y-50818027D02*
X175466060Y-60808919D01*
X170039119Y-174403420D02*
X158318541Y-157026963D01*
X254937023Y-50818022D02*
G75*
G02*
X255783363Y-50586050I939077J-1766279D01*
G01*
X235713497Y-61119914D02*
G75*
G02*
X236146875Y-60808918I1372103J-1454587D01*
G01*
X140939168Y-145488257D02*
X142044814Y-143408850D01*
X217744280Y-192890965D02*
G75*
G02*
X217953340Y-192901918I121J-1998336D01*
G01*
X241237661Y-175369974D02*
X239884842Y-193138235D01*
X157579002Y-156368747D02*
G75*
G02*
X158318549Y-157026957I-918302J-1776353D01*
G01*
X293922527Y-115873152D02*
G75*
G02*
X270288665Y-131873395I-13090427J-6119048D01*
G01*
X85638560Y-102519822D02*
X112350396Y-52282172D01*
X270673765Y-145488265D02*
G75*
G02*
X269826423Y-148203863I-1766065J-938935D01*
G01*
X297645750Y-51226681D02*
G75*
G02*
X299262546Y-52282164I-149150J-1994519D01*
G01*
X113967183Y-51226682D02*
X135156827Y-49642480D01*
X269826393Y-148203805D02*
X254033930Y-156368745D01*
X193659596Y-192901925D02*
G75*
G02*
X193868653Y-192890967I209003J-1987675D01*
G01*
X266207121Y-136743144D02*
G75*
G02*
X266871796Y-134186675I1785779J900344D01*
G01*
X173931377Y-194975447D02*
G75*
G02*
X171728067Y-193138233I-209077J1989047D01*
G01*
X135398537Y-49639062D02*
X155829568Y-50586061D01*
X302547435Y-110034039D02*
G75*
G02*
X305434511Y-110751273I1121165J-1656261D01*
G01*
X171728094Y-193138231D02*
X170375275Y-175369975D01*
X170039116Y-174403422D02*
G75*
G02*
X170375288Y-175369974I-1658516J-1118578D01*
G01*
X237681554Y-194975443D02*
X217953340Y-192901922D01*
X269568117Y-143408852D02*
X270673765Y-145488265D01*
X157579002Y-156368747D02*
X141786537Y-148203805D01*
X270288658Y-131873402D02*
X266871778Y-134186648D01*
X269568117Y-143408852D02*
G75*
G02*
X269548128Y-143370252I1772983J942652D01*
G01*
X155829568Y-50586062D02*
G75*
G02*
X156675910Y-50818029I-92668J-1998039D01*
G01*
X175899434Y-61119915D02*
X195491262Y-79599705D01*
X142064799Y-143370247D02*
G75*
G02*
X142044814Y-143408850I-1813999J914646D01*
G01*
X325147419Y-105224667D02*
X309254363Y-113675152D01*
X216121670Y-79599707D02*
G75*
G02*
X214749347Y-80144823I-1372268J1454707D01*
G01*
X106178379Y-110751247D02*
G75*
G02*
X109065500Y-110034037I1765921J-939053D01*
G01*
X299262537Y-52282169D02*
X325974372Y-102519827D01*
X106178379Y-110751247D02*
X105063411Y-112848200D01*
X141324270Y-131873402D02*
G75*
G02*
X117690406Y-115873148I-10543400J9881252D01*
G01*
X216121670Y-79599708D02*
X235713497Y-61119914D01*
X309254363Y-113675152D02*
G75*
G02*
X306549481Y-112848223I-938962J1765952D01*
G01*
X175466060Y-60808919D02*
G75*
G02*
X175899436Y-61119912I-938860J-1765781D01*
G01*
X266207121Y-136743144D02*
X269548128Y-143370252D01*
X135156827Y-49642481D02*
G75*
G02*
X135398537Y-49639063I149075J-1994020D01*
G01*
X302547435Y-110034038D02*
X293922528Y-115873152D01*
X141786537Y-148203804D02*
G75*
G02*
X140939178Y-145488263I918565J1776605D01*
G01*
X325974372Y-102519827D02*
G75*
G02*
X325147433Y-105224693I-1765872J-938973D01*
G01*
X196863583Y-80144802D02*
G75*
G02*
X195491242Y-79599726I-84J1999902D01*
G01*
X86465514Y-105224666D02*
G75*
G02*
X85638580Y-102519832I938886J1765865D01*
G01*
X217744280Y-192890965D02*
X193868653Y-192890967D01*
X144741151Y-134186651D02*
X141324271Y-131873403D01*
D11*
X196806465Y-174236689D02*
G75*
G02*
X194806467Y-174236689I-999999J0D01*
G01*
X194806467Y-174236689D02*
G75*
G02*
X196806465Y-174236689I999999J0D01*
G01*
X216806467Y-174236688D02*
G75*
G02*
X214806467Y-174236688I-1000000J0D01*
G01*
X214806467Y-174236688D02*
G75*
G02*
X216806467Y-174236688I1000000J0D01*
G01*
D12*
X189806468Y-136736688D02*
X189806468Y-147736688D01*
X188806467Y-147736689D01*
X188806467Y-136736687D01*
X189806468Y-136736688D01*
D11*
X212220251Y-183236687D02*
X199420251Y-183236688D01*
X199420251Y-176236688D01*
X212220250Y-176236688D01*
X212220251Y-183236687D01*
D13*
X268736258Y-95409174D02*
X265557646Y-97099272D01*
X264102284Y-94362134D01*
X267280896Y-92672036D01*
X268736258Y-95409174D01*
X289737511Y-94435740D02*
X286558899Y-96125838D01*
X285103537Y-93388700D01*
X288282149Y-91698602D01*
X289737511Y-94435740D01*
X256857450Y-139100059D02*
X253678838Y-140790157D01*
X252223476Y-138053019D01*
X255402088Y-136362921D01*
X256857450Y-139100059D01*
X168511891Y-95335561D02*
X167056529Y-98072699D01*
X163877917Y-96382601D01*
X165333279Y-93645463D01*
X168511891Y-95335561D01*
X223916938Y-92058349D02*
X220738326Y-93748447D01*
X219282964Y-91011309D01*
X222461576Y-89321211D01*
X223916938Y-92058349D01*
X183410011Y-107787312D02*
X181954649Y-110524450D01*
X178776037Y-108834352D01*
X180231399Y-106097214D01*
X183410011Y-107787312D01*
X174490048Y-124563314D02*
X173034686Y-127300452D01*
X169856074Y-125610354D01*
X171311436Y-122873216D01*
X174490048Y-124563314D01*
X165350562Y-60810120D02*
X163895200Y-63547258D01*
X160716588Y-61857160D01*
X162171950Y-59120022D01*
X165350562Y-60810120D01*
X104099733Y-95064111D02*
X102644371Y-97801249D01*
X99465759Y-96111151D01*
X100921121Y-93374013D01*
X104099733Y-95064111D01*
X121939652Y-61512102D02*
X120484290Y-64249240D01*
X117305678Y-62559142D01*
X118761040Y-59822004D01*
X121939652Y-61512102D01*
X247735017Y-96382606D02*
X244556405Y-98072704D01*
X243101043Y-95335566D01*
X246279655Y-93645468D01*
X247735017Y-96382606D01*
X156430603Y-77586128D02*
X154975241Y-80323266D01*
X151796629Y-78633168D01*
X153251991Y-75896030D01*
X156430603Y-77586128D01*
X232836895Y-108834352D02*
X229658283Y-110524450D01*
X228202921Y-107787312D01*
X231381533Y-106097214D01*
X232836895Y-108834352D01*
X238815052Y-79606598D02*
X235636440Y-81296696D01*
X234181078Y-78559558D01*
X237359690Y-76869460D01*
X238815052Y-79606598D01*
X226994056Y-180981637D02*
X226617754Y-184561917D01*
X223534736Y-184237877D01*
X223911038Y-180657597D01*
X226994056Y-180981637D01*
X159389454Y-138053018D02*
X157934092Y-140790156D01*
X154755480Y-139100058D01*
X156210842Y-136362920D01*
X159389454Y-138053018D01*
X192329966Y-91011308D02*
X190874604Y-93748446D01*
X187695992Y-92058348D01*
X189151354Y-89321210D01*
X192329966Y-91011308D01*
X259816303Y-78633169D02*
X256637691Y-80323267D01*
X255182329Y-77586129D01*
X258360941Y-75896031D01*
X259816303Y-78633169D01*
X236704626Y-156317957D02*
X234691531Y-159302492D01*
X232121516Y-157568993D01*
X234134611Y-154584458D01*
X236704626Y-156317957D01*
X179491411Y-157568991D02*
X176921397Y-159302491D01*
X174908305Y-156317957D01*
X177478319Y-154584457D01*
X179491411Y-157568991D01*
X113019692Y-78288108D02*
X111564330Y-81025246D01*
X108385718Y-79335148D01*
X109841080Y-76598010D01*
X113019692Y-78288108D01*
X256654975Y-113158604D02*
X253476363Y-114848702D01*
X252021001Y-112111564D01*
X255199613Y-110421466D01*
X256654975Y-113158604D01*
X280817547Y-77659733D02*
X277638935Y-79349831D01*
X276183573Y-76612693D01*
X279362185Y-74922595D01*
X280817547Y-77659733D01*
X312147175Y-96111150D02*
X308968563Y-97801248D01*
X307513201Y-95064110D01*
X310691813Y-93374012D01*
X312147175Y-96111150D01*
X126509395Y-93388700D02*
X125054033Y-96125838D01*
X121875421Y-94435740D01*
X123330783Y-91698602D01*
X126509395Y-93388700D01*
X303227215Y-79335141D02*
X300048603Y-81025239D01*
X298593241Y-78288101D01*
X301771853Y-76598003D01*
X303227215Y-79335141D01*
X271897593Y-60883733D02*
X268718981Y-62573831D01*
X267263619Y-59836693D01*
X270442231Y-58146595D01*
X271897593Y-60883733D01*
X159591930Y-112111574D02*
X158136568Y-114848712D01*
X154957956Y-113158614D01*
X156413318Y-110421476D01*
X159591930Y-112111574D01*
X135429353Y-76612694D02*
X133973991Y-79349832D01*
X130795379Y-77659734D01*
X132250741Y-74922596D01*
X135429353Y-76612694D01*
X250896345Y-61857162D02*
X247717733Y-63547260D01*
X246262371Y-60810122D01*
X249440983Y-59120024D01*
X250896345Y-61857162D01*
X144349313Y-59836691D02*
X142893951Y-62573829D01*
X139715339Y-60883731D01*
X141170701Y-58146593D01*
X144349313Y-59836691D01*
X177431846Y-78559558D02*
X175976484Y-81296696D01*
X172797872Y-79606598D01*
X174253234Y-76869460D01*
X177431846Y-78559558D01*
X147510644Y-94362129D02*
X146055282Y-97099267D01*
X142876670Y-95409169D01*
X144332032Y-92672031D01*
X147510644Y-94362129D01*
X241756854Y-125610354D02*
X238578242Y-127300452D01*
X237122880Y-124563314D01*
X240301492Y-122873216D01*
X241756854Y-125610354D01*
X188078192Y-184237875D02*
X184995173Y-184561914D01*
X184618872Y-180981635D01*
X187701891Y-180657596D01*
X188078192Y-184237875D01*
X294307253Y-62559140D02*
X291128641Y-64249238D01*
X289673279Y-61512100D01*
X292851891Y-59822002D01*
X294307253Y-62559140D01*
M02*
