%TF.GenerationSoftware,KiCad,Pcbnew,8.0.1*%
%TF.CreationDate,2025-01-05T22:45:02+02:00*%
%TF.ProjectId,DeeDee_v1,44656544-6565-45f7-9631-2e6b69636164,v1.0.0*%
%TF.SameCoordinates,Original*%
%TF.FileFunction,Drillmap*%
%TF.FilePolarity,Positive*%
%FSLAX45Y45*%
G04 Gerber Fmt 4.5, Leading zero omitted, Abs format (unit mm)*
G04 Created by KiCad (PCBNEW 8.0.1) date 2025-01-05 22:45:02*
%MOMM*%
%LPD*%
G01*
G04 APERTURE LIST*
%ADD10C,0.150000*%
%ADD11C,0.100000*%
%ADD12C,0.050000*%
%ADD13C,0.120000*%
%ADD14C,0.200000*%
%ADD15C,0.130000*%
%ADD16C,0.220000*%
G04 APERTURE END LIST*
D10*
X14206480Y-14337025D02*
X14540581Y-13674315D01*
X14474115Y-13418665D02*
G75*
G02*
X14540579Y-13674314I-112125J-165615D01*
G01*
X19686358Y-8014480D02*
X21474935Y-8014481D01*
X23614687Y-6080891D02*
X25493702Y-5081802D01*
X25329438Y-15702696D02*
X24157381Y-17440342D01*
X27645611Y-4964248D02*
X29764575Y-5122668D01*
X27621440Y-4963906D02*
G75*
G02*
X27645611Y-4964247I9270J-199694D01*
G01*
X25578336Y-5058606D02*
X27621440Y-4963906D01*
X11235040Y-5228217D02*
G75*
G02*
X11396718Y-5122669I176581J-93883D01*
G01*
X19365960Y-19290193D02*
X17393138Y-19497545D01*
X25329438Y-15702696D02*
G75*
G02*
X25403392Y-15636873I165842J-111874D01*
G01*
X10235857Y-11367515D02*
X8646551Y-10522467D01*
X23988484Y-19313824D02*
G75*
G02*
X23768155Y-19497546I-199424J15184D01*
G01*
X24123766Y-17536997D02*
G75*
G02*
X24157384Y-17440344I199374J-15173D01*
G01*
X10506341Y-11284820D02*
G75*
G02*
X10235857Y-11367515I-176591J93900D01*
G01*
X11769041Y-11587315D02*
X10906550Y-11003404D01*
X30654953Y-11284820D02*
X30543455Y-11075125D01*
X15667591Y-5081803D02*
X17546606Y-6080892D01*
X17003912Y-17440342D02*
X15831854Y-15702696D01*
X25493702Y-5081802D02*
G75*
G02*
X25578336Y-5058605I93908J-176628D01*
G01*
X23571350Y-6111991D02*
G75*
G02*
X23614687Y-6080892I137210J-145459D01*
G01*
X14093917Y-14548826D02*
X14204481Y-14340885D01*
X21774428Y-19289097D02*
G75*
G02*
X21795334Y-19290192I12J-199834D01*
G01*
X24123766Y-17536997D02*
X23988484Y-19313824D01*
X15757900Y-15636875D02*
G75*
G02*
X15831855Y-15702696I-91830J-177635D01*
G01*
X29392253Y-11587315D02*
G75*
G02*
X27028866Y-13187339I-1309043J-611905D01*
G01*
X8563856Y-10251982D02*
X11235040Y-5228217D01*
X27067376Y-14548826D02*
G75*
G02*
X26982642Y-14820386I-176607J-93894D01*
G01*
X29764575Y-5122668D02*
G75*
G02*
X29926255Y-5228216I-14915J-199452D01*
G01*
X11396718Y-5122668D02*
X13515683Y-4964248D01*
X26982639Y-14820380D02*
X25403393Y-15636874D01*
X19365960Y-19290193D02*
G75*
G02*
X19386865Y-19289097I20900J-198768D01*
G01*
X26620712Y-13674314D02*
G75*
G02*
X26687180Y-13418667I178578J90034D01*
G01*
X17393138Y-19497545D02*
G75*
G02*
X17172807Y-19313823I-20908J198905D01*
G01*
X13539854Y-4963906D02*
X15582957Y-5058606D01*
X30254743Y-11003404D02*
G75*
G02*
X30543451Y-11075127I112117J-165626D01*
G01*
X17172809Y-19313823D02*
X17037528Y-17536998D01*
X17003912Y-17440342D02*
G75*
G02*
X17037529Y-17536997I-165852J-111858D01*
G01*
X23768155Y-19497544D02*
X21795334Y-19290192D01*
X26956812Y-14340885D02*
X27067376Y-14548826D01*
X15757900Y-15636875D02*
X14178654Y-14820380D01*
X27028866Y-13187340D02*
X26687178Y-13418665D01*
X26956812Y-14340885D02*
G75*
G02*
X26954813Y-14337025I177298J94265D01*
G01*
X15582957Y-5058606D02*
G75*
G02*
X15667591Y-5081803I-9267J-199804D01*
G01*
X17589943Y-6111991D02*
X19549126Y-7959970D01*
X14206480Y-14337025D02*
G75*
G02*
X14204481Y-14340885I-181400J91465D01*
G01*
X32514742Y-10522467D02*
X30925436Y-11367515D01*
X21612167Y-7959971D02*
G75*
G02*
X21474935Y-8014482I-137227J145471D01*
G01*
X10617838Y-11075125D02*
G75*
G02*
X10906550Y-11003404I176592J-93905D01*
G01*
X29926254Y-5228217D02*
X32597437Y-10251983D01*
X10617838Y-11075125D02*
X10506341Y-11284820D01*
X14132427Y-13187340D02*
G75*
G02*
X11769041Y-11587315I-1054340J988125D01*
G01*
X21612167Y-7959971D02*
X23571350Y-6111991D01*
X30925436Y-11367515D02*
G75*
G02*
X30654948Y-11284822I-93896J176595D01*
G01*
X17546606Y-6080892D02*
G75*
G02*
X17589944Y-6111991I-93886J-176578D01*
G01*
X26620712Y-13674314D02*
X26954813Y-14337025D01*
X13515683Y-4964248D02*
G75*
G02*
X13539854Y-4963906I14908J-199402D01*
G01*
X30254743Y-11003404D02*
X29392253Y-11587315D01*
X14178654Y-14820380D02*
G75*
G02*
X14093918Y-14548826I91857J177661D01*
G01*
X32597437Y-10251983D02*
G75*
G02*
X32514743Y-10522469I-176587J-93897D01*
G01*
X19686358Y-8014480D02*
G75*
G02*
X19549124Y-7959973I-8J199990D01*
G01*
X8646551Y-10522467D02*
G75*
G02*
X8563858Y-10251983I93889J176587D01*
G01*
X21774428Y-19289097D02*
X19386865Y-19289097D01*
X14474115Y-13418665D02*
X14132427Y-13187340D01*
D11*
X19680647Y-17423669D02*
G75*
G02*
X19480647Y-17423669I-100000J0D01*
G01*
X19480647Y-17423669D02*
G75*
G02*
X19680647Y-17423669I100000J0D01*
G01*
X21680647Y-17423669D02*
G75*
G02*
X21480647Y-17423669I-100000J0D01*
G01*
X21480647Y-17423669D02*
G75*
G02*
X21680647Y-17423669I100000J0D01*
G01*
D12*
X18980647Y-13673669D02*
X18980647Y-14773669D01*
X18880647Y-14773669D01*
X18880647Y-13673669D01*
X18980647Y-13673669D01*
D11*
X21222025Y-18323669D02*
X19942025Y-18323669D01*
X19942025Y-17623669D01*
X21222025Y-17623669D01*
X21222025Y-18323669D01*
D13*
X26873626Y-9540917D02*
X26555765Y-9709927D01*
X26410228Y-9436213D01*
X26728090Y-9267204D01*
X26873626Y-9540917D01*
X28973751Y-9443574D02*
X28655890Y-9612584D01*
X28510354Y-9338870D01*
X28828215Y-9169860D01*
X28973751Y-9443574D01*
X25685745Y-13910006D02*
X25367884Y-14079016D01*
X25222348Y-13805302D01*
X25540209Y-13636292D01*
X25685745Y-13910006D01*
X16851189Y-9533556D02*
X16705653Y-9807270D01*
X16387792Y-9638260D01*
X16533328Y-9364546D01*
X16851189Y-9533556D01*
X22391694Y-9205835D02*
X22073833Y-9374845D01*
X21928296Y-9101131D01*
X22246158Y-8932121D01*
X22391694Y-9205835D01*
X18341001Y-10778731D02*
X18195465Y-11052445D01*
X17877604Y-10883435D01*
X18023140Y-10609721D01*
X18341001Y-10778731D01*
X17449005Y-12456331D02*
X17303469Y-12730045D01*
X16985607Y-12561035D01*
X17131144Y-12287322D01*
X17449005Y-12456331D01*
X16535056Y-6081012D02*
X16389520Y-6354726D01*
X16071659Y-6185716D01*
X16217195Y-5912002D01*
X16535056Y-6081012D01*
X10409973Y-9506411D02*
X10264437Y-9780125D01*
X9946576Y-9611115D01*
X10092112Y-9337401D01*
X10409973Y-9506411D01*
X12193965Y-6151210D02*
X12048429Y-6424924D01*
X11730568Y-6255914D01*
X11876104Y-5982200D01*
X12193965Y-6151210D01*
X24773502Y-9638261D02*
X24455640Y-9807270D01*
X24310104Y-9533557D01*
X24627965Y-9364547D01*
X24773502Y-9638261D01*
X15643060Y-7758613D02*
X15497524Y-8032327D01*
X15179663Y-7863317D01*
X15325199Y-7589603D01*
X15643060Y-7758613D01*
X23283689Y-10883435D02*
X22965828Y-11052445D01*
X22820292Y-10778731D01*
X23138153Y-10609721D01*
X23283689Y-10883435D01*
X23881505Y-7960660D02*
X23563644Y-8129670D01*
X23418108Y-7855956D01*
X23735969Y-7686946D01*
X23881505Y-7960660D01*
X22699406Y-18098164D02*
X22661775Y-18456192D01*
X22353474Y-18423788D01*
X22391104Y-18065760D01*
X22699406Y-18098164D01*
X15938945Y-13805302D02*
X15793409Y-14079016D01*
X15475548Y-13910006D01*
X15621084Y-13636292D01*
X15938945Y-13805302D01*
X19232997Y-9101131D02*
X19087460Y-9374845D01*
X18769599Y-9205835D01*
X18915135Y-8932121D01*
X19232997Y-9101131D01*
X25981630Y-7863317D02*
X25663769Y-8032327D01*
X25518233Y-7758613D01*
X25836094Y-7589603D01*
X25981630Y-7863317D01*
X23670463Y-15631796D02*
X23469153Y-15930249D01*
X23212152Y-15756899D01*
X23413461Y-15458446D01*
X23670463Y-15631796D01*
X17949141Y-15756899D02*
X17692140Y-15930249D01*
X17490831Y-15631796D01*
X17747832Y-15458446D01*
X17949141Y-15756899D01*
X11301969Y-7828811D02*
X11156433Y-8102525D01*
X10838572Y-7933515D01*
X10984108Y-7659801D01*
X11301969Y-7828811D01*
X25665497Y-11315860D02*
X25347636Y-11484870D01*
X25202100Y-11211156D01*
X25519961Y-11042147D01*
X25665497Y-11315860D01*
X28081755Y-7765973D02*
X27763893Y-7934983D01*
X27618357Y-7661269D01*
X27936218Y-7492259D01*
X28081755Y-7765973D01*
X31214717Y-9611115D02*
X30896856Y-9780125D01*
X30751320Y-9506411D01*
X31069181Y-9337401D01*
X31214717Y-9611115D01*
X12650939Y-9338870D02*
X12505403Y-9612584D01*
X12187542Y-9443574D01*
X12333078Y-9169860D01*
X12650939Y-9338870D01*
X30322721Y-7933514D02*
X30004860Y-8102524D01*
X29859324Y-7828810D01*
X30177185Y-7659800D01*
X30322721Y-7933514D01*
X27189759Y-6088373D02*
X26871898Y-6257383D01*
X26726362Y-5983669D01*
X27044223Y-5814659D01*
X27189759Y-6088373D01*
X15959193Y-11211157D02*
X15813657Y-11484871D01*
X15495796Y-11315861D01*
X15641332Y-11042148D01*
X15959193Y-11211157D01*
X13542935Y-7661269D02*
X13397399Y-7934983D01*
X13079538Y-7765973D01*
X13225074Y-7492260D01*
X13542935Y-7661269D01*
X25089634Y-6185716D02*
X24771773Y-6354726D01*
X24626237Y-6081012D01*
X24944098Y-5912002D01*
X25089634Y-6185716D01*
X14434931Y-5983669D02*
X14289395Y-6257383D01*
X13971534Y-6088373D01*
X14117070Y-5814659D01*
X14434931Y-5983669D01*
X17743185Y-7855956D02*
X17597648Y-8129670D01*
X17279787Y-7960660D01*
X17425323Y-7686946D01*
X17743185Y-7855956D01*
X14751064Y-9436213D02*
X14605528Y-9709927D01*
X14287667Y-9540917D01*
X14433203Y-9267203D01*
X14751064Y-9436213D01*
X24175685Y-12561035D02*
X23857824Y-12730045D01*
X23712288Y-12456331D01*
X24030149Y-12287322D01*
X24175685Y-12561035D01*
X18807819Y-18423788D02*
X18499517Y-18456191D01*
X18461887Y-18098164D01*
X18770189Y-18065760D01*
X18807819Y-18423788D01*
X29430725Y-6255914D02*
X29112864Y-6424924D01*
X28967328Y-6151210D01*
X29285189Y-5982200D01*
X29430725Y-6255914D01*
D14*
D11*
X10774696Y-10590243D02*
X10804696Y-10620243D01*
X10804696Y-10590243D02*
X10774696Y-10620243D01*
X10819398Y-9795589D02*
X10849398Y-9825589D01*
X10849398Y-9795589D02*
X10819398Y-9825589D01*
X11203253Y-9244844D02*
X11233253Y-9274844D01*
X11233253Y-9244844D02*
X11203253Y-9274844D01*
X11876390Y-5810025D02*
X11906390Y-5840025D01*
X11906390Y-5810025D02*
X11876390Y-5840025D01*
X11992403Y-9552630D02*
X12022403Y-9582630D01*
X12022403Y-9552630D02*
X11992403Y-9582630D01*
X12134350Y-5807293D02*
X12164350Y-5837293D01*
X12164350Y-5807293D02*
X12134350Y-5837293D01*
X12268113Y-7274083D02*
X12298113Y-7304083D01*
X12298113Y-7274083D02*
X12268113Y-7304083D01*
X12470914Y-10933809D02*
X12500914Y-10963809D01*
X12500914Y-10933809D02*
X12470914Y-10963809D01*
X12597278Y-12150556D02*
X12627278Y-12180556D01*
X12627278Y-12150556D02*
X12597278Y-12180556D01*
X13362910Y-9256208D02*
X13392910Y-9286208D01*
X13392910Y-9256208D02*
X13362910Y-9286208D01*
X13407351Y-5733722D02*
X13437351Y-5763722D01*
X13437351Y-5733722D02*
X13407351Y-5763722D01*
X14255565Y-7583334D02*
X14285565Y-7613334D01*
X14285565Y-7583334D02*
X14255565Y-7613334D01*
X14398778Y-11085224D02*
X14428778Y-11115224D01*
X14428778Y-11085224D02*
X14398778Y-11115224D01*
X14607408Y-12175338D02*
X14637408Y-12205338D01*
X14637408Y-12175338D02*
X14607408Y-12205338D01*
X14822675Y-12153889D02*
X14852675Y-12183889D01*
X14852675Y-12153889D02*
X14822675Y-12183889D01*
X14893998Y-9598999D02*
X14923998Y-9628999D01*
X14923998Y-9598999D02*
X14893998Y-9628999D01*
X14898807Y-6969983D02*
X14928807Y-6999983D01*
X14928807Y-6969983D02*
X14898807Y-6999983D01*
X15264661Y-11053237D02*
X15294661Y-11083237D01*
X15294661Y-11053237D02*
X15264661Y-11083237D01*
X15277926Y-9435086D02*
X15307926Y-9465086D01*
X15307926Y-9435086D02*
X15277926Y-9465086D01*
X15779168Y-12806095D02*
X15809168Y-12836095D01*
X15809168Y-12806095D02*
X15779168Y-12836095D01*
X15795257Y-15330332D02*
X15825257Y-15360332D01*
X15825257Y-15330332D02*
X15795257Y-15360332D01*
X16189532Y-7727956D02*
X16219532Y-7757956D01*
X16219532Y-7727956D02*
X16189532Y-7757956D01*
X16264209Y-8449140D02*
X16294209Y-8479140D01*
X16294209Y-8449140D02*
X16264209Y-8479140D01*
X16505945Y-11169324D02*
X16535945Y-11199324D01*
X16535945Y-11169324D02*
X16505945Y-11199324D01*
X17101413Y-14096514D02*
X17131413Y-14126514D01*
X17131413Y-14096514D02*
X17101413Y-14126514D01*
X17251265Y-17094180D02*
X17281265Y-17124180D01*
X17281265Y-17094180D02*
X17251265Y-17124180D01*
X17395594Y-9496138D02*
X17425594Y-9526138D01*
X17425594Y-9496138D02*
X17395594Y-9526138D01*
X17566350Y-19029440D02*
X17596350Y-19059440D01*
X17596350Y-19029440D02*
X17566350Y-19059440D01*
X17872622Y-9988749D02*
X17902622Y-10018749D01*
X17902622Y-9988749D02*
X17872622Y-10018749D01*
X17899069Y-8027280D02*
X17929069Y-8057280D01*
X17929069Y-8027280D02*
X17899069Y-8057280D01*
X17993129Y-12430090D02*
X18023129Y-12460090D01*
X18023129Y-12430090D02*
X17993129Y-12460090D01*
X18097753Y-12917995D02*
X18127753Y-12947995D01*
X18127753Y-12917995D02*
X18097753Y-12947995D01*
X18200563Y-12912449D02*
X18230563Y-12942449D01*
X18230563Y-12912449D02*
X18200563Y-12942449D01*
X18420464Y-12657790D02*
X18450464Y-12687790D01*
X18450464Y-12657790D02*
X18420464Y-12687790D01*
X18554265Y-8987274D02*
X18584265Y-9017274D01*
X18584265Y-8987274D02*
X18554265Y-9017274D01*
X19052448Y-10697055D02*
X19082448Y-10727055D01*
X19082448Y-10697055D02*
X19052448Y-10727055D01*
X19052623Y-18433749D02*
X19082623Y-18463749D01*
X19082623Y-18433749D02*
X19052623Y-18463749D01*
X19082680Y-18507889D02*
X19112680Y-18537889D01*
X19112680Y-18507889D02*
X19082680Y-18537889D01*
X19338366Y-8635032D02*
X19368366Y-8665032D01*
X19368366Y-8635032D02*
X19338366Y-8665032D01*
X19353366Y-8385031D02*
X19383366Y-8415031D01*
X19383366Y-8385031D02*
X19353366Y-8415031D01*
X20098797Y-11204725D02*
X20128797Y-11234725D01*
X20128797Y-11204725D02*
X20098797Y-11234725D01*
X20311647Y-11274725D02*
X20341647Y-11304725D01*
X20341647Y-11274725D02*
X20311647Y-11304725D01*
X20667890Y-15961282D02*
X20697890Y-15991282D01*
X20697890Y-15961282D02*
X20667890Y-15991282D01*
X20755758Y-14075758D02*
X20785758Y-14105758D01*
X20785758Y-14075758D02*
X20755758Y-14105758D01*
X20859767Y-14016128D02*
X20889767Y-14046128D01*
X20889767Y-14016128D02*
X20859767Y-14046128D01*
X20867889Y-15966282D02*
X20897889Y-15996282D01*
X20897889Y-15966282D02*
X20867889Y-15996282D01*
X21180759Y-14082500D02*
X21210759Y-14112500D01*
X21210759Y-14082500D02*
X21180759Y-14112500D01*
X21312500Y-14023669D02*
X21342500Y-14053669D01*
X21342500Y-14023669D02*
X21312500Y-14053669D01*
X21994570Y-10617526D02*
X22024570Y-10647526D01*
X22024570Y-10617526D02*
X21994570Y-10647526D01*
X22127397Y-18496950D02*
X22157397Y-18526950D01*
X22157397Y-18496950D02*
X22127397Y-18526950D01*
X22406815Y-17594444D02*
X22436815Y-17624444D01*
X22436815Y-17594444D02*
X22406815Y-17624444D01*
X22638417Y-8795814D02*
X22668417Y-8825814D01*
X22668417Y-8795814D02*
X22638417Y-8825814D01*
X23098223Y-13205702D02*
X23128223Y-13235702D01*
X23128223Y-13205702D02*
X23098223Y-13235702D01*
X23125566Y-13120991D02*
X23155566Y-13150991D01*
X23155566Y-13120991D02*
X23125566Y-13150991D01*
X23241372Y-16086087D02*
X23271372Y-16116087D01*
X23271372Y-16086087D02*
X23241372Y-16116087D01*
X23258998Y-9824928D02*
X23288998Y-9854928D01*
X23288998Y-9824928D02*
X23258998Y-9854928D01*
X23279928Y-8160248D02*
X23309928Y-8190248D01*
X23309928Y-8160248D02*
X23279928Y-8190248D01*
X23635435Y-15244589D02*
X23665435Y-15274589D01*
X23665435Y-15244589D02*
X23635435Y-15274589D01*
X23702265Y-17707700D02*
X23732265Y-17737700D01*
X23732265Y-17707700D02*
X23702265Y-17737700D01*
X23902789Y-11164741D02*
X23932789Y-11194741D01*
X23932789Y-11164741D02*
X23902789Y-11194741D01*
X24371128Y-11628984D02*
X24401128Y-11658984D01*
X24401128Y-11628984D02*
X24371128Y-11658984D01*
X24736219Y-15763493D02*
X24766219Y-15793493D01*
X24766219Y-15763493D02*
X24736219Y-15793493D01*
X24813042Y-9021280D02*
X24843042Y-9051280D01*
X24843042Y-9021280D02*
X24813042Y-9051280D01*
X24917980Y-12940671D02*
X24947980Y-12970671D01*
X24947980Y-12940671D02*
X24917980Y-12970671D01*
X24922234Y-8895268D02*
X24952234Y-8925268D01*
X24952234Y-8895268D02*
X24922234Y-8925268D01*
X25104174Y-14104619D02*
X25134174Y-14134619D01*
X25134174Y-14104619D02*
X25104174Y-14134619D01*
X25201672Y-5852971D02*
X25231672Y-5882971D01*
X25231672Y-5852971D02*
X25201672Y-5882971D01*
X25770335Y-10982483D02*
X25800335Y-11012483D01*
X25800335Y-10982483D02*
X25770335Y-11012483D01*
X25787896Y-12452729D02*
X25817896Y-12482729D01*
X25817896Y-12452729D02*
X25787896Y-12482729D01*
X25843281Y-10393199D02*
X25873281Y-10423199D01*
X25873281Y-10393199D02*
X25843281Y-10423199D01*
X26158738Y-7150540D02*
X26188738Y-7180540D01*
X26188738Y-7150540D02*
X26158738Y-7180540D01*
X26276961Y-9739095D02*
X26306961Y-9769095D01*
X26306961Y-9739095D02*
X26276961Y-9769095D01*
X26299824Y-7128328D02*
X26329824Y-7158328D01*
X26329824Y-7128328D02*
X26299824Y-7158328D01*
X26512477Y-14521252D02*
X26542477Y-14551252D01*
X26542477Y-14521252D02*
X26512477Y-14551252D01*
X26542911Y-11651966D02*
X26572911Y-11681966D01*
X26572911Y-11651966D02*
X26542911Y-11681966D01*
X26569963Y-6274997D02*
X26599963Y-6304997D01*
X26599963Y-6274997D02*
X26569963Y-6304997D01*
X26581257Y-11998689D02*
X26611257Y-12028689D01*
X26611257Y-11998689D02*
X26581257Y-12028689D01*
X27010623Y-8775851D02*
X27040623Y-8805851D01*
X27040623Y-8775851D02*
X27010623Y-8805851D01*
X27930227Y-10488630D02*
X27960227Y-10518630D01*
X27960227Y-10488630D02*
X27930227Y-10518630D01*
X28232835Y-7027395D02*
X28262835Y-7057395D01*
X28262835Y-7027395D02*
X28232835Y-7057395D01*
X28530743Y-12406156D02*
X28560743Y-12436156D01*
X28560743Y-12406156D02*
X28530743Y-12436156D01*
X28699936Y-7041364D02*
X28729936Y-7071364D01*
X28729936Y-7041364D02*
X28699936Y-7071364D01*
X29120194Y-9088074D02*
X29150194Y-9118074D01*
X29150194Y-9088074D02*
X29120194Y-9118074D01*
X29131874Y-8718240D02*
X29161874Y-8748240D01*
X29161874Y-8718240D02*
X29131874Y-8748240D01*
X29966882Y-10425035D02*
X29996882Y-10455035D01*
X29996882Y-10425035D02*
X29966882Y-10455035D01*
X30298030Y-6875008D02*
X30328030Y-6905008D01*
X30328030Y-6875008D02*
X30298030Y-6905008D01*
X30582029Y-9827814D02*
X30612029Y-9857814D01*
X30612029Y-9827814D02*
X30582029Y-9857814D01*
X31185611Y-8554955D02*
X31215611Y-8584955D01*
X31215611Y-8554955D02*
X31185611Y-8584955D01*
X9731577Y-10158963D02*
G75*
G02*
X9691577Y-10158963I-20000J0D01*
G01*
X9691577Y-10158963D02*
G75*
G02*
X9731577Y-10158963I20000J0D01*
G01*
X10067937Y-9216398D02*
G75*
G02*
X10027937Y-9216398I-20000J0D01*
G01*
X10027937Y-9216398D02*
G75*
G02*
X10067937Y-9216398I20000J0D01*
G01*
X10268409Y-9848424D02*
G75*
G02*
X10228409Y-9848424I-20000J0D01*
G01*
X10228409Y-9848424D02*
G75*
G02*
X10268409Y-9848424I20000J0D01*
G01*
X10707944Y-9919118D02*
G75*
G02*
X10667944Y-9919118I-20000J0D01*
G01*
X10667944Y-9919118D02*
G75*
G02*
X10707944Y-9919118I20000J0D01*
G01*
X10948475Y-7549694D02*
G75*
G02*
X10908475Y-7549694I-20000J0D01*
G01*
X10908475Y-7549694D02*
G75*
G02*
X10948475Y-7549694I20000J0D01*
G01*
X11169009Y-8175399D02*
G75*
G02*
X11129009Y-8175399I-20000J0D01*
G01*
X11129009Y-8175399D02*
G75*
G02*
X11169009Y-8175399I20000J0D01*
G01*
X11584283Y-8420067D02*
G75*
G02*
X11544283Y-8420067I-20000J0D01*
G01*
X11544283Y-8420067D02*
G75*
G02*
X11584283Y-8420067I20000J0D01*
G01*
X11622407Y-5931862D02*
G75*
G02*
X11582407Y-5931862I-20000J0D01*
G01*
X11582407Y-5931862D02*
G75*
G02*
X11622407Y-5931862I20000J0D01*
G01*
X12060950Y-6509095D02*
G75*
G02*
X12020950Y-6509095I-20000J0D01*
G01*
X12020950Y-6509095D02*
G75*
G02*
X12060950Y-6509095I20000J0D01*
G01*
X12310690Y-9066796D02*
G75*
G02*
X12270690Y-9066796I-20000J0D01*
G01*
X12270690Y-9066796D02*
G75*
G02*
X12310690Y-9066796I20000J0D01*
G01*
X12496738Y-6640088D02*
G75*
G02*
X12456738Y-6640088I-20000J0D01*
G01*
X12456738Y-6640088D02*
G75*
G02*
X12496738Y-6640088I20000J0D01*
G01*
X12523745Y-9688524D02*
G75*
G02*
X12483745Y-9688524I-20000J0D01*
G01*
X12483745Y-9688524D02*
G75*
G02*
X12523745Y-9688524I20000J0D01*
G01*
X12950913Y-9939516D02*
G75*
G02*
X12910913Y-9939516I-20000J0D01*
G01*
X12910913Y-9939516D02*
G75*
G02*
X12950913Y-9939516I20000J0D01*
G01*
X13180892Y-7366282D02*
G75*
G02*
X13140892Y-7366282I-20000J0D01*
G01*
X13140892Y-7366282D02*
G75*
G02*
X13180892Y-7366282I20000J0D01*
G01*
X13300675Y-6886504D02*
G75*
G02*
X13260675Y-6886504I-20000J0D01*
G01*
X13260675Y-6886504D02*
G75*
G02*
X13300675Y-6886504I20000J0D01*
G01*
X13401371Y-8003283D02*
G75*
G02*
X13361371Y-8003283I-20000J0D01*
G01*
X13361371Y-8003283D02*
G75*
G02*
X13401371Y-8003283I20000J0D01*
G01*
X13594631Y-12413851D02*
G75*
G02*
X13554631Y-12413851I-20000J0D01*
G01*
X13554631Y-12413851D02*
G75*
G02*
X13594631Y-12413851I20000J0D01*
G01*
X13814072Y-8252246D02*
G75*
G02*
X13774072Y-8252246I-20000J0D01*
G01*
X13774072Y-8252246D02*
G75*
G02*
X13814072Y-8252246I20000J0D01*
G01*
X13845324Y-5754557D02*
G75*
G02*
X13805324Y-5754557I-20000J0D01*
G01*
X13805324Y-5754557D02*
G75*
G02*
X13845324Y-5754557I20000J0D01*
G01*
X13934304Y-12798823D02*
G75*
G02*
X13894304Y-12798823I-20000J0D01*
G01*
X13894304Y-12798823D02*
G75*
G02*
X13934304Y-12798823I20000J0D01*
G01*
X14295434Y-6332444D02*
G75*
G02*
X14255434Y-6332444I-20000J0D01*
G01*
X14255434Y-6332444D02*
G75*
G02*
X14295434Y-6332444I20000J0D01*
G01*
X14400905Y-9169019D02*
G75*
G02*
X14360905Y-9169019I-20000J0D01*
G01*
X14360905Y-9169019D02*
G75*
G02*
X14400905Y-9169019I20000J0D01*
G01*
X14620220Y-9789624D02*
G75*
G02*
X14580220Y-9789624I-20000J0D01*
G01*
X14580220Y-9789624D02*
G75*
G02*
X14620220Y-9789624I20000J0D01*
G01*
X14678448Y-12475562D02*
G75*
G02*
X14638448Y-12475562I-20000J0D01*
G01*
X14638448Y-12475562D02*
G75*
G02*
X14678448Y-12475562I20000J0D01*
G01*
X14705789Y-6585823D02*
G75*
G02*
X14665789Y-6585823I-20000J0D01*
G01*
X14665789Y-6585823D02*
G75*
G02*
X14705789Y-6585823I20000J0D01*
G01*
X15032578Y-10025867D02*
G75*
G02*
X14992578Y-10025867I-20000J0D01*
G01*
X14992578Y-10025867D02*
G75*
G02*
X15032578Y-10025867I20000J0D01*
G01*
X15295249Y-7487003D02*
G75*
G02*
X15255249Y-7487003I-20000J0D01*
G01*
X15255249Y-7487003D02*
G75*
G02*
X15295249Y-7487003I20000J0D01*
G01*
X15406296Y-13565581D02*
G75*
G02*
X15366296Y-13565581I-20000J0D01*
G01*
X15366296Y-13565581D02*
G75*
G02*
X15406296Y-13565581I20000J0D01*
G01*
X15507753Y-8109616D02*
G75*
G02*
X15467753Y-8109616I-20000J0D01*
G01*
X15467753Y-8109616D02*
G75*
G02*
X15507753Y-8109616I20000J0D01*
G01*
X15616076Y-10930718D02*
G75*
G02*
X15576076Y-10930718I-20000J0D01*
G01*
X15576076Y-10930718D02*
G75*
G02*
X15616076Y-10930718I20000J0D01*
G01*
X15740196Y-11939259D02*
G75*
G02*
X15700196Y-11939259I-20000J0D01*
G01*
X15700196Y-11939259D02*
G75*
G02*
X15740196Y-11939259I20000J0D01*
G01*
X15798784Y-14152718D02*
G75*
G02*
X15758784Y-14152718I-20000J0D01*
G01*
X15758784Y-14152718D02*
G75*
G02*
X15798784Y-14152718I20000J0D01*
G01*
X15822043Y-11555517D02*
G75*
G02*
X15782043Y-11555517I-20000J0D01*
G01*
X15782043Y-11555517D02*
G75*
G02*
X15822043Y-11555517I20000J0D01*
G01*
X15854563Y-8107178D02*
G75*
G02*
X15814563Y-8107178I-20000J0D01*
G01*
X15814563Y-8107178D02*
G75*
G02*
X15854563Y-8107178I20000J0D01*
G01*
X15955546Y-5861755D02*
G75*
G02*
X15915546Y-5861755I-20000J0D01*
G01*
X15915546Y-5861755D02*
G75*
G02*
X15955546Y-5861755I20000J0D01*
G01*
X16150075Y-14157678D02*
G75*
G02*
X16110075Y-14157678I-20000J0D01*
G01*
X16110075Y-14157678D02*
G75*
G02*
X16150075Y-14157678I20000J0D01*
G01*
X16172763Y-11566485D02*
G75*
G02*
X16132763Y-11566485I-20000J0D01*
G01*
X16132763Y-11566485D02*
G75*
G02*
X16172763Y-11566485I20000J0D01*
G01*
X16191233Y-6860494D02*
G75*
G02*
X16151233Y-6860494I-20000J0D01*
G01*
X16151233Y-6860494D02*
G75*
G02*
X16191233Y-6860494I20000J0D01*
G01*
X16415565Y-6434762D02*
G75*
G02*
X16375565Y-6434762I-20000J0D01*
G01*
X16375565Y-6434762D02*
G75*
G02*
X16415565Y-6434762I20000J0D01*
G01*
X16505725Y-9257532D02*
G75*
G02*
X16465725Y-9257532I-20000J0D01*
G01*
X16465725Y-9257532D02*
G75*
G02*
X16505725Y-9257532I20000J0D01*
G01*
X16709625Y-9875570D02*
G75*
G02*
X16669625Y-9875570I-20000J0D01*
G01*
X16669625Y-9875570D02*
G75*
G02*
X16709625Y-9875570I20000J0D01*
G01*
X16744212Y-6433993D02*
G75*
G02*
X16704212Y-6433993I-20000J0D01*
G01*
X16704212Y-6433993D02*
G75*
G02*
X16744212Y-6433993I20000J0D01*
G01*
X16850061Y-7794073D02*
G75*
G02*
X16810061Y-7794073I-20000J0D01*
G01*
X16810061Y-7794073D02*
G75*
G02*
X16850061Y-7794073I20000J0D01*
G01*
X17062692Y-9882122D02*
G75*
G02*
X17022692Y-9882122I-20000J0D01*
G01*
X17022692Y-9882122D02*
G75*
G02*
X17062692Y-9882122I20000J0D01*
G01*
X17104621Y-12170733D02*
G75*
G02*
X17064621Y-12170733I-20000J0D01*
G01*
X17064621Y-12170733D02*
G75*
G02*
X17104621Y-12170733I20000J0D01*
G01*
X17324140Y-12798345D02*
G75*
G02*
X17284140Y-12798345I-20000J0D01*
G01*
X17284140Y-12798345D02*
G75*
G02*
X17324140Y-12798345I20000J0D01*
G01*
X17400628Y-7553163D02*
G75*
G02*
X17360628Y-7553163I-20000J0D01*
G01*
X17360628Y-7553163D02*
G75*
G02*
X17400628Y-7553163I20000J0D01*
G01*
X17500498Y-14192160D02*
G75*
G02*
X17460498Y-14192160I-20000J0D01*
G01*
X17460498Y-14192160D02*
G75*
G02*
X17500498Y-14192160I20000J0D01*
G01*
X17558053Y-10579971D02*
G75*
G02*
X17518053Y-10579971I-20000J0D01*
G01*
X17518053Y-10579971D02*
G75*
G02*
X17558053Y-10579971I20000J0D01*
G01*
X17619280Y-8207359D02*
G75*
G02*
X17579280Y-8207359I-20000J0D01*
G01*
X17579280Y-8207359D02*
G75*
G02*
X17619280Y-8207359I20000J0D01*
G01*
X17658160Y-12809313D02*
G75*
G02*
X17618160Y-12809313I-20000J0D01*
G01*
X17618160Y-12809313D02*
G75*
G02*
X17658160Y-12809313I20000J0D01*
G01*
X17668303Y-15998102D02*
G75*
G02*
X17628303Y-15998102I-20000J0D01*
G01*
X17628303Y-15998102D02*
G75*
G02*
X17668303Y-15998102I20000J0D01*
G01*
X17787239Y-15335622D02*
G75*
G02*
X17747239Y-15335622I-20000J0D01*
G01*
X17747239Y-15335622D02*
G75*
G02*
X17787239Y-15335622I20000J0D01*
G01*
X17855138Y-16464654D02*
G75*
G02*
X17815138Y-16464654I-20000J0D01*
G01*
X17815138Y-16464654D02*
G75*
G02*
X17855138Y-16464654I20000J0D01*
G01*
X17887204Y-6929819D02*
G75*
G02*
X17847204Y-6929819I-20000J0D01*
G01*
X17847204Y-6929819D02*
G75*
G02*
X17887204Y-6929819I20000J0D01*
G01*
X17978549Y-8234197D02*
G75*
G02*
X17938549Y-8234197I-20000J0D01*
G01*
X17938549Y-8234197D02*
G75*
G02*
X17978549Y-8234197I20000J0D01*
G01*
X17999172Y-10498977D02*
G75*
G02*
X17959172Y-10498977I-20000J0D01*
G01*
X17959172Y-10498977D02*
G75*
G02*
X17999172Y-10498977I20000J0D01*
G01*
X18134090Y-7825851D02*
G75*
G02*
X18094090Y-7825851I-20000J0D01*
G01*
X18094090Y-7825851D02*
G75*
G02*
X18134090Y-7825851I20000J0D01*
G01*
X18212016Y-10100575D02*
G75*
G02*
X18172016Y-10100575I-20000J0D01*
G01*
X18172016Y-10100575D02*
G75*
G02*
X18212016Y-10100575I20000J0D01*
G01*
X18225736Y-11134729D02*
G75*
G02*
X18185736Y-11134729I-20000J0D01*
G01*
X18185736Y-11134729D02*
G75*
G02*
X18225736Y-11134729I20000J0D01*
G01*
X18454494Y-18495089D02*
G75*
G02*
X18414494Y-18495089I-20000J0D01*
G01*
X18414494Y-18495089D02*
G75*
G02*
X18454494Y-18495089I20000J0D01*
G01*
X18608991Y-11372520D02*
G75*
G02*
X18568991Y-11372520I-20000J0D01*
G01*
X18568991Y-11372520D02*
G75*
G02*
X18608991Y-11372520I20000J0D01*
G01*
X18654614Y-18776137D02*
G75*
G02*
X18614614Y-18776137I-20000J0D01*
G01*
X18614614Y-18776137D02*
G75*
G02*
X18654614Y-18776137I20000J0D01*
G01*
X18667011Y-8877739D02*
G75*
G02*
X18627011Y-8877739I-20000J0D01*
G01*
X18627011Y-8877739D02*
G75*
G02*
X18667011Y-8877739I20000J0D01*
G01*
X18689479Y-17803012D02*
G75*
G02*
X18649479Y-17803012I-20000J0D01*
G01*
X18649479Y-17803012D02*
G75*
G02*
X18689479Y-17803012I20000J0D01*
G01*
X19102329Y-9454602D02*
G75*
G02*
X19062329Y-9454602I-20000J0D01*
G01*
X19062329Y-9454602D02*
G75*
G02*
X19102329Y-9454602I20000J0D01*
G01*
X19404728Y-10551137D02*
G75*
G02*
X19364728Y-10551137I-20000J0D01*
G01*
X19364728Y-10551137D02*
G75*
G02*
X19404728Y-10551137I20000J0D01*
G01*
X19446567Y-9456459D02*
G75*
G02*
X19406567Y-9456459I-20000J0D01*
G01*
X19406567Y-9456459D02*
G75*
G02*
X19446567Y-9456459I20000J0D01*
G01*
X19632500Y-16292500D02*
G75*
G02*
X19592500Y-16292500I-20000J0D01*
G01*
X19592500Y-16292500D02*
G75*
G02*
X19632500Y-16292500I20000J0D01*
G01*
X19820000Y-16490000D02*
G75*
G02*
X19780000Y-16490000I-20000J0D01*
G01*
X19780000Y-16490000D02*
G75*
G02*
X19820000Y-16490000I20000J0D01*
G01*
X21100000Y-16975000D02*
G75*
G02*
X21060000Y-16975000I-20000J0D01*
G01*
X21060000Y-16975000D02*
G75*
G02*
X21100000Y-16975000I20000J0D01*
G01*
X21302500Y-16027500D02*
G75*
G02*
X21262500Y-16027500I-20000J0D01*
G01*
X21262500Y-16027500D02*
G75*
G02*
X21302500Y-16027500I20000J0D01*
G01*
X21302500Y-16810000D02*
G75*
G02*
X21262500Y-16810000I-20000J0D01*
G01*
X21262500Y-16810000D02*
G75*
G02*
X21302500Y-16810000I20000J0D01*
G01*
X21682015Y-9930575D02*
G75*
G02*
X21642015Y-9930575I-20000J0D01*
G01*
X21642015Y-9930575D02*
G75*
G02*
X21682015Y-9930575I20000J0D01*
G01*
X21745000Y-9295000D02*
G75*
G02*
X21705000Y-9295000I-20000J0D01*
G01*
X21705000Y-9295000D02*
G75*
G02*
X21745000Y-9295000I20000J0D01*
G01*
X21782015Y-11290575D02*
G75*
G02*
X21742015Y-11290575I-20000J0D01*
G01*
X21742015Y-11290575D02*
G75*
G02*
X21782015Y-11290575I20000J0D01*
G01*
X21782015Y-10835575D02*
G75*
G02*
X21742015Y-10835575I-20000J0D01*
G01*
X21742015Y-10835575D02*
G75*
G02*
X21782015Y-10835575I20000J0D01*
G01*
X22150000Y-13997500D02*
G75*
G02*
X22110000Y-13997500I-20000J0D01*
G01*
X22110000Y-13997500D02*
G75*
G02*
X22150000Y-13997500I20000J0D01*
G01*
X22293760Y-18394334D02*
G75*
G02*
X22253760Y-18394334I-20000J0D01*
G01*
X22253760Y-18394334D02*
G75*
G02*
X22293760Y-18394334I20000J0D01*
G01*
X22532015Y-10645575D02*
G75*
G02*
X22492015Y-10645575I-20000J0D01*
G01*
X22492015Y-10645575D02*
G75*
G02*
X22532015Y-10645575I20000J0D01*
G01*
X22571281Y-9028050D02*
G75*
G02*
X22531281Y-9028050I-20000J0D01*
G01*
X22531281Y-9028050D02*
G75*
G02*
X22571281Y-9028050I20000J0D01*
G01*
X22785609Y-18081128D02*
G75*
G02*
X22745609Y-18081128I-20000J0D01*
G01*
X22745609Y-18081128D02*
G75*
G02*
X22785609Y-18081128I20000J0D01*
G01*
X22959547Y-17621433D02*
G75*
G02*
X22919547Y-17621433I-20000J0D01*
G01*
X22919547Y-17621433D02*
G75*
G02*
X22959547Y-17621433I20000J0D01*
G01*
X23097016Y-9550575D02*
G75*
G02*
X23057016Y-9550575I-20000J0D01*
G01*
X23057016Y-9550575D02*
G75*
G02*
X23097016Y-9550575I20000J0D01*
G01*
X23142815Y-16020023D02*
G75*
G02*
X23102815Y-16020023I-20000J0D01*
G01*
X23102815Y-16020023D02*
G75*
G02*
X23142815Y-16020023I20000J0D01*
G01*
X23254598Y-8741307D02*
G75*
G02*
X23214598Y-8741307I-20000J0D01*
G01*
X23214598Y-8741307D02*
G75*
G02*
X23254598Y-8741307I20000J0D01*
G01*
X23318987Y-7829329D02*
G75*
G02*
X23278987Y-7829329I-20000J0D01*
G01*
X23278987Y-7829329D02*
G75*
G02*
X23318987Y-7829329I20000J0D01*
G01*
X23392015Y-10340575D02*
G75*
G02*
X23352015Y-10340575I-20000J0D01*
G01*
X23352015Y-10340575D02*
G75*
G02*
X23392015Y-10340575I20000J0D01*
G01*
X23537972Y-12656873D02*
G75*
G02*
X23497972Y-12656873I-20000J0D01*
G01*
X23497972Y-12656873D02*
G75*
G02*
X23537972Y-12656873I20000J0D01*
G01*
X23575248Y-17468808D02*
G75*
G02*
X23535248Y-17468808I-20000J0D01*
G01*
X23535248Y-17468808D02*
G75*
G02*
X23575248Y-17468808I20000J0D01*
G01*
X23768826Y-15633678D02*
G75*
G02*
X23728826Y-15633678I-20000J0D01*
G01*
X23728826Y-15633678D02*
G75*
G02*
X23768826Y-15633678I20000J0D01*
G01*
X23795143Y-18780589D02*
G75*
G02*
X23755143Y-18780589I-20000J0D01*
G01*
X23755143Y-18780589D02*
G75*
G02*
X23795143Y-18780589I20000J0D01*
G01*
X23811786Y-10443954D02*
G75*
G02*
X23771786Y-10443954I-20000J0D01*
G01*
X23771786Y-10443954D02*
G75*
G02*
X23811786Y-10443954I20000J0D01*
G01*
X23956361Y-7997073D02*
G75*
G02*
X23916361Y-7997073I-20000J0D01*
G01*
X23916361Y-7997073D02*
G75*
G02*
X23956361Y-7997073I20000J0D01*
G01*
X24210983Y-9506929D02*
G75*
G02*
X24170983Y-9506929I-20000J0D01*
G01*
X24170983Y-9506929D02*
G75*
G02*
X24210983Y-9506929I20000J0D01*
G01*
X24253445Y-12602909D02*
G75*
G02*
X24213445Y-12602909I-20000J0D01*
G01*
X24213445Y-12602909D02*
G75*
G02*
X24253445Y-12602909I20000J0D01*
G01*
X24374304Y-7811840D02*
G75*
G02*
X24334304Y-7811840I-20000J0D01*
G01*
X24334304Y-7811840D02*
G75*
G02*
X24374304Y-7811840I20000J0D01*
G01*
X24445649Y-6284577D02*
G75*
G02*
X24405649Y-6284577I-20000J0D01*
G01*
X24405649Y-6284577D02*
G75*
G02*
X24445649Y-6284577I20000J0D01*
G01*
X24447841Y-12319546D02*
G75*
G02*
X24407841Y-12319546I-20000J0D01*
G01*
X24407841Y-12319546D02*
G75*
G02*
X24447841Y-12319546I20000J0D01*
G01*
X24496702Y-12819523D02*
G75*
G02*
X24456702Y-12819523I-20000J0D01*
G01*
X24456702Y-12819523D02*
G75*
G02*
X24496702Y-12819523I20000J0D01*
G01*
X24852772Y-9672326D02*
G75*
G02*
X24812772Y-9672326I-20000J0D01*
G01*
X24812772Y-9672326D02*
G75*
G02*
X24852772Y-9672326I20000J0D01*
G01*
X24928684Y-14603858D02*
G75*
G02*
X24888684Y-14603858I-20000J0D01*
G01*
X24888684Y-14603858D02*
G75*
G02*
X24928684Y-14603858I20000J0D01*
G01*
X25031746Y-14011750D02*
G75*
G02*
X24991746Y-14011750I-20000J0D01*
G01*
X24991746Y-14011750D02*
G75*
G02*
X25031746Y-14011750I20000J0D01*
G01*
X25105327Y-11188945D02*
G75*
G02*
X25065327Y-11188945I-20000J0D01*
G01*
X25065327Y-11188945D02*
G75*
G02*
X25105327Y-11188945I20000J0D01*
G01*
X25164490Y-6222129D02*
G75*
G02*
X25124490Y-6222129I-20000J0D01*
G01*
X25124490Y-6222129D02*
G75*
G02*
X25164490Y-6222129I20000J0D01*
G01*
X25279825Y-9493576D02*
G75*
G02*
X25239825Y-9493576I-20000J0D01*
G01*
X25239825Y-9493576D02*
G75*
G02*
X25279825Y-9493576I20000J0D01*
G01*
X25459125Y-7722036D02*
G75*
G02*
X25419125Y-7722036I-20000J0D01*
G01*
X25419125Y-7722036D02*
G75*
G02*
X25459125Y-7722036I20000J0D01*
G01*
X25657656Y-6093169D02*
G75*
G02*
X25617656Y-6093169I-20000J0D01*
G01*
X25617656Y-6093169D02*
G75*
G02*
X25657656Y-6093169I20000J0D01*
G01*
X25744769Y-11349927D02*
G75*
G02*
X25704769Y-11349927I-20000J0D01*
G01*
X25704769Y-11349927D02*
G75*
G02*
X25744769Y-11349927I20000J0D01*
G01*
X25769931Y-13953317D02*
G75*
G02*
X25729931Y-13953317I-20000J0D01*
G01*
X25729931Y-13953317D02*
G75*
G02*
X25769931Y-13953317I20000J0D01*
G01*
X25948111Y-11080599D02*
G75*
G02*
X25908111Y-11080599I-20000J0D01*
G01*
X25908111Y-11080599D02*
G75*
G02*
X25948111Y-11080599I20000J0D01*
G01*
X25952791Y-13674702D02*
G75*
G02*
X25912791Y-13674702I-20000J0D01*
G01*
X25912791Y-13674702D02*
G75*
G02*
X25952791Y-13674702I20000J0D01*
G01*
X25997827Y-14158681D02*
G75*
G02*
X25957827Y-14158681I-20000J0D01*
G01*
X25957827Y-14158681D02*
G75*
G02*
X25997827Y-14158681I20000J0D01*
G01*
X26054419Y-7906492D02*
G75*
G02*
X26014419Y-7906492I-20000J0D01*
G01*
X26014419Y-7906492D02*
G75*
G02*
X26054419Y-7906492I20000J0D01*
G01*
X26061068Y-11693266D02*
G75*
G02*
X26021068Y-11693266I-20000J0D01*
G01*
X26021068Y-11693266D02*
G75*
G02*
X26061068Y-11693266I20000J0D01*
G01*
X26250720Y-7623920D02*
G75*
G02*
X26210720Y-7623920I-20000J0D01*
G01*
X26210720Y-7623920D02*
G75*
G02*
X26250720Y-7623920I20000J0D01*
G01*
X26311108Y-9409586D02*
G75*
G02*
X26271108Y-9409586I-20000J0D01*
G01*
X26271108Y-9409586D02*
G75*
G02*
X26311108Y-9409586I20000J0D01*
G01*
X26485021Y-14264829D02*
G75*
G02*
X26445021Y-14264829I-20000J0D01*
G01*
X26445021Y-14264829D02*
G75*
G02*
X26485021Y-14264829I20000J0D01*
G01*
X26511435Y-12484174D02*
G75*
G02*
X26471435Y-12484174I-20000J0D01*
G01*
X26471435Y-12484174D02*
G75*
G02*
X26511435Y-12484174I20000J0D01*
G01*
X26629588Y-5961457D02*
G75*
G02*
X26589588Y-5961457I-20000J0D01*
G01*
X26589588Y-5961457D02*
G75*
G02*
X26629588Y-5961457I20000J0D01*
G01*
X26946414Y-9584093D02*
G75*
G02*
X26906414Y-9584093I-20000J0D01*
G01*
X26906414Y-9584093D02*
G75*
G02*
X26946414Y-9584093I20000J0D01*
G01*
X27082015Y-7425575D02*
G75*
G02*
X27042015Y-7425575I-20000J0D01*
G01*
X27042015Y-7425575D02*
G75*
G02*
X27082015Y-7425575I20000J0D01*
G01*
X27142716Y-9301520D02*
G75*
G02*
X27102716Y-9301520I-20000J0D01*
G01*
X27102716Y-9301520D02*
G75*
G02*
X27142716Y-9301520I20000J0D01*
G01*
X27258133Y-6133896D02*
G75*
G02*
X27218133Y-6133896I-20000J0D01*
G01*
X27218133Y-6133896D02*
G75*
G02*
X27258133Y-6133896I20000J0D01*
G01*
X27317393Y-12735555D02*
G75*
G02*
X27277393Y-12735555I-20000J0D01*
G01*
X27277393Y-12735555D02*
G75*
G02*
X27317393Y-12735555I20000J0D01*
G01*
X27518957Y-7623466D02*
G75*
G02*
X27478957Y-7623466I-20000J0D01*
G01*
X27478957Y-7623466D02*
G75*
G02*
X27518957Y-7623466I20000J0D01*
G01*
X27567312Y-12411178D02*
G75*
G02*
X27527312Y-12411178I-20000J0D01*
G01*
X27527312Y-12411178D02*
G75*
G02*
X27567312Y-12411178I20000J0D01*
G01*
X27732949Y-6019310D02*
G75*
G02*
X27692949Y-6019310I-20000J0D01*
G01*
X27692949Y-6019310D02*
G75*
G02*
X27732949Y-6019310I20000J0D01*
G01*
X28146269Y-7814890D02*
G75*
G02*
X28106269Y-7814890I-20000J0D01*
G01*
X28106269Y-7814890D02*
G75*
G02*
X28146269Y-7814890I20000J0D01*
G01*
X28355540Y-7535406D02*
G75*
G02*
X28315540Y-7535406I-20000J0D01*
G01*
X28315540Y-7535406D02*
G75*
G02*
X28355540Y-7535406I20000J0D01*
G01*
X28411233Y-9312243D02*
G75*
G02*
X28371233Y-9312243I-20000J0D01*
G01*
X28371233Y-9312243D02*
G75*
G02*
X28411233Y-9312243I20000J0D01*
G01*
X28872622Y-6122236D02*
G75*
G02*
X28832622Y-6122236I-20000J0D01*
G01*
X28832622Y-6122236D02*
G75*
G02*
X28872622Y-6122236I20000J0D01*
G01*
X29027015Y-10095575D02*
G75*
G02*
X28987015Y-10095575I-20000J0D01*
G01*
X28987015Y-10095575D02*
G75*
G02*
X29027015Y-10095575I20000J0D01*
G01*
X29049231Y-9469672D02*
G75*
G02*
X29009231Y-9469672I-20000J0D01*
G01*
X29009231Y-9469672D02*
G75*
G02*
X29049231Y-9469672I20000J0D01*
G01*
X29247536Y-9213007D02*
G75*
G02*
X29207536Y-9213007I-20000J0D01*
G01*
X29207536Y-9213007D02*
G75*
G02*
X29247536Y-9213007I20000J0D01*
G01*
X29506137Y-6293373D02*
G75*
G02*
X29466137Y-6293373I-20000J0D01*
G01*
X29466137Y-6293373D02*
G75*
G02*
X29506137Y-6293373I20000J0D01*
G01*
X29701883Y-6009756D02*
G75*
G02*
X29661883Y-6009756I-20000J0D01*
G01*
X29661883Y-6009756D02*
G75*
G02*
X29701883Y-6009756I20000J0D01*
G01*
X29753161Y-7788939D02*
G75*
G02*
X29713161Y-7788939I-20000J0D01*
G01*
X29713161Y-7788939D02*
G75*
G02*
X29753161Y-7788939I20000J0D01*
G01*
X30391651Y-7980083D02*
G75*
G02*
X30351651Y-7980083I-20000J0D01*
G01*
X30351651Y-7980083D02*
G75*
G02*
X30391651Y-7980083I20000J0D01*
G01*
X30587116Y-7685289D02*
G75*
G02*
X30547116Y-7685289I-20000J0D01*
G01*
X30547116Y-7685289D02*
G75*
G02*
X30587116Y-7685289I20000J0D01*
G01*
X30649852Y-9475369D02*
G75*
G02*
X30609852Y-9475369I-20000J0D01*
G01*
X30609852Y-9475369D02*
G75*
G02*
X30649852Y-9475369I20000J0D01*
G01*
X31082016Y-8190575D02*
G75*
G02*
X31042016Y-8190575I-20000J0D01*
G01*
X31042016Y-8190575D02*
G75*
G02*
X31082016Y-8190575I20000J0D01*
G01*
X31298708Y-9654531D02*
G75*
G02*
X31258708Y-9654531I-20000J0D01*
G01*
X31258708Y-9654531D02*
G75*
G02*
X31298708Y-9654531I20000J0D01*
G01*
X31488222Y-9369371D02*
G75*
G02*
X31448222Y-9369371I-20000J0D01*
G01*
X31448222Y-9369371D02*
G75*
G02*
X31488222Y-9369371I20000J0D01*
G01*
X21960556Y-8389731D02*
X21960556Y-8454731D01*
X21928056Y-8422231D02*
X21993056Y-8422231D01*
X22072690Y-8330108D02*
X22072690Y-8395108D01*
X22040190Y-8362608D02*
X22105190Y-8362608D01*
X19827163Y-16308685D02*
X19827163Y-16255651D01*
X19774129Y-16255651D01*
X19774129Y-16308685D01*
X19827163Y-16308685D01*
X20027163Y-16308685D02*
X20027163Y-16255652D01*
X19974130Y-16255652D01*
X19974130Y-16308685D01*
X20027163Y-16308685D01*
X12351374Y-12150487D02*
X12401374Y-12100487D01*
X12351374Y-12050487D01*
X12301374Y-12100487D01*
X12351374Y-12150487D01*
X12586110Y-11709013D02*
X12636110Y-11659013D01*
X12586110Y-11609013D01*
X12536110Y-11659013D01*
X12586110Y-11709013D01*
X13631648Y-12831220D02*
X13681648Y-12781220D01*
X13631648Y-12731220D01*
X13581648Y-12781220D01*
X13631648Y-12831220D01*
X13749016Y-12610483D02*
X13799016Y-12560483D01*
X13749016Y-12510483D01*
X13699016Y-12560483D01*
X13749016Y-12610483D01*
X13866384Y-12389747D02*
X13916384Y-12339747D01*
X13866384Y-12289747D01*
X13816384Y-12339747D01*
X13866384Y-12389747D01*
X19818647Y-8702468D02*
X19868647Y-8652468D01*
X19818647Y-8602468D01*
X19768647Y-8652468D01*
X19818647Y-8702468D01*
X19818647Y-9210468D02*
X19868647Y-9160468D01*
X19818647Y-9110468D01*
X19768647Y-9160468D01*
X19818647Y-9210468D01*
X19818647Y-10734468D02*
X19868647Y-10684468D01*
X19818647Y-10634468D01*
X19768647Y-10684468D01*
X19818647Y-10734468D01*
X19818647Y-8448468D02*
X19868647Y-8398468D01*
X19818647Y-8348468D01*
X19768647Y-8398468D01*
X19818647Y-8448468D01*
X19818647Y-8956468D02*
X19868647Y-8906468D01*
X19818647Y-8856468D01*
X19768647Y-8906468D01*
X19818647Y-8956468D01*
X19818647Y-9718468D02*
X19868647Y-9668468D01*
X19818647Y-9618468D01*
X19768647Y-9668468D01*
X19818647Y-9718468D01*
X19818647Y-10226467D02*
X19868647Y-10176467D01*
X19818647Y-10126467D01*
X19768647Y-10176467D01*
X19818647Y-10226467D01*
X19818647Y-10480468D02*
X19868647Y-10430468D01*
X19818647Y-10380468D01*
X19768647Y-10430468D01*
X19818647Y-10480468D01*
X19818647Y-10988468D02*
X19868647Y-10938468D01*
X19818647Y-10888468D01*
X19768647Y-10938468D01*
X19818647Y-10988468D01*
X19818647Y-11242468D02*
X19868647Y-11192468D01*
X19818647Y-11142468D01*
X19768647Y-11192468D01*
X19818647Y-11242468D01*
X19818647Y-9464468D02*
X19868647Y-9414468D01*
X19818647Y-9364468D01*
X19768647Y-9414468D01*
X19818647Y-9464468D01*
X19818647Y-9972468D02*
X19868647Y-9922468D01*
X19818647Y-9872468D01*
X19768647Y-9922468D01*
X19818647Y-9972468D01*
X20072647Y-10988468D02*
X20122647Y-10938468D01*
X20072647Y-10888468D01*
X20022647Y-10938468D01*
X20072647Y-10988468D01*
X20326647Y-10988468D02*
X20376647Y-10938468D01*
X20326647Y-10888468D01*
X20276647Y-10938468D01*
X20326647Y-10988468D01*
X20580647Y-10988468D02*
X20630647Y-10938468D01*
X20580647Y-10888468D01*
X20530647Y-10938468D01*
X20580647Y-10988468D01*
X21342647Y-9464468D02*
X21392647Y-9414468D01*
X21342647Y-9364468D01*
X21292647Y-9414468D01*
X21342647Y-9464468D01*
X21342647Y-9972468D02*
X21392647Y-9922468D01*
X21342647Y-9872468D01*
X21292647Y-9922468D01*
X21342647Y-9972468D01*
X21342647Y-8448468D02*
X21392647Y-8398468D01*
X21342647Y-8348468D01*
X21292647Y-8398468D01*
X21342647Y-8448468D01*
X21342647Y-8956468D02*
X21392647Y-8906468D01*
X21342647Y-8856468D01*
X21292647Y-8906468D01*
X21342647Y-8956468D01*
X21342647Y-9210468D02*
X21392647Y-9160468D01*
X21342647Y-9110468D01*
X21292647Y-9160468D01*
X21342647Y-9210468D01*
X21342647Y-9718468D02*
X21392647Y-9668468D01*
X21342647Y-9618468D01*
X21292647Y-9668468D01*
X21342647Y-9718468D01*
X21342647Y-10480468D02*
X21392647Y-10430468D01*
X21342647Y-10380468D01*
X21292647Y-10430468D01*
X21342647Y-10480468D01*
X21342647Y-10988468D02*
X21392647Y-10938468D01*
X21342647Y-10888468D01*
X21292647Y-10938468D01*
X21342647Y-10988468D01*
X21342647Y-11242468D02*
X21392647Y-11192468D01*
X21342647Y-11142468D01*
X21292647Y-11192468D01*
X21342647Y-11242468D01*
X21342647Y-8702468D02*
X21392647Y-8652468D01*
X21342647Y-8602468D01*
X21292647Y-8652468D01*
X21342647Y-8702468D01*
X21342647Y-10226468D02*
X21392647Y-10176468D01*
X21342647Y-10126468D01*
X21292647Y-10176468D01*
X21342647Y-10226468D01*
X21342647Y-10734468D02*
X21392647Y-10684468D01*
X21342647Y-10634468D01*
X21292647Y-10684468D01*
X21342647Y-10734468D01*
X22945458Y-7217416D02*
X22995458Y-7167416D01*
X22945458Y-7117416D01*
X22895458Y-7167416D01*
X22945458Y-7217416D01*
X23309643Y-6874824D02*
X23359643Y-6824824D01*
X23309643Y-6774824D01*
X23259643Y-6824824D01*
X23309643Y-6874824D01*
X27291153Y-12382683D02*
X27341153Y-12332683D01*
X27291153Y-12282683D01*
X27241153Y-12332683D01*
X27291153Y-12382683D01*
X27408521Y-12603419D02*
X27458521Y-12553419D01*
X27408521Y-12503419D01*
X27358521Y-12553419D01*
X27408521Y-12603419D01*
X27525889Y-12824157D02*
X27575889Y-12774157D01*
X27525889Y-12724157D01*
X27475889Y-12774157D01*
X27525889Y-12824157D01*
X28571427Y-11701949D02*
X28621427Y-11651949D01*
X28571427Y-11601949D01*
X28521427Y-11651949D01*
X28571427Y-11701949D01*
X28806163Y-12143423D02*
X28856163Y-12093423D01*
X28806163Y-12043423D01*
X28756163Y-12093423D01*
X28806163Y-12143423D01*
D15*
X22978916Y-7353027D02*
X23108916Y-7483027D01*
X23108916Y-7353027D02*
X22978916Y-7483027D01*
X23108916Y-7418027D02*
G75*
G02*
X22978916Y-7418027I-65000J0D01*
G01*
X22978916Y-7418027D02*
G75*
G02*
X23108916Y-7418027I65000J0D01*
G01*
X23488776Y-6873399D02*
X23618776Y-7003399D01*
X23618776Y-6873399D02*
X23488776Y-7003399D01*
X23618776Y-6938399D02*
G75*
G02*
X23488776Y-6938399I-65000J0D01*
G01*
X23488776Y-6938399D02*
G75*
G02*
X23618776Y-6938399I65000J0D01*
G01*
D10*
X12748901Y-12627830D02*
X12898901Y-12777830D01*
X12898901Y-12627830D02*
X12748901Y-12777830D01*
X12823901Y-12627830D02*
X12823901Y-12777830D01*
X12748901Y-12702830D02*
X12898901Y-12702830D01*
D11*
X12916503Y-12667125D02*
X12801720Y-12606094D01*
X12731299Y-12738536D02*
G75*
G02*
X12801720Y-12606094I35210J66221D01*
G01*
X12731299Y-12738536D02*
X12846082Y-12799567D01*
X12846082Y-12799567D02*
G75*
G03*
X12916503Y-12667125I35210J66221D01*
G01*
D10*
X13274709Y-11638929D02*
X13424709Y-11788929D01*
X13424709Y-11638929D02*
X13274709Y-11788929D01*
X13349709Y-11638929D02*
X13349709Y-11788929D01*
X13274709Y-11713929D02*
X13424709Y-11713929D01*
D11*
X13442311Y-11678224D02*
X13327528Y-11617192D01*
X13257107Y-11749634D02*
G75*
G02*
X13327528Y-11617192I35210J66221D01*
G01*
X13257107Y-11749634D02*
X13371891Y-11810666D01*
X13371891Y-11810666D02*
G75*
G03*
X13442311Y-11678224I35210J66221D01*
G01*
D10*
X27732828Y-11631865D02*
X27882828Y-11781865D01*
X27882828Y-11631865D02*
X27732828Y-11781865D01*
X27807828Y-11631865D02*
X27807828Y-11781865D01*
X27732828Y-11706865D02*
X27882828Y-11706865D01*
D11*
X27785647Y-11803602D02*
X27900430Y-11742571D01*
X27830009Y-11610129D02*
G75*
G02*
X27900430Y-11742571I35210J-66221D01*
G01*
X27830009Y-11610129D02*
X27715226Y-11671160D01*
X27715226Y-11671160D02*
G75*
G03*
X27785647Y-11803602I35210J-66221D01*
G01*
D10*
X28258636Y-12620767D02*
X28408636Y-12770767D01*
X28408636Y-12620767D02*
X28258636Y-12770767D01*
X28333636Y-12620767D02*
X28333636Y-12770767D01*
X28258636Y-12695767D02*
X28408636Y-12695767D01*
D11*
X28311455Y-12792503D02*
X28426238Y-12731472D01*
X28355817Y-12599030D02*
G75*
G02*
X28426238Y-12731472I35210J-66221D01*
G01*
X28355817Y-12599030D02*
X28241034Y-12660061D01*
X28241034Y-12660061D02*
G75*
G03*
X28311455Y-12792503I35210J-66221D01*
G01*
D16*
X10803791Y-10089010D02*
X11023791Y-10309010D01*
X11023791Y-10089010D02*
X10803791Y-10309010D01*
X10991574Y-10276792D02*
X10991574Y-10121227D01*
X10836009Y-10121227D01*
X10836009Y-10276792D01*
X10991574Y-10276792D01*
X12587783Y-6733809D02*
X12807783Y-6953809D01*
X12807783Y-6733809D02*
X12587783Y-6953809D01*
X12775565Y-6921591D02*
X12775565Y-6766026D01*
X12620000Y-6766026D01*
X12620000Y-6921591D01*
X12775565Y-6921591D01*
X15601856Y-13206471D02*
X15821856Y-13426471D01*
X15821856Y-13206471D02*
X15601856Y-13426471D01*
X15789639Y-13394254D02*
X15789639Y-13238689D01*
X15634074Y-13238689D01*
X15634074Y-13394254D01*
X15789639Y-13394254D01*
X17385849Y-9851270D02*
X17605849Y-10071270D01*
X17605849Y-9851270D02*
X17385849Y-10071270D01*
X17573631Y-10039053D02*
X17573631Y-9883488D01*
X17418066Y-9883488D01*
X17418066Y-10039053D01*
X17573631Y-10039053D01*
X17964065Y-16949788D02*
X18184065Y-17169788D01*
X18184065Y-16949788D02*
X17964065Y-17169788D01*
X18151847Y-17137571D02*
X18151847Y-16982006D01*
X17996282Y-16982006D01*
X17996282Y-17137571D01*
X18151847Y-17137571D01*
X18405000Y-13280000D02*
X18625000Y-13500000D01*
X18625000Y-13280000D02*
X18405000Y-13500000D01*
X18592783Y-13467782D02*
X18592783Y-13312217D01*
X18437218Y-13312217D01*
X18437218Y-13467782D01*
X18592783Y-13467782D01*
X19242500Y-15982500D02*
X19462500Y-16202500D01*
X19462500Y-15982500D02*
X19242500Y-16202500D01*
X19430283Y-16170282D02*
X19430283Y-16014717D01*
X19274718Y-16014717D01*
X19274718Y-16170282D01*
X19430283Y-16170282D01*
X21710000Y-15982500D02*
X21930000Y-16202500D01*
X21930000Y-15982500D02*
X21710000Y-16202500D01*
X21897783Y-16170282D02*
X21897783Y-16014717D01*
X21742218Y-16014717D01*
X21742218Y-16170282D01*
X21897783Y-16170282D01*
X22545000Y-13280000D02*
X22765000Y-13500000D01*
X22765000Y-13280000D02*
X22545000Y-13500000D01*
X22732782Y-13467782D02*
X22732782Y-13312217D01*
X22577217Y-13312217D01*
X22577217Y-13467782D01*
X22732782Y-13467782D01*
X22977227Y-16949789D02*
X23197227Y-17169789D01*
X23197227Y-16949789D02*
X22977227Y-17169789D01*
X23165010Y-17137571D02*
X23165010Y-16982006D01*
X23009445Y-16982006D01*
X23009445Y-17137571D01*
X23165010Y-17137571D01*
X23555445Y-9851270D02*
X23775445Y-10071270D01*
X23775445Y-9851270D02*
X23555445Y-10071270D01*
X23743227Y-10039053D02*
X23743227Y-9883488D01*
X23587662Y-9883488D01*
X23587662Y-10039053D01*
X23743227Y-10039053D01*
X25339436Y-13206471D02*
X25559436Y-13426471D01*
X25559436Y-13206471D02*
X25339436Y-13426471D01*
X25527219Y-13394254D02*
X25527219Y-13238689D01*
X25371654Y-13238689D01*
X25371654Y-13394254D01*
X25527219Y-13394254D01*
X28353510Y-6733809D02*
X28573510Y-6953809D01*
X28573510Y-6733809D02*
X28353510Y-6953809D01*
X28541292Y-6921591D02*
X28541292Y-6766026D01*
X28385727Y-6766026D01*
X28385727Y-6921591D01*
X28541292Y-6921591D01*
X30137502Y-10089010D02*
X30357502Y-10309010D01*
X30357502Y-10089010D02*
X30137502Y-10309010D01*
X30325284Y-10276792D02*
X30325284Y-10121227D01*
X30169719Y-10121227D01*
X30169719Y-10276792D01*
X30325284Y-10276792D01*
D14*
X8793722Y-19817625D02*
X8793722Y-19617625D01*
X8793722Y-19617625D02*
X8841341Y-19617625D01*
X8841341Y-19617625D02*
X8869913Y-19627149D01*
X8869913Y-19627149D02*
X8888960Y-19646197D01*
X8888960Y-19646197D02*
X8898484Y-19665244D01*
X8898484Y-19665244D02*
X8908008Y-19703339D01*
X8908008Y-19703339D02*
X8908008Y-19731911D01*
X8908008Y-19731911D02*
X8898484Y-19770006D01*
X8898484Y-19770006D02*
X8888960Y-19789054D01*
X8888960Y-19789054D02*
X8869913Y-19808101D01*
X8869913Y-19808101D02*
X8841341Y-19817625D01*
X8841341Y-19817625D02*
X8793722Y-19817625D01*
X8993722Y-19817625D02*
X8993722Y-19684292D01*
X8993722Y-19722387D02*
X9003246Y-19703339D01*
X9003246Y-19703339D02*
X9012770Y-19693816D01*
X9012770Y-19693816D02*
X9031817Y-19684292D01*
X9031817Y-19684292D02*
X9050865Y-19684292D01*
X9117532Y-19817625D02*
X9117532Y-19684292D01*
X9117532Y-19617625D02*
X9108008Y-19627149D01*
X9108008Y-19627149D02*
X9117532Y-19636673D01*
X9117532Y-19636673D02*
X9127055Y-19627149D01*
X9127055Y-19627149D02*
X9117532Y-19617625D01*
X9117532Y-19617625D02*
X9117532Y-19636673D01*
X9241341Y-19817625D02*
X9222294Y-19808101D01*
X9222294Y-19808101D02*
X9212770Y-19789054D01*
X9212770Y-19789054D02*
X9212770Y-19617625D01*
X9346103Y-19817625D02*
X9327055Y-19808101D01*
X9327055Y-19808101D02*
X9317532Y-19789054D01*
X9317532Y-19789054D02*
X9317532Y-19617625D01*
X9574675Y-19817625D02*
X9574675Y-19617625D01*
X9574675Y-19617625D02*
X9641341Y-19760482D01*
X9641341Y-19760482D02*
X9708008Y-19617625D01*
X9708008Y-19617625D02*
X9708008Y-19817625D01*
X9888960Y-19817625D02*
X9888960Y-19712863D01*
X9888960Y-19712863D02*
X9879436Y-19693816D01*
X9879436Y-19693816D02*
X9860389Y-19684292D01*
X9860389Y-19684292D02*
X9822294Y-19684292D01*
X9822294Y-19684292D02*
X9803246Y-19693816D01*
X9888960Y-19808101D02*
X9869913Y-19817625D01*
X9869913Y-19817625D02*
X9822294Y-19817625D01*
X9822294Y-19817625D02*
X9803246Y-19808101D01*
X9803246Y-19808101D02*
X9793722Y-19789054D01*
X9793722Y-19789054D02*
X9793722Y-19770006D01*
X9793722Y-19770006D02*
X9803246Y-19750959D01*
X9803246Y-19750959D02*
X9822294Y-19741435D01*
X9822294Y-19741435D02*
X9869913Y-19741435D01*
X9869913Y-19741435D02*
X9888960Y-19731911D01*
X9984198Y-19684292D02*
X9984198Y-19884292D01*
X9984198Y-19693816D02*
X10003246Y-19684292D01*
X10003246Y-19684292D02*
X10041341Y-19684292D01*
X10041341Y-19684292D02*
X10060389Y-19693816D01*
X10060389Y-19693816D02*
X10069913Y-19703339D01*
X10069913Y-19703339D02*
X10079436Y-19722387D01*
X10079436Y-19722387D02*
X10079436Y-19779530D01*
X10079436Y-19779530D02*
X10069913Y-19798578D01*
X10069913Y-19798578D02*
X10060389Y-19808101D01*
X10060389Y-19808101D02*
X10041341Y-19817625D01*
X10041341Y-19817625D02*
X10003246Y-19817625D01*
X10003246Y-19817625D02*
X9984198Y-19808101D01*
X10165151Y-19798578D02*
X10174675Y-19808101D01*
X10174675Y-19808101D02*
X10165151Y-19817625D01*
X10165151Y-19817625D02*
X10155627Y-19808101D01*
X10155627Y-19808101D02*
X10165151Y-19798578D01*
X10165151Y-19798578D02*
X10165151Y-19817625D01*
X10165151Y-19693816D02*
X10174675Y-19703339D01*
X10174675Y-19703339D02*
X10165151Y-19712863D01*
X10165151Y-19712863D02*
X10155627Y-19703339D01*
X10155627Y-19703339D02*
X10165151Y-19693816D01*
X10165151Y-19693816D02*
X10165151Y-19712863D01*
D11*
X8502945Y-20131141D02*
X8532945Y-20161141D01*
X8532945Y-20131141D02*
X8502945Y-20161141D01*
D14*
X8831817Y-20037625D02*
X8850865Y-20037625D01*
X8850865Y-20037625D02*
X8869913Y-20047149D01*
X8869913Y-20047149D02*
X8879436Y-20056673D01*
X8879436Y-20056673D02*
X8888960Y-20075720D01*
X8888960Y-20075720D02*
X8898484Y-20113816D01*
X8898484Y-20113816D02*
X8898484Y-20161435D01*
X8898484Y-20161435D02*
X8888960Y-20199530D01*
X8888960Y-20199530D02*
X8879436Y-20218578D01*
X8879436Y-20218578D02*
X8869913Y-20228101D01*
X8869913Y-20228101D02*
X8850865Y-20237625D01*
X8850865Y-20237625D02*
X8831817Y-20237625D01*
X8831817Y-20237625D02*
X8812770Y-20228101D01*
X8812770Y-20228101D02*
X8803246Y-20218578D01*
X8803246Y-20218578D02*
X8793722Y-20199530D01*
X8793722Y-20199530D02*
X8784198Y-20161435D01*
X8784198Y-20161435D02*
X8784198Y-20113816D01*
X8784198Y-20113816D02*
X8793722Y-20075720D01*
X8793722Y-20075720D02*
X8803246Y-20056673D01*
X8803246Y-20056673D02*
X8812770Y-20047149D01*
X8812770Y-20047149D02*
X8831817Y-20037625D01*
X8984198Y-20218578D02*
X8993722Y-20228101D01*
X8993722Y-20228101D02*
X8984198Y-20237625D01*
X8984198Y-20237625D02*
X8974675Y-20228101D01*
X8974675Y-20228101D02*
X8984198Y-20218578D01*
X8984198Y-20218578D02*
X8984198Y-20237625D01*
X9060389Y-20037625D02*
X9184198Y-20037625D01*
X9184198Y-20037625D02*
X9117532Y-20113816D01*
X9117532Y-20113816D02*
X9146103Y-20113816D01*
X9146103Y-20113816D02*
X9165151Y-20123339D01*
X9165151Y-20123339D02*
X9174675Y-20132863D01*
X9174675Y-20132863D02*
X9184198Y-20151911D01*
X9184198Y-20151911D02*
X9184198Y-20199530D01*
X9184198Y-20199530D02*
X9174675Y-20218578D01*
X9174675Y-20218578D02*
X9165151Y-20228101D01*
X9165151Y-20228101D02*
X9146103Y-20237625D01*
X9146103Y-20237625D02*
X9088960Y-20237625D01*
X9088960Y-20237625D02*
X9069913Y-20228101D01*
X9069913Y-20228101D02*
X9060389Y-20218578D01*
X9308008Y-20037625D02*
X9327056Y-20037625D01*
X9327056Y-20037625D02*
X9346103Y-20047149D01*
X9346103Y-20047149D02*
X9355627Y-20056673D01*
X9355627Y-20056673D02*
X9365151Y-20075720D01*
X9365151Y-20075720D02*
X9374675Y-20113816D01*
X9374675Y-20113816D02*
X9374675Y-20161435D01*
X9374675Y-20161435D02*
X9365151Y-20199530D01*
X9365151Y-20199530D02*
X9355627Y-20218578D01*
X9355627Y-20218578D02*
X9346103Y-20228101D01*
X9346103Y-20228101D02*
X9327056Y-20237625D01*
X9327056Y-20237625D02*
X9308008Y-20237625D01*
X9308008Y-20237625D02*
X9288960Y-20228101D01*
X9288960Y-20228101D02*
X9279436Y-20218578D01*
X9279436Y-20218578D02*
X9269913Y-20199530D01*
X9269913Y-20199530D02*
X9260389Y-20161435D01*
X9260389Y-20161435D02*
X9260389Y-20113816D01*
X9260389Y-20113816D02*
X9269913Y-20075720D01*
X9269913Y-20075720D02*
X9279436Y-20056673D01*
X9279436Y-20056673D02*
X9288960Y-20047149D01*
X9288960Y-20047149D02*
X9308008Y-20037625D01*
X9498484Y-20037625D02*
X9517532Y-20037625D01*
X9517532Y-20037625D02*
X9536579Y-20047149D01*
X9536579Y-20047149D02*
X9546103Y-20056673D01*
X9546103Y-20056673D02*
X9555627Y-20075720D01*
X9555627Y-20075720D02*
X9565151Y-20113816D01*
X9565151Y-20113816D02*
X9565151Y-20161435D01*
X9565151Y-20161435D02*
X9555627Y-20199530D01*
X9555627Y-20199530D02*
X9546103Y-20218578D01*
X9546103Y-20218578D02*
X9536579Y-20228101D01*
X9536579Y-20228101D02*
X9517532Y-20237625D01*
X9517532Y-20237625D02*
X9498484Y-20237625D01*
X9498484Y-20237625D02*
X9479436Y-20228101D01*
X9479436Y-20228101D02*
X9469913Y-20218578D01*
X9469913Y-20218578D02*
X9460389Y-20199530D01*
X9460389Y-20199530D02*
X9450865Y-20161435D01*
X9450865Y-20161435D02*
X9450865Y-20113816D01*
X9450865Y-20113816D02*
X9460389Y-20075720D01*
X9460389Y-20075720D02*
X9469913Y-20056673D01*
X9469913Y-20056673D02*
X9479436Y-20047149D01*
X9479436Y-20047149D02*
X9498484Y-20037625D01*
X9650865Y-20237625D02*
X9650865Y-20104292D01*
X9650865Y-20123339D02*
X9660389Y-20113816D01*
X9660389Y-20113816D02*
X9679436Y-20104292D01*
X9679436Y-20104292D02*
X9708008Y-20104292D01*
X9708008Y-20104292D02*
X9727056Y-20113816D01*
X9727056Y-20113816D02*
X9736579Y-20132863D01*
X9736579Y-20132863D02*
X9736579Y-20237625D01*
X9736579Y-20132863D02*
X9746103Y-20113816D01*
X9746103Y-20113816D02*
X9765151Y-20104292D01*
X9765151Y-20104292D02*
X9793722Y-20104292D01*
X9793722Y-20104292D02*
X9812770Y-20113816D01*
X9812770Y-20113816D02*
X9822294Y-20132863D01*
X9822294Y-20132863D02*
X9822294Y-20237625D01*
X9917532Y-20237625D02*
X9917532Y-20104292D01*
X9917532Y-20123339D02*
X9927056Y-20113816D01*
X9927056Y-20113816D02*
X9946103Y-20104292D01*
X9946103Y-20104292D02*
X9974675Y-20104292D01*
X9974675Y-20104292D02*
X9993722Y-20113816D01*
X9993722Y-20113816D02*
X10003246Y-20132863D01*
X10003246Y-20132863D02*
X10003246Y-20237625D01*
X10003246Y-20132863D02*
X10012770Y-20113816D01*
X10012770Y-20113816D02*
X10031817Y-20104292D01*
X10031817Y-20104292D02*
X10060389Y-20104292D01*
X10060389Y-20104292D02*
X10079437Y-20113816D01*
X10079437Y-20113816D02*
X10088960Y-20132863D01*
X10088960Y-20132863D02*
X10088960Y-20237625D01*
X10479437Y-20028101D02*
X10308008Y-20285244D01*
X10736579Y-20037625D02*
X10755627Y-20037625D01*
X10755627Y-20037625D02*
X10774675Y-20047149D01*
X10774675Y-20047149D02*
X10784199Y-20056673D01*
X10784199Y-20056673D02*
X10793722Y-20075720D01*
X10793722Y-20075720D02*
X10803246Y-20113816D01*
X10803246Y-20113816D02*
X10803246Y-20161435D01*
X10803246Y-20161435D02*
X10793722Y-20199530D01*
X10793722Y-20199530D02*
X10784199Y-20218578D01*
X10784199Y-20218578D02*
X10774675Y-20228101D01*
X10774675Y-20228101D02*
X10755627Y-20237625D01*
X10755627Y-20237625D02*
X10736579Y-20237625D01*
X10736579Y-20237625D02*
X10717532Y-20228101D01*
X10717532Y-20228101D02*
X10708008Y-20218578D01*
X10708008Y-20218578D02*
X10698484Y-20199530D01*
X10698484Y-20199530D02*
X10688960Y-20161435D01*
X10688960Y-20161435D02*
X10688960Y-20113816D01*
X10688960Y-20113816D02*
X10698484Y-20075720D01*
X10698484Y-20075720D02*
X10708008Y-20056673D01*
X10708008Y-20056673D02*
X10717532Y-20047149D01*
X10717532Y-20047149D02*
X10736579Y-20037625D01*
X10888960Y-20218578D02*
X10898484Y-20228101D01*
X10898484Y-20228101D02*
X10888960Y-20237625D01*
X10888960Y-20237625D02*
X10879437Y-20228101D01*
X10879437Y-20228101D02*
X10888960Y-20218578D01*
X10888960Y-20218578D02*
X10888960Y-20237625D01*
X11022294Y-20037625D02*
X11041341Y-20037625D01*
X11041341Y-20037625D02*
X11060389Y-20047149D01*
X11060389Y-20047149D02*
X11069913Y-20056673D01*
X11069913Y-20056673D02*
X11079437Y-20075720D01*
X11079437Y-20075720D02*
X11088960Y-20113816D01*
X11088960Y-20113816D02*
X11088960Y-20161435D01*
X11088960Y-20161435D02*
X11079437Y-20199530D01*
X11079437Y-20199530D02*
X11069913Y-20218578D01*
X11069913Y-20218578D02*
X11060389Y-20228101D01*
X11060389Y-20228101D02*
X11041341Y-20237625D01*
X11041341Y-20237625D02*
X11022294Y-20237625D01*
X11022294Y-20237625D02*
X11003246Y-20228101D01*
X11003246Y-20228101D02*
X10993722Y-20218578D01*
X10993722Y-20218578D02*
X10984199Y-20199530D01*
X10984199Y-20199530D02*
X10974675Y-20161435D01*
X10974675Y-20161435D02*
X10974675Y-20113816D01*
X10974675Y-20113816D02*
X10984199Y-20075720D01*
X10984199Y-20075720D02*
X10993722Y-20056673D01*
X10993722Y-20056673D02*
X11003246Y-20047149D01*
X11003246Y-20047149D02*
X11022294Y-20037625D01*
X11279437Y-20237625D02*
X11165151Y-20237625D01*
X11222294Y-20237625D02*
X11222294Y-20037625D01*
X11222294Y-20037625D02*
X11203246Y-20066197D01*
X11203246Y-20066197D02*
X11184199Y-20085244D01*
X11184199Y-20085244D02*
X11165151Y-20094768D01*
X11469913Y-20237625D02*
X11355627Y-20237625D01*
X11412770Y-20237625D02*
X11412770Y-20037625D01*
X11412770Y-20037625D02*
X11393722Y-20066197D01*
X11393722Y-20066197D02*
X11374675Y-20085244D01*
X11374675Y-20085244D02*
X11355627Y-20094768D01*
X11584198Y-20123339D02*
X11565151Y-20113816D01*
X11565151Y-20113816D02*
X11555627Y-20104292D01*
X11555627Y-20104292D02*
X11546103Y-20085244D01*
X11546103Y-20085244D02*
X11546103Y-20075720D01*
X11546103Y-20075720D02*
X11555627Y-20056673D01*
X11555627Y-20056673D02*
X11565151Y-20047149D01*
X11565151Y-20047149D02*
X11584198Y-20037625D01*
X11584198Y-20037625D02*
X11622294Y-20037625D01*
X11622294Y-20037625D02*
X11641341Y-20047149D01*
X11641341Y-20047149D02*
X11650865Y-20056673D01*
X11650865Y-20056673D02*
X11660389Y-20075720D01*
X11660389Y-20075720D02*
X11660389Y-20085244D01*
X11660389Y-20085244D02*
X11650865Y-20104292D01*
X11650865Y-20104292D02*
X11641341Y-20113816D01*
X11641341Y-20113816D02*
X11622294Y-20123339D01*
X11622294Y-20123339D02*
X11584198Y-20123339D01*
X11584198Y-20123339D02*
X11565151Y-20132863D01*
X11565151Y-20132863D02*
X11555627Y-20142387D01*
X11555627Y-20142387D02*
X11546103Y-20161435D01*
X11546103Y-20161435D02*
X11546103Y-20199530D01*
X11546103Y-20199530D02*
X11555627Y-20218578D01*
X11555627Y-20218578D02*
X11565151Y-20228101D01*
X11565151Y-20228101D02*
X11584198Y-20237625D01*
X11584198Y-20237625D02*
X11622294Y-20237625D01*
X11622294Y-20237625D02*
X11641341Y-20228101D01*
X11641341Y-20228101D02*
X11650865Y-20218578D01*
X11650865Y-20218578D02*
X11660389Y-20199530D01*
X11660389Y-20199530D02*
X11660389Y-20161435D01*
X11660389Y-20161435D02*
X11650865Y-20142387D01*
X11650865Y-20142387D02*
X11641341Y-20132863D01*
X11641341Y-20132863D02*
X11622294Y-20123339D01*
X11736579Y-20037625D02*
X11736579Y-20075720D01*
X11812770Y-20037625D02*
X11812770Y-20075720D01*
X12108008Y-20313816D02*
X12098484Y-20304292D01*
X12098484Y-20304292D02*
X12079437Y-20275720D01*
X12079437Y-20275720D02*
X12069913Y-20256673D01*
X12069913Y-20256673D02*
X12060389Y-20228101D01*
X12060389Y-20228101D02*
X12050865Y-20180482D01*
X12050865Y-20180482D02*
X12050865Y-20142387D01*
X12050865Y-20142387D02*
X12060389Y-20094768D01*
X12060389Y-20094768D02*
X12069913Y-20066197D01*
X12069913Y-20066197D02*
X12079437Y-20047149D01*
X12079437Y-20047149D02*
X12098484Y-20018578D01*
X12098484Y-20018578D02*
X12108008Y-20009054D01*
X12212770Y-20123339D02*
X12193722Y-20113816D01*
X12193722Y-20113816D02*
X12184199Y-20104292D01*
X12184199Y-20104292D02*
X12174675Y-20085244D01*
X12174675Y-20085244D02*
X12174675Y-20075720D01*
X12174675Y-20075720D02*
X12184199Y-20056673D01*
X12184199Y-20056673D02*
X12193722Y-20047149D01*
X12193722Y-20047149D02*
X12212770Y-20037625D01*
X12212770Y-20037625D02*
X12250865Y-20037625D01*
X12250865Y-20037625D02*
X12269913Y-20047149D01*
X12269913Y-20047149D02*
X12279437Y-20056673D01*
X12279437Y-20056673D02*
X12288960Y-20075720D01*
X12288960Y-20075720D02*
X12288960Y-20085244D01*
X12288960Y-20085244D02*
X12279437Y-20104292D01*
X12279437Y-20104292D02*
X12269913Y-20113816D01*
X12269913Y-20113816D02*
X12250865Y-20123339D01*
X12250865Y-20123339D02*
X12212770Y-20123339D01*
X12212770Y-20123339D02*
X12193722Y-20132863D01*
X12193722Y-20132863D02*
X12184199Y-20142387D01*
X12184199Y-20142387D02*
X12174675Y-20161435D01*
X12174675Y-20161435D02*
X12174675Y-20199530D01*
X12174675Y-20199530D02*
X12184199Y-20218578D01*
X12184199Y-20218578D02*
X12193722Y-20228101D01*
X12193722Y-20228101D02*
X12212770Y-20237625D01*
X12212770Y-20237625D02*
X12250865Y-20237625D01*
X12250865Y-20237625D02*
X12269913Y-20228101D01*
X12269913Y-20228101D02*
X12279437Y-20218578D01*
X12279437Y-20218578D02*
X12288960Y-20199530D01*
X12288960Y-20199530D02*
X12288960Y-20161435D01*
X12288960Y-20161435D02*
X12279437Y-20142387D01*
X12279437Y-20142387D02*
X12269913Y-20132863D01*
X12269913Y-20132863D02*
X12250865Y-20123339D01*
X12403246Y-20123339D02*
X12384199Y-20113816D01*
X12384199Y-20113816D02*
X12374675Y-20104292D01*
X12374675Y-20104292D02*
X12365151Y-20085244D01*
X12365151Y-20085244D02*
X12365151Y-20075720D01*
X12365151Y-20075720D02*
X12374675Y-20056673D01*
X12374675Y-20056673D02*
X12384199Y-20047149D01*
X12384199Y-20047149D02*
X12403246Y-20037625D01*
X12403246Y-20037625D02*
X12441341Y-20037625D01*
X12441341Y-20037625D02*
X12460389Y-20047149D01*
X12460389Y-20047149D02*
X12469913Y-20056673D01*
X12469913Y-20056673D02*
X12479437Y-20075720D01*
X12479437Y-20075720D02*
X12479437Y-20085244D01*
X12479437Y-20085244D02*
X12469913Y-20104292D01*
X12469913Y-20104292D02*
X12460389Y-20113816D01*
X12460389Y-20113816D02*
X12441341Y-20123339D01*
X12441341Y-20123339D02*
X12403246Y-20123339D01*
X12403246Y-20123339D02*
X12384199Y-20132863D01*
X12384199Y-20132863D02*
X12374675Y-20142387D01*
X12374675Y-20142387D02*
X12365151Y-20161435D01*
X12365151Y-20161435D02*
X12365151Y-20199530D01*
X12365151Y-20199530D02*
X12374675Y-20218578D01*
X12374675Y-20218578D02*
X12384199Y-20228101D01*
X12384199Y-20228101D02*
X12403246Y-20237625D01*
X12403246Y-20237625D02*
X12441341Y-20237625D01*
X12441341Y-20237625D02*
X12460389Y-20228101D01*
X12460389Y-20228101D02*
X12469913Y-20218578D01*
X12469913Y-20218578D02*
X12479437Y-20199530D01*
X12479437Y-20199530D02*
X12479437Y-20161435D01*
X12479437Y-20161435D02*
X12469913Y-20142387D01*
X12469913Y-20142387D02*
X12460389Y-20132863D01*
X12460389Y-20132863D02*
X12441341Y-20123339D01*
X12717532Y-20237625D02*
X12717532Y-20037625D01*
X12803246Y-20237625D02*
X12803246Y-20132863D01*
X12803246Y-20132863D02*
X12793722Y-20113816D01*
X12793722Y-20113816D02*
X12774675Y-20104292D01*
X12774675Y-20104292D02*
X12746103Y-20104292D01*
X12746103Y-20104292D02*
X12727056Y-20113816D01*
X12727056Y-20113816D02*
X12717532Y-20123339D01*
X12927056Y-20237625D02*
X12908008Y-20228101D01*
X12908008Y-20228101D02*
X12898484Y-20218578D01*
X12898484Y-20218578D02*
X12888961Y-20199530D01*
X12888961Y-20199530D02*
X12888961Y-20142387D01*
X12888961Y-20142387D02*
X12898484Y-20123339D01*
X12898484Y-20123339D02*
X12908008Y-20113816D01*
X12908008Y-20113816D02*
X12927056Y-20104292D01*
X12927056Y-20104292D02*
X12955627Y-20104292D01*
X12955627Y-20104292D02*
X12974675Y-20113816D01*
X12974675Y-20113816D02*
X12984199Y-20123339D01*
X12984199Y-20123339D02*
X12993722Y-20142387D01*
X12993722Y-20142387D02*
X12993722Y-20199530D01*
X12993722Y-20199530D02*
X12984199Y-20218578D01*
X12984199Y-20218578D02*
X12974675Y-20228101D01*
X12974675Y-20228101D02*
X12955627Y-20237625D01*
X12955627Y-20237625D02*
X12927056Y-20237625D01*
X13108008Y-20237625D02*
X13088961Y-20228101D01*
X13088961Y-20228101D02*
X13079437Y-20209054D01*
X13079437Y-20209054D02*
X13079437Y-20037625D01*
X13260389Y-20228101D02*
X13241342Y-20237625D01*
X13241342Y-20237625D02*
X13203246Y-20237625D01*
X13203246Y-20237625D02*
X13184199Y-20228101D01*
X13184199Y-20228101D02*
X13174675Y-20209054D01*
X13174675Y-20209054D02*
X13174675Y-20132863D01*
X13174675Y-20132863D02*
X13184199Y-20113816D01*
X13184199Y-20113816D02*
X13203246Y-20104292D01*
X13203246Y-20104292D02*
X13241342Y-20104292D01*
X13241342Y-20104292D02*
X13260389Y-20113816D01*
X13260389Y-20113816D02*
X13269913Y-20132863D01*
X13269913Y-20132863D02*
X13269913Y-20151911D01*
X13269913Y-20151911D02*
X13174675Y-20170959D01*
X13346103Y-20228101D02*
X13365151Y-20237625D01*
X13365151Y-20237625D02*
X13403246Y-20237625D01*
X13403246Y-20237625D02*
X13422294Y-20228101D01*
X13422294Y-20228101D02*
X13431818Y-20209054D01*
X13431818Y-20209054D02*
X13431818Y-20199530D01*
X13431818Y-20199530D02*
X13422294Y-20180482D01*
X13422294Y-20180482D02*
X13403246Y-20170959D01*
X13403246Y-20170959D02*
X13374675Y-20170959D01*
X13374675Y-20170959D02*
X13355627Y-20161435D01*
X13355627Y-20161435D02*
X13346103Y-20142387D01*
X13346103Y-20142387D02*
X13346103Y-20132863D01*
X13346103Y-20132863D02*
X13355627Y-20113816D01*
X13355627Y-20113816D02*
X13374675Y-20104292D01*
X13374675Y-20104292D02*
X13403246Y-20104292D01*
X13403246Y-20104292D02*
X13422294Y-20113816D01*
X13498484Y-20313816D02*
X13508008Y-20304292D01*
X13508008Y-20304292D02*
X13527056Y-20275720D01*
X13527056Y-20275720D02*
X13536580Y-20256673D01*
X13536580Y-20256673D02*
X13546103Y-20228101D01*
X13546103Y-20228101D02*
X13555627Y-20180482D01*
X13555627Y-20180482D02*
X13555627Y-20142387D01*
X13555627Y-20142387D02*
X13546103Y-20094768D01*
X13546103Y-20094768D02*
X13536580Y-20066197D01*
X13536580Y-20066197D02*
X13527056Y-20047149D01*
X13527056Y-20047149D02*
X13508008Y-20018578D01*
X13508008Y-20018578D02*
X13498484Y-20009054D01*
D11*
X8532945Y-20410141D02*
G75*
G02*
X8492945Y-20410141I-20000J0D01*
G01*
X8492945Y-20410141D02*
G75*
G02*
X8532945Y-20410141I20000J0D01*
G01*
D14*
X8831817Y-20301625D02*
X8850865Y-20301625D01*
X8850865Y-20301625D02*
X8869913Y-20311149D01*
X8869913Y-20311149D02*
X8879436Y-20320673D01*
X8879436Y-20320673D02*
X8888960Y-20339720D01*
X8888960Y-20339720D02*
X8898484Y-20377816D01*
X8898484Y-20377816D02*
X8898484Y-20425435D01*
X8898484Y-20425435D02*
X8888960Y-20463530D01*
X8888960Y-20463530D02*
X8879436Y-20482578D01*
X8879436Y-20482578D02*
X8869913Y-20492101D01*
X8869913Y-20492101D02*
X8850865Y-20501625D01*
X8850865Y-20501625D02*
X8831817Y-20501625D01*
X8831817Y-20501625D02*
X8812770Y-20492101D01*
X8812770Y-20492101D02*
X8803246Y-20482578D01*
X8803246Y-20482578D02*
X8793722Y-20463530D01*
X8793722Y-20463530D02*
X8784198Y-20425435D01*
X8784198Y-20425435D02*
X8784198Y-20377816D01*
X8784198Y-20377816D02*
X8793722Y-20339720D01*
X8793722Y-20339720D02*
X8803246Y-20320673D01*
X8803246Y-20320673D02*
X8812770Y-20311149D01*
X8812770Y-20311149D02*
X8831817Y-20301625D01*
X8984198Y-20482578D02*
X8993722Y-20492101D01*
X8993722Y-20492101D02*
X8984198Y-20501625D01*
X8984198Y-20501625D02*
X8974675Y-20492101D01*
X8974675Y-20492101D02*
X8984198Y-20482578D01*
X8984198Y-20482578D02*
X8984198Y-20501625D01*
X9165151Y-20368292D02*
X9165151Y-20501625D01*
X9117532Y-20292101D02*
X9069913Y-20434959D01*
X9069913Y-20434959D02*
X9193722Y-20434959D01*
X9308008Y-20301625D02*
X9327056Y-20301625D01*
X9327056Y-20301625D02*
X9346103Y-20311149D01*
X9346103Y-20311149D02*
X9355627Y-20320673D01*
X9355627Y-20320673D02*
X9365151Y-20339720D01*
X9365151Y-20339720D02*
X9374675Y-20377816D01*
X9374675Y-20377816D02*
X9374675Y-20425435D01*
X9374675Y-20425435D02*
X9365151Y-20463530D01*
X9365151Y-20463530D02*
X9355627Y-20482578D01*
X9355627Y-20482578D02*
X9346103Y-20492101D01*
X9346103Y-20492101D02*
X9327056Y-20501625D01*
X9327056Y-20501625D02*
X9308008Y-20501625D01*
X9308008Y-20501625D02*
X9288960Y-20492101D01*
X9288960Y-20492101D02*
X9279436Y-20482578D01*
X9279436Y-20482578D02*
X9269913Y-20463530D01*
X9269913Y-20463530D02*
X9260389Y-20425435D01*
X9260389Y-20425435D02*
X9260389Y-20377816D01*
X9260389Y-20377816D02*
X9269913Y-20339720D01*
X9269913Y-20339720D02*
X9279436Y-20320673D01*
X9279436Y-20320673D02*
X9288960Y-20311149D01*
X9288960Y-20311149D02*
X9308008Y-20301625D01*
X9498484Y-20301625D02*
X9517532Y-20301625D01*
X9517532Y-20301625D02*
X9536579Y-20311149D01*
X9536579Y-20311149D02*
X9546103Y-20320673D01*
X9546103Y-20320673D02*
X9555627Y-20339720D01*
X9555627Y-20339720D02*
X9565151Y-20377816D01*
X9565151Y-20377816D02*
X9565151Y-20425435D01*
X9565151Y-20425435D02*
X9555627Y-20463530D01*
X9555627Y-20463530D02*
X9546103Y-20482578D01*
X9546103Y-20482578D02*
X9536579Y-20492101D01*
X9536579Y-20492101D02*
X9517532Y-20501625D01*
X9517532Y-20501625D02*
X9498484Y-20501625D01*
X9498484Y-20501625D02*
X9479436Y-20492101D01*
X9479436Y-20492101D02*
X9469913Y-20482578D01*
X9469913Y-20482578D02*
X9460389Y-20463530D01*
X9460389Y-20463530D02*
X9450865Y-20425435D01*
X9450865Y-20425435D02*
X9450865Y-20377816D01*
X9450865Y-20377816D02*
X9460389Y-20339720D01*
X9460389Y-20339720D02*
X9469913Y-20320673D01*
X9469913Y-20320673D02*
X9479436Y-20311149D01*
X9479436Y-20311149D02*
X9498484Y-20301625D01*
X9650865Y-20501625D02*
X9650865Y-20368292D01*
X9650865Y-20387339D02*
X9660389Y-20377816D01*
X9660389Y-20377816D02*
X9679436Y-20368292D01*
X9679436Y-20368292D02*
X9708008Y-20368292D01*
X9708008Y-20368292D02*
X9727056Y-20377816D01*
X9727056Y-20377816D02*
X9736579Y-20396863D01*
X9736579Y-20396863D02*
X9736579Y-20501625D01*
X9736579Y-20396863D02*
X9746103Y-20377816D01*
X9746103Y-20377816D02*
X9765151Y-20368292D01*
X9765151Y-20368292D02*
X9793722Y-20368292D01*
X9793722Y-20368292D02*
X9812770Y-20377816D01*
X9812770Y-20377816D02*
X9822294Y-20396863D01*
X9822294Y-20396863D02*
X9822294Y-20501625D01*
X9917532Y-20501625D02*
X9917532Y-20368292D01*
X9917532Y-20387339D02*
X9927056Y-20377816D01*
X9927056Y-20377816D02*
X9946103Y-20368292D01*
X9946103Y-20368292D02*
X9974675Y-20368292D01*
X9974675Y-20368292D02*
X9993722Y-20377816D01*
X9993722Y-20377816D02*
X10003246Y-20396863D01*
X10003246Y-20396863D02*
X10003246Y-20501625D01*
X10003246Y-20396863D02*
X10012770Y-20377816D01*
X10012770Y-20377816D02*
X10031817Y-20368292D01*
X10031817Y-20368292D02*
X10060389Y-20368292D01*
X10060389Y-20368292D02*
X10079437Y-20377816D01*
X10079437Y-20377816D02*
X10088960Y-20396863D01*
X10088960Y-20396863D02*
X10088960Y-20501625D01*
X10479437Y-20292101D02*
X10308008Y-20549244D01*
X10736579Y-20301625D02*
X10755627Y-20301625D01*
X10755627Y-20301625D02*
X10774675Y-20311149D01*
X10774675Y-20311149D02*
X10784199Y-20320673D01*
X10784199Y-20320673D02*
X10793722Y-20339720D01*
X10793722Y-20339720D02*
X10803246Y-20377816D01*
X10803246Y-20377816D02*
X10803246Y-20425435D01*
X10803246Y-20425435D02*
X10793722Y-20463530D01*
X10793722Y-20463530D02*
X10784199Y-20482578D01*
X10784199Y-20482578D02*
X10774675Y-20492101D01*
X10774675Y-20492101D02*
X10755627Y-20501625D01*
X10755627Y-20501625D02*
X10736579Y-20501625D01*
X10736579Y-20501625D02*
X10717532Y-20492101D01*
X10717532Y-20492101D02*
X10708008Y-20482578D01*
X10708008Y-20482578D02*
X10698484Y-20463530D01*
X10698484Y-20463530D02*
X10688960Y-20425435D01*
X10688960Y-20425435D02*
X10688960Y-20377816D01*
X10688960Y-20377816D02*
X10698484Y-20339720D01*
X10698484Y-20339720D02*
X10708008Y-20320673D01*
X10708008Y-20320673D02*
X10717532Y-20311149D01*
X10717532Y-20311149D02*
X10736579Y-20301625D01*
X10888960Y-20482578D02*
X10898484Y-20492101D01*
X10898484Y-20492101D02*
X10888960Y-20501625D01*
X10888960Y-20501625D02*
X10879437Y-20492101D01*
X10879437Y-20492101D02*
X10888960Y-20482578D01*
X10888960Y-20482578D02*
X10888960Y-20501625D01*
X11022294Y-20301625D02*
X11041341Y-20301625D01*
X11041341Y-20301625D02*
X11060389Y-20311149D01*
X11060389Y-20311149D02*
X11069913Y-20320673D01*
X11069913Y-20320673D02*
X11079437Y-20339720D01*
X11079437Y-20339720D02*
X11088960Y-20377816D01*
X11088960Y-20377816D02*
X11088960Y-20425435D01*
X11088960Y-20425435D02*
X11079437Y-20463530D01*
X11079437Y-20463530D02*
X11069913Y-20482578D01*
X11069913Y-20482578D02*
X11060389Y-20492101D01*
X11060389Y-20492101D02*
X11041341Y-20501625D01*
X11041341Y-20501625D02*
X11022294Y-20501625D01*
X11022294Y-20501625D02*
X11003246Y-20492101D01*
X11003246Y-20492101D02*
X10993722Y-20482578D01*
X10993722Y-20482578D02*
X10984199Y-20463530D01*
X10984199Y-20463530D02*
X10974675Y-20425435D01*
X10974675Y-20425435D02*
X10974675Y-20377816D01*
X10974675Y-20377816D02*
X10984199Y-20339720D01*
X10984199Y-20339720D02*
X10993722Y-20320673D01*
X10993722Y-20320673D02*
X11003246Y-20311149D01*
X11003246Y-20311149D02*
X11022294Y-20301625D01*
X11279437Y-20501625D02*
X11165151Y-20501625D01*
X11222294Y-20501625D02*
X11222294Y-20301625D01*
X11222294Y-20301625D02*
X11203246Y-20330197D01*
X11203246Y-20330197D02*
X11184199Y-20349244D01*
X11184199Y-20349244D02*
X11165151Y-20358768D01*
X11460389Y-20301625D02*
X11365151Y-20301625D01*
X11365151Y-20301625D02*
X11355627Y-20396863D01*
X11355627Y-20396863D02*
X11365151Y-20387339D01*
X11365151Y-20387339D02*
X11384198Y-20377816D01*
X11384198Y-20377816D02*
X11431818Y-20377816D01*
X11431818Y-20377816D02*
X11450865Y-20387339D01*
X11450865Y-20387339D02*
X11460389Y-20396863D01*
X11460389Y-20396863D02*
X11469913Y-20415911D01*
X11469913Y-20415911D02*
X11469913Y-20463530D01*
X11469913Y-20463530D02*
X11460389Y-20482578D01*
X11460389Y-20482578D02*
X11450865Y-20492101D01*
X11450865Y-20492101D02*
X11431818Y-20501625D01*
X11431818Y-20501625D02*
X11384198Y-20501625D01*
X11384198Y-20501625D02*
X11365151Y-20492101D01*
X11365151Y-20492101D02*
X11355627Y-20482578D01*
X11536579Y-20301625D02*
X11669913Y-20301625D01*
X11669913Y-20301625D02*
X11584198Y-20501625D01*
X11736579Y-20301625D02*
X11736579Y-20339720D01*
X11812770Y-20301625D02*
X11812770Y-20339720D01*
X12108008Y-20577816D02*
X12098484Y-20568292D01*
X12098484Y-20568292D02*
X12079437Y-20539720D01*
X12079437Y-20539720D02*
X12069913Y-20520673D01*
X12069913Y-20520673D02*
X12060389Y-20492101D01*
X12060389Y-20492101D02*
X12050865Y-20444482D01*
X12050865Y-20444482D02*
X12050865Y-20406387D01*
X12050865Y-20406387D02*
X12060389Y-20358768D01*
X12060389Y-20358768D02*
X12069913Y-20330197D01*
X12069913Y-20330197D02*
X12079437Y-20311149D01*
X12079437Y-20311149D02*
X12098484Y-20282578D01*
X12098484Y-20282578D02*
X12108008Y-20273054D01*
X12288960Y-20501625D02*
X12174675Y-20501625D01*
X12231818Y-20501625D02*
X12231818Y-20301625D01*
X12231818Y-20301625D02*
X12212770Y-20330197D01*
X12212770Y-20330197D02*
X12193722Y-20349244D01*
X12193722Y-20349244D02*
X12174675Y-20358768D01*
X12460389Y-20368292D02*
X12460389Y-20501625D01*
X12412770Y-20292101D02*
X12365151Y-20434959D01*
X12365151Y-20434959D02*
X12488960Y-20434959D01*
X12650865Y-20368292D02*
X12650865Y-20501625D01*
X12603246Y-20292101D02*
X12555627Y-20434959D01*
X12555627Y-20434959D02*
X12679437Y-20434959D01*
X12908008Y-20501625D02*
X12908008Y-20301625D01*
X12993722Y-20501625D02*
X12993722Y-20396863D01*
X12993722Y-20396863D02*
X12984199Y-20377816D01*
X12984199Y-20377816D02*
X12965151Y-20368292D01*
X12965151Y-20368292D02*
X12936580Y-20368292D01*
X12936580Y-20368292D02*
X12917532Y-20377816D01*
X12917532Y-20377816D02*
X12908008Y-20387339D01*
X13117532Y-20501625D02*
X13098484Y-20492101D01*
X13098484Y-20492101D02*
X13088961Y-20482578D01*
X13088961Y-20482578D02*
X13079437Y-20463530D01*
X13079437Y-20463530D02*
X13079437Y-20406387D01*
X13079437Y-20406387D02*
X13088961Y-20387339D01*
X13088961Y-20387339D02*
X13098484Y-20377816D01*
X13098484Y-20377816D02*
X13117532Y-20368292D01*
X13117532Y-20368292D02*
X13146103Y-20368292D01*
X13146103Y-20368292D02*
X13165151Y-20377816D01*
X13165151Y-20377816D02*
X13174675Y-20387339D01*
X13174675Y-20387339D02*
X13184199Y-20406387D01*
X13184199Y-20406387D02*
X13184199Y-20463530D01*
X13184199Y-20463530D02*
X13174675Y-20482578D01*
X13174675Y-20482578D02*
X13165151Y-20492101D01*
X13165151Y-20492101D02*
X13146103Y-20501625D01*
X13146103Y-20501625D02*
X13117532Y-20501625D01*
X13298484Y-20501625D02*
X13279437Y-20492101D01*
X13279437Y-20492101D02*
X13269913Y-20473054D01*
X13269913Y-20473054D02*
X13269913Y-20301625D01*
X13450865Y-20492101D02*
X13431818Y-20501625D01*
X13431818Y-20501625D02*
X13393722Y-20501625D01*
X13393722Y-20501625D02*
X13374675Y-20492101D01*
X13374675Y-20492101D02*
X13365151Y-20473054D01*
X13365151Y-20473054D02*
X13365151Y-20396863D01*
X13365151Y-20396863D02*
X13374675Y-20377816D01*
X13374675Y-20377816D02*
X13393722Y-20368292D01*
X13393722Y-20368292D02*
X13431818Y-20368292D01*
X13431818Y-20368292D02*
X13450865Y-20377816D01*
X13450865Y-20377816D02*
X13460389Y-20396863D01*
X13460389Y-20396863D02*
X13460389Y-20415911D01*
X13460389Y-20415911D02*
X13365151Y-20434959D01*
X13536580Y-20492101D02*
X13555627Y-20501625D01*
X13555627Y-20501625D02*
X13593722Y-20501625D01*
X13593722Y-20501625D02*
X13612770Y-20492101D01*
X13612770Y-20492101D02*
X13622294Y-20473054D01*
X13622294Y-20473054D02*
X13622294Y-20463530D01*
X13622294Y-20463530D02*
X13612770Y-20444482D01*
X13612770Y-20444482D02*
X13593722Y-20434959D01*
X13593722Y-20434959D02*
X13565151Y-20434959D01*
X13565151Y-20434959D02*
X13546103Y-20425435D01*
X13546103Y-20425435D02*
X13536580Y-20406387D01*
X13536580Y-20406387D02*
X13536580Y-20396863D01*
X13536580Y-20396863D02*
X13546103Y-20377816D01*
X13546103Y-20377816D02*
X13565151Y-20368292D01*
X13565151Y-20368292D02*
X13593722Y-20368292D01*
X13593722Y-20368292D02*
X13612770Y-20377816D01*
X13688961Y-20577816D02*
X13698484Y-20568292D01*
X13698484Y-20568292D02*
X13717532Y-20539720D01*
X13717532Y-20539720D02*
X13727056Y-20520673D01*
X13727056Y-20520673D02*
X13736580Y-20492101D01*
X13736580Y-20492101D02*
X13746103Y-20444482D01*
X13746103Y-20444482D02*
X13746103Y-20406387D01*
X13746103Y-20406387D02*
X13736580Y-20358768D01*
X13736580Y-20358768D02*
X13727056Y-20330197D01*
X13727056Y-20330197D02*
X13717532Y-20311149D01*
X13717532Y-20311149D02*
X13698484Y-20282578D01*
X13698484Y-20282578D02*
X13688961Y-20273054D01*
D11*
X8500445Y-20641641D02*
X8500445Y-20706641D01*
X8467945Y-20674141D02*
X8532945Y-20674141D01*
D14*
X8831817Y-20565625D02*
X8850865Y-20565625D01*
X8850865Y-20565625D02*
X8869913Y-20575149D01*
X8869913Y-20575149D02*
X8879436Y-20584673D01*
X8879436Y-20584673D02*
X8888960Y-20603720D01*
X8888960Y-20603720D02*
X8898484Y-20641816D01*
X8898484Y-20641816D02*
X8898484Y-20689435D01*
X8898484Y-20689435D02*
X8888960Y-20727530D01*
X8888960Y-20727530D02*
X8879436Y-20746578D01*
X8879436Y-20746578D02*
X8869913Y-20756101D01*
X8869913Y-20756101D02*
X8850865Y-20765625D01*
X8850865Y-20765625D02*
X8831817Y-20765625D01*
X8831817Y-20765625D02*
X8812770Y-20756101D01*
X8812770Y-20756101D02*
X8803246Y-20746578D01*
X8803246Y-20746578D02*
X8793722Y-20727530D01*
X8793722Y-20727530D02*
X8784198Y-20689435D01*
X8784198Y-20689435D02*
X8784198Y-20641816D01*
X8784198Y-20641816D02*
X8793722Y-20603720D01*
X8793722Y-20603720D02*
X8803246Y-20584673D01*
X8803246Y-20584673D02*
X8812770Y-20575149D01*
X8812770Y-20575149D02*
X8831817Y-20565625D01*
X8984198Y-20746578D02*
X8993722Y-20756101D01*
X8993722Y-20756101D02*
X8984198Y-20765625D01*
X8984198Y-20765625D02*
X8974675Y-20756101D01*
X8974675Y-20756101D02*
X8984198Y-20746578D01*
X8984198Y-20746578D02*
X8984198Y-20765625D01*
X9165151Y-20565625D02*
X9127055Y-20565625D01*
X9127055Y-20565625D02*
X9108008Y-20575149D01*
X9108008Y-20575149D02*
X9098484Y-20584673D01*
X9098484Y-20584673D02*
X9079436Y-20613244D01*
X9079436Y-20613244D02*
X9069913Y-20651339D01*
X9069913Y-20651339D02*
X9069913Y-20727530D01*
X9069913Y-20727530D02*
X9079436Y-20746578D01*
X9079436Y-20746578D02*
X9088960Y-20756101D01*
X9088960Y-20756101D02*
X9108008Y-20765625D01*
X9108008Y-20765625D02*
X9146103Y-20765625D01*
X9146103Y-20765625D02*
X9165151Y-20756101D01*
X9165151Y-20756101D02*
X9174675Y-20746578D01*
X9174675Y-20746578D02*
X9184198Y-20727530D01*
X9184198Y-20727530D02*
X9184198Y-20679911D01*
X9184198Y-20679911D02*
X9174675Y-20660863D01*
X9174675Y-20660863D02*
X9165151Y-20651339D01*
X9165151Y-20651339D02*
X9146103Y-20641816D01*
X9146103Y-20641816D02*
X9108008Y-20641816D01*
X9108008Y-20641816D02*
X9088960Y-20651339D01*
X9088960Y-20651339D02*
X9079436Y-20660863D01*
X9079436Y-20660863D02*
X9069913Y-20679911D01*
X9365151Y-20565625D02*
X9269913Y-20565625D01*
X9269913Y-20565625D02*
X9260389Y-20660863D01*
X9260389Y-20660863D02*
X9269913Y-20651339D01*
X9269913Y-20651339D02*
X9288960Y-20641816D01*
X9288960Y-20641816D02*
X9336579Y-20641816D01*
X9336579Y-20641816D02*
X9355627Y-20651339D01*
X9355627Y-20651339D02*
X9365151Y-20660863D01*
X9365151Y-20660863D02*
X9374675Y-20679911D01*
X9374675Y-20679911D02*
X9374675Y-20727530D01*
X9374675Y-20727530D02*
X9365151Y-20746578D01*
X9365151Y-20746578D02*
X9355627Y-20756101D01*
X9355627Y-20756101D02*
X9336579Y-20765625D01*
X9336579Y-20765625D02*
X9288960Y-20765625D01*
X9288960Y-20765625D02*
X9269913Y-20756101D01*
X9269913Y-20756101D02*
X9260389Y-20746578D01*
X9498484Y-20565625D02*
X9517532Y-20565625D01*
X9517532Y-20565625D02*
X9536579Y-20575149D01*
X9536579Y-20575149D02*
X9546103Y-20584673D01*
X9546103Y-20584673D02*
X9555627Y-20603720D01*
X9555627Y-20603720D02*
X9565151Y-20641816D01*
X9565151Y-20641816D02*
X9565151Y-20689435D01*
X9565151Y-20689435D02*
X9555627Y-20727530D01*
X9555627Y-20727530D02*
X9546103Y-20746578D01*
X9546103Y-20746578D02*
X9536579Y-20756101D01*
X9536579Y-20756101D02*
X9517532Y-20765625D01*
X9517532Y-20765625D02*
X9498484Y-20765625D01*
X9498484Y-20765625D02*
X9479436Y-20756101D01*
X9479436Y-20756101D02*
X9469913Y-20746578D01*
X9469913Y-20746578D02*
X9460389Y-20727530D01*
X9460389Y-20727530D02*
X9450865Y-20689435D01*
X9450865Y-20689435D02*
X9450865Y-20641816D01*
X9450865Y-20641816D02*
X9460389Y-20603720D01*
X9460389Y-20603720D02*
X9469913Y-20584673D01*
X9469913Y-20584673D02*
X9479436Y-20575149D01*
X9479436Y-20575149D02*
X9498484Y-20565625D01*
X9650865Y-20765625D02*
X9650865Y-20632292D01*
X9650865Y-20651339D02*
X9660389Y-20641816D01*
X9660389Y-20641816D02*
X9679436Y-20632292D01*
X9679436Y-20632292D02*
X9708008Y-20632292D01*
X9708008Y-20632292D02*
X9727056Y-20641816D01*
X9727056Y-20641816D02*
X9736579Y-20660863D01*
X9736579Y-20660863D02*
X9736579Y-20765625D01*
X9736579Y-20660863D02*
X9746103Y-20641816D01*
X9746103Y-20641816D02*
X9765151Y-20632292D01*
X9765151Y-20632292D02*
X9793722Y-20632292D01*
X9793722Y-20632292D02*
X9812770Y-20641816D01*
X9812770Y-20641816D02*
X9822294Y-20660863D01*
X9822294Y-20660863D02*
X9822294Y-20765625D01*
X9917532Y-20765625D02*
X9917532Y-20632292D01*
X9917532Y-20651339D02*
X9927056Y-20641816D01*
X9927056Y-20641816D02*
X9946103Y-20632292D01*
X9946103Y-20632292D02*
X9974675Y-20632292D01*
X9974675Y-20632292D02*
X9993722Y-20641816D01*
X9993722Y-20641816D02*
X10003246Y-20660863D01*
X10003246Y-20660863D02*
X10003246Y-20765625D01*
X10003246Y-20660863D02*
X10012770Y-20641816D01*
X10012770Y-20641816D02*
X10031817Y-20632292D01*
X10031817Y-20632292D02*
X10060389Y-20632292D01*
X10060389Y-20632292D02*
X10079437Y-20641816D01*
X10079437Y-20641816D02*
X10088960Y-20660863D01*
X10088960Y-20660863D02*
X10088960Y-20765625D01*
X10479437Y-20556101D02*
X10308008Y-20813244D01*
X10736579Y-20565625D02*
X10755627Y-20565625D01*
X10755627Y-20565625D02*
X10774675Y-20575149D01*
X10774675Y-20575149D02*
X10784199Y-20584673D01*
X10784199Y-20584673D02*
X10793722Y-20603720D01*
X10793722Y-20603720D02*
X10803246Y-20641816D01*
X10803246Y-20641816D02*
X10803246Y-20689435D01*
X10803246Y-20689435D02*
X10793722Y-20727530D01*
X10793722Y-20727530D02*
X10784199Y-20746578D01*
X10784199Y-20746578D02*
X10774675Y-20756101D01*
X10774675Y-20756101D02*
X10755627Y-20765625D01*
X10755627Y-20765625D02*
X10736579Y-20765625D01*
X10736579Y-20765625D02*
X10717532Y-20756101D01*
X10717532Y-20756101D02*
X10708008Y-20746578D01*
X10708008Y-20746578D02*
X10698484Y-20727530D01*
X10698484Y-20727530D02*
X10688960Y-20689435D01*
X10688960Y-20689435D02*
X10688960Y-20641816D01*
X10688960Y-20641816D02*
X10698484Y-20603720D01*
X10698484Y-20603720D02*
X10708008Y-20584673D01*
X10708008Y-20584673D02*
X10717532Y-20575149D01*
X10717532Y-20575149D02*
X10736579Y-20565625D01*
X10888960Y-20746578D02*
X10898484Y-20756101D01*
X10898484Y-20756101D02*
X10888960Y-20765625D01*
X10888960Y-20765625D02*
X10879437Y-20756101D01*
X10879437Y-20756101D02*
X10888960Y-20746578D01*
X10888960Y-20746578D02*
X10888960Y-20765625D01*
X11022294Y-20565625D02*
X11041341Y-20565625D01*
X11041341Y-20565625D02*
X11060389Y-20575149D01*
X11060389Y-20575149D02*
X11069913Y-20584673D01*
X11069913Y-20584673D02*
X11079437Y-20603720D01*
X11079437Y-20603720D02*
X11088960Y-20641816D01*
X11088960Y-20641816D02*
X11088960Y-20689435D01*
X11088960Y-20689435D02*
X11079437Y-20727530D01*
X11079437Y-20727530D02*
X11069913Y-20746578D01*
X11069913Y-20746578D02*
X11060389Y-20756101D01*
X11060389Y-20756101D02*
X11041341Y-20765625D01*
X11041341Y-20765625D02*
X11022294Y-20765625D01*
X11022294Y-20765625D02*
X11003246Y-20756101D01*
X11003246Y-20756101D02*
X10993722Y-20746578D01*
X10993722Y-20746578D02*
X10984199Y-20727530D01*
X10984199Y-20727530D02*
X10974675Y-20689435D01*
X10974675Y-20689435D02*
X10974675Y-20641816D01*
X10974675Y-20641816D02*
X10984199Y-20603720D01*
X10984199Y-20603720D02*
X10993722Y-20584673D01*
X10993722Y-20584673D02*
X11003246Y-20575149D01*
X11003246Y-20575149D02*
X11022294Y-20565625D01*
X11165151Y-20584673D02*
X11174675Y-20575149D01*
X11174675Y-20575149D02*
X11193722Y-20565625D01*
X11193722Y-20565625D02*
X11241341Y-20565625D01*
X11241341Y-20565625D02*
X11260389Y-20575149D01*
X11260389Y-20575149D02*
X11269913Y-20584673D01*
X11269913Y-20584673D02*
X11279437Y-20603720D01*
X11279437Y-20603720D02*
X11279437Y-20622768D01*
X11279437Y-20622768D02*
X11269913Y-20651339D01*
X11269913Y-20651339D02*
X11155627Y-20765625D01*
X11155627Y-20765625D02*
X11279437Y-20765625D01*
X11460389Y-20565625D02*
X11365151Y-20565625D01*
X11365151Y-20565625D02*
X11355627Y-20660863D01*
X11355627Y-20660863D02*
X11365151Y-20651339D01*
X11365151Y-20651339D02*
X11384198Y-20641816D01*
X11384198Y-20641816D02*
X11431818Y-20641816D01*
X11431818Y-20641816D02*
X11450865Y-20651339D01*
X11450865Y-20651339D02*
X11460389Y-20660863D01*
X11460389Y-20660863D02*
X11469913Y-20679911D01*
X11469913Y-20679911D02*
X11469913Y-20727530D01*
X11469913Y-20727530D02*
X11460389Y-20746578D01*
X11460389Y-20746578D02*
X11450865Y-20756101D01*
X11450865Y-20756101D02*
X11431818Y-20765625D01*
X11431818Y-20765625D02*
X11384198Y-20765625D01*
X11384198Y-20765625D02*
X11365151Y-20756101D01*
X11365151Y-20756101D02*
X11355627Y-20746578D01*
X11641341Y-20565625D02*
X11603246Y-20565625D01*
X11603246Y-20565625D02*
X11584198Y-20575149D01*
X11584198Y-20575149D02*
X11574675Y-20584673D01*
X11574675Y-20584673D02*
X11555627Y-20613244D01*
X11555627Y-20613244D02*
X11546103Y-20651339D01*
X11546103Y-20651339D02*
X11546103Y-20727530D01*
X11546103Y-20727530D02*
X11555627Y-20746578D01*
X11555627Y-20746578D02*
X11565151Y-20756101D01*
X11565151Y-20756101D02*
X11584198Y-20765625D01*
X11584198Y-20765625D02*
X11622294Y-20765625D01*
X11622294Y-20765625D02*
X11641341Y-20756101D01*
X11641341Y-20756101D02*
X11650865Y-20746578D01*
X11650865Y-20746578D02*
X11660389Y-20727530D01*
X11660389Y-20727530D02*
X11660389Y-20679911D01*
X11660389Y-20679911D02*
X11650865Y-20660863D01*
X11650865Y-20660863D02*
X11641341Y-20651339D01*
X11641341Y-20651339D02*
X11622294Y-20641816D01*
X11622294Y-20641816D02*
X11584198Y-20641816D01*
X11584198Y-20641816D02*
X11565151Y-20651339D01*
X11565151Y-20651339D02*
X11555627Y-20660863D01*
X11555627Y-20660863D02*
X11546103Y-20679911D01*
X11736579Y-20565625D02*
X11736579Y-20603720D01*
X11812770Y-20565625D02*
X11812770Y-20603720D01*
X12108008Y-20841816D02*
X12098484Y-20832292D01*
X12098484Y-20832292D02*
X12079437Y-20803720D01*
X12079437Y-20803720D02*
X12069913Y-20784673D01*
X12069913Y-20784673D02*
X12060389Y-20756101D01*
X12060389Y-20756101D02*
X12050865Y-20708482D01*
X12050865Y-20708482D02*
X12050865Y-20670387D01*
X12050865Y-20670387D02*
X12060389Y-20622768D01*
X12060389Y-20622768D02*
X12069913Y-20594197D01*
X12069913Y-20594197D02*
X12079437Y-20575149D01*
X12079437Y-20575149D02*
X12098484Y-20546578D01*
X12098484Y-20546578D02*
X12108008Y-20537054D01*
X12174675Y-20584673D02*
X12184199Y-20575149D01*
X12184199Y-20575149D02*
X12203246Y-20565625D01*
X12203246Y-20565625D02*
X12250865Y-20565625D01*
X12250865Y-20565625D02*
X12269913Y-20575149D01*
X12269913Y-20575149D02*
X12279437Y-20584673D01*
X12279437Y-20584673D02*
X12288960Y-20603720D01*
X12288960Y-20603720D02*
X12288960Y-20622768D01*
X12288960Y-20622768D02*
X12279437Y-20651339D01*
X12279437Y-20651339D02*
X12165151Y-20765625D01*
X12165151Y-20765625D02*
X12288960Y-20765625D01*
X12527056Y-20765625D02*
X12527056Y-20565625D01*
X12612770Y-20765625D02*
X12612770Y-20660863D01*
X12612770Y-20660863D02*
X12603246Y-20641816D01*
X12603246Y-20641816D02*
X12584199Y-20632292D01*
X12584199Y-20632292D02*
X12555627Y-20632292D01*
X12555627Y-20632292D02*
X12536580Y-20641816D01*
X12536580Y-20641816D02*
X12527056Y-20651339D01*
X12736580Y-20765625D02*
X12717532Y-20756101D01*
X12717532Y-20756101D02*
X12708008Y-20746578D01*
X12708008Y-20746578D02*
X12698484Y-20727530D01*
X12698484Y-20727530D02*
X12698484Y-20670387D01*
X12698484Y-20670387D02*
X12708008Y-20651339D01*
X12708008Y-20651339D02*
X12717532Y-20641816D01*
X12717532Y-20641816D02*
X12736580Y-20632292D01*
X12736580Y-20632292D02*
X12765151Y-20632292D01*
X12765151Y-20632292D02*
X12784199Y-20641816D01*
X12784199Y-20641816D02*
X12793722Y-20651339D01*
X12793722Y-20651339D02*
X12803246Y-20670387D01*
X12803246Y-20670387D02*
X12803246Y-20727530D01*
X12803246Y-20727530D02*
X12793722Y-20746578D01*
X12793722Y-20746578D02*
X12784199Y-20756101D01*
X12784199Y-20756101D02*
X12765151Y-20765625D01*
X12765151Y-20765625D02*
X12736580Y-20765625D01*
X12917532Y-20765625D02*
X12898484Y-20756101D01*
X12898484Y-20756101D02*
X12888961Y-20737054D01*
X12888961Y-20737054D02*
X12888961Y-20565625D01*
X13069913Y-20756101D02*
X13050865Y-20765625D01*
X13050865Y-20765625D02*
X13012770Y-20765625D01*
X13012770Y-20765625D02*
X12993722Y-20756101D01*
X12993722Y-20756101D02*
X12984199Y-20737054D01*
X12984199Y-20737054D02*
X12984199Y-20660863D01*
X12984199Y-20660863D02*
X12993722Y-20641816D01*
X12993722Y-20641816D02*
X13012770Y-20632292D01*
X13012770Y-20632292D02*
X13050865Y-20632292D01*
X13050865Y-20632292D02*
X13069913Y-20641816D01*
X13069913Y-20641816D02*
X13079437Y-20660863D01*
X13079437Y-20660863D02*
X13079437Y-20679911D01*
X13079437Y-20679911D02*
X12984199Y-20698959D01*
X13155627Y-20756101D02*
X13174675Y-20765625D01*
X13174675Y-20765625D02*
X13212770Y-20765625D01*
X13212770Y-20765625D02*
X13231818Y-20756101D01*
X13231818Y-20756101D02*
X13241342Y-20737054D01*
X13241342Y-20737054D02*
X13241342Y-20727530D01*
X13241342Y-20727530D02*
X13231818Y-20708482D01*
X13231818Y-20708482D02*
X13212770Y-20698959D01*
X13212770Y-20698959D02*
X13184199Y-20698959D01*
X13184199Y-20698959D02*
X13165151Y-20689435D01*
X13165151Y-20689435D02*
X13155627Y-20670387D01*
X13155627Y-20670387D02*
X13155627Y-20660863D01*
X13155627Y-20660863D02*
X13165151Y-20641816D01*
X13165151Y-20641816D02*
X13184199Y-20632292D01*
X13184199Y-20632292D02*
X13212770Y-20632292D01*
X13212770Y-20632292D02*
X13231818Y-20641816D01*
X13308008Y-20841816D02*
X13317532Y-20832292D01*
X13317532Y-20832292D02*
X13336580Y-20803720D01*
X13336580Y-20803720D02*
X13346103Y-20784673D01*
X13346103Y-20784673D02*
X13355627Y-20756101D01*
X13355627Y-20756101D02*
X13365151Y-20708482D01*
X13365151Y-20708482D02*
X13365151Y-20670387D01*
X13365151Y-20670387D02*
X13355627Y-20622768D01*
X13355627Y-20622768D02*
X13346103Y-20594197D01*
X13346103Y-20594197D02*
X13336580Y-20575149D01*
X13336580Y-20575149D02*
X13317532Y-20546578D01*
X13317532Y-20546578D02*
X13308008Y-20537054D01*
D11*
X8521962Y-20964658D02*
X8521962Y-20911625D01*
X8468929Y-20911625D01*
X8468929Y-20964658D01*
X8521962Y-20964658D01*
D14*
X8831817Y-20829625D02*
X8850865Y-20829625D01*
X8850865Y-20829625D02*
X8869913Y-20839149D01*
X8869913Y-20839149D02*
X8879436Y-20848673D01*
X8879436Y-20848673D02*
X8888960Y-20867720D01*
X8888960Y-20867720D02*
X8898484Y-20905816D01*
X8898484Y-20905816D02*
X8898484Y-20953435D01*
X8898484Y-20953435D02*
X8888960Y-20991530D01*
X8888960Y-20991530D02*
X8879436Y-21010578D01*
X8879436Y-21010578D02*
X8869913Y-21020101D01*
X8869913Y-21020101D02*
X8850865Y-21029625D01*
X8850865Y-21029625D02*
X8831817Y-21029625D01*
X8831817Y-21029625D02*
X8812770Y-21020101D01*
X8812770Y-21020101D02*
X8803246Y-21010578D01*
X8803246Y-21010578D02*
X8793722Y-20991530D01*
X8793722Y-20991530D02*
X8784198Y-20953435D01*
X8784198Y-20953435D02*
X8784198Y-20905816D01*
X8784198Y-20905816D02*
X8793722Y-20867720D01*
X8793722Y-20867720D02*
X8803246Y-20848673D01*
X8803246Y-20848673D02*
X8812770Y-20839149D01*
X8812770Y-20839149D02*
X8831817Y-20829625D01*
X8984198Y-21010578D02*
X8993722Y-21020101D01*
X8993722Y-21020101D02*
X8984198Y-21029625D01*
X8984198Y-21029625D02*
X8974675Y-21020101D01*
X8974675Y-21020101D02*
X8984198Y-21010578D01*
X8984198Y-21010578D02*
X8984198Y-21029625D01*
X9060389Y-20829625D02*
X9193722Y-20829625D01*
X9193722Y-20829625D02*
X9108008Y-21029625D01*
X9365151Y-20829625D02*
X9269913Y-20829625D01*
X9269913Y-20829625D02*
X9260389Y-20924863D01*
X9260389Y-20924863D02*
X9269913Y-20915339D01*
X9269913Y-20915339D02*
X9288960Y-20905816D01*
X9288960Y-20905816D02*
X9336579Y-20905816D01*
X9336579Y-20905816D02*
X9355627Y-20915339D01*
X9355627Y-20915339D02*
X9365151Y-20924863D01*
X9365151Y-20924863D02*
X9374675Y-20943911D01*
X9374675Y-20943911D02*
X9374675Y-20991530D01*
X9374675Y-20991530D02*
X9365151Y-21010578D01*
X9365151Y-21010578D02*
X9355627Y-21020101D01*
X9355627Y-21020101D02*
X9336579Y-21029625D01*
X9336579Y-21029625D02*
X9288960Y-21029625D01*
X9288960Y-21029625D02*
X9269913Y-21020101D01*
X9269913Y-21020101D02*
X9260389Y-21010578D01*
X9498484Y-20829625D02*
X9517532Y-20829625D01*
X9517532Y-20829625D02*
X9536579Y-20839149D01*
X9536579Y-20839149D02*
X9546103Y-20848673D01*
X9546103Y-20848673D02*
X9555627Y-20867720D01*
X9555627Y-20867720D02*
X9565151Y-20905816D01*
X9565151Y-20905816D02*
X9565151Y-20953435D01*
X9565151Y-20953435D02*
X9555627Y-20991530D01*
X9555627Y-20991530D02*
X9546103Y-21010578D01*
X9546103Y-21010578D02*
X9536579Y-21020101D01*
X9536579Y-21020101D02*
X9517532Y-21029625D01*
X9517532Y-21029625D02*
X9498484Y-21029625D01*
X9498484Y-21029625D02*
X9479436Y-21020101D01*
X9479436Y-21020101D02*
X9469913Y-21010578D01*
X9469913Y-21010578D02*
X9460389Y-20991530D01*
X9460389Y-20991530D02*
X9450865Y-20953435D01*
X9450865Y-20953435D02*
X9450865Y-20905816D01*
X9450865Y-20905816D02*
X9460389Y-20867720D01*
X9460389Y-20867720D02*
X9469913Y-20848673D01*
X9469913Y-20848673D02*
X9479436Y-20839149D01*
X9479436Y-20839149D02*
X9498484Y-20829625D01*
X9650865Y-21029625D02*
X9650865Y-20896292D01*
X9650865Y-20915339D02*
X9660389Y-20905816D01*
X9660389Y-20905816D02*
X9679436Y-20896292D01*
X9679436Y-20896292D02*
X9708008Y-20896292D01*
X9708008Y-20896292D02*
X9727056Y-20905816D01*
X9727056Y-20905816D02*
X9736579Y-20924863D01*
X9736579Y-20924863D02*
X9736579Y-21029625D01*
X9736579Y-20924863D02*
X9746103Y-20905816D01*
X9746103Y-20905816D02*
X9765151Y-20896292D01*
X9765151Y-20896292D02*
X9793722Y-20896292D01*
X9793722Y-20896292D02*
X9812770Y-20905816D01*
X9812770Y-20905816D02*
X9822294Y-20924863D01*
X9822294Y-20924863D02*
X9822294Y-21029625D01*
X9917532Y-21029625D02*
X9917532Y-20896292D01*
X9917532Y-20915339D02*
X9927056Y-20905816D01*
X9927056Y-20905816D02*
X9946103Y-20896292D01*
X9946103Y-20896292D02*
X9974675Y-20896292D01*
X9974675Y-20896292D02*
X9993722Y-20905816D01*
X9993722Y-20905816D02*
X10003246Y-20924863D01*
X10003246Y-20924863D02*
X10003246Y-21029625D01*
X10003246Y-20924863D02*
X10012770Y-20905816D01*
X10012770Y-20905816D02*
X10031817Y-20896292D01*
X10031817Y-20896292D02*
X10060389Y-20896292D01*
X10060389Y-20896292D02*
X10079437Y-20905816D01*
X10079437Y-20905816D02*
X10088960Y-20924863D01*
X10088960Y-20924863D02*
X10088960Y-21029625D01*
X10479437Y-20820101D02*
X10308008Y-21077244D01*
X10736579Y-20829625D02*
X10755627Y-20829625D01*
X10755627Y-20829625D02*
X10774675Y-20839149D01*
X10774675Y-20839149D02*
X10784199Y-20848673D01*
X10784199Y-20848673D02*
X10793722Y-20867720D01*
X10793722Y-20867720D02*
X10803246Y-20905816D01*
X10803246Y-20905816D02*
X10803246Y-20953435D01*
X10803246Y-20953435D02*
X10793722Y-20991530D01*
X10793722Y-20991530D02*
X10784199Y-21010578D01*
X10784199Y-21010578D02*
X10774675Y-21020101D01*
X10774675Y-21020101D02*
X10755627Y-21029625D01*
X10755627Y-21029625D02*
X10736579Y-21029625D01*
X10736579Y-21029625D02*
X10717532Y-21020101D01*
X10717532Y-21020101D02*
X10708008Y-21010578D01*
X10708008Y-21010578D02*
X10698484Y-20991530D01*
X10698484Y-20991530D02*
X10688960Y-20953435D01*
X10688960Y-20953435D02*
X10688960Y-20905816D01*
X10688960Y-20905816D02*
X10698484Y-20867720D01*
X10698484Y-20867720D02*
X10708008Y-20848673D01*
X10708008Y-20848673D02*
X10717532Y-20839149D01*
X10717532Y-20839149D02*
X10736579Y-20829625D01*
X10888960Y-21010578D02*
X10898484Y-21020101D01*
X10898484Y-21020101D02*
X10888960Y-21029625D01*
X10888960Y-21029625D02*
X10879437Y-21020101D01*
X10879437Y-21020101D02*
X10888960Y-21010578D01*
X10888960Y-21010578D02*
X10888960Y-21029625D01*
X11022294Y-20829625D02*
X11041341Y-20829625D01*
X11041341Y-20829625D02*
X11060389Y-20839149D01*
X11060389Y-20839149D02*
X11069913Y-20848673D01*
X11069913Y-20848673D02*
X11079437Y-20867720D01*
X11079437Y-20867720D02*
X11088960Y-20905816D01*
X11088960Y-20905816D02*
X11088960Y-20953435D01*
X11088960Y-20953435D02*
X11079437Y-20991530D01*
X11079437Y-20991530D02*
X11069913Y-21010578D01*
X11069913Y-21010578D02*
X11060389Y-21020101D01*
X11060389Y-21020101D02*
X11041341Y-21029625D01*
X11041341Y-21029625D02*
X11022294Y-21029625D01*
X11022294Y-21029625D02*
X11003246Y-21020101D01*
X11003246Y-21020101D02*
X10993722Y-21010578D01*
X10993722Y-21010578D02*
X10984199Y-20991530D01*
X10984199Y-20991530D02*
X10974675Y-20953435D01*
X10974675Y-20953435D02*
X10974675Y-20905816D01*
X10974675Y-20905816D02*
X10984199Y-20867720D01*
X10984199Y-20867720D02*
X10993722Y-20848673D01*
X10993722Y-20848673D02*
X11003246Y-20839149D01*
X11003246Y-20839149D02*
X11022294Y-20829625D01*
X11165151Y-20848673D02*
X11174675Y-20839149D01*
X11174675Y-20839149D02*
X11193722Y-20829625D01*
X11193722Y-20829625D02*
X11241341Y-20829625D01*
X11241341Y-20829625D02*
X11260389Y-20839149D01*
X11260389Y-20839149D02*
X11269913Y-20848673D01*
X11269913Y-20848673D02*
X11279437Y-20867720D01*
X11279437Y-20867720D02*
X11279437Y-20886768D01*
X11279437Y-20886768D02*
X11269913Y-20915339D01*
X11269913Y-20915339D02*
X11155627Y-21029625D01*
X11155627Y-21029625D02*
X11279437Y-21029625D01*
X11374675Y-21029625D02*
X11412770Y-21029625D01*
X11412770Y-21029625D02*
X11431818Y-21020101D01*
X11431818Y-21020101D02*
X11441341Y-21010578D01*
X11441341Y-21010578D02*
X11460389Y-20982006D01*
X11460389Y-20982006D02*
X11469913Y-20943911D01*
X11469913Y-20943911D02*
X11469913Y-20867720D01*
X11469913Y-20867720D02*
X11460389Y-20848673D01*
X11460389Y-20848673D02*
X11450865Y-20839149D01*
X11450865Y-20839149D02*
X11431818Y-20829625D01*
X11431818Y-20829625D02*
X11393722Y-20829625D01*
X11393722Y-20829625D02*
X11374675Y-20839149D01*
X11374675Y-20839149D02*
X11365151Y-20848673D01*
X11365151Y-20848673D02*
X11355627Y-20867720D01*
X11355627Y-20867720D02*
X11355627Y-20915339D01*
X11355627Y-20915339D02*
X11365151Y-20934387D01*
X11365151Y-20934387D02*
X11374675Y-20943911D01*
X11374675Y-20943911D02*
X11393722Y-20953435D01*
X11393722Y-20953435D02*
X11431818Y-20953435D01*
X11431818Y-20953435D02*
X11450865Y-20943911D01*
X11450865Y-20943911D02*
X11460389Y-20934387D01*
X11460389Y-20934387D02*
X11469913Y-20915339D01*
X11650865Y-20829625D02*
X11555627Y-20829625D01*
X11555627Y-20829625D02*
X11546103Y-20924863D01*
X11546103Y-20924863D02*
X11555627Y-20915339D01*
X11555627Y-20915339D02*
X11574675Y-20905816D01*
X11574675Y-20905816D02*
X11622294Y-20905816D01*
X11622294Y-20905816D02*
X11641341Y-20915339D01*
X11641341Y-20915339D02*
X11650865Y-20924863D01*
X11650865Y-20924863D02*
X11660389Y-20943911D01*
X11660389Y-20943911D02*
X11660389Y-20991530D01*
X11660389Y-20991530D02*
X11650865Y-21010578D01*
X11650865Y-21010578D02*
X11641341Y-21020101D01*
X11641341Y-21020101D02*
X11622294Y-21029625D01*
X11622294Y-21029625D02*
X11574675Y-21029625D01*
X11574675Y-21029625D02*
X11555627Y-21020101D01*
X11555627Y-21020101D02*
X11546103Y-21010578D01*
X11736579Y-20829625D02*
X11736579Y-20867720D01*
X11812770Y-20829625D02*
X11812770Y-20867720D01*
X12108008Y-21105816D02*
X12098484Y-21096292D01*
X12098484Y-21096292D02*
X12079437Y-21067720D01*
X12079437Y-21067720D02*
X12069913Y-21048673D01*
X12069913Y-21048673D02*
X12060389Y-21020101D01*
X12060389Y-21020101D02*
X12050865Y-20972482D01*
X12050865Y-20972482D02*
X12050865Y-20934387D01*
X12050865Y-20934387D02*
X12060389Y-20886768D01*
X12060389Y-20886768D02*
X12069913Y-20858197D01*
X12069913Y-20858197D02*
X12079437Y-20839149D01*
X12079437Y-20839149D02*
X12098484Y-20810578D01*
X12098484Y-20810578D02*
X12108008Y-20801054D01*
X12174675Y-20848673D02*
X12184199Y-20839149D01*
X12184199Y-20839149D02*
X12203246Y-20829625D01*
X12203246Y-20829625D02*
X12250865Y-20829625D01*
X12250865Y-20829625D02*
X12269913Y-20839149D01*
X12269913Y-20839149D02*
X12279437Y-20848673D01*
X12279437Y-20848673D02*
X12288960Y-20867720D01*
X12288960Y-20867720D02*
X12288960Y-20886768D01*
X12288960Y-20886768D02*
X12279437Y-20915339D01*
X12279437Y-20915339D02*
X12165151Y-21029625D01*
X12165151Y-21029625D02*
X12288960Y-21029625D01*
X12527056Y-21029625D02*
X12527056Y-20829625D01*
X12612770Y-21029625D02*
X12612770Y-20924863D01*
X12612770Y-20924863D02*
X12603246Y-20905816D01*
X12603246Y-20905816D02*
X12584199Y-20896292D01*
X12584199Y-20896292D02*
X12555627Y-20896292D01*
X12555627Y-20896292D02*
X12536580Y-20905816D01*
X12536580Y-20905816D02*
X12527056Y-20915339D01*
X12736580Y-21029625D02*
X12717532Y-21020101D01*
X12717532Y-21020101D02*
X12708008Y-21010578D01*
X12708008Y-21010578D02*
X12698484Y-20991530D01*
X12698484Y-20991530D02*
X12698484Y-20934387D01*
X12698484Y-20934387D02*
X12708008Y-20915339D01*
X12708008Y-20915339D02*
X12717532Y-20905816D01*
X12717532Y-20905816D02*
X12736580Y-20896292D01*
X12736580Y-20896292D02*
X12765151Y-20896292D01*
X12765151Y-20896292D02*
X12784199Y-20905816D01*
X12784199Y-20905816D02*
X12793722Y-20915339D01*
X12793722Y-20915339D02*
X12803246Y-20934387D01*
X12803246Y-20934387D02*
X12803246Y-20991530D01*
X12803246Y-20991530D02*
X12793722Y-21010578D01*
X12793722Y-21010578D02*
X12784199Y-21020101D01*
X12784199Y-21020101D02*
X12765151Y-21029625D01*
X12765151Y-21029625D02*
X12736580Y-21029625D01*
X12917532Y-21029625D02*
X12898484Y-21020101D01*
X12898484Y-21020101D02*
X12888961Y-21001054D01*
X12888961Y-21001054D02*
X12888961Y-20829625D01*
X13069913Y-21020101D02*
X13050865Y-21029625D01*
X13050865Y-21029625D02*
X13012770Y-21029625D01*
X13012770Y-21029625D02*
X12993722Y-21020101D01*
X12993722Y-21020101D02*
X12984199Y-21001054D01*
X12984199Y-21001054D02*
X12984199Y-20924863D01*
X12984199Y-20924863D02*
X12993722Y-20905816D01*
X12993722Y-20905816D02*
X13012770Y-20896292D01*
X13012770Y-20896292D02*
X13050865Y-20896292D01*
X13050865Y-20896292D02*
X13069913Y-20905816D01*
X13069913Y-20905816D02*
X13079437Y-20924863D01*
X13079437Y-20924863D02*
X13079437Y-20943911D01*
X13079437Y-20943911D02*
X12984199Y-20962959D01*
X13155627Y-21020101D02*
X13174675Y-21029625D01*
X13174675Y-21029625D02*
X13212770Y-21029625D01*
X13212770Y-21029625D02*
X13231818Y-21020101D01*
X13231818Y-21020101D02*
X13241342Y-21001054D01*
X13241342Y-21001054D02*
X13241342Y-20991530D01*
X13241342Y-20991530D02*
X13231818Y-20972482D01*
X13231818Y-20972482D02*
X13212770Y-20962959D01*
X13212770Y-20962959D02*
X13184199Y-20962959D01*
X13184199Y-20962959D02*
X13165151Y-20953435D01*
X13165151Y-20953435D02*
X13155627Y-20934387D01*
X13155627Y-20934387D02*
X13155627Y-20924863D01*
X13155627Y-20924863D02*
X13165151Y-20905816D01*
X13165151Y-20905816D02*
X13184199Y-20896292D01*
X13184199Y-20896292D02*
X13212770Y-20896292D01*
X13212770Y-20896292D02*
X13231818Y-20905816D01*
X13308008Y-21105816D02*
X13317532Y-21096292D01*
X13317532Y-21096292D02*
X13336580Y-21067720D01*
X13336580Y-21067720D02*
X13346103Y-21048673D01*
X13346103Y-21048673D02*
X13355627Y-21020101D01*
X13355627Y-21020101D02*
X13365151Y-20972482D01*
X13365151Y-20972482D02*
X13365151Y-20934387D01*
X13365151Y-20934387D02*
X13355627Y-20886768D01*
X13355627Y-20886768D02*
X13346103Y-20858197D01*
X13346103Y-20858197D02*
X13336580Y-20839149D01*
X13336580Y-20839149D02*
X13317532Y-20810578D01*
X13317532Y-20810578D02*
X13308008Y-20801054D01*
D11*
X8482945Y-21252141D02*
X8532945Y-21202141D01*
X8482945Y-21152141D01*
X8432945Y-21202141D01*
X8482945Y-21252141D01*
D14*
X8898484Y-21293625D02*
X8784198Y-21293625D01*
X8841341Y-21293625D02*
X8841341Y-21093625D01*
X8841341Y-21093625D02*
X8822294Y-21122197D01*
X8822294Y-21122197D02*
X8803246Y-21141244D01*
X8803246Y-21141244D02*
X8784198Y-21150768D01*
X8984198Y-21274578D02*
X8993722Y-21284101D01*
X8993722Y-21284101D02*
X8984198Y-21293625D01*
X8984198Y-21293625D02*
X8974675Y-21284101D01*
X8974675Y-21284101D02*
X8984198Y-21274578D01*
X8984198Y-21274578D02*
X8984198Y-21293625D01*
X9117532Y-21093625D02*
X9136579Y-21093625D01*
X9136579Y-21093625D02*
X9155627Y-21103149D01*
X9155627Y-21103149D02*
X9165151Y-21112673D01*
X9165151Y-21112673D02*
X9174675Y-21131720D01*
X9174675Y-21131720D02*
X9184198Y-21169816D01*
X9184198Y-21169816D02*
X9184198Y-21217435D01*
X9184198Y-21217435D02*
X9174675Y-21255530D01*
X9174675Y-21255530D02*
X9165151Y-21274578D01*
X9165151Y-21274578D02*
X9155627Y-21284101D01*
X9155627Y-21284101D02*
X9136579Y-21293625D01*
X9136579Y-21293625D02*
X9117532Y-21293625D01*
X9117532Y-21293625D02*
X9098484Y-21284101D01*
X9098484Y-21284101D02*
X9088960Y-21274578D01*
X9088960Y-21274578D02*
X9079436Y-21255530D01*
X9079436Y-21255530D02*
X9069913Y-21217435D01*
X9069913Y-21217435D02*
X9069913Y-21169816D01*
X9069913Y-21169816D02*
X9079436Y-21131720D01*
X9079436Y-21131720D02*
X9088960Y-21112673D01*
X9088960Y-21112673D02*
X9098484Y-21103149D01*
X9098484Y-21103149D02*
X9117532Y-21093625D01*
X9308008Y-21093625D02*
X9327056Y-21093625D01*
X9327056Y-21093625D02*
X9346103Y-21103149D01*
X9346103Y-21103149D02*
X9355627Y-21112673D01*
X9355627Y-21112673D02*
X9365151Y-21131720D01*
X9365151Y-21131720D02*
X9374675Y-21169816D01*
X9374675Y-21169816D02*
X9374675Y-21217435D01*
X9374675Y-21217435D02*
X9365151Y-21255530D01*
X9365151Y-21255530D02*
X9355627Y-21274578D01*
X9355627Y-21274578D02*
X9346103Y-21284101D01*
X9346103Y-21284101D02*
X9327056Y-21293625D01*
X9327056Y-21293625D02*
X9308008Y-21293625D01*
X9308008Y-21293625D02*
X9288960Y-21284101D01*
X9288960Y-21284101D02*
X9279436Y-21274578D01*
X9279436Y-21274578D02*
X9269913Y-21255530D01*
X9269913Y-21255530D02*
X9260389Y-21217435D01*
X9260389Y-21217435D02*
X9260389Y-21169816D01*
X9260389Y-21169816D02*
X9269913Y-21131720D01*
X9269913Y-21131720D02*
X9279436Y-21112673D01*
X9279436Y-21112673D02*
X9288960Y-21103149D01*
X9288960Y-21103149D02*
X9308008Y-21093625D01*
X9498484Y-21093625D02*
X9517532Y-21093625D01*
X9517532Y-21093625D02*
X9536579Y-21103149D01*
X9536579Y-21103149D02*
X9546103Y-21112673D01*
X9546103Y-21112673D02*
X9555627Y-21131720D01*
X9555627Y-21131720D02*
X9565151Y-21169816D01*
X9565151Y-21169816D02*
X9565151Y-21217435D01*
X9565151Y-21217435D02*
X9555627Y-21255530D01*
X9555627Y-21255530D02*
X9546103Y-21274578D01*
X9546103Y-21274578D02*
X9536579Y-21284101D01*
X9536579Y-21284101D02*
X9517532Y-21293625D01*
X9517532Y-21293625D02*
X9498484Y-21293625D01*
X9498484Y-21293625D02*
X9479436Y-21284101D01*
X9479436Y-21284101D02*
X9469913Y-21274578D01*
X9469913Y-21274578D02*
X9460389Y-21255530D01*
X9460389Y-21255530D02*
X9450865Y-21217435D01*
X9450865Y-21217435D02*
X9450865Y-21169816D01*
X9450865Y-21169816D02*
X9460389Y-21131720D01*
X9460389Y-21131720D02*
X9469913Y-21112673D01*
X9469913Y-21112673D02*
X9479436Y-21103149D01*
X9479436Y-21103149D02*
X9498484Y-21093625D01*
X9650865Y-21293625D02*
X9650865Y-21160292D01*
X9650865Y-21179339D02*
X9660389Y-21169816D01*
X9660389Y-21169816D02*
X9679436Y-21160292D01*
X9679436Y-21160292D02*
X9708008Y-21160292D01*
X9708008Y-21160292D02*
X9727056Y-21169816D01*
X9727056Y-21169816D02*
X9736579Y-21188863D01*
X9736579Y-21188863D02*
X9736579Y-21293625D01*
X9736579Y-21188863D02*
X9746103Y-21169816D01*
X9746103Y-21169816D02*
X9765151Y-21160292D01*
X9765151Y-21160292D02*
X9793722Y-21160292D01*
X9793722Y-21160292D02*
X9812770Y-21169816D01*
X9812770Y-21169816D02*
X9822294Y-21188863D01*
X9822294Y-21188863D02*
X9822294Y-21293625D01*
X9917532Y-21293625D02*
X9917532Y-21160292D01*
X9917532Y-21179339D02*
X9927056Y-21169816D01*
X9927056Y-21169816D02*
X9946103Y-21160292D01*
X9946103Y-21160292D02*
X9974675Y-21160292D01*
X9974675Y-21160292D02*
X9993722Y-21169816D01*
X9993722Y-21169816D02*
X10003246Y-21188863D01*
X10003246Y-21188863D02*
X10003246Y-21293625D01*
X10003246Y-21188863D02*
X10012770Y-21169816D01*
X10012770Y-21169816D02*
X10031817Y-21160292D01*
X10031817Y-21160292D02*
X10060389Y-21160292D01*
X10060389Y-21160292D02*
X10079437Y-21169816D01*
X10079437Y-21169816D02*
X10088960Y-21188863D01*
X10088960Y-21188863D02*
X10088960Y-21293625D01*
X10479437Y-21084101D02*
X10308008Y-21341244D01*
X10736579Y-21093625D02*
X10755627Y-21093625D01*
X10755627Y-21093625D02*
X10774675Y-21103149D01*
X10774675Y-21103149D02*
X10784199Y-21112673D01*
X10784199Y-21112673D02*
X10793722Y-21131720D01*
X10793722Y-21131720D02*
X10803246Y-21169816D01*
X10803246Y-21169816D02*
X10803246Y-21217435D01*
X10803246Y-21217435D02*
X10793722Y-21255530D01*
X10793722Y-21255530D02*
X10784199Y-21274578D01*
X10784199Y-21274578D02*
X10774675Y-21284101D01*
X10774675Y-21284101D02*
X10755627Y-21293625D01*
X10755627Y-21293625D02*
X10736579Y-21293625D01*
X10736579Y-21293625D02*
X10717532Y-21284101D01*
X10717532Y-21284101D02*
X10708008Y-21274578D01*
X10708008Y-21274578D02*
X10698484Y-21255530D01*
X10698484Y-21255530D02*
X10688960Y-21217435D01*
X10688960Y-21217435D02*
X10688960Y-21169816D01*
X10688960Y-21169816D02*
X10698484Y-21131720D01*
X10698484Y-21131720D02*
X10708008Y-21112673D01*
X10708008Y-21112673D02*
X10717532Y-21103149D01*
X10717532Y-21103149D02*
X10736579Y-21093625D01*
X10888960Y-21274578D02*
X10898484Y-21284101D01*
X10898484Y-21284101D02*
X10888960Y-21293625D01*
X10888960Y-21293625D02*
X10879437Y-21284101D01*
X10879437Y-21284101D02*
X10888960Y-21274578D01*
X10888960Y-21274578D02*
X10888960Y-21293625D01*
X11022294Y-21093625D02*
X11041341Y-21093625D01*
X11041341Y-21093625D02*
X11060389Y-21103149D01*
X11060389Y-21103149D02*
X11069913Y-21112673D01*
X11069913Y-21112673D02*
X11079437Y-21131720D01*
X11079437Y-21131720D02*
X11088960Y-21169816D01*
X11088960Y-21169816D02*
X11088960Y-21217435D01*
X11088960Y-21217435D02*
X11079437Y-21255530D01*
X11079437Y-21255530D02*
X11069913Y-21274578D01*
X11069913Y-21274578D02*
X11060389Y-21284101D01*
X11060389Y-21284101D02*
X11041341Y-21293625D01*
X11041341Y-21293625D02*
X11022294Y-21293625D01*
X11022294Y-21293625D02*
X11003246Y-21284101D01*
X11003246Y-21284101D02*
X10993722Y-21274578D01*
X10993722Y-21274578D02*
X10984199Y-21255530D01*
X10984199Y-21255530D02*
X10974675Y-21217435D01*
X10974675Y-21217435D02*
X10974675Y-21169816D01*
X10974675Y-21169816D02*
X10984199Y-21131720D01*
X10984199Y-21131720D02*
X10993722Y-21112673D01*
X10993722Y-21112673D02*
X11003246Y-21103149D01*
X11003246Y-21103149D02*
X11022294Y-21093625D01*
X11155627Y-21093625D02*
X11279437Y-21093625D01*
X11279437Y-21093625D02*
X11212770Y-21169816D01*
X11212770Y-21169816D02*
X11241341Y-21169816D01*
X11241341Y-21169816D02*
X11260389Y-21179339D01*
X11260389Y-21179339D02*
X11269913Y-21188863D01*
X11269913Y-21188863D02*
X11279437Y-21207911D01*
X11279437Y-21207911D02*
X11279437Y-21255530D01*
X11279437Y-21255530D02*
X11269913Y-21274578D01*
X11269913Y-21274578D02*
X11260389Y-21284101D01*
X11260389Y-21284101D02*
X11241341Y-21293625D01*
X11241341Y-21293625D02*
X11184199Y-21293625D01*
X11184199Y-21293625D02*
X11165151Y-21284101D01*
X11165151Y-21284101D02*
X11155627Y-21274578D01*
X11374675Y-21293625D02*
X11412770Y-21293625D01*
X11412770Y-21293625D02*
X11431818Y-21284101D01*
X11431818Y-21284101D02*
X11441341Y-21274578D01*
X11441341Y-21274578D02*
X11460389Y-21246006D01*
X11460389Y-21246006D02*
X11469913Y-21207911D01*
X11469913Y-21207911D02*
X11469913Y-21131720D01*
X11469913Y-21131720D02*
X11460389Y-21112673D01*
X11460389Y-21112673D02*
X11450865Y-21103149D01*
X11450865Y-21103149D02*
X11431818Y-21093625D01*
X11431818Y-21093625D02*
X11393722Y-21093625D01*
X11393722Y-21093625D02*
X11374675Y-21103149D01*
X11374675Y-21103149D02*
X11365151Y-21112673D01*
X11365151Y-21112673D02*
X11355627Y-21131720D01*
X11355627Y-21131720D02*
X11355627Y-21179339D01*
X11355627Y-21179339D02*
X11365151Y-21198387D01*
X11365151Y-21198387D02*
X11374675Y-21207911D01*
X11374675Y-21207911D02*
X11393722Y-21217435D01*
X11393722Y-21217435D02*
X11431818Y-21217435D01*
X11431818Y-21217435D02*
X11450865Y-21207911D01*
X11450865Y-21207911D02*
X11460389Y-21198387D01*
X11460389Y-21198387D02*
X11469913Y-21179339D01*
X11641341Y-21160292D02*
X11641341Y-21293625D01*
X11593722Y-21084101D02*
X11546103Y-21226959D01*
X11546103Y-21226959D02*
X11669913Y-21226959D01*
X11736579Y-21093625D02*
X11736579Y-21131720D01*
X11812770Y-21093625D02*
X11812770Y-21131720D01*
X12108008Y-21369816D02*
X12098484Y-21360292D01*
X12098484Y-21360292D02*
X12079437Y-21331720D01*
X12079437Y-21331720D02*
X12069913Y-21312673D01*
X12069913Y-21312673D02*
X12060389Y-21284101D01*
X12060389Y-21284101D02*
X12050865Y-21236482D01*
X12050865Y-21236482D02*
X12050865Y-21198387D01*
X12050865Y-21198387D02*
X12060389Y-21150768D01*
X12060389Y-21150768D02*
X12069913Y-21122197D01*
X12069913Y-21122197D02*
X12079437Y-21103149D01*
X12079437Y-21103149D02*
X12098484Y-21074578D01*
X12098484Y-21074578D02*
X12108008Y-21065054D01*
X12165151Y-21093625D02*
X12288960Y-21093625D01*
X12288960Y-21093625D02*
X12222294Y-21169816D01*
X12222294Y-21169816D02*
X12250865Y-21169816D01*
X12250865Y-21169816D02*
X12269913Y-21179339D01*
X12269913Y-21179339D02*
X12279437Y-21188863D01*
X12279437Y-21188863D02*
X12288960Y-21207911D01*
X12288960Y-21207911D02*
X12288960Y-21255530D01*
X12288960Y-21255530D02*
X12279437Y-21274578D01*
X12279437Y-21274578D02*
X12269913Y-21284101D01*
X12269913Y-21284101D02*
X12250865Y-21293625D01*
X12250865Y-21293625D02*
X12193722Y-21293625D01*
X12193722Y-21293625D02*
X12174675Y-21284101D01*
X12174675Y-21284101D02*
X12165151Y-21274578D01*
X12384199Y-21293625D02*
X12422294Y-21293625D01*
X12422294Y-21293625D02*
X12441341Y-21284101D01*
X12441341Y-21284101D02*
X12450865Y-21274578D01*
X12450865Y-21274578D02*
X12469913Y-21246006D01*
X12469913Y-21246006D02*
X12479437Y-21207911D01*
X12479437Y-21207911D02*
X12479437Y-21131720D01*
X12479437Y-21131720D02*
X12469913Y-21112673D01*
X12469913Y-21112673D02*
X12460389Y-21103149D01*
X12460389Y-21103149D02*
X12441341Y-21093625D01*
X12441341Y-21093625D02*
X12403246Y-21093625D01*
X12403246Y-21093625D02*
X12384199Y-21103149D01*
X12384199Y-21103149D02*
X12374675Y-21112673D01*
X12374675Y-21112673D02*
X12365151Y-21131720D01*
X12365151Y-21131720D02*
X12365151Y-21179339D01*
X12365151Y-21179339D02*
X12374675Y-21198387D01*
X12374675Y-21198387D02*
X12384199Y-21207911D01*
X12384199Y-21207911D02*
X12403246Y-21217435D01*
X12403246Y-21217435D02*
X12441341Y-21217435D01*
X12441341Y-21217435D02*
X12460389Y-21207911D01*
X12460389Y-21207911D02*
X12469913Y-21198387D01*
X12469913Y-21198387D02*
X12479437Y-21179339D01*
X12717532Y-21293625D02*
X12717532Y-21093625D01*
X12803246Y-21293625D02*
X12803246Y-21188863D01*
X12803246Y-21188863D02*
X12793722Y-21169816D01*
X12793722Y-21169816D02*
X12774675Y-21160292D01*
X12774675Y-21160292D02*
X12746103Y-21160292D01*
X12746103Y-21160292D02*
X12727056Y-21169816D01*
X12727056Y-21169816D02*
X12717532Y-21179339D01*
X12927056Y-21293625D02*
X12908008Y-21284101D01*
X12908008Y-21284101D02*
X12898484Y-21274578D01*
X12898484Y-21274578D02*
X12888961Y-21255530D01*
X12888961Y-21255530D02*
X12888961Y-21198387D01*
X12888961Y-21198387D02*
X12898484Y-21179339D01*
X12898484Y-21179339D02*
X12908008Y-21169816D01*
X12908008Y-21169816D02*
X12927056Y-21160292D01*
X12927056Y-21160292D02*
X12955627Y-21160292D01*
X12955627Y-21160292D02*
X12974675Y-21169816D01*
X12974675Y-21169816D02*
X12984199Y-21179339D01*
X12984199Y-21179339D02*
X12993722Y-21198387D01*
X12993722Y-21198387D02*
X12993722Y-21255530D01*
X12993722Y-21255530D02*
X12984199Y-21274578D01*
X12984199Y-21274578D02*
X12974675Y-21284101D01*
X12974675Y-21284101D02*
X12955627Y-21293625D01*
X12955627Y-21293625D02*
X12927056Y-21293625D01*
X13108008Y-21293625D02*
X13088961Y-21284101D01*
X13088961Y-21284101D02*
X13079437Y-21265054D01*
X13079437Y-21265054D02*
X13079437Y-21093625D01*
X13260389Y-21284101D02*
X13241342Y-21293625D01*
X13241342Y-21293625D02*
X13203246Y-21293625D01*
X13203246Y-21293625D02*
X13184199Y-21284101D01*
X13184199Y-21284101D02*
X13174675Y-21265054D01*
X13174675Y-21265054D02*
X13174675Y-21188863D01*
X13174675Y-21188863D02*
X13184199Y-21169816D01*
X13184199Y-21169816D02*
X13203246Y-21160292D01*
X13203246Y-21160292D02*
X13241342Y-21160292D01*
X13241342Y-21160292D02*
X13260389Y-21169816D01*
X13260389Y-21169816D02*
X13269913Y-21188863D01*
X13269913Y-21188863D02*
X13269913Y-21207911D01*
X13269913Y-21207911D02*
X13174675Y-21226959D01*
X13346103Y-21284101D02*
X13365151Y-21293625D01*
X13365151Y-21293625D02*
X13403246Y-21293625D01*
X13403246Y-21293625D02*
X13422294Y-21284101D01*
X13422294Y-21284101D02*
X13431818Y-21265054D01*
X13431818Y-21265054D02*
X13431818Y-21255530D01*
X13431818Y-21255530D02*
X13422294Y-21236482D01*
X13422294Y-21236482D02*
X13403246Y-21226959D01*
X13403246Y-21226959D02*
X13374675Y-21226959D01*
X13374675Y-21226959D02*
X13355627Y-21217435D01*
X13355627Y-21217435D02*
X13346103Y-21198387D01*
X13346103Y-21198387D02*
X13346103Y-21188863D01*
X13346103Y-21188863D02*
X13355627Y-21169816D01*
X13355627Y-21169816D02*
X13374675Y-21160292D01*
X13374675Y-21160292D02*
X13403246Y-21160292D01*
X13403246Y-21160292D02*
X13422294Y-21169816D01*
X13498484Y-21369816D02*
X13508008Y-21360292D01*
X13508008Y-21360292D02*
X13527056Y-21331720D01*
X13527056Y-21331720D02*
X13536580Y-21312673D01*
X13536580Y-21312673D02*
X13546103Y-21284101D01*
X13546103Y-21284101D02*
X13555627Y-21236482D01*
X13555627Y-21236482D02*
X13555627Y-21198387D01*
X13555627Y-21198387D02*
X13546103Y-21150768D01*
X13546103Y-21150768D02*
X13536580Y-21122197D01*
X13536580Y-21122197D02*
X13527056Y-21103149D01*
X13527056Y-21103149D02*
X13508008Y-21074578D01*
X13508008Y-21074578D02*
X13498484Y-21065054D01*
D15*
X8402945Y-21401141D02*
X8532945Y-21531141D01*
X8532945Y-21401141D02*
X8402945Y-21531141D01*
X8532945Y-21466141D02*
G75*
G02*
X8402945Y-21466141I-65000J0D01*
G01*
X8402945Y-21466141D02*
G75*
G02*
X8532945Y-21466141I65000J0D01*
G01*
D14*
X8898484Y-21557625D02*
X8784198Y-21557625D01*
X8841341Y-21557625D02*
X8841341Y-21357625D01*
X8841341Y-21357625D02*
X8822294Y-21386197D01*
X8822294Y-21386197D02*
X8803246Y-21405244D01*
X8803246Y-21405244D02*
X8784198Y-21414768D01*
X8984198Y-21538578D02*
X8993722Y-21548101D01*
X8993722Y-21548101D02*
X8984198Y-21557625D01*
X8984198Y-21557625D02*
X8974675Y-21548101D01*
X8974675Y-21548101D02*
X8984198Y-21538578D01*
X8984198Y-21538578D02*
X8984198Y-21557625D01*
X9060389Y-21357625D02*
X9184198Y-21357625D01*
X9184198Y-21357625D02*
X9117532Y-21433816D01*
X9117532Y-21433816D02*
X9146103Y-21433816D01*
X9146103Y-21433816D02*
X9165151Y-21443339D01*
X9165151Y-21443339D02*
X9174675Y-21452863D01*
X9174675Y-21452863D02*
X9184198Y-21471911D01*
X9184198Y-21471911D02*
X9184198Y-21519530D01*
X9184198Y-21519530D02*
X9174675Y-21538578D01*
X9174675Y-21538578D02*
X9165151Y-21548101D01*
X9165151Y-21548101D02*
X9146103Y-21557625D01*
X9146103Y-21557625D02*
X9088960Y-21557625D01*
X9088960Y-21557625D02*
X9069913Y-21548101D01*
X9069913Y-21548101D02*
X9060389Y-21538578D01*
X9308008Y-21357625D02*
X9327056Y-21357625D01*
X9327056Y-21357625D02*
X9346103Y-21367149D01*
X9346103Y-21367149D02*
X9355627Y-21376673D01*
X9355627Y-21376673D02*
X9365151Y-21395720D01*
X9365151Y-21395720D02*
X9374675Y-21433816D01*
X9374675Y-21433816D02*
X9374675Y-21481435D01*
X9374675Y-21481435D02*
X9365151Y-21519530D01*
X9365151Y-21519530D02*
X9355627Y-21538578D01*
X9355627Y-21538578D02*
X9346103Y-21548101D01*
X9346103Y-21548101D02*
X9327056Y-21557625D01*
X9327056Y-21557625D02*
X9308008Y-21557625D01*
X9308008Y-21557625D02*
X9288960Y-21548101D01*
X9288960Y-21548101D02*
X9279436Y-21538578D01*
X9279436Y-21538578D02*
X9269913Y-21519530D01*
X9269913Y-21519530D02*
X9260389Y-21481435D01*
X9260389Y-21481435D02*
X9260389Y-21433816D01*
X9260389Y-21433816D02*
X9269913Y-21395720D01*
X9269913Y-21395720D02*
X9279436Y-21376673D01*
X9279436Y-21376673D02*
X9288960Y-21367149D01*
X9288960Y-21367149D02*
X9308008Y-21357625D01*
X9498484Y-21357625D02*
X9517532Y-21357625D01*
X9517532Y-21357625D02*
X9536579Y-21367149D01*
X9536579Y-21367149D02*
X9546103Y-21376673D01*
X9546103Y-21376673D02*
X9555627Y-21395720D01*
X9555627Y-21395720D02*
X9565151Y-21433816D01*
X9565151Y-21433816D02*
X9565151Y-21481435D01*
X9565151Y-21481435D02*
X9555627Y-21519530D01*
X9555627Y-21519530D02*
X9546103Y-21538578D01*
X9546103Y-21538578D02*
X9536579Y-21548101D01*
X9536579Y-21548101D02*
X9517532Y-21557625D01*
X9517532Y-21557625D02*
X9498484Y-21557625D01*
X9498484Y-21557625D02*
X9479436Y-21548101D01*
X9479436Y-21548101D02*
X9469913Y-21538578D01*
X9469913Y-21538578D02*
X9460389Y-21519530D01*
X9460389Y-21519530D02*
X9450865Y-21481435D01*
X9450865Y-21481435D02*
X9450865Y-21433816D01*
X9450865Y-21433816D02*
X9460389Y-21395720D01*
X9460389Y-21395720D02*
X9469913Y-21376673D01*
X9469913Y-21376673D02*
X9479436Y-21367149D01*
X9479436Y-21367149D02*
X9498484Y-21357625D01*
X9650865Y-21557625D02*
X9650865Y-21424292D01*
X9650865Y-21443339D02*
X9660389Y-21433816D01*
X9660389Y-21433816D02*
X9679436Y-21424292D01*
X9679436Y-21424292D02*
X9708008Y-21424292D01*
X9708008Y-21424292D02*
X9727056Y-21433816D01*
X9727056Y-21433816D02*
X9736579Y-21452863D01*
X9736579Y-21452863D02*
X9736579Y-21557625D01*
X9736579Y-21452863D02*
X9746103Y-21433816D01*
X9746103Y-21433816D02*
X9765151Y-21424292D01*
X9765151Y-21424292D02*
X9793722Y-21424292D01*
X9793722Y-21424292D02*
X9812770Y-21433816D01*
X9812770Y-21433816D02*
X9822294Y-21452863D01*
X9822294Y-21452863D02*
X9822294Y-21557625D01*
X9917532Y-21557625D02*
X9917532Y-21424292D01*
X9917532Y-21443339D02*
X9927056Y-21433816D01*
X9927056Y-21433816D02*
X9946103Y-21424292D01*
X9946103Y-21424292D02*
X9974675Y-21424292D01*
X9974675Y-21424292D02*
X9993722Y-21433816D01*
X9993722Y-21433816D02*
X10003246Y-21452863D01*
X10003246Y-21452863D02*
X10003246Y-21557625D01*
X10003246Y-21452863D02*
X10012770Y-21433816D01*
X10012770Y-21433816D02*
X10031817Y-21424292D01*
X10031817Y-21424292D02*
X10060389Y-21424292D01*
X10060389Y-21424292D02*
X10079437Y-21433816D01*
X10079437Y-21433816D02*
X10088960Y-21452863D01*
X10088960Y-21452863D02*
X10088960Y-21557625D01*
X10479437Y-21348101D02*
X10308008Y-21605244D01*
X10736579Y-21357625D02*
X10755627Y-21357625D01*
X10755627Y-21357625D02*
X10774675Y-21367149D01*
X10774675Y-21367149D02*
X10784199Y-21376673D01*
X10784199Y-21376673D02*
X10793722Y-21395720D01*
X10793722Y-21395720D02*
X10803246Y-21433816D01*
X10803246Y-21433816D02*
X10803246Y-21481435D01*
X10803246Y-21481435D02*
X10793722Y-21519530D01*
X10793722Y-21519530D02*
X10784199Y-21538578D01*
X10784199Y-21538578D02*
X10774675Y-21548101D01*
X10774675Y-21548101D02*
X10755627Y-21557625D01*
X10755627Y-21557625D02*
X10736579Y-21557625D01*
X10736579Y-21557625D02*
X10717532Y-21548101D01*
X10717532Y-21548101D02*
X10708008Y-21538578D01*
X10708008Y-21538578D02*
X10698484Y-21519530D01*
X10698484Y-21519530D02*
X10688960Y-21481435D01*
X10688960Y-21481435D02*
X10688960Y-21433816D01*
X10688960Y-21433816D02*
X10698484Y-21395720D01*
X10698484Y-21395720D02*
X10708008Y-21376673D01*
X10708008Y-21376673D02*
X10717532Y-21367149D01*
X10717532Y-21367149D02*
X10736579Y-21357625D01*
X10888960Y-21538578D02*
X10898484Y-21548101D01*
X10898484Y-21548101D02*
X10888960Y-21557625D01*
X10888960Y-21557625D02*
X10879437Y-21548101D01*
X10879437Y-21548101D02*
X10888960Y-21538578D01*
X10888960Y-21538578D02*
X10888960Y-21557625D01*
X11022294Y-21357625D02*
X11041341Y-21357625D01*
X11041341Y-21357625D02*
X11060389Y-21367149D01*
X11060389Y-21367149D02*
X11069913Y-21376673D01*
X11069913Y-21376673D02*
X11079437Y-21395720D01*
X11079437Y-21395720D02*
X11088960Y-21433816D01*
X11088960Y-21433816D02*
X11088960Y-21481435D01*
X11088960Y-21481435D02*
X11079437Y-21519530D01*
X11079437Y-21519530D02*
X11069913Y-21538578D01*
X11069913Y-21538578D02*
X11060389Y-21548101D01*
X11060389Y-21548101D02*
X11041341Y-21557625D01*
X11041341Y-21557625D02*
X11022294Y-21557625D01*
X11022294Y-21557625D02*
X11003246Y-21548101D01*
X11003246Y-21548101D02*
X10993722Y-21538578D01*
X10993722Y-21538578D02*
X10984199Y-21519530D01*
X10984199Y-21519530D02*
X10974675Y-21481435D01*
X10974675Y-21481435D02*
X10974675Y-21433816D01*
X10974675Y-21433816D02*
X10984199Y-21395720D01*
X10984199Y-21395720D02*
X10993722Y-21376673D01*
X10993722Y-21376673D02*
X11003246Y-21367149D01*
X11003246Y-21367149D02*
X11022294Y-21357625D01*
X11269913Y-21357625D02*
X11174675Y-21357625D01*
X11174675Y-21357625D02*
X11165151Y-21452863D01*
X11165151Y-21452863D02*
X11174675Y-21443339D01*
X11174675Y-21443339D02*
X11193722Y-21433816D01*
X11193722Y-21433816D02*
X11241341Y-21433816D01*
X11241341Y-21433816D02*
X11260389Y-21443339D01*
X11260389Y-21443339D02*
X11269913Y-21452863D01*
X11269913Y-21452863D02*
X11279437Y-21471911D01*
X11279437Y-21471911D02*
X11279437Y-21519530D01*
X11279437Y-21519530D02*
X11269913Y-21538578D01*
X11269913Y-21538578D02*
X11260389Y-21548101D01*
X11260389Y-21548101D02*
X11241341Y-21557625D01*
X11241341Y-21557625D02*
X11193722Y-21557625D01*
X11193722Y-21557625D02*
X11174675Y-21548101D01*
X11174675Y-21548101D02*
X11165151Y-21538578D01*
X11469913Y-21557625D02*
X11355627Y-21557625D01*
X11412770Y-21557625D02*
X11412770Y-21357625D01*
X11412770Y-21357625D02*
X11393722Y-21386197D01*
X11393722Y-21386197D02*
X11374675Y-21405244D01*
X11374675Y-21405244D02*
X11355627Y-21414768D01*
X11546103Y-21376673D02*
X11555627Y-21367149D01*
X11555627Y-21367149D02*
X11574675Y-21357625D01*
X11574675Y-21357625D02*
X11622294Y-21357625D01*
X11622294Y-21357625D02*
X11641341Y-21367149D01*
X11641341Y-21367149D02*
X11650865Y-21376673D01*
X11650865Y-21376673D02*
X11660389Y-21395720D01*
X11660389Y-21395720D02*
X11660389Y-21414768D01*
X11660389Y-21414768D02*
X11650865Y-21443339D01*
X11650865Y-21443339D02*
X11536579Y-21557625D01*
X11536579Y-21557625D02*
X11660389Y-21557625D01*
X11736579Y-21357625D02*
X11736579Y-21395720D01*
X11812770Y-21357625D02*
X11812770Y-21395720D01*
X12108008Y-21633816D02*
X12098484Y-21624292D01*
X12098484Y-21624292D02*
X12079437Y-21595720D01*
X12079437Y-21595720D02*
X12069913Y-21576673D01*
X12069913Y-21576673D02*
X12060389Y-21548101D01*
X12060389Y-21548101D02*
X12050865Y-21500482D01*
X12050865Y-21500482D02*
X12050865Y-21462387D01*
X12050865Y-21462387D02*
X12060389Y-21414768D01*
X12060389Y-21414768D02*
X12069913Y-21386197D01*
X12069913Y-21386197D02*
X12079437Y-21367149D01*
X12079437Y-21367149D02*
X12098484Y-21338578D01*
X12098484Y-21338578D02*
X12108008Y-21329054D01*
X12174675Y-21376673D02*
X12184199Y-21367149D01*
X12184199Y-21367149D02*
X12203246Y-21357625D01*
X12203246Y-21357625D02*
X12250865Y-21357625D01*
X12250865Y-21357625D02*
X12269913Y-21367149D01*
X12269913Y-21367149D02*
X12279437Y-21376673D01*
X12279437Y-21376673D02*
X12288960Y-21395720D01*
X12288960Y-21395720D02*
X12288960Y-21414768D01*
X12288960Y-21414768D02*
X12279437Y-21443339D01*
X12279437Y-21443339D02*
X12165151Y-21557625D01*
X12165151Y-21557625D02*
X12288960Y-21557625D01*
X12527056Y-21557625D02*
X12527056Y-21357625D01*
X12612770Y-21557625D02*
X12612770Y-21452863D01*
X12612770Y-21452863D02*
X12603246Y-21433816D01*
X12603246Y-21433816D02*
X12584199Y-21424292D01*
X12584199Y-21424292D02*
X12555627Y-21424292D01*
X12555627Y-21424292D02*
X12536580Y-21433816D01*
X12536580Y-21433816D02*
X12527056Y-21443339D01*
X12736580Y-21557625D02*
X12717532Y-21548101D01*
X12717532Y-21548101D02*
X12708008Y-21538578D01*
X12708008Y-21538578D02*
X12698484Y-21519530D01*
X12698484Y-21519530D02*
X12698484Y-21462387D01*
X12698484Y-21462387D02*
X12708008Y-21443339D01*
X12708008Y-21443339D02*
X12717532Y-21433816D01*
X12717532Y-21433816D02*
X12736580Y-21424292D01*
X12736580Y-21424292D02*
X12765151Y-21424292D01*
X12765151Y-21424292D02*
X12784199Y-21433816D01*
X12784199Y-21433816D02*
X12793722Y-21443339D01*
X12793722Y-21443339D02*
X12803246Y-21462387D01*
X12803246Y-21462387D02*
X12803246Y-21519530D01*
X12803246Y-21519530D02*
X12793722Y-21538578D01*
X12793722Y-21538578D02*
X12784199Y-21548101D01*
X12784199Y-21548101D02*
X12765151Y-21557625D01*
X12765151Y-21557625D02*
X12736580Y-21557625D01*
X12917532Y-21557625D02*
X12898484Y-21548101D01*
X12898484Y-21548101D02*
X12888961Y-21529054D01*
X12888961Y-21529054D02*
X12888961Y-21357625D01*
X13069913Y-21548101D02*
X13050865Y-21557625D01*
X13050865Y-21557625D02*
X13012770Y-21557625D01*
X13012770Y-21557625D02*
X12993722Y-21548101D01*
X12993722Y-21548101D02*
X12984199Y-21529054D01*
X12984199Y-21529054D02*
X12984199Y-21452863D01*
X12984199Y-21452863D02*
X12993722Y-21433816D01*
X12993722Y-21433816D02*
X13012770Y-21424292D01*
X13012770Y-21424292D02*
X13050865Y-21424292D01*
X13050865Y-21424292D02*
X13069913Y-21433816D01*
X13069913Y-21433816D02*
X13079437Y-21452863D01*
X13079437Y-21452863D02*
X13079437Y-21471911D01*
X13079437Y-21471911D02*
X12984199Y-21490959D01*
X13155627Y-21548101D02*
X13174675Y-21557625D01*
X13174675Y-21557625D02*
X13212770Y-21557625D01*
X13212770Y-21557625D02*
X13231818Y-21548101D01*
X13231818Y-21548101D02*
X13241342Y-21529054D01*
X13241342Y-21529054D02*
X13241342Y-21519530D01*
X13241342Y-21519530D02*
X13231818Y-21500482D01*
X13231818Y-21500482D02*
X13212770Y-21490959D01*
X13212770Y-21490959D02*
X13184199Y-21490959D01*
X13184199Y-21490959D02*
X13165151Y-21481435D01*
X13165151Y-21481435D02*
X13155627Y-21462387D01*
X13155627Y-21462387D02*
X13155627Y-21452863D01*
X13155627Y-21452863D02*
X13165151Y-21433816D01*
X13165151Y-21433816D02*
X13184199Y-21424292D01*
X13184199Y-21424292D02*
X13212770Y-21424292D01*
X13212770Y-21424292D02*
X13231818Y-21433816D01*
X13308008Y-21633816D02*
X13317532Y-21624292D01*
X13317532Y-21624292D02*
X13336580Y-21595720D01*
X13336580Y-21595720D02*
X13346103Y-21576673D01*
X13346103Y-21576673D02*
X13355627Y-21548101D01*
X13355627Y-21548101D02*
X13365151Y-21500482D01*
X13365151Y-21500482D02*
X13365151Y-21462387D01*
X13365151Y-21462387D02*
X13355627Y-21414768D01*
X13355627Y-21414768D02*
X13346103Y-21386197D01*
X13346103Y-21386197D02*
X13336580Y-21367149D01*
X13336580Y-21367149D02*
X13317532Y-21338578D01*
X13317532Y-21338578D02*
X13308008Y-21329054D01*
D10*
X8382945Y-21655141D02*
X8532945Y-21805141D01*
X8532945Y-21655141D02*
X8382945Y-21805141D01*
X8457945Y-21655141D02*
X8457945Y-21805141D01*
X8382945Y-21730141D02*
X8532945Y-21730141D01*
D14*
X8898484Y-21821625D02*
X8784198Y-21821625D01*
X8841341Y-21821625D02*
X8841341Y-21621625D01*
X8841341Y-21621625D02*
X8822294Y-21650197D01*
X8822294Y-21650197D02*
X8803246Y-21669244D01*
X8803246Y-21669244D02*
X8784198Y-21678768D01*
X8984198Y-21802578D02*
X8993722Y-21812101D01*
X8993722Y-21812101D02*
X8984198Y-21821625D01*
X8984198Y-21821625D02*
X8974675Y-21812101D01*
X8974675Y-21812101D02*
X8984198Y-21802578D01*
X8984198Y-21802578D02*
X8984198Y-21821625D01*
X9174675Y-21621625D02*
X9079436Y-21621625D01*
X9079436Y-21621625D02*
X9069913Y-21716863D01*
X9069913Y-21716863D02*
X9079436Y-21707339D01*
X9079436Y-21707339D02*
X9098484Y-21697816D01*
X9098484Y-21697816D02*
X9146103Y-21697816D01*
X9146103Y-21697816D02*
X9165151Y-21707339D01*
X9165151Y-21707339D02*
X9174675Y-21716863D01*
X9174675Y-21716863D02*
X9184198Y-21735911D01*
X9184198Y-21735911D02*
X9184198Y-21783530D01*
X9184198Y-21783530D02*
X9174675Y-21802578D01*
X9174675Y-21802578D02*
X9165151Y-21812101D01*
X9165151Y-21812101D02*
X9146103Y-21821625D01*
X9146103Y-21821625D02*
X9098484Y-21821625D01*
X9098484Y-21821625D02*
X9079436Y-21812101D01*
X9079436Y-21812101D02*
X9069913Y-21802578D01*
X9308008Y-21621625D02*
X9327056Y-21621625D01*
X9327056Y-21621625D02*
X9346103Y-21631149D01*
X9346103Y-21631149D02*
X9355627Y-21640673D01*
X9355627Y-21640673D02*
X9365151Y-21659720D01*
X9365151Y-21659720D02*
X9374675Y-21697816D01*
X9374675Y-21697816D02*
X9374675Y-21745435D01*
X9374675Y-21745435D02*
X9365151Y-21783530D01*
X9365151Y-21783530D02*
X9355627Y-21802578D01*
X9355627Y-21802578D02*
X9346103Y-21812101D01*
X9346103Y-21812101D02*
X9327056Y-21821625D01*
X9327056Y-21821625D02*
X9308008Y-21821625D01*
X9308008Y-21821625D02*
X9288960Y-21812101D01*
X9288960Y-21812101D02*
X9279436Y-21802578D01*
X9279436Y-21802578D02*
X9269913Y-21783530D01*
X9269913Y-21783530D02*
X9260389Y-21745435D01*
X9260389Y-21745435D02*
X9260389Y-21697816D01*
X9260389Y-21697816D02*
X9269913Y-21659720D01*
X9269913Y-21659720D02*
X9279436Y-21640673D01*
X9279436Y-21640673D02*
X9288960Y-21631149D01*
X9288960Y-21631149D02*
X9308008Y-21621625D01*
X9498484Y-21621625D02*
X9517532Y-21621625D01*
X9517532Y-21621625D02*
X9536579Y-21631149D01*
X9536579Y-21631149D02*
X9546103Y-21640673D01*
X9546103Y-21640673D02*
X9555627Y-21659720D01*
X9555627Y-21659720D02*
X9565151Y-21697816D01*
X9565151Y-21697816D02*
X9565151Y-21745435D01*
X9565151Y-21745435D02*
X9555627Y-21783530D01*
X9555627Y-21783530D02*
X9546103Y-21802578D01*
X9546103Y-21802578D02*
X9536579Y-21812101D01*
X9536579Y-21812101D02*
X9517532Y-21821625D01*
X9517532Y-21821625D02*
X9498484Y-21821625D01*
X9498484Y-21821625D02*
X9479436Y-21812101D01*
X9479436Y-21812101D02*
X9469913Y-21802578D01*
X9469913Y-21802578D02*
X9460389Y-21783530D01*
X9460389Y-21783530D02*
X9450865Y-21745435D01*
X9450865Y-21745435D02*
X9450865Y-21697816D01*
X9450865Y-21697816D02*
X9460389Y-21659720D01*
X9460389Y-21659720D02*
X9469913Y-21640673D01*
X9469913Y-21640673D02*
X9479436Y-21631149D01*
X9479436Y-21631149D02*
X9498484Y-21621625D01*
X9650865Y-21821625D02*
X9650865Y-21688292D01*
X9650865Y-21707339D02*
X9660389Y-21697816D01*
X9660389Y-21697816D02*
X9679436Y-21688292D01*
X9679436Y-21688292D02*
X9708008Y-21688292D01*
X9708008Y-21688292D02*
X9727056Y-21697816D01*
X9727056Y-21697816D02*
X9736579Y-21716863D01*
X9736579Y-21716863D02*
X9736579Y-21821625D01*
X9736579Y-21716863D02*
X9746103Y-21697816D01*
X9746103Y-21697816D02*
X9765151Y-21688292D01*
X9765151Y-21688292D02*
X9793722Y-21688292D01*
X9793722Y-21688292D02*
X9812770Y-21697816D01*
X9812770Y-21697816D02*
X9822294Y-21716863D01*
X9822294Y-21716863D02*
X9822294Y-21821625D01*
X9917532Y-21821625D02*
X9917532Y-21688292D01*
X9917532Y-21707339D02*
X9927056Y-21697816D01*
X9927056Y-21697816D02*
X9946103Y-21688292D01*
X9946103Y-21688292D02*
X9974675Y-21688292D01*
X9974675Y-21688292D02*
X9993722Y-21697816D01*
X9993722Y-21697816D02*
X10003246Y-21716863D01*
X10003246Y-21716863D02*
X10003246Y-21821625D01*
X10003246Y-21716863D02*
X10012770Y-21697816D01*
X10012770Y-21697816D02*
X10031817Y-21688292D01*
X10031817Y-21688292D02*
X10060389Y-21688292D01*
X10060389Y-21688292D02*
X10079437Y-21697816D01*
X10079437Y-21697816D02*
X10088960Y-21716863D01*
X10088960Y-21716863D02*
X10088960Y-21821625D01*
X10479437Y-21612101D02*
X10308008Y-21869244D01*
X10736579Y-21621625D02*
X10755627Y-21621625D01*
X10755627Y-21621625D02*
X10774675Y-21631149D01*
X10774675Y-21631149D02*
X10784199Y-21640673D01*
X10784199Y-21640673D02*
X10793722Y-21659720D01*
X10793722Y-21659720D02*
X10803246Y-21697816D01*
X10803246Y-21697816D02*
X10803246Y-21745435D01*
X10803246Y-21745435D02*
X10793722Y-21783530D01*
X10793722Y-21783530D02*
X10784199Y-21802578D01*
X10784199Y-21802578D02*
X10774675Y-21812101D01*
X10774675Y-21812101D02*
X10755627Y-21821625D01*
X10755627Y-21821625D02*
X10736579Y-21821625D01*
X10736579Y-21821625D02*
X10717532Y-21812101D01*
X10717532Y-21812101D02*
X10708008Y-21802578D01*
X10708008Y-21802578D02*
X10698484Y-21783530D01*
X10698484Y-21783530D02*
X10688960Y-21745435D01*
X10688960Y-21745435D02*
X10688960Y-21697816D01*
X10688960Y-21697816D02*
X10698484Y-21659720D01*
X10698484Y-21659720D02*
X10708008Y-21640673D01*
X10708008Y-21640673D02*
X10717532Y-21631149D01*
X10717532Y-21631149D02*
X10736579Y-21621625D01*
X10888960Y-21802578D02*
X10898484Y-21812101D01*
X10898484Y-21812101D02*
X10888960Y-21821625D01*
X10888960Y-21821625D02*
X10879437Y-21812101D01*
X10879437Y-21812101D02*
X10888960Y-21802578D01*
X10888960Y-21802578D02*
X10888960Y-21821625D01*
X11022294Y-21621625D02*
X11041341Y-21621625D01*
X11041341Y-21621625D02*
X11060389Y-21631149D01*
X11060389Y-21631149D02*
X11069913Y-21640673D01*
X11069913Y-21640673D02*
X11079437Y-21659720D01*
X11079437Y-21659720D02*
X11088960Y-21697816D01*
X11088960Y-21697816D02*
X11088960Y-21745435D01*
X11088960Y-21745435D02*
X11079437Y-21783530D01*
X11079437Y-21783530D02*
X11069913Y-21802578D01*
X11069913Y-21802578D02*
X11060389Y-21812101D01*
X11060389Y-21812101D02*
X11041341Y-21821625D01*
X11041341Y-21821625D02*
X11022294Y-21821625D01*
X11022294Y-21821625D02*
X11003246Y-21812101D01*
X11003246Y-21812101D02*
X10993722Y-21802578D01*
X10993722Y-21802578D02*
X10984199Y-21783530D01*
X10984199Y-21783530D02*
X10974675Y-21745435D01*
X10974675Y-21745435D02*
X10974675Y-21697816D01*
X10974675Y-21697816D02*
X10984199Y-21659720D01*
X10984199Y-21659720D02*
X10993722Y-21640673D01*
X10993722Y-21640673D02*
X11003246Y-21631149D01*
X11003246Y-21631149D02*
X11022294Y-21621625D01*
X11269913Y-21621625D02*
X11174675Y-21621625D01*
X11174675Y-21621625D02*
X11165151Y-21716863D01*
X11165151Y-21716863D02*
X11174675Y-21707339D01*
X11174675Y-21707339D02*
X11193722Y-21697816D01*
X11193722Y-21697816D02*
X11241341Y-21697816D01*
X11241341Y-21697816D02*
X11260389Y-21707339D01*
X11260389Y-21707339D02*
X11269913Y-21716863D01*
X11269913Y-21716863D02*
X11279437Y-21735911D01*
X11279437Y-21735911D02*
X11279437Y-21783530D01*
X11279437Y-21783530D02*
X11269913Y-21802578D01*
X11269913Y-21802578D02*
X11260389Y-21812101D01*
X11260389Y-21812101D02*
X11241341Y-21821625D01*
X11241341Y-21821625D02*
X11193722Y-21821625D01*
X11193722Y-21821625D02*
X11174675Y-21812101D01*
X11174675Y-21812101D02*
X11165151Y-21802578D01*
X11374675Y-21821625D02*
X11412770Y-21821625D01*
X11412770Y-21821625D02*
X11431818Y-21812101D01*
X11431818Y-21812101D02*
X11441341Y-21802578D01*
X11441341Y-21802578D02*
X11460389Y-21774006D01*
X11460389Y-21774006D02*
X11469913Y-21735911D01*
X11469913Y-21735911D02*
X11469913Y-21659720D01*
X11469913Y-21659720D02*
X11460389Y-21640673D01*
X11460389Y-21640673D02*
X11450865Y-21631149D01*
X11450865Y-21631149D02*
X11431818Y-21621625D01*
X11431818Y-21621625D02*
X11393722Y-21621625D01*
X11393722Y-21621625D02*
X11374675Y-21631149D01*
X11374675Y-21631149D02*
X11365151Y-21640673D01*
X11365151Y-21640673D02*
X11355627Y-21659720D01*
X11355627Y-21659720D02*
X11355627Y-21707339D01*
X11355627Y-21707339D02*
X11365151Y-21726387D01*
X11365151Y-21726387D02*
X11374675Y-21735911D01*
X11374675Y-21735911D02*
X11393722Y-21745435D01*
X11393722Y-21745435D02*
X11431818Y-21745435D01*
X11431818Y-21745435D02*
X11450865Y-21735911D01*
X11450865Y-21735911D02*
X11460389Y-21726387D01*
X11460389Y-21726387D02*
X11469913Y-21707339D01*
X11660389Y-21821625D02*
X11546103Y-21821625D01*
X11603246Y-21821625D02*
X11603246Y-21621625D01*
X11603246Y-21621625D02*
X11584198Y-21650197D01*
X11584198Y-21650197D02*
X11565151Y-21669244D01*
X11565151Y-21669244D02*
X11546103Y-21678768D01*
X11736579Y-21621625D02*
X11736579Y-21659720D01*
X11812770Y-21621625D02*
X11812770Y-21659720D01*
X12108008Y-21897816D02*
X12098484Y-21888292D01*
X12098484Y-21888292D02*
X12079437Y-21859720D01*
X12079437Y-21859720D02*
X12069913Y-21840673D01*
X12069913Y-21840673D02*
X12060389Y-21812101D01*
X12060389Y-21812101D02*
X12050865Y-21764482D01*
X12050865Y-21764482D02*
X12050865Y-21726387D01*
X12050865Y-21726387D02*
X12060389Y-21678768D01*
X12060389Y-21678768D02*
X12069913Y-21650197D01*
X12069913Y-21650197D02*
X12079437Y-21631149D01*
X12079437Y-21631149D02*
X12098484Y-21602578D01*
X12098484Y-21602578D02*
X12108008Y-21593054D01*
X12222294Y-21621625D02*
X12241341Y-21621625D01*
X12241341Y-21621625D02*
X12260389Y-21631149D01*
X12260389Y-21631149D02*
X12269913Y-21640673D01*
X12269913Y-21640673D02*
X12279437Y-21659720D01*
X12279437Y-21659720D02*
X12288960Y-21697816D01*
X12288960Y-21697816D02*
X12288960Y-21745435D01*
X12288960Y-21745435D02*
X12279437Y-21783530D01*
X12279437Y-21783530D02*
X12269913Y-21802578D01*
X12269913Y-21802578D02*
X12260389Y-21812101D01*
X12260389Y-21812101D02*
X12241341Y-21821625D01*
X12241341Y-21821625D02*
X12222294Y-21821625D01*
X12222294Y-21821625D02*
X12203246Y-21812101D01*
X12203246Y-21812101D02*
X12193722Y-21802578D01*
X12193722Y-21802578D02*
X12184199Y-21783530D01*
X12184199Y-21783530D02*
X12174675Y-21745435D01*
X12174675Y-21745435D02*
X12174675Y-21697816D01*
X12174675Y-21697816D02*
X12184199Y-21659720D01*
X12184199Y-21659720D02*
X12193722Y-21640673D01*
X12193722Y-21640673D02*
X12203246Y-21631149D01*
X12203246Y-21631149D02*
X12222294Y-21621625D01*
X12527056Y-21821625D02*
X12527056Y-21621625D01*
X12612770Y-21821625D02*
X12612770Y-21716863D01*
X12612770Y-21716863D02*
X12603246Y-21697816D01*
X12603246Y-21697816D02*
X12584199Y-21688292D01*
X12584199Y-21688292D02*
X12555627Y-21688292D01*
X12555627Y-21688292D02*
X12536580Y-21697816D01*
X12536580Y-21697816D02*
X12527056Y-21707339D01*
X12736580Y-21821625D02*
X12717532Y-21812101D01*
X12717532Y-21812101D02*
X12708008Y-21802578D01*
X12708008Y-21802578D02*
X12698484Y-21783530D01*
X12698484Y-21783530D02*
X12698484Y-21726387D01*
X12698484Y-21726387D02*
X12708008Y-21707339D01*
X12708008Y-21707339D02*
X12717532Y-21697816D01*
X12717532Y-21697816D02*
X12736580Y-21688292D01*
X12736580Y-21688292D02*
X12765151Y-21688292D01*
X12765151Y-21688292D02*
X12784199Y-21697816D01*
X12784199Y-21697816D02*
X12793722Y-21707339D01*
X12793722Y-21707339D02*
X12803246Y-21726387D01*
X12803246Y-21726387D02*
X12803246Y-21783530D01*
X12803246Y-21783530D02*
X12793722Y-21802578D01*
X12793722Y-21802578D02*
X12784199Y-21812101D01*
X12784199Y-21812101D02*
X12765151Y-21821625D01*
X12765151Y-21821625D02*
X12736580Y-21821625D01*
X12917532Y-21821625D02*
X12898484Y-21812101D01*
X12898484Y-21812101D02*
X12888961Y-21793054D01*
X12888961Y-21793054D02*
X12888961Y-21621625D01*
X13069913Y-21812101D02*
X13050865Y-21821625D01*
X13050865Y-21821625D02*
X13012770Y-21821625D01*
X13012770Y-21821625D02*
X12993722Y-21812101D01*
X12993722Y-21812101D02*
X12984199Y-21793054D01*
X12984199Y-21793054D02*
X12984199Y-21716863D01*
X12984199Y-21716863D02*
X12993722Y-21697816D01*
X12993722Y-21697816D02*
X13012770Y-21688292D01*
X13012770Y-21688292D02*
X13050865Y-21688292D01*
X13050865Y-21688292D02*
X13069913Y-21697816D01*
X13069913Y-21697816D02*
X13079437Y-21716863D01*
X13079437Y-21716863D02*
X13079437Y-21735911D01*
X13079437Y-21735911D02*
X12984199Y-21754959D01*
X13155627Y-21812101D02*
X13174675Y-21821625D01*
X13174675Y-21821625D02*
X13212770Y-21821625D01*
X13212770Y-21821625D02*
X13231818Y-21812101D01*
X13231818Y-21812101D02*
X13241342Y-21793054D01*
X13241342Y-21793054D02*
X13241342Y-21783530D01*
X13241342Y-21783530D02*
X13231818Y-21764482D01*
X13231818Y-21764482D02*
X13212770Y-21754959D01*
X13212770Y-21754959D02*
X13184199Y-21754959D01*
X13184199Y-21754959D02*
X13165151Y-21745435D01*
X13165151Y-21745435D02*
X13155627Y-21726387D01*
X13155627Y-21726387D02*
X13155627Y-21716863D01*
X13155627Y-21716863D02*
X13165151Y-21697816D01*
X13165151Y-21697816D02*
X13184199Y-21688292D01*
X13184199Y-21688292D02*
X13212770Y-21688292D01*
X13212770Y-21688292D02*
X13231818Y-21697816D01*
X13479437Y-21745435D02*
X13631818Y-21745435D01*
X13555627Y-21821625D02*
X13555627Y-21669244D01*
X13965151Y-21688292D02*
X13965151Y-21821625D01*
X13917532Y-21612101D02*
X13869913Y-21754959D01*
X13869913Y-21754959D02*
X13993723Y-21754959D01*
X14212770Y-21812101D02*
X14231818Y-21821625D01*
X14231818Y-21821625D02*
X14269913Y-21821625D01*
X14269913Y-21821625D02*
X14288961Y-21812101D01*
X14288961Y-21812101D02*
X14298485Y-21793054D01*
X14298485Y-21793054D02*
X14298485Y-21783530D01*
X14298485Y-21783530D02*
X14288961Y-21764482D01*
X14288961Y-21764482D02*
X14269913Y-21754959D01*
X14269913Y-21754959D02*
X14241342Y-21754959D01*
X14241342Y-21754959D02*
X14222294Y-21745435D01*
X14222294Y-21745435D02*
X14212770Y-21726387D01*
X14212770Y-21726387D02*
X14212770Y-21716863D01*
X14212770Y-21716863D02*
X14222294Y-21697816D01*
X14222294Y-21697816D02*
X14241342Y-21688292D01*
X14241342Y-21688292D02*
X14269913Y-21688292D01*
X14269913Y-21688292D02*
X14288961Y-21697816D01*
X14412770Y-21821625D02*
X14393723Y-21812101D01*
X14393723Y-21812101D02*
X14384199Y-21793054D01*
X14384199Y-21793054D02*
X14384199Y-21621625D01*
X14517532Y-21821625D02*
X14498485Y-21812101D01*
X14498485Y-21812101D02*
X14488961Y-21802578D01*
X14488961Y-21802578D02*
X14479437Y-21783530D01*
X14479437Y-21783530D02*
X14479437Y-21726387D01*
X14479437Y-21726387D02*
X14488961Y-21707339D01*
X14488961Y-21707339D02*
X14498485Y-21697816D01*
X14498485Y-21697816D02*
X14517532Y-21688292D01*
X14517532Y-21688292D02*
X14546104Y-21688292D01*
X14546104Y-21688292D02*
X14565151Y-21697816D01*
X14565151Y-21697816D02*
X14574675Y-21707339D01*
X14574675Y-21707339D02*
X14584199Y-21726387D01*
X14584199Y-21726387D02*
X14584199Y-21783530D01*
X14584199Y-21783530D02*
X14574675Y-21802578D01*
X14574675Y-21802578D02*
X14565151Y-21812101D01*
X14565151Y-21812101D02*
X14546104Y-21821625D01*
X14546104Y-21821625D02*
X14517532Y-21821625D01*
X14641342Y-21688292D02*
X14717532Y-21688292D01*
X14669913Y-21621625D02*
X14669913Y-21793054D01*
X14669913Y-21793054D02*
X14679437Y-21812101D01*
X14679437Y-21812101D02*
X14698485Y-21821625D01*
X14698485Y-21821625D02*
X14717532Y-21821625D01*
X14774675Y-21812101D02*
X14793723Y-21821625D01*
X14793723Y-21821625D02*
X14831818Y-21821625D01*
X14831818Y-21821625D02*
X14850866Y-21812101D01*
X14850866Y-21812101D02*
X14860389Y-21793054D01*
X14860389Y-21793054D02*
X14860389Y-21783530D01*
X14860389Y-21783530D02*
X14850866Y-21764482D01*
X14850866Y-21764482D02*
X14831818Y-21754959D01*
X14831818Y-21754959D02*
X14803246Y-21754959D01*
X14803246Y-21754959D02*
X14784199Y-21745435D01*
X14784199Y-21745435D02*
X14774675Y-21726387D01*
X14774675Y-21726387D02*
X14774675Y-21716863D01*
X14774675Y-21716863D02*
X14784199Y-21697816D01*
X14784199Y-21697816D02*
X14803246Y-21688292D01*
X14803246Y-21688292D02*
X14831818Y-21688292D01*
X14831818Y-21688292D02*
X14850866Y-21697816D01*
X14927056Y-21897816D02*
X14936580Y-21888292D01*
X14936580Y-21888292D02*
X14955627Y-21859720D01*
X14955627Y-21859720D02*
X14965151Y-21840673D01*
X14965151Y-21840673D02*
X14974675Y-21812101D01*
X14974675Y-21812101D02*
X14984199Y-21764482D01*
X14984199Y-21764482D02*
X14984199Y-21726387D01*
X14984199Y-21726387D02*
X14974675Y-21678768D01*
X14974675Y-21678768D02*
X14965151Y-21650197D01*
X14965151Y-21650197D02*
X14955627Y-21631149D01*
X14955627Y-21631149D02*
X14936580Y-21602578D01*
X14936580Y-21602578D02*
X14927056Y-21593054D01*
X8332945Y-21900141D02*
X8532945Y-22100141D01*
X8532945Y-21900141D02*
X8332945Y-22100141D01*
X8503657Y-22070853D02*
X8503657Y-21929430D01*
X8362234Y-21929430D01*
X8362234Y-22070853D01*
X8503657Y-22070853D01*
X8784198Y-21910673D02*
X8793722Y-21901149D01*
X8793722Y-21901149D02*
X8812770Y-21891625D01*
X8812770Y-21891625D02*
X8860389Y-21891625D01*
X8860389Y-21891625D02*
X8879436Y-21901149D01*
X8879436Y-21901149D02*
X8888960Y-21910673D01*
X8888960Y-21910673D02*
X8898484Y-21929720D01*
X8898484Y-21929720D02*
X8898484Y-21948768D01*
X8898484Y-21948768D02*
X8888960Y-21977339D01*
X8888960Y-21977339D02*
X8774675Y-22091625D01*
X8774675Y-22091625D02*
X8898484Y-22091625D01*
X8984198Y-22072578D02*
X8993722Y-22082101D01*
X8993722Y-22082101D02*
X8984198Y-22091625D01*
X8984198Y-22091625D02*
X8974675Y-22082101D01*
X8974675Y-22082101D02*
X8984198Y-22072578D01*
X8984198Y-22072578D02*
X8984198Y-22091625D01*
X9069913Y-21910673D02*
X9079436Y-21901149D01*
X9079436Y-21901149D02*
X9098484Y-21891625D01*
X9098484Y-21891625D02*
X9146103Y-21891625D01*
X9146103Y-21891625D02*
X9165151Y-21901149D01*
X9165151Y-21901149D02*
X9174675Y-21910673D01*
X9174675Y-21910673D02*
X9184198Y-21929720D01*
X9184198Y-21929720D02*
X9184198Y-21948768D01*
X9184198Y-21948768D02*
X9174675Y-21977339D01*
X9174675Y-21977339D02*
X9060389Y-22091625D01*
X9060389Y-22091625D02*
X9184198Y-22091625D01*
X9308008Y-21891625D02*
X9327056Y-21891625D01*
X9327056Y-21891625D02*
X9346103Y-21901149D01*
X9346103Y-21901149D02*
X9355627Y-21910673D01*
X9355627Y-21910673D02*
X9365151Y-21929720D01*
X9365151Y-21929720D02*
X9374675Y-21967816D01*
X9374675Y-21967816D02*
X9374675Y-22015435D01*
X9374675Y-22015435D02*
X9365151Y-22053530D01*
X9365151Y-22053530D02*
X9355627Y-22072578D01*
X9355627Y-22072578D02*
X9346103Y-22082101D01*
X9346103Y-22082101D02*
X9327056Y-22091625D01*
X9327056Y-22091625D02*
X9308008Y-22091625D01*
X9308008Y-22091625D02*
X9288960Y-22082101D01*
X9288960Y-22082101D02*
X9279436Y-22072578D01*
X9279436Y-22072578D02*
X9269913Y-22053530D01*
X9269913Y-22053530D02*
X9260389Y-22015435D01*
X9260389Y-22015435D02*
X9260389Y-21967816D01*
X9260389Y-21967816D02*
X9269913Y-21929720D01*
X9269913Y-21929720D02*
X9279436Y-21910673D01*
X9279436Y-21910673D02*
X9288960Y-21901149D01*
X9288960Y-21901149D02*
X9308008Y-21891625D01*
X9498484Y-21891625D02*
X9517532Y-21891625D01*
X9517532Y-21891625D02*
X9536579Y-21901149D01*
X9536579Y-21901149D02*
X9546103Y-21910673D01*
X9546103Y-21910673D02*
X9555627Y-21929720D01*
X9555627Y-21929720D02*
X9565151Y-21967816D01*
X9565151Y-21967816D02*
X9565151Y-22015435D01*
X9565151Y-22015435D02*
X9555627Y-22053530D01*
X9555627Y-22053530D02*
X9546103Y-22072578D01*
X9546103Y-22072578D02*
X9536579Y-22082101D01*
X9536579Y-22082101D02*
X9517532Y-22091625D01*
X9517532Y-22091625D02*
X9498484Y-22091625D01*
X9498484Y-22091625D02*
X9479436Y-22082101D01*
X9479436Y-22082101D02*
X9469913Y-22072578D01*
X9469913Y-22072578D02*
X9460389Y-22053530D01*
X9460389Y-22053530D02*
X9450865Y-22015435D01*
X9450865Y-22015435D02*
X9450865Y-21967816D01*
X9450865Y-21967816D02*
X9460389Y-21929720D01*
X9460389Y-21929720D02*
X9469913Y-21910673D01*
X9469913Y-21910673D02*
X9479436Y-21901149D01*
X9479436Y-21901149D02*
X9498484Y-21891625D01*
X9650865Y-22091625D02*
X9650865Y-21958292D01*
X9650865Y-21977339D02*
X9660389Y-21967816D01*
X9660389Y-21967816D02*
X9679436Y-21958292D01*
X9679436Y-21958292D02*
X9708008Y-21958292D01*
X9708008Y-21958292D02*
X9727056Y-21967816D01*
X9727056Y-21967816D02*
X9736579Y-21986863D01*
X9736579Y-21986863D02*
X9736579Y-22091625D01*
X9736579Y-21986863D02*
X9746103Y-21967816D01*
X9746103Y-21967816D02*
X9765151Y-21958292D01*
X9765151Y-21958292D02*
X9793722Y-21958292D01*
X9793722Y-21958292D02*
X9812770Y-21967816D01*
X9812770Y-21967816D02*
X9822294Y-21986863D01*
X9822294Y-21986863D02*
X9822294Y-22091625D01*
X9917532Y-22091625D02*
X9917532Y-21958292D01*
X9917532Y-21977339D02*
X9927056Y-21967816D01*
X9927056Y-21967816D02*
X9946103Y-21958292D01*
X9946103Y-21958292D02*
X9974675Y-21958292D01*
X9974675Y-21958292D02*
X9993722Y-21967816D01*
X9993722Y-21967816D02*
X10003246Y-21986863D01*
X10003246Y-21986863D02*
X10003246Y-22091625D01*
X10003246Y-21986863D02*
X10012770Y-21967816D01*
X10012770Y-21967816D02*
X10031817Y-21958292D01*
X10031817Y-21958292D02*
X10060389Y-21958292D01*
X10060389Y-21958292D02*
X10079437Y-21967816D01*
X10079437Y-21967816D02*
X10088960Y-21986863D01*
X10088960Y-21986863D02*
X10088960Y-22091625D01*
X10479437Y-21882101D02*
X10308008Y-22139244D01*
X10736579Y-21891625D02*
X10755627Y-21891625D01*
X10755627Y-21891625D02*
X10774675Y-21901149D01*
X10774675Y-21901149D02*
X10784199Y-21910673D01*
X10784199Y-21910673D02*
X10793722Y-21929720D01*
X10793722Y-21929720D02*
X10803246Y-21967816D01*
X10803246Y-21967816D02*
X10803246Y-22015435D01*
X10803246Y-22015435D02*
X10793722Y-22053530D01*
X10793722Y-22053530D02*
X10784199Y-22072578D01*
X10784199Y-22072578D02*
X10774675Y-22082101D01*
X10774675Y-22082101D02*
X10755627Y-22091625D01*
X10755627Y-22091625D02*
X10736579Y-22091625D01*
X10736579Y-22091625D02*
X10717532Y-22082101D01*
X10717532Y-22082101D02*
X10708008Y-22072578D01*
X10708008Y-22072578D02*
X10698484Y-22053530D01*
X10698484Y-22053530D02*
X10688960Y-22015435D01*
X10688960Y-22015435D02*
X10688960Y-21967816D01*
X10688960Y-21967816D02*
X10698484Y-21929720D01*
X10698484Y-21929720D02*
X10708008Y-21910673D01*
X10708008Y-21910673D02*
X10717532Y-21901149D01*
X10717532Y-21901149D02*
X10736579Y-21891625D01*
X10888960Y-22072578D02*
X10898484Y-22082101D01*
X10898484Y-22082101D02*
X10888960Y-22091625D01*
X10888960Y-22091625D02*
X10879437Y-22082101D01*
X10879437Y-22082101D02*
X10888960Y-22072578D01*
X10888960Y-22072578D02*
X10888960Y-22091625D01*
X11022294Y-21891625D02*
X11041341Y-21891625D01*
X11041341Y-21891625D02*
X11060389Y-21901149D01*
X11060389Y-21901149D02*
X11069913Y-21910673D01*
X11069913Y-21910673D02*
X11079437Y-21929720D01*
X11079437Y-21929720D02*
X11088960Y-21967816D01*
X11088960Y-21967816D02*
X11088960Y-22015435D01*
X11088960Y-22015435D02*
X11079437Y-22053530D01*
X11079437Y-22053530D02*
X11069913Y-22072578D01*
X11069913Y-22072578D02*
X11060389Y-22082101D01*
X11060389Y-22082101D02*
X11041341Y-22091625D01*
X11041341Y-22091625D02*
X11022294Y-22091625D01*
X11022294Y-22091625D02*
X11003246Y-22082101D01*
X11003246Y-22082101D02*
X10993722Y-22072578D01*
X10993722Y-22072578D02*
X10984199Y-22053530D01*
X10984199Y-22053530D02*
X10974675Y-22015435D01*
X10974675Y-22015435D02*
X10974675Y-21967816D01*
X10974675Y-21967816D02*
X10984199Y-21929720D01*
X10984199Y-21929720D02*
X10993722Y-21910673D01*
X10993722Y-21910673D02*
X11003246Y-21901149D01*
X11003246Y-21901149D02*
X11022294Y-21891625D01*
X11203246Y-21977339D02*
X11184199Y-21967816D01*
X11184199Y-21967816D02*
X11174675Y-21958292D01*
X11174675Y-21958292D02*
X11165151Y-21939244D01*
X11165151Y-21939244D02*
X11165151Y-21929720D01*
X11165151Y-21929720D02*
X11174675Y-21910673D01*
X11174675Y-21910673D02*
X11184199Y-21901149D01*
X11184199Y-21901149D02*
X11203246Y-21891625D01*
X11203246Y-21891625D02*
X11241341Y-21891625D01*
X11241341Y-21891625D02*
X11260389Y-21901149D01*
X11260389Y-21901149D02*
X11269913Y-21910673D01*
X11269913Y-21910673D02*
X11279437Y-21929720D01*
X11279437Y-21929720D02*
X11279437Y-21939244D01*
X11279437Y-21939244D02*
X11269913Y-21958292D01*
X11269913Y-21958292D02*
X11260389Y-21967816D01*
X11260389Y-21967816D02*
X11241341Y-21977339D01*
X11241341Y-21977339D02*
X11203246Y-21977339D01*
X11203246Y-21977339D02*
X11184199Y-21986863D01*
X11184199Y-21986863D02*
X11174675Y-21996387D01*
X11174675Y-21996387D02*
X11165151Y-22015435D01*
X11165151Y-22015435D02*
X11165151Y-22053530D01*
X11165151Y-22053530D02*
X11174675Y-22072578D01*
X11174675Y-22072578D02*
X11184199Y-22082101D01*
X11184199Y-22082101D02*
X11203246Y-22091625D01*
X11203246Y-22091625D02*
X11241341Y-22091625D01*
X11241341Y-22091625D02*
X11260389Y-22082101D01*
X11260389Y-22082101D02*
X11269913Y-22072578D01*
X11269913Y-22072578D02*
X11279437Y-22053530D01*
X11279437Y-22053530D02*
X11279437Y-22015435D01*
X11279437Y-22015435D02*
X11269913Y-21996387D01*
X11269913Y-21996387D02*
X11260389Y-21986863D01*
X11260389Y-21986863D02*
X11241341Y-21977339D01*
X11450865Y-21891625D02*
X11412770Y-21891625D01*
X11412770Y-21891625D02*
X11393722Y-21901149D01*
X11393722Y-21901149D02*
X11384198Y-21910673D01*
X11384198Y-21910673D02*
X11365151Y-21939244D01*
X11365151Y-21939244D02*
X11355627Y-21977339D01*
X11355627Y-21977339D02*
X11355627Y-22053530D01*
X11355627Y-22053530D02*
X11365151Y-22072578D01*
X11365151Y-22072578D02*
X11374675Y-22082101D01*
X11374675Y-22082101D02*
X11393722Y-22091625D01*
X11393722Y-22091625D02*
X11431818Y-22091625D01*
X11431818Y-22091625D02*
X11450865Y-22082101D01*
X11450865Y-22082101D02*
X11460389Y-22072578D01*
X11460389Y-22072578D02*
X11469913Y-22053530D01*
X11469913Y-22053530D02*
X11469913Y-22005911D01*
X11469913Y-22005911D02*
X11460389Y-21986863D01*
X11460389Y-21986863D02*
X11450865Y-21977339D01*
X11450865Y-21977339D02*
X11431818Y-21967816D01*
X11431818Y-21967816D02*
X11393722Y-21967816D01*
X11393722Y-21967816D02*
X11374675Y-21977339D01*
X11374675Y-21977339D02*
X11365151Y-21986863D01*
X11365151Y-21986863D02*
X11355627Y-22005911D01*
X11641341Y-21891625D02*
X11603246Y-21891625D01*
X11603246Y-21891625D02*
X11584198Y-21901149D01*
X11584198Y-21901149D02*
X11574675Y-21910673D01*
X11574675Y-21910673D02*
X11555627Y-21939244D01*
X11555627Y-21939244D02*
X11546103Y-21977339D01*
X11546103Y-21977339D02*
X11546103Y-22053530D01*
X11546103Y-22053530D02*
X11555627Y-22072578D01*
X11555627Y-22072578D02*
X11565151Y-22082101D01*
X11565151Y-22082101D02*
X11584198Y-22091625D01*
X11584198Y-22091625D02*
X11622294Y-22091625D01*
X11622294Y-22091625D02*
X11641341Y-22082101D01*
X11641341Y-22082101D02*
X11650865Y-22072578D01*
X11650865Y-22072578D02*
X11660389Y-22053530D01*
X11660389Y-22053530D02*
X11660389Y-22005911D01*
X11660389Y-22005911D02*
X11650865Y-21986863D01*
X11650865Y-21986863D02*
X11641341Y-21977339D01*
X11641341Y-21977339D02*
X11622294Y-21967816D01*
X11622294Y-21967816D02*
X11584198Y-21967816D01*
X11584198Y-21967816D02*
X11565151Y-21977339D01*
X11565151Y-21977339D02*
X11555627Y-21986863D01*
X11555627Y-21986863D02*
X11546103Y-22005911D01*
X11736579Y-21891625D02*
X11736579Y-21929720D01*
X11812770Y-21891625D02*
X11812770Y-21929720D01*
X12108008Y-22167816D02*
X12098484Y-22158292D01*
X12098484Y-22158292D02*
X12079437Y-22129720D01*
X12079437Y-22129720D02*
X12069913Y-22110673D01*
X12069913Y-22110673D02*
X12060389Y-22082101D01*
X12060389Y-22082101D02*
X12050865Y-22034482D01*
X12050865Y-22034482D02*
X12050865Y-21996387D01*
X12050865Y-21996387D02*
X12060389Y-21948768D01*
X12060389Y-21948768D02*
X12069913Y-21920197D01*
X12069913Y-21920197D02*
X12079437Y-21901149D01*
X12079437Y-21901149D02*
X12098484Y-21872578D01*
X12098484Y-21872578D02*
X12108008Y-21863054D01*
X12288960Y-22091625D02*
X12174675Y-22091625D01*
X12231818Y-22091625D02*
X12231818Y-21891625D01*
X12231818Y-21891625D02*
X12212770Y-21920197D01*
X12212770Y-21920197D02*
X12193722Y-21939244D01*
X12193722Y-21939244D02*
X12174675Y-21948768D01*
X12460389Y-21958292D02*
X12460389Y-22091625D01*
X12412770Y-21882101D02*
X12365151Y-22024959D01*
X12365151Y-22024959D02*
X12488960Y-22024959D01*
X12717532Y-22091625D02*
X12717532Y-21891625D01*
X12803246Y-22091625D02*
X12803246Y-21986863D01*
X12803246Y-21986863D02*
X12793722Y-21967816D01*
X12793722Y-21967816D02*
X12774675Y-21958292D01*
X12774675Y-21958292D02*
X12746103Y-21958292D01*
X12746103Y-21958292D02*
X12727056Y-21967816D01*
X12727056Y-21967816D02*
X12717532Y-21977339D01*
X12927056Y-22091625D02*
X12908008Y-22082101D01*
X12908008Y-22082101D02*
X12898484Y-22072578D01*
X12898484Y-22072578D02*
X12888961Y-22053530D01*
X12888961Y-22053530D02*
X12888961Y-21996387D01*
X12888961Y-21996387D02*
X12898484Y-21977339D01*
X12898484Y-21977339D02*
X12908008Y-21967816D01*
X12908008Y-21967816D02*
X12927056Y-21958292D01*
X12927056Y-21958292D02*
X12955627Y-21958292D01*
X12955627Y-21958292D02*
X12974675Y-21967816D01*
X12974675Y-21967816D02*
X12984199Y-21977339D01*
X12984199Y-21977339D02*
X12993722Y-21996387D01*
X12993722Y-21996387D02*
X12993722Y-22053530D01*
X12993722Y-22053530D02*
X12984199Y-22072578D01*
X12984199Y-22072578D02*
X12974675Y-22082101D01*
X12974675Y-22082101D02*
X12955627Y-22091625D01*
X12955627Y-22091625D02*
X12927056Y-22091625D01*
X13108008Y-22091625D02*
X13088961Y-22082101D01*
X13088961Y-22082101D02*
X13079437Y-22063054D01*
X13079437Y-22063054D02*
X13079437Y-21891625D01*
X13260389Y-22082101D02*
X13241342Y-22091625D01*
X13241342Y-22091625D02*
X13203246Y-22091625D01*
X13203246Y-22091625D02*
X13184199Y-22082101D01*
X13184199Y-22082101D02*
X13174675Y-22063054D01*
X13174675Y-22063054D02*
X13174675Y-21986863D01*
X13174675Y-21986863D02*
X13184199Y-21967816D01*
X13184199Y-21967816D02*
X13203246Y-21958292D01*
X13203246Y-21958292D02*
X13241342Y-21958292D01*
X13241342Y-21958292D02*
X13260389Y-21967816D01*
X13260389Y-21967816D02*
X13269913Y-21986863D01*
X13269913Y-21986863D02*
X13269913Y-22005911D01*
X13269913Y-22005911D02*
X13174675Y-22024959D01*
X13346103Y-22082101D02*
X13365151Y-22091625D01*
X13365151Y-22091625D02*
X13403246Y-22091625D01*
X13403246Y-22091625D02*
X13422294Y-22082101D01*
X13422294Y-22082101D02*
X13431818Y-22063054D01*
X13431818Y-22063054D02*
X13431818Y-22053530D01*
X13431818Y-22053530D02*
X13422294Y-22034482D01*
X13422294Y-22034482D02*
X13403246Y-22024959D01*
X13403246Y-22024959D02*
X13374675Y-22024959D01*
X13374675Y-22024959D02*
X13355627Y-22015435D01*
X13355627Y-22015435D02*
X13346103Y-21996387D01*
X13346103Y-21996387D02*
X13346103Y-21986863D01*
X13346103Y-21986863D02*
X13355627Y-21967816D01*
X13355627Y-21967816D02*
X13374675Y-21958292D01*
X13374675Y-21958292D02*
X13403246Y-21958292D01*
X13403246Y-21958292D02*
X13422294Y-21967816D01*
X13498484Y-22167816D02*
X13508008Y-22158292D01*
X13508008Y-22158292D02*
X13527056Y-22129720D01*
X13527056Y-22129720D02*
X13536580Y-22110673D01*
X13536580Y-22110673D02*
X13546103Y-22082101D01*
X13546103Y-22082101D02*
X13555627Y-22034482D01*
X13555627Y-22034482D02*
X13555627Y-21996387D01*
X13555627Y-21996387D02*
X13546103Y-21948768D01*
X13546103Y-21948768D02*
X13536580Y-21920197D01*
X13536580Y-21920197D02*
X13527056Y-21901149D01*
X13527056Y-21901149D02*
X13508008Y-21872578D01*
X13508008Y-21872578D02*
X13498484Y-21863054D01*
M02*
