G04 #@! TF.GenerationSoftware,KiCad,Pcbnew,8.0.1*
G04 #@! TF.CreationDate,2025-01-05T22:43:36+02:00*
G04 #@! TF.ProjectId,DeeDee_v1,44656544-6565-45f7-9631-2e6b69636164,v1.0.0*
G04 #@! TF.SameCoordinates,Original*
G04 #@! TF.FileFunction,Legend,Bot*
G04 #@! TF.FilePolarity,Positive*
%FSLAX46Y46*%
G04 Gerber Fmt 4.6, Leading zero omitted, Abs format (unit mm)*
G04 Created by KiCad (PCBNEW 8.0.1) date 2025-01-05 22:43:36*
%MOMM*%
%LPD*%
G01*
G04 APERTURE LIST*
G04 Aperture macros list*
%AMRoundRect*
0 Rectangle with rounded corners*
0 $1 Rounding radius*
0 $2 $3 $4 $5 $6 $7 $8 $9 X,Y pos of 4 corners*
0 Add a 4 corners polygon primitive as box body*
4,1,4,$2,$3,$4,$5,$6,$7,$8,$9,$2,$3,0*
0 Add four circle primitives for the rounded corners*
1,1,$1+$1,$2,$3*
1,1,$1+$1,$4,$5*
1,1,$1+$1,$6,$7*
1,1,$1+$1,$8,$9*
0 Add four rect primitives between the rounded corners*
20,1,$1+$1,$2,$3,$4,$5,0*
20,1,$1+$1,$4,$5,$6,$7,0*
20,1,$1+$1,$6,$7,$8,$9,0*
20,1,$1+$1,$8,$9,$2,$3,0*%
%AMHorizOval*
0 Thick line with rounded ends*
0 $1 width*
0 $2 $3 position (X,Y) of the first rounded end (center of the circle)*
0 $4 $5 position (X,Y) of the second rounded end (center of the circle)*
0 Add line between two ends*
20,1,$1,$2,$3,$4,$5,0*
0 Add two circle primitives to create the rounded ends*
1,1,$1,$2,$3*
1,1,$1,$4,$5*%
%AMRotRect*
0 Rectangle, with rotation*
0 The origin of the aperture is its center*
0 $1 length*
0 $2 width*
0 $3 Rotation angle, in degrees counterclockwise*
0 Add horizontal line*
21,1,$1,$2,0,0,$3*%
%AMFreePoly0*
4,1,6,1.000000,0.000000,0.500000,-0.750000,-0.500000,-0.750000,-0.500000,0.750000,0.500000,0.750000,1.000000,0.000000,1.000000,0.000000,$1*%
%AMFreePoly1*
4,1,6,0.500000,-0.750000,-0.650000,-0.750000,-0.150000,0.000000,-0.650000,0.750000,0.500000,0.750000,0.500000,-0.750000,0.500000,-0.750000,$1*%
G04 Aperture macros list end*
%ADD10C,0.153000*%
%ADD11C,0.150000*%
%ADD12C,0.120000*%
%ADD13C,0.100000*%
%ADD14C,3.800000*%
%ADD15R,1.300000X0.300000*%
%ADD16R,2.200000X1.800000*%
%ADD17RoundRect,0.250000X0.519855X0.034014X0.226279X0.469259X-0.519855X-0.034014X-0.226279X-0.469259X0*%
%ADD18RoundRect,0.250000X0.474974X-0.214024X0.420096X0.308100X-0.474974X0.214024X-0.420096X-0.308100X0*%
%ADD19RoundRect,0.250000X0.443036X0.274090X-0.020512X0.520563X-0.443036X-0.274090X0.020512X-0.520563X0*%
%ADD20RoundRect,0.250000X-0.020512X-0.520563X0.443036X-0.274090X0.020512X0.520563X-0.443036X0.274090X0*%
%ADD21RotRect,1.000000X1.000000X118.000000*%
%ADD22HorizOval,1.000000X0.000000X0.000000X0.000000X0.000000X0*%
%ADD23RoundRect,0.250000X0.420096X-0.308100X0.474974X0.214024X-0.420096X0.308100X-0.474974X-0.214024X0*%
%ADD24RoundRect,0.250000X0.226279X-0.469259X0.519855X-0.034014X-0.226279X0.469259X-0.519855X0.034014X0*%
%ADD25RoundRect,0.250000X0.274090X-0.443036X0.520563X0.020512X-0.274090X0.443036X-0.520563X-0.020512X0*%
%ADD26RotRect,3.200000X2.000000X152.000000*%
%ADD27C,1.500000*%
%ADD28RotRect,2.000000X2.000000X152.000000*%
%ADD29C,2.000000*%
%ADD30RotRect,3.200000X2.000000X28.000000*%
%ADD31RotRect,2.000000X2.000000X28.000000*%
%ADD32RoundRect,0.240000X-0.360000X-0.635000X0.360000X-0.635000X0.360000X0.635000X-0.360000X0.635000X0*%
%ADD33O,1.200000X1.750000*%
%ADD34RoundRect,0.090000X-0.210000X-0.535000X0.210000X-0.535000X0.210000X0.535000X-0.210000X0.535000X0*%
%ADD35RoundRect,0.105000X0.445000X-0.245000X0.445000X0.245000X-0.445000X0.245000X-0.445000X-0.245000X0*%
%ADD36C,1.800000*%
%ADD37C,2.100000*%
%ADD38RoundRect,0.250000X0.520563X-0.020512X0.274090X0.443036X-0.520563X0.020512X-0.274090X-0.443036X0*%
%ADD39RotRect,1.400000X1.000000X28.000000*%
%ADD40RotRect,0.900000X1.200000X96.000000*%
%ADD41C,1.900000*%
%ADD42C,3.000000*%
%ADD43C,3.400000*%
%ADD44RotRect,2.600000X2.600000X152.000000*%
%ADD45RotRect,0.900000X1.200000X124.000000*%
%ADD46RotRect,1.400000X1.000000X332.000000*%
%ADD47RotRect,2.600000X2.600000X208.000000*%
%ADD48RotRect,0.900000X1.200000X152.000000*%
%ADD49RotRect,0.900000X1.200000X62.000000*%
%ADD50RotRect,2.600000X2.600000X264.000000*%
%ADD51RotRect,0.900000X1.200000X208.000000*%
%ADD52RotRect,1.400000X1.000000X84.000000*%
%ADD53C,1.700000*%
%ADD54FreePoly0,180.000000*%
%ADD55FreePoly1,180.000000*%
%ADD56RotRect,1.400000X1.000000X56.000000*%
%ADD57RotRect,1.400000X1.000000X304.000000*%
%ADD58RotRect,2.600000X2.600000X236.000000*%
%ADD59RotRect,2.600000X2.600000X96.000000*%
%ADD60RotRect,2.600000X2.600000X124.000000*%
%ADD61RotRect,0.900000X1.200000X264.000000*%
%ADD62R,1.000000X1.000000*%
%ADD63RotRect,0.900000X1.200000X236.000000*%
%ADD64RotRect,0.900000X1.200000X118.000000*%
%ADD65RotRect,1.400000X1.000000X276.000000*%
G04 APERTURE END LIST*
D10*
X210011247Y-105052996D02*
X210011247Y-105719663D01*
X210011247Y-105148234D02*
X209963628Y-105100615D01*
X209963628Y-105100615D02*
X209868390Y-105052996D01*
X209868390Y-105052996D02*
X209725533Y-105052996D01*
X209725533Y-105052996D02*
X209630295Y-105100615D01*
X209630295Y-105100615D02*
X209582676Y-105195853D01*
X209582676Y-105195853D02*
X209582676Y-105719663D01*
X209106485Y-105719663D02*
X209106485Y-105052996D01*
X209106485Y-104719663D02*
X209154104Y-104767282D01*
X209154104Y-104767282D02*
X209106485Y-104814901D01*
X209106485Y-104814901D02*
X209058866Y-104767282D01*
X209058866Y-104767282D02*
X209106485Y-104719663D01*
X209106485Y-104719663D02*
X209106485Y-104814901D01*
X208201724Y-105672044D02*
X208296962Y-105719663D01*
X208296962Y-105719663D02*
X208487438Y-105719663D01*
X208487438Y-105719663D02*
X208582676Y-105672044D01*
X208582676Y-105672044D02*
X208630295Y-105624424D01*
X208630295Y-105624424D02*
X208677914Y-105529186D01*
X208677914Y-105529186D02*
X208677914Y-105243472D01*
X208677914Y-105243472D02*
X208630295Y-105148234D01*
X208630295Y-105148234D02*
X208582676Y-105100615D01*
X208582676Y-105100615D02*
X208487438Y-105052996D01*
X208487438Y-105052996D02*
X208296962Y-105052996D01*
X208296962Y-105052996D02*
X208201724Y-105100615D01*
X207392200Y-105672044D02*
X207487438Y-105719663D01*
X207487438Y-105719663D02*
X207677914Y-105719663D01*
X207677914Y-105719663D02*
X207773152Y-105672044D01*
X207773152Y-105672044D02*
X207820771Y-105576805D01*
X207820771Y-105576805D02*
X207820771Y-105195853D01*
X207820771Y-105195853D02*
X207773152Y-105100615D01*
X207773152Y-105100615D02*
X207677914Y-105052996D01*
X207677914Y-105052996D02*
X207487438Y-105052996D01*
X207487438Y-105052996D02*
X207392200Y-105100615D01*
X207392200Y-105100615D02*
X207344581Y-105195853D01*
X207344581Y-105195853D02*
X207344581Y-105291091D01*
X207344581Y-105291091D02*
X207820771Y-105386329D01*
X206916009Y-105624424D02*
X206868390Y-105672044D01*
X206868390Y-105672044D02*
X206916009Y-105719663D01*
X206916009Y-105719663D02*
X206963628Y-105672044D01*
X206963628Y-105672044D02*
X206916009Y-105624424D01*
X206916009Y-105624424D02*
X206916009Y-105719663D01*
X206916009Y-105338710D02*
X206963628Y-104767282D01*
X206963628Y-104767282D02*
X206916009Y-104719663D01*
X206916009Y-104719663D02*
X206868390Y-104767282D01*
X206868390Y-104767282D02*
X206916009Y-105338710D01*
X206916009Y-105338710D02*
X206916009Y-104719663D01*
X206439819Y-105052996D02*
X206439819Y-105719663D01*
X206439819Y-105148234D02*
X206392200Y-105100615D01*
X206392200Y-105100615D02*
X206296962Y-105052996D01*
X206296962Y-105052996D02*
X206154105Y-105052996D01*
X206154105Y-105052996D02*
X206058867Y-105100615D01*
X206058867Y-105100615D02*
X206011248Y-105195853D01*
X206011248Y-105195853D02*
X206011248Y-105719663D01*
X205106486Y-105719663D02*
X205106486Y-105195853D01*
X205106486Y-105195853D02*
X205154105Y-105100615D01*
X205154105Y-105100615D02*
X205249343Y-105052996D01*
X205249343Y-105052996D02*
X205439819Y-105052996D01*
X205439819Y-105052996D02*
X205535057Y-105100615D01*
X205106486Y-105672044D02*
X205201724Y-105719663D01*
X205201724Y-105719663D02*
X205439819Y-105719663D01*
X205439819Y-105719663D02*
X205535057Y-105672044D01*
X205535057Y-105672044D02*
X205582676Y-105576805D01*
X205582676Y-105576805D02*
X205582676Y-105481567D01*
X205582676Y-105481567D02*
X205535057Y-105386329D01*
X205535057Y-105386329D02*
X205439819Y-105338710D01*
X205439819Y-105338710D02*
X205201724Y-105338710D01*
X205201724Y-105338710D02*
X205106486Y-105291091D01*
X204630295Y-105052996D02*
X204630295Y-105719663D01*
X204630295Y-105148234D02*
X204582676Y-105100615D01*
X204582676Y-105100615D02*
X204487438Y-105052996D01*
X204487438Y-105052996D02*
X204344581Y-105052996D01*
X204344581Y-105052996D02*
X204249343Y-105100615D01*
X204249343Y-105100615D02*
X204201724Y-105195853D01*
X204201724Y-105195853D02*
X204201724Y-105719663D01*
X203582676Y-105719663D02*
X203677914Y-105672044D01*
X203677914Y-105672044D02*
X203725533Y-105624424D01*
X203725533Y-105624424D02*
X203773152Y-105529186D01*
X203773152Y-105529186D02*
X203773152Y-105243472D01*
X203773152Y-105243472D02*
X203725533Y-105148234D01*
X203725533Y-105148234D02*
X203677914Y-105100615D01*
X203677914Y-105100615D02*
X203582676Y-105052996D01*
X203582676Y-105052996D02*
X203439819Y-105052996D01*
X203439819Y-105052996D02*
X203344581Y-105100615D01*
X203344581Y-105100615D02*
X203296962Y-105148234D01*
X203296962Y-105148234D02*
X203249343Y-105243472D01*
X203249343Y-105243472D02*
X203249343Y-105529186D01*
X203249343Y-105529186D02*
X203296962Y-105624424D01*
X203296962Y-105624424D02*
X203344581Y-105672044D01*
X203344581Y-105672044D02*
X203439819Y-105719663D01*
X203439819Y-105719663D02*
X203582676Y-105719663D01*
X202154104Y-105052996D02*
X201916009Y-105719663D01*
X201916009Y-105719663D02*
X201677914Y-105052996D01*
X201344580Y-104814901D02*
X201296961Y-104767282D01*
X201296961Y-104767282D02*
X201201723Y-104719663D01*
X201201723Y-104719663D02*
X200963628Y-104719663D01*
X200963628Y-104719663D02*
X200868390Y-104767282D01*
X200868390Y-104767282D02*
X200820771Y-104814901D01*
X200820771Y-104814901D02*
X200773152Y-104910139D01*
X200773152Y-104910139D02*
X200773152Y-105005377D01*
X200773152Y-105005377D02*
X200820771Y-105148234D01*
X200820771Y-105148234D02*
X201392199Y-105719663D01*
X201392199Y-105719663D02*
X200773152Y-105719663D01*
X205427914Y-141795853D02*
X205761247Y-141795853D01*
X205761247Y-142319663D02*
X205761247Y-141319663D01*
X205761247Y-141319663D02*
X205285057Y-141319663D01*
X204570771Y-141795853D02*
X204904104Y-141795853D01*
X204904104Y-142319663D02*
X204904104Y-141319663D01*
X204904104Y-141319663D02*
X204427914Y-141319663D01*
X203475533Y-142224424D02*
X203523152Y-142272044D01*
X203523152Y-142272044D02*
X203666009Y-142319663D01*
X203666009Y-142319663D02*
X203761247Y-142319663D01*
X203761247Y-142319663D02*
X203904104Y-142272044D01*
X203904104Y-142272044D02*
X203999342Y-142176805D01*
X203999342Y-142176805D02*
X204046961Y-142081567D01*
X204046961Y-142081567D02*
X204094580Y-141891091D01*
X204094580Y-141891091D02*
X204094580Y-141748234D01*
X204094580Y-141748234D02*
X204046961Y-141557758D01*
X204046961Y-141557758D02*
X203999342Y-141462520D01*
X203999342Y-141462520D02*
X203904104Y-141367282D01*
X203904104Y-141367282D02*
X203761247Y-141319663D01*
X203761247Y-141319663D02*
X203666009Y-141319663D01*
X203666009Y-141319663D02*
X203523152Y-141367282D01*
X203523152Y-141367282D02*
X203475533Y-141414901D01*
X201761247Y-142319663D02*
X202332675Y-142319663D01*
X202046961Y-142319663D02*
X202046961Y-141319663D01*
X202046961Y-141319663D02*
X202142199Y-141462520D01*
X202142199Y-141462520D02*
X202237437Y-141557758D01*
X202237437Y-141557758D02*
X202332675Y-141605377D01*
X201380294Y-141414901D02*
X201332675Y-141367282D01*
X201332675Y-141367282D02*
X201237437Y-141319663D01*
X201237437Y-141319663D02*
X200999342Y-141319663D01*
X200999342Y-141319663D02*
X200904104Y-141367282D01*
X200904104Y-141367282D02*
X200856485Y-141414901D01*
X200856485Y-141414901D02*
X200808866Y-141510139D01*
X200808866Y-141510139D02*
X200808866Y-141605377D01*
X200808866Y-141605377D02*
X200856485Y-141748234D01*
X200856485Y-141748234D02*
X201427913Y-142319663D01*
X201427913Y-142319663D02*
X200808866Y-142319663D01*
X200380294Y-141652996D02*
X200380294Y-142652996D01*
X200380294Y-141700615D02*
X200285056Y-141652996D01*
X200285056Y-141652996D02*
X200094580Y-141652996D01*
X200094580Y-141652996D02*
X199999342Y-141700615D01*
X199999342Y-141700615D02*
X199951723Y-141748234D01*
X199951723Y-141748234D02*
X199904104Y-141843472D01*
X199904104Y-141843472D02*
X199904104Y-142129186D01*
X199904104Y-142129186D02*
X199951723Y-142224424D01*
X199951723Y-142224424D02*
X199999342Y-142272044D01*
X199999342Y-142272044D02*
X200094580Y-142319663D01*
X200094580Y-142319663D02*
X200285056Y-142319663D01*
X200285056Y-142319663D02*
X200380294Y-142272044D01*
X198523151Y-141319663D02*
X198427913Y-141319663D01*
X198427913Y-141319663D02*
X198332675Y-141367282D01*
X198332675Y-141367282D02*
X198285056Y-141414901D01*
X198285056Y-141414901D02*
X198237437Y-141510139D01*
X198237437Y-141510139D02*
X198189818Y-141700615D01*
X198189818Y-141700615D02*
X198189818Y-141938710D01*
X198189818Y-141938710D02*
X198237437Y-142129186D01*
X198237437Y-142129186D02*
X198285056Y-142224424D01*
X198285056Y-142224424D02*
X198332675Y-142272044D01*
X198332675Y-142272044D02*
X198427913Y-142319663D01*
X198427913Y-142319663D02*
X198523151Y-142319663D01*
X198523151Y-142319663D02*
X198618389Y-142272044D01*
X198618389Y-142272044D02*
X198666008Y-142224424D01*
X198666008Y-142224424D02*
X198713627Y-142129186D01*
X198713627Y-142129186D02*
X198761246Y-141938710D01*
X198761246Y-141938710D02*
X198761246Y-141700615D01*
X198761246Y-141700615D02*
X198713627Y-141510139D01*
X198713627Y-141510139D02*
X198666008Y-141414901D01*
X198666008Y-141414901D02*
X198618389Y-141367282D01*
X198618389Y-141367282D02*
X198523151Y-141319663D01*
X197761246Y-142224424D02*
X197713627Y-142272044D01*
X197713627Y-142272044D02*
X197761246Y-142319663D01*
X197761246Y-142319663D02*
X197808865Y-142272044D01*
X197808865Y-142272044D02*
X197761246Y-142224424D01*
X197761246Y-142224424D02*
X197761246Y-142319663D01*
X196808866Y-141319663D02*
X197285056Y-141319663D01*
X197285056Y-141319663D02*
X197332675Y-141795853D01*
X197332675Y-141795853D02*
X197285056Y-141748234D01*
X197285056Y-141748234D02*
X197189818Y-141700615D01*
X197189818Y-141700615D02*
X196951723Y-141700615D01*
X196951723Y-141700615D02*
X196856485Y-141748234D01*
X196856485Y-141748234D02*
X196808866Y-141795853D01*
X196808866Y-141795853D02*
X196761247Y-141891091D01*
X196761247Y-141891091D02*
X196761247Y-142129186D01*
X196761247Y-142129186D02*
X196808866Y-142224424D01*
X196808866Y-142224424D02*
X196856485Y-142272044D01*
X196856485Y-142272044D02*
X196951723Y-142319663D01*
X196951723Y-142319663D02*
X197189818Y-142319663D01*
X197189818Y-142319663D02*
X197285056Y-142272044D01*
X197285056Y-142272044D02*
X197332675Y-142224424D01*
X196332675Y-142319663D02*
X196332675Y-141652996D01*
X196332675Y-141748234D02*
X196285056Y-141700615D01*
X196285056Y-141700615D02*
X196189818Y-141652996D01*
X196189818Y-141652996D02*
X196046961Y-141652996D01*
X196046961Y-141652996D02*
X195951723Y-141700615D01*
X195951723Y-141700615D02*
X195904104Y-141795853D01*
X195904104Y-141795853D02*
X195904104Y-142319663D01*
X195904104Y-141795853D02*
X195856485Y-141700615D01*
X195856485Y-141700615D02*
X195761247Y-141652996D01*
X195761247Y-141652996D02*
X195618390Y-141652996D01*
X195618390Y-141652996D02*
X195523151Y-141700615D01*
X195523151Y-141700615D02*
X195475532Y-141795853D01*
X195475532Y-141795853D02*
X195475532Y-142319663D01*
X194999342Y-142319663D02*
X194999342Y-141652996D01*
X194999342Y-141748234D02*
X194951723Y-141700615D01*
X194951723Y-141700615D02*
X194856485Y-141652996D01*
X194856485Y-141652996D02*
X194713628Y-141652996D01*
X194713628Y-141652996D02*
X194618390Y-141700615D01*
X194618390Y-141700615D02*
X194570771Y-141795853D01*
X194570771Y-141795853D02*
X194570771Y-142319663D01*
X194570771Y-141795853D02*
X194523152Y-141700615D01*
X194523152Y-141700615D02*
X194427914Y-141652996D01*
X194427914Y-141652996D02*
X194285057Y-141652996D01*
X194285057Y-141652996D02*
X194189818Y-141700615D01*
X194189818Y-141700615D02*
X194142199Y-141795853D01*
X194142199Y-141795853D02*
X194142199Y-142319663D01*
X192904104Y-141938710D02*
X192142200Y-141938710D01*
X191666009Y-141652996D02*
X190904105Y-141938710D01*
X190904105Y-141938710D02*
X191666009Y-142224424D01*
X203494663Y-90799466D02*
X204208948Y-90799466D01*
X204208948Y-90799466D02*
X204351805Y-90751847D01*
X204351805Y-90751847D02*
X204447044Y-90656609D01*
X204447044Y-90656609D02*
X204494663Y-90513752D01*
X204494663Y-90513752D02*
X204494663Y-90418514D01*
X204494663Y-91751847D02*
X204494663Y-91275657D01*
X204494663Y-91275657D02*
X203494663Y-91275657D01*
X204399424Y-92656609D02*
X204447044Y-92608990D01*
X204447044Y-92608990D02*
X204494663Y-92466133D01*
X204494663Y-92466133D02*
X204494663Y-92370895D01*
X204494663Y-92370895D02*
X204447044Y-92228038D01*
X204447044Y-92228038D02*
X204351805Y-92132800D01*
X204351805Y-92132800D02*
X204256567Y-92085181D01*
X204256567Y-92085181D02*
X204066091Y-92037562D01*
X204066091Y-92037562D02*
X203923234Y-92037562D01*
X203923234Y-92037562D02*
X203732758Y-92085181D01*
X203732758Y-92085181D02*
X203637520Y-92132800D01*
X203637520Y-92132800D02*
X203542282Y-92228038D01*
X203542282Y-92228038D02*
X203494663Y-92370895D01*
X203494663Y-92370895D02*
X203494663Y-92466133D01*
X203494663Y-92466133D02*
X203542282Y-92608990D01*
X203542282Y-92608990D02*
X203589901Y-92656609D01*
X203494663Y-93370895D02*
X204208948Y-93370895D01*
X204208948Y-93370895D02*
X204351805Y-93323276D01*
X204351805Y-93323276D02*
X204447044Y-93228038D01*
X204447044Y-93228038D02*
X204494663Y-93085181D01*
X204494663Y-93085181D02*
X204494663Y-92989943D01*
X204494663Y-94323276D02*
X204494663Y-93847086D01*
X204494663Y-93847086D02*
X203494663Y-93847086D01*
X204399424Y-95228038D02*
X204447044Y-95180419D01*
X204447044Y-95180419D02*
X204494663Y-95037562D01*
X204494663Y-95037562D02*
X204494663Y-94942324D01*
X204494663Y-94942324D02*
X204447044Y-94799467D01*
X204447044Y-94799467D02*
X204351805Y-94704229D01*
X204351805Y-94704229D02*
X204256567Y-94656610D01*
X204256567Y-94656610D02*
X204066091Y-94608991D01*
X204066091Y-94608991D02*
X203923234Y-94608991D01*
X203923234Y-94608991D02*
X203732758Y-94656610D01*
X203732758Y-94656610D02*
X203637520Y-94704229D01*
X203637520Y-94704229D02*
X203542282Y-94799467D01*
X203542282Y-94799467D02*
X203494663Y-94942324D01*
X203494663Y-94942324D02*
X203494663Y-95037562D01*
X203494663Y-95037562D02*
X203542282Y-95180419D01*
X203542282Y-95180419D02*
X203589901Y-95228038D01*
X203494663Y-95942324D02*
X204208948Y-95942324D01*
X204208948Y-95942324D02*
X204351805Y-95894705D01*
X204351805Y-95894705D02*
X204447044Y-95799467D01*
X204447044Y-95799467D02*
X204494663Y-95656610D01*
X204494663Y-95656610D02*
X204494663Y-95561372D01*
X204494663Y-96894705D02*
X204494663Y-96418515D01*
X204494663Y-96418515D02*
X203494663Y-96418515D01*
X204399424Y-97799467D02*
X204447044Y-97751848D01*
X204447044Y-97751848D02*
X204494663Y-97608991D01*
X204494663Y-97608991D02*
X204494663Y-97513753D01*
X204494663Y-97513753D02*
X204447044Y-97370896D01*
X204447044Y-97370896D02*
X204351805Y-97275658D01*
X204351805Y-97275658D02*
X204256567Y-97228039D01*
X204256567Y-97228039D02*
X204066091Y-97180420D01*
X204066091Y-97180420D02*
X203923234Y-97180420D01*
X203923234Y-97180420D02*
X203732758Y-97228039D01*
X203732758Y-97228039D02*
X203637520Y-97275658D01*
X203637520Y-97275658D02*
X203542282Y-97370896D01*
X203542282Y-97370896D02*
X203494663Y-97513753D01*
X203494663Y-97513753D02*
X203494663Y-97608991D01*
X203494663Y-97608991D02*
X203542282Y-97751848D01*
X203542282Y-97751848D02*
X203589901Y-97799467D01*
X203494663Y-98513753D02*
X204208948Y-98513753D01*
X204208948Y-98513753D02*
X204351805Y-98466134D01*
X204351805Y-98466134D02*
X204447044Y-98370896D01*
X204447044Y-98370896D02*
X204494663Y-98228039D01*
X204494663Y-98228039D02*
X204494663Y-98132801D01*
X204494663Y-99466134D02*
X204494663Y-98989944D01*
X204494663Y-98989944D02*
X203494663Y-98989944D01*
X204399424Y-100370896D02*
X204447044Y-100323277D01*
X204447044Y-100323277D02*
X204494663Y-100180420D01*
X204494663Y-100180420D02*
X204494663Y-100085182D01*
X204494663Y-100085182D02*
X204447044Y-99942325D01*
X204447044Y-99942325D02*
X204351805Y-99847087D01*
X204351805Y-99847087D02*
X204256567Y-99799468D01*
X204256567Y-99799468D02*
X204066091Y-99751849D01*
X204066091Y-99751849D02*
X203923234Y-99751849D01*
X203923234Y-99751849D02*
X203732758Y-99799468D01*
X203732758Y-99799468D02*
X203637520Y-99847087D01*
X203637520Y-99847087D02*
X203542282Y-99942325D01*
X203542282Y-99942325D02*
X203494663Y-100085182D01*
X203494663Y-100085182D02*
X203494663Y-100180420D01*
X203494663Y-100180420D02*
X203542282Y-100323277D01*
X203542282Y-100323277D02*
X203589901Y-100370896D01*
D11*
X209088220Y-187794819D02*
X209088220Y-186794819D01*
X209088220Y-186794819D02*
X208707268Y-186794819D01*
X208707268Y-186794819D02*
X208612030Y-186842438D01*
X208612030Y-186842438D02*
X208564411Y-186890057D01*
X208564411Y-186890057D02*
X208516792Y-186985295D01*
X208516792Y-186985295D02*
X208516792Y-187128152D01*
X208516792Y-187128152D02*
X208564411Y-187223390D01*
X208564411Y-187223390D02*
X208612030Y-187271009D01*
X208612030Y-187271009D02*
X208707268Y-187318628D01*
X208707268Y-187318628D02*
X209088220Y-187318628D01*
X208183458Y-186794819D02*
X207945363Y-187794819D01*
X207945363Y-187794819D02*
X207754887Y-187080533D01*
X207754887Y-187080533D02*
X207564411Y-187794819D01*
X207564411Y-187794819D02*
X207326316Y-186794819D01*
X206373935Y-187794819D02*
X206707268Y-187318628D01*
X206945363Y-187794819D02*
X206945363Y-186794819D01*
X206945363Y-186794819D02*
X206564411Y-186794819D01*
X206564411Y-186794819D02*
X206469173Y-186842438D01*
X206469173Y-186842438D02*
X206421554Y-186890057D01*
X206421554Y-186890057D02*
X206373935Y-186985295D01*
X206373935Y-186985295D02*
X206373935Y-187128152D01*
X206373935Y-187128152D02*
X206421554Y-187223390D01*
X206421554Y-187223390D02*
X206469173Y-187271009D01*
X206469173Y-187271009D02*
X206564411Y-187318628D01*
X206564411Y-187318628D02*
X206945363Y-187318628D01*
X207382143Y-130459580D02*
X207429762Y-130507200D01*
X207429762Y-130507200D02*
X207572619Y-130554819D01*
X207572619Y-130554819D02*
X207667857Y-130554819D01*
X207667857Y-130554819D02*
X207810714Y-130507200D01*
X207810714Y-130507200D02*
X207905952Y-130411961D01*
X207905952Y-130411961D02*
X207953571Y-130316723D01*
X207953571Y-130316723D02*
X208001190Y-130126247D01*
X208001190Y-130126247D02*
X208001190Y-129983390D01*
X208001190Y-129983390D02*
X207953571Y-129792914D01*
X207953571Y-129792914D02*
X207905952Y-129697676D01*
X207905952Y-129697676D02*
X207810714Y-129602438D01*
X207810714Y-129602438D02*
X207667857Y-129554819D01*
X207667857Y-129554819D02*
X207572619Y-129554819D01*
X207572619Y-129554819D02*
X207429762Y-129602438D01*
X207429762Y-129602438D02*
X207382143Y-129650057D01*
X206953571Y-130554819D02*
X206953571Y-129888152D01*
X206953571Y-129554819D02*
X207001190Y-129602438D01*
X207001190Y-129602438D02*
X206953571Y-129650057D01*
X206953571Y-129650057D02*
X206905952Y-129602438D01*
X206905952Y-129602438D02*
X206953571Y-129554819D01*
X206953571Y-129554819D02*
X206953571Y-129650057D01*
X206477381Y-130554819D02*
X206477381Y-129888152D01*
X206477381Y-130078628D02*
X206429762Y-129983390D01*
X206429762Y-129983390D02*
X206382143Y-129935771D01*
X206382143Y-129935771D02*
X206286905Y-129888152D01*
X206286905Y-129888152D02*
X206191667Y-129888152D01*
X205429762Y-129888152D02*
X205429762Y-130888152D01*
X205429762Y-130507200D02*
X205525000Y-130554819D01*
X205525000Y-130554819D02*
X205715476Y-130554819D01*
X205715476Y-130554819D02*
X205810714Y-130507200D01*
X205810714Y-130507200D02*
X205858333Y-130459580D01*
X205858333Y-130459580D02*
X205905952Y-130364342D01*
X205905952Y-130364342D02*
X205905952Y-130078628D01*
X205905952Y-130078628D02*
X205858333Y-129983390D01*
X205858333Y-129983390D02*
X205810714Y-129935771D01*
X205810714Y-129935771D02*
X205715476Y-129888152D01*
X205715476Y-129888152D02*
X205525000Y-129888152D01*
X205525000Y-129888152D02*
X205429762Y-129935771D01*
X204525000Y-129888152D02*
X204525000Y-130554819D01*
X204953571Y-129888152D02*
X204953571Y-130411961D01*
X204953571Y-130411961D02*
X204905952Y-130507200D01*
X204905952Y-130507200D02*
X204810714Y-130554819D01*
X204810714Y-130554819D02*
X204667857Y-130554819D01*
X204667857Y-130554819D02*
X204572619Y-130507200D01*
X204572619Y-130507200D02*
X204525000Y-130459580D01*
X203667857Y-130507200D02*
X203763095Y-130554819D01*
X203763095Y-130554819D02*
X203953571Y-130554819D01*
X203953571Y-130554819D02*
X204048809Y-130507200D01*
X204048809Y-130507200D02*
X204096428Y-130411961D01*
X204096428Y-130411961D02*
X204096428Y-130031009D01*
X204096428Y-130031009D02*
X204048809Y-129935771D01*
X204048809Y-129935771D02*
X203953571Y-129888152D01*
X203953571Y-129888152D02*
X203763095Y-129888152D01*
X203763095Y-129888152D02*
X203667857Y-129935771D01*
X203667857Y-129935771D02*
X203620238Y-130031009D01*
X203620238Y-130031009D02*
X203620238Y-130126247D01*
X203620238Y-130126247D02*
X204096428Y-130221485D01*
X202572618Y-129888152D02*
X202191666Y-129888152D01*
X202429761Y-129554819D02*
X202429761Y-130411961D01*
X202429761Y-130411961D02*
X202382142Y-130507200D01*
X202382142Y-130507200D02*
X202286904Y-130554819D01*
X202286904Y-130554819D02*
X202191666Y-130554819D01*
X201858332Y-130554819D02*
X201858332Y-129888152D01*
X201858332Y-130078628D02*
X201810713Y-129983390D01*
X201810713Y-129983390D02*
X201763094Y-129935771D01*
X201763094Y-129935771D02*
X201667856Y-129888152D01*
X201667856Y-129888152D02*
X201572618Y-129888152D01*
X200810713Y-130554819D02*
X200810713Y-130031009D01*
X200810713Y-130031009D02*
X200858332Y-129935771D01*
X200858332Y-129935771D02*
X200953570Y-129888152D01*
X200953570Y-129888152D02*
X201144046Y-129888152D01*
X201144046Y-129888152D02*
X201239284Y-129935771D01*
X200810713Y-130507200D02*
X200905951Y-130554819D01*
X200905951Y-130554819D02*
X201144046Y-130554819D01*
X201144046Y-130554819D02*
X201239284Y-130507200D01*
X201239284Y-130507200D02*
X201286903Y-130411961D01*
X201286903Y-130411961D02*
X201286903Y-130316723D01*
X201286903Y-130316723D02*
X201239284Y-130221485D01*
X201239284Y-130221485D02*
X201144046Y-130173866D01*
X201144046Y-130173866D02*
X200905951Y-130173866D01*
X200905951Y-130173866D02*
X200810713Y-130126247D01*
X199905951Y-130507200D02*
X200001189Y-130554819D01*
X200001189Y-130554819D02*
X200191665Y-130554819D01*
X200191665Y-130554819D02*
X200286903Y-130507200D01*
X200286903Y-130507200D02*
X200334522Y-130459580D01*
X200334522Y-130459580D02*
X200382141Y-130364342D01*
X200382141Y-130364342D02*
X200382141Y-130078628D01*
X200382141Y-130078628D02*
X200334522Y-129983390D01*
X200334522Y-129983390D02*
X200286903Y-129935771D01*
X200286903Y-129935771D02*
X200191665Y-129888152D01*
X200191665Y-129888152D02*
X200001189Y-129888152D01*
X200001189Y-129888152D02*
X199905951Y-129935771D01*
X199477379Y-130554819D02*
X199477379Y-129554819D01*
X199382141Y-130173866D02*
X199096427Y-130554819D01*
X199096427Y-129888152D02*
X199477379Y-130269104D01*
X198667855Y-129888152D02*
X198667855Y-130888152D01*
X198667855Y-129935771D02*
X198572617Y-129888152D01*
X198572617Y-129888152D02*
X198382141Y-129888152D01*
X198382141Y-129888152D02*
X198286903Y-129935771D01*
X198286903Y-129935771D02*
X198239284Y-129983390D01*
X198239284Y-129983390D02*
X198191665Y-130078628D01*
X198191665Y-130078628D02*
X198191665Y-130364342D01*
X198191665Y-130364342D02*
X198239284Y-130459580D01*
X198239284Y-130459580D02*
X198286903Y-130507200D01*
X198286903Y-130507200D02*
X198382141Y-130554819D01*
X198382141Y-130554819D02*
X198572617Y-130554819D01*
X198572617Y-130554819D02*
X198667855Y-130507200D01*
X197334522Y-130554819D02*
X197334522Y-130031009D01*
X197334522Y-130031009D02*
X197382141Y-129935771D01*
X197382141Y-129935771D02*
X197477379Y-129888152D01*
X197477379Y-129888152D02*
X197667855Y-129888152D01*
X197667855Y-129888152D02*
X197763093Y-129935771D01*
X197334522Y-130507200D02*
X197429760Y-130554819D01*
X197429760Y-130554819D02*
X197667855Y-130554819D01*
X197667855Y-130554819D02*
X197763093Y-130507200D01*
X197763093Y-130507200D02*
X197810712Y-130411961D01*
X197810712Y-130411961D02*
X197810712Y-130316723D01*
X197810712Y-130316723D02*
X197763093Y-130221485D01*
X197763093Y-130221485D02*
X197667855Y-130173866D01*
X197667855Y-130173866D02*
X197429760Y-130173866D01*
X197429760Y-130173866D02*
X197334522Y-130126247D01*
X196429760Y-130554819D02*
X196429760Y-129554819D01*
X196429760Y-130507200D02*
X196524998Y-130554819D01*
X196524998Y-130554819D02*
X196715474Y-130554819D01*
X196715474Y-130554819D02*
X196810712Y-130507200D01*
X196810712Y-130507200D02*
X196858331Y-130459580D01*
X196858331Y-130459580D02*
X196905950Y-130364342D01*
X196905950Y-130364342D02*
X196905950Y-130078628D01*
X196905950Y-130078628D02*
X196858331Y-129983390D01*
X196858331Y-129983390D02*
X196810712Y-129935771D01*
X196810712Y-129935771D02*
X196715474Y-129888152D01*
X196715474Y-129888152D02*
X196524998Y-129888152D01*
X196524998Y-129888152D02*
X196429760Y-129935771D01*
X194763093Y-129888152D02*
X194763093Y-130554819D01*
X195001188Y-129507200D02*
X195239283Y-130221485D01*
X195239283Y-130221485D02*
X194620236Y-130221485D01*
X194048807Y-129554819D02*
X193953569Y-129554819D01*
X193953569Y-129554819D02*
X193858331Y-129602438D01*
X193858331Y-129602438D02*
X193810712Y-129650057D01*
X193810712Y-129650057D02*
X193763093Y-129745295D01*
X193763093Y-129745295D02*
X193715474Y-129935771D01*
X193715474Y-129935771D02*
X193715474Y-130173866D01*
X193715474Y-130173866D02*
X193763093Y-130364342D01*
X193763093Y-130364342D02*
X193810712Y-130459580D01*
X193810712Y-130459580D02*
X193858331Y-130507200D01*
X193858331Y-130507200D02*
X193953569Y-130554819D01*
X193953569Y-130554819D02*
X194048807Y-130554819D01*
X194048807Y-130554819D02*
X194144045Y-130507200D01*
X194144045Y-130507200D02*
X194191664Y-130459580D01*
X194191664Y-130459580D02*
X194239283Y-130364342D01*
X194239283Y-130364342D02*
X194286902Y-130173866D01*
X194286902Y-130173866D02*
X194286902Y-129935771D01*
X194286902Y-129935771D02*
X194239283Y-129745295D01*
X194239283Y-129745295D02*
X194191664Y-129650057D01*
X194191664Y-129650057D02*
X194144045Y-129602438D01*
X194144045Y-129602438D02*
X194048807Y-129554819D01*
X193286902Y-130554819D02*
X193286902Y-129888152D01*
X193286902Y-129983390D02*
X193239283Y-129935771D01*
X193239283Y-129935771D02*
X193144045Y-129888152D01*
X193144045Y-129888152D02*
X193001188Y-129888152D01*
X193001188Y-129888152D02*
X192905950Y-129935771D01*
X192905950Y-129935771D02*
X192858331Y-130031009D01*
X192858331Y-130031009D02*
X192858331Y-130554819D01*
X192858331Y-130031009D02*
X192810712Y-129935771D01*
X192810712Y-129935771D02*
X192715474Y-129888152D01*
X192715474Y-129888152D02*
X192572617Y-129888152D01*
X192572617Y-129888152D02*
X192477378Y-129935771D01*
X192477378Y-129935771D02*
X192429759Y-130031009D01*
X192429759Y-130031009D02*
X192429759Y-130554819D01*
X191953569Y-130554819D02*
X191953569Y-129888152D01*
X191953569Y-129983390D02*
X191905950Y-129935771D01*
X191905950Y-129935771D02*
X191810712Y-129888152D01*
X191810712Y-129888152D02*
X191667855Y-129888152D01*
X191667855Y-129888152D02*
X191572617Y-129935771D01*
X191572617Y-129935771D02*
X191524998Y-130031009D01*
X191524998Y-130031009D02*
X191524998Y-130554819D01*
X191524998Y-130031009D02*
X191477379Y-129935771D01*
X191477379Y-129935771D02*
X191382141Y-129888152D01*
X191382141Y-129888152D02*
X191239284Y-129888152D01*
X191239284Y-129888152D02*
X191144045Y-129935771D01*
X191144045Y-129935771D02*
X191096426Y-130031009D01*
X191096426Y-130031009D02*
X191096426Y-130554819D01*
X208338095Y-185969376D02*
X208195238Y-186016995D01*
X208195238Y-186016995D02*
X208147619Y-186064614D01*
X208147619Y-186064614D02*
X208100000Y-186159852D01*
X208100000Y-186159852D02*
X208100000Y-186302709D01*
X208100000Y-186302709D02*
X208147619Y-186397947D01*
X208147619Y-186397947D02*
X208195238Y-186445567D01*
X208195238Y-186445567D02*
X208290476Y-186493186D01*
X208290476Y-186493186D02*
X208671428Y-186493186D01*
X208671428Y-186493186D02*
X208671428Y-185493186D01*
X208671428Y-185493186D02*
X208338095Y-185493186D01*
X208338095Y-185493186D02*
X208242857Y-185540805D01*
X208242857Y-185540805D02*
X208195238Y-185588424D01*
X208195238Y-185588424D02*
X208147619Y-185683662D01*
X208147619Y-185683662D02*
X208147619Y-185778900D01*
X208147619Y-185778900D02*
X208195238Y-185874138D01*
X208195238Y-185874138D02*
X208242857Y-185921757D01*
X208242857Y-185921757D02*
X208338095Y-185969376D01*
X208338095Y-185969376D02*
X208671428Y-185969376D01*
X207719047Y-186207471D02*
X207242857Y-186207471D01*
X207814285Y-186493186D02*
X207480952Y-185493186D01*
X207480952Y-185493186D02*
X207147619Y-186493186D01*
X206957142Y-185493186D02*
X206385714Y-185493186D01*
X206671428Y-186493186D02*
X206671428Y-185493186D01*
X218115562Y-137085606D02*
X217782229Y-138085606D01*
X217782229Y-138085606D02*
X217448896Y-137085606D01*
X216544134Y-137990367D02*
X216591753Y-138037987D01*
X216591753Y-138037987D02*
X216734610Y-138085606D01*
X216734610Y-138085606D02*
X216829848Y-138085606D01*
X216829848Y-138085606D02*
X216972705Y-138037987D01*
X216972705Y-138037987D02*
X217067943Y-137942748D01*
X217067943Y-137942748D02*
X217115562Y-137847510D01*
X217115562Y-137847510D02*
X217163181Y-137657034D01*
X217163181Y-137657034D02*
X217163181Y-137514177D01*
X217163181Y-137514177D02*
X217115562Y-137323701D01*
X217115562Y-137323701D02*
X217067943Y-137228463D01*
X217067943Y-137228463D02*
X216972705Y-137133225D01*
X216972705Y-137133225D02*
X216829848Y-137085606D01*
X216829848Y-137085606D02*
X216734610Y-137085606D01*
X216734610Y-137085606D02*
X216591753Y-137133225D01*
X216591753Y-137133225D02*
X216544134Y-137180844D01*
X215544134Y-137990367D02*
X215591753Y-138037987D01*
X215591753Y-138037987D02*
X215734610Y-138085606D01*
X215734610Y-138085606D02*
X215829848Y-138085606D01*
X215829848Y-138085606D02*
X215972705Y-138037987D01*
X215972705Y-138037987D02*
X216067943Y-137942748D01*
X216067943Y-137942748D02*
X216115562Y-137847510D01*
X216115562Y-137847510D02*
X216163181Y-137657034D01*
X216163181Y-137657034D02*
X216163181Y-137514177D01*
X216163181Y-137514177D02*
X216115562Y-137323701D01*
X216115562Y-137323701D02*
X216067943Y-137228463D01*
X216067943Y-137228463D02*
X215972705Y-137133225D01*
X215972705Y-137133225D02*
X215829848Y-137085606D01*
X215829848Y-137085606D02*
X215734610Y-137085606D01*
X215734610Y-137085606D02*
X215591753Y-137133225D01*
X215591753Y-137133225D02*
X215544134Y-137180844D01*
X195820249Y-164236687D02*
X215820251Y-164236688D01*
X195820250Y-184236688D02*
X195820250Y-176236688D01*
X195820250Y-184236688D02*
X215820251Y-184236688D01*
X195820252Y-172236688D02*
X195820249Y-164236687D01*
X215820251Y-164236688D02*
X215820252Y-172236688D01*
X215820251Y-176236687D02*
X215820251Y-184236688D01*
D12*
X218406467Y-139076687D02*
X219606467Y-139076687D01*
X219606466Y-146886689D02*
X219606466Y-145396690D01*
X219606468Y-137586689D02*
X219606467Y-139076687D01*
X220946467Y-137586688D02*
X219606468Y-137586689D01*
X220946467Y-146886688D02*
X219606466Y-146886689D01*
X223666467Y-146886688D02*
X225406467Y-146886688D01*
X225406467Y-137586688D02*
X223666467Y-137586688D01*
X225406467Y-146886688D02*
X225406467Y-137586688D01*
D11*
X195820251Y-176236687D02*
G75*
G02*
X195820252Y-172236689I-4J1999999D01*
G01*
X215820252Y-172236688D02*
G75*
G02*
X215820251Y-176236688I-4J-2000000D01*
G01*
X193776898Y-158221049D02*
X193776898Y-158221049D01*
G75*
G02*
X216574738Y-125358206I12043352J15984359D01*
G01*
X216668184Y-125426789D01*
G75*
G03*
X217703181Y-126185556I517316J-379611D01*
G01*
X217703181Y-126185556D01*
G75*
G02*
X222733628Y-131616869I-11882981J-16051144D01*
G01*
X222814470Y-131734763D01*
G75*
G03*
X223523121Y-132760647I352530J-514137D01*
G01*
X223523121Y-132760647D01*
G75*
G02*
X194887962Y-159079254I-17702871J-9476043D01*
G01*
X194887962Y-159079254D01*
G75*
G03*
X193883088Y-158317569I-536462J335954D01*
G01*
X193776898Y-158221049D01*
D12*
X177021472Y-162464121D02*
X176767527Y-162087630D01*
X178240155Y-161642108D02*
X177986210Y-161265617D01*
X183599240Y-187400443D02*
X183551772Y-186948802D01*
X185061186Y-187246786D02*
X185013718Y-186795145D01*
X168629177Y-100817274D02*
X168228206Y-100604073D01*
X169319300Y-99519341D02*
X168918329Y-99306140D01*
X192447254Y-96493016D02*
X192046283Y-96279815D01*
X193137377Y-95195083D02*
X192736406Y-94981882D01*
X159506745Y-143534730D02*
X159105774Y-143321529D01*
X160196868Y-142236797D02*
X159795897Y-142023596D01*
X258718646Y-112304834D02*
X259119618Y-112091633D01*
X259408770Y-113602767D02*
X259809742Y-113389566D01*
X291801180Y-93581967D02*
X292202152Y-93368766D01*
X292491304Y-94879900D02*
X292892276Y-94666699D01*
X261879975Y-77779395D02*
X262280947Y-77566194D01*
X262570099Y-79077328D02*
X262971071Y-78864127D01*
X177549140Y-84041266D02*
X177148169Y-83828065D01*
X178239263Y-82743333D02*
X177838292Y-82530132D01*
X227440244Y-178793350D02*
X227487713Y-178341709D01*
X228902191Y-178947007D02*
X228949660Y-178495366D01*
X270799937Y-94555395D02*
X271200909Y-94342194D01*
X271490061Y-95853328D02*
X271891033Y-95640127D01*
X314210845Y-95257380D02*
X314611817Y-95044179D01*
X314900969Y-96555313D02*
X315301941Y-96342112D01*
X165467848Y-66291831D02*
X165066877Y-66078630D01*
X166157971Y-64993898D02*
X165757000Y-64780697D01*
X126626682Y-98870412D02*
X126225711Y-98657211D01*
X127316805Y-97572479D02*
X126915834Y-97359278D01*
X238125921Y-154595288D02*
X238379865Y-154218802D01*
X239344607Y-155417298D02*
X239598551Y-155040812D01*
X240878725Y-78752826D02*
X241279697Y-78539625D01*
X241568849Y-80050759D02*
X241969821Y-79837558D01*
X273961256Y-60029958D02*
X274362228Y-59816757D01*
X274651380Y-61327891D02*
X275052352Y-61114690D01*
X174607338Y-130045026D02*
X174206367Y-129831825D01*
X175297461Y-128747093D02*
X174896490Y-128533892D01*
X140643569Y-125228253D02*
X140856770Y-124827282D01*
X141941504Y-125918375D02*
X142154704Y-125517404D01*
X142431539Y-126178933D02*
X142644739Y-125777962D01*
X143729472Y-126869055D02*
X143942671Y-126468085D01*
X144219509Y-127129613D02*
X144432708Y-126728643D01*
X145517441Y-127819736D02*
X145730641Y-127418765D01*
X146007476Y-128080294D02*
X146220676Y-127679323D01*
X147305410Y-128770416D02*
X147518611Y-128369445D01*
X243820525Y-124756589D02*
X244221497Y-124543388D01*
X244510649Y-126054522D02*
X244911621Y-125841321D01*
X258921121Y-138246287D02*
X259322093Y-138033086D01*
X259611245Y-139544220D02*
X260012217Y-139331019D01*
X225980609Y-91204578D02*
X226381581Y-90991377D01*
X226670733Y-92502511D02*
X227071705Y-92289310D01*
X282881221Y-76805964D02*
X283282193Y-76592763D01*
X283571345Y-78103897D02*
X283972317Y-77890696D01*
X252960015Y-61003395D02*
X253360987Y-60790194D01*
X253650139Y-62301328D02*
X254051111Y-62088127D01*
X296370927Y-61705372D02*
X296771899Y-61492171D01*
X297061051Y-63003305D02*
X297462023Y-62790104D01*
X202256467Y-190451040D02*
X202256469Y-191751038D01*
X202756468Y-189551039D02*
X203106468Y-189551040D01*
X208506468Y-189551040D02*
X208856468Y-189551039D01*
X208856468Y-192651039D02*
X202756468Y-192651039D01*
X209356469Y-191751038D02*
X209356467Y-190451040D01*
X104217016Y-100545819D02*
X103816045Y-100332618D01*
X104907139Y-99247886D02*
X104506168Y-99034685D01*
X122056932Y-66993813D02*
X121655961Y-66780612D01*
X122747055Y-65695880D02*
X122346084Y-65482679D01*
X159709217Y-117593277D02*
X159308246Y-117380076D01*
X160399340Y-116295344D02*
X159998369Y-116082143D01*
X183527292Y-113269020D02*
X183126321Y-113055819D01*
X184217415Y-111971087D02*
X183816444Y-111757886D01*
X156547887Y-83067837D02*
X156146916Y-82854636D01*
X157238010Y-81769904D02*
X156837039Y-81556703D01*
X135546637Y-82094409D02*
X135145666Y-81881208D01*
X136236760Y-80796476D02*
X135835789Y-80583275D01*
X113136976Y-83769815D02*
X112736005Y-83556614D01*
X113827099Y-82471882D02*
X113426128Y-82258681D01*
X264307526Y-128770416D02*
X264094324Y-128369446D01*
X265605460Y-128080295D02*
X265392260Y-127679323D01*
X266095495Y-127819736D02*
X265882295Y-127418765D01*
X267393427Y-127129613D02*
X267180228Y-126728643D01*
X267883464Y-126869055D02*
X267670265Y-126468085D01*
X269181397Y-126178933D02*
X268968197Y-125777962D01*
X269671432Y-125918375D02*
X269458232Y-125517403D01*
X270969368Y-125228252D02*
X270756166Y-124827282D01*
X249798686Y-95528832D02*
X250199658Y-95315631D01*
X250488810Y-96826765D02*
X250889782Y-96613564D01*
X147627929Y-99843837D02*
X147226958Y-99630636D01*
X148318052Y-98545904D02*
X147917081Y-98332703D01*
X305290887Y-78481375D02*
X305691859Y-78268174D01*
X305981011Y-79779308D02*
X306381983Y-79566107D01*
X234900569Y-107980581D02*
X235301541Y-107767380D01*
X235590693Y-109278514D02*
X235991665Y-109065313D01*
X144466599Y-65318397D02*
X144065628Y-65105196D01*
X145156722Y-64020464D02*
X144755751Y-63807263D01*
X262312915Y-95256932D02*
X263725633Y-94505776D01*
X263064070Y-96669646D02*
X262312915Y-95256932D01*
D13*
X173070913Y-188781453D02*
X173866534Y-188697833D01*
X173468725Y-188739643D02*
X173416462Y-188242382D01*
X173531440Y-189336356D02*
X172984452Y-189393846D01*
X173531440Y-189336356D02*
X173070913Y-188781453D01*
X173531440Y-189336356D02*
X174078428Y-189278865D01*
X173573250Y-189734164D02*
X173531440Y-189336356D01*
X173866534Y-188697833D02*
X173531440Y-189336356D01*
D12*
X283314168Y-94283498D02*
X284726886Y-93532342D01*
X284065323Y-95696212D02*
X283314168Y-94283498D01*
D11*
X163441414Y-86127262D02*
X163910885Y-85244316D01*
X163441414Y-86127262D02*
X164324362Y-86596734D01*
X163816991Y-85420904D02*
X164098675Y-84891136D01*
X165788772Y-81712524D02*
X166023507Y-81271049D01*
X166023507Y-81271049D02*
X169996772Y-83383672D01*
X167527522Y-89092683D02*
X167734259Y-89768892D01*
X167527522Y-89092683D02*
X167959438Y-88280372D01*
X167734259Y-89768892D02*
X170383103Y-91177308D01*
X167772595Y-87524137D02*
X163816991Y-85420904D01*
X169544544Y-74648944D02*
X170014016Y-73765996D01*
X169996772Y-83383672D02*
X169668141Y-84001735D01*
X170383103Y-91177308D02*
X171059312Y-90970570D01*
X170464945Y-86124259D02*
X172495725Y-87204043D01*
X170896962Y-74235467D02*
X170014016Y-73765996D01*
X172495725Y-87204043D02*
X172702463Y-87880254D01*
X174919734Y-92230393D02*
X175802680Y-92699864D01*
X176272152Y-91816916D02*
X175802680Y-92699864D01*
X182375282Y-80338598D02*
X181492334Y-79869126D01*
X182375282Y-80338598D02*
X181905811Y-81221544D01*
X167772595Y-87524138D02*
G75*
G02*
X167959434Y-88280369I-284696J-471535D01*
G01*
X170464945Y-86124259D02*
G75*
G02*
X169658753Y-84019395I649337J1455529D01*
G01*
D12*
X250434107Y-138947817D02*
X251846825Y-138196661D01*
X251185262Y-140360531D02*
X250434107Y-138947817D01*
D13*
X168373853Y-168626224D02*
X169037087Y-168178870D01*
X168705471Y-168402548D02*
X168425874Y-167988027D01*
X169037087Y-168178870D02*
X169040987Y-168899970D01*
X169040987Y-168899970D02*
X168373853Y-168626224D01*
X169040987Y-168899970D02*
X168585015Y-169207524D01*
X169040987Y-168899970D02*
X169496957Y-168592413D01*
X169264664Y-169231585D02*
X169040987Y-168899970D01*
D12*
X162839703Y-94075089D02*
X163590859Y-92662372D01*
X163590859Y-92662372D02*
X165003575Y-93413528D01*
X217493595Y-91906107D02*
X218906313Y-91154951D01*
X218244750Y-93318821D02*
X217493595Y-91906107D01*
D11*
X285199322Y-64174091D02*
X284729851Y-63291145D01*
X285612799Y-62821672D02*
X284729851Y-63291145D01*
X288720359Y-70796198D02*
X292693623Y-68683576D01*
X288955095Y-71237673D02*
X288720359Y-70796198D01*
X290926876Y-74946053D02*
X290645193Y-74416284D01*
X291302453Y-75652411D02*
X290832980Y-74769463D01*
X291302453Y-75652411D02*
X292185399Y-75182940D01*
X292693623Y-68683576D02*
X293022253Y-69301641D01*
X294882480Y-72842822D02*
X290926876Y-74946053D01*
X295227472Y-69827960D02*
X297258251Y-68748175D01*
X296045821Y-73923117D02*
X295613908Y-73110804D01*
X296045821Y-73923117D02*
X296722030Y-74129855D01*
X296722030Y-74129855D02*
X299370874Y-72721439D01*
X297091117Y-56718543D02*
X296208171Y-57188014D01*
X297091117Y-56718543D02*
X297560590Y-57601491D01*
X297258251Y-68748175D02*
X297934462Y-68954914D01*
X299370874Y-72721439D02*
X299577611Y-72045230D01*
X302780771Y-69549282D02*
X303663719Y-69079809D01*
X303194248Y-68196863D02*
X303663719Y-69079809D01*
X294882480Y-72842823D02*
G75*
G02*
X295613906Y-73110805I231722J-499703D01*
G01*
X295227472Y-69827960D02*
G75*
G02*
X293031641Y-69319302I-843585J1352251D01*
G01*
X130358875Y-67404398D02*
X130828346Y-66521452D01*
X130358875Y-67404398D02*
X131241823Y-67873870D01*
X130734452Y-66698040D02*
X131016136Y-66168272D01*
X132706233Y-62989660D02*
X132940968Y-62548185D01*
X132940968Y-62548185D02*
X136914233Y-64660808D01*
X134444983Y-70369819D02*
X134651720Y-71046028D01*
X134444983Y-70369819D02*
X134876899Y-69557508D01*
X134651720Y-71046028D02*
X137300564Y-72454444D01*
X134690056Y-68801273D02*
X130734452Y-66698040D01*
X136462005Y-55926080D02*
X136931477Y-55043132D01*
X136914233Y-64660808D02*
X136585602Y-65278871D01*
X137300564Y-72454444D02*
X137976773Y-72247706D01*
X137382406Y-67401395D02*
X139413186Y-68481179D01*
X137814423Y-55512603D02*
X136931477Y-55043132D01*
X139413186Y-68481179D02*
X139619924Y-69157390D01*
X141837195Y-73507529D02*
X142720141Y-73977000D01*
X143189613Y-73094052D02*
X142720141Y-73977000D01*
X149292743Y-61615734D02*
X148409795Y-61146262D01*
X149292743Y-61615734D02*
X148823272Y-62498680D01*
X134690056Y-68801274D02*
G75*
G02*
X134876895Y-69557505I-284696J-471535D01*
G01*
X137382406Y-67401395D02*
G75*
G02*
X136576214Y-65296531I649337J1455529D01*
G01*
D12*
X177737823Y-106526840D02*
X178488979Y-105114123D01*
X178488979Y-105114123D02*
X179901695Y-105865279D01*
D13*
X160725393Y-75792460D02*
X161100974Y-75086100D01*
X160913184Y-75439278D02*
X160471710Y-75204544D01*
X161100974Y-75086100D02*
X161442953Y-75720963D01*
X161442953Y-75720963D02*
X160725393Y-75792460D01*
X161442953Y-75720963D02*
X161184742Y-76206583D01*
X161442953Y-75720963D02*
X161701162Y-75235341D01*
X161796132Y-75908750D02*
X161442953Y-75720963D01*
X187704801Y-105993642D02*
X188080382Y-105287282D01*
X187892592Y-105640460D02*
X187451118Y-105405726D01*
X188080382Y-105287282D02*
X188422361Y-105922145D01*
X188422361Y-105922145D02*
X187704801Y-105993642D01*
X188422361Y-105922145D02*
X188164150Y-106407765D01*
X188422361Y-105922145D02*
X188680570Y-105436523D01*
X188775540Y-106109932D02*
X188422361Y-105922145D01*
X126483511Y-119424049D02*
X126671298Y-119070870D01*
X126599801Y-118353310D02*
X127306161Y-118728891D01*
X126671298Y-119070870D02*
X126185678Y-118812659D01*
X126671298Y-119070870D02*
X126599801Y-118353310D01*
X126671298Y-119070870D02*
X127156920Y-119329079D01*
X126952983Y-118541101D02*
X127187717Y-118099627D01*
X127306161Y-118728891D02*
X126671298Y-119070870D01*
D12*
X168817860Y-123302842D02*
X169569016Y-121890125D01*
X169569016Y-121890125D02*
X170981732Y-122641281D01*
D13*
X154764290Y-153035354D02*
X155139871Y-152328994D01*
X154952081Y-152682172D02*
X154510607Y-152447438D01*
X155139871Y-152328994D02*
X155481850Y-152963857D01*
X155481850Y-152963857D02*
X154764290Y-153035354D01*
X155481850Y-152963857D02*
X155223639Y-153449477D01*
X155481850Y-152963857D02*
X155740059Y-152478235D01*
X155835029Y-153151644D02*
X155481850Y-152963857D01*
X154966764Y-127093902D02*
X155342345Y-126387542D01*
X155154555Y-126740720D02*
X154713081Y-126505986D01*
X155342345Y-126387542D02*
X155684324Y-127022405D01*
X155684324Y-127022405D02*
X154966764Y-127093902D01*
X155684324Y-127022405D02*
X155426113Y-127508025D01*
X155684324Y-127022405D02*
X155942533Y-126536783D01*
X156037503Y-127210192D02*
X155684324Y-127022405D01*
D12*
X159678374Y-59549648D02*
X160429530Y-58136931D01*
X160429530Y-58136931D02*
X161842246Y-58888087D01*
D11*
X303039240Y-97726103D02*
X302569769Y-96843157D01*
X303452717Y-96373684D02*
X302569769Y-96843157D01*
X306560277Y-104348210D02*
X310533541Y-102235588D01*
X306795013Y-104789685D02*
X306560277Y-104348210D01*
X308766794Y-108498065D02*
X308485111Y-107968296D01*
X309142371Y-109204423D02*
X308672898Y-108321475D01*
X309142371Y-109204423D02*
X310025317Y-108734952D01*
X310533541Y-102235588D02*
X310862171Y-102853653D01*
X312722398Y-106394834D02*
X308766794Y-108498065D01*
X313067390Y-103379972D02*
X315098169Y-102300187D01*
X313885739Y-107475129D02*
X313453826Y-106662816D01*
X313885739Y-107475129D02*
X314561948Y-107681867D01*
X314561948Y-107681867D02*
X317210792Y-106273451D01*
X314931035Y-90270555D02*
X314048089Y-90740026D01*
X314931035Y-90270555D02*
X315400508Y-91153503D01*
X315098169Y-102300187D02*
X315774380Y-102506926D01*
X317210792Y-106273451D02*
X317417529Y-105597242D01*
X320620689Y-103101294D02*
X321503637Y-102631821D01*
X321034166Y-101748875D02*
X321503637Y-102631821D01*
X312722398Y-106394835D02*
G75*
G02*
X313453824Y-106662817I231722J-499703D01*
G01*
X313067390Y-103379972D02*
G75*
G02*
X310871559Y-102871314I-843585J1352251D01*
G01*
D12*
X98427545Y-93803639D02*
X99178701Y-92390922D01*
X99178701Y-92390922D02*
X100591417Y-93142078D01*
D11*
X222349826Y-188336471D02*
X222245296Y-189330995D01*
X223239820Y-189435521D02*
X222245296Y-189330995D01*
X223708694Y-175407685D02*
X223604168Y-176402209D01*
X223708694Y-175407685D02*
X224703218Y-175512215D01*
X230698735Y-190219485D02*
X231169112Y-185744136D01*
X231169112Y-185744136D02*
X231865277Y-185817306D01*
X231195993Y-190271749D02*
X230698735Y-190219485D01*
X233534756Y-184283412D02*
X233775175Y-181996010D01*
X233775175Y-181996010D02*
X234324699Y-181551014D01*
X235372989Y-190710770D02*
X234776273Y-190648053D01*
X235841273Y-186255312D02*
X235372989Y-190710770D01*
X236168606Y-190794393D02*
X235174082Y-190689863D01*
X236168606Y-190794393D02*
X236273132Y-189799869D01*
X236637480Y-176766557D02*
X237632004Y-176871083D01*
X237387411Y-185894953D02*
X236472452Y-185798786D01*
X237387411Y-185894953D02*
X237936938Y-185449955D01*
X237527474Y-177865607D02*
X237632004Y-176871083D01*
X237936938Y-185449955D02*
X238250522Y-182466390D01*
X238250522Y-182466390D02*
X237805526Y-181916864D01*
X233534755Y-184283412D02*
G75*
G02*
X231885168Y-185819394I-1592785J56803D01*
G01*
X235841273Y-186255312D02*
G75*
G02*
X236472452Y-185798785I543853J-87326D01*
G01*
D12*
X116267464Y-60251630D02*
X117018620Y-58838913D01*
X117018620Y-58838913D02*
X118431336Y-59590069D01*
D13*
X255738632Y-105151559D02*
X256456193Y-105223058D01*
X255926423Y-105504741D02*
X255484951Y-105739476D01*
X256114213Y-105857919D02*
X255738632Y-105151559D01*
X256456193Y-105223058D02*
X256114213Y-105857919D01*
X256456193Y-105223058D02*
X256197981Y-104737436D01*
X256456193Y-105223058D02*
X256714401Y-105708678D01*
X256809369Y-105035268D02*
X256456193Y-105223058D01*
D11*
X154521456Y-102903268D02*
X154990927Y-102020322D01*
X154521456Y-102903268D02*
X155404404Y-103372740D01*
X154897033Y-102196910D02*
X155178717Y-101667142D01*
X156868814Y-98488530D02*
X157103549Y-98047055D01*
X157103549Y-98047055D02*
X161076814Y-100159678D01*
X158607564Y-105868689D02*
X158814301Y-106544898D01*
X158607564Y-105868689D02*
X159039480Y-105056378D01*
X158814301Y-106544898D02*
X161463145Y-107953314D01*
X158852637Y-104300143D02*
X154897033Y-102196910D01*
X160624586Y-91424950D02*
X161094058Y-90542002D01*
X161076814Y-100159678D02*
X160748183Y-100777741D01*
X161463145Y-107953314D02*
X162139354Y-107746576D01*
X161544987Y-102900265D02*
X163575767Y-103980049D01*
X161977004Y-91011473D02*
X161094058Y-90542002D01*
X163575767Y-103980049D02*
X163782505Y-104656260D01*
X165999776Y-109006399D02*
X166882722Y-109475870D01*
X167352194Y-108592922D02*
X166882722Y-109475870D01*
X173455324Y-97114604D02*
X172572376Y-96645132D01*
X173455324Y-97114604D02*
X172985853Y-97997550D01*
X158852637Y-104300144D02*
G75*
G02*
X159039476Y-105056375I-284696J-471535D01*
G01*
X161544987Y-102900265D02*
G75*
G02*
X160738795Y-100795401I649337J1455529D01*
G01*
D12*
X241311674Y-96230364D02*
X242724392Y-95479208D01*
X242062829Y-97643078D02*
X241311674Y-96230364D01*
X150758415Y-76325656D02*
X151509571Y-74912939D01*
X151509571Y-74912939D02*
X152922287Y-75664095D01*
D11*
X247749517Y-140715006D02*
X247280046Y-139832060D01*
X248162994Y-139362587D02*
X247280046Y-139832060D01*
X251270554Y-147337113D02*
X255243818Y-145224491D01*
X251505290Y-147778588D02*
X251270554Y-147337113D01*
X253477071Y-151486968D02*
X253195388Y-150957199D01*
X253852648Y-152193326D02*
X253383175Y-151310378D01*
X253852648Y-152193326D02*
X254735594Y-151723855D01*
X255243818Y-145224491D02*
X255572448Y-145842556D01*
X257432675Y-149383737D02*
X253477071Y-151486968D01*
X257777667Y-146368875D02*
X259808446Y-145289090D01*
X258596016Y-150464032D02*
X258164103Y-149651719D01*
X258596016Y-150464032D02*
X259272225Y-150670770D01*
X259272225Y-150670770D02*
X261921069Y-149262354D01*
X259641312Y-133259458D02*
X258758366Y-133728929D01*
X259641312Y-133259458D02*
X260110785Y-134142406D01*
X259808446Y-145289090D02*
X260484657Y-145495829D01*
X261921069Y-149262354D02*
X262127806Y-148586145D01*
X265330966Y-146090197D02*
X266213914Y-145620724D01*
X265744443Y-144737778D02*
X266213914Y-145620724D01*
X257432675Y-149383738D02*
G75*
G02*
X258164101Y-149651720I231722J-499703D01*
G01*
X257777667Y-146368875D02*
G75*
G02*
X255581836Y-145860217I-843585J1352251D01*
G01*
D13*
X311230829Y-88104100D02*
X311948390Y-88175599D01*
X311418620Y-88457282D02*
X310977148Y-88692017D01*
X311606410Y-88810460D02*
X311230829Y-88104100D01*
X311948390Y-88175599D02*
X311606410Y-88810460D01*
X311948390Y-88175599D02*
X311690178Y-87689977D01*
X311948390Y-88175599D02*
X312206598Y-88661219D01*
X312301566Y-87987809D02*
X311948390Y-88175599D01*
D11*
X145399018Y-145620731D02*
X145868489Y-144737785D01*
X145399018Y-145620731D02*
X146281966Y-146090203D01*
X145774595Y-144914373D02*
X146056279Y-144384605D01*
X147746376Y-141205993D02*
X147981111Y-140764518D01*
X147981111Y-140764518D02*
X151954376Y-142877141D01*
X149485126Y-148586152D02*
X149691863Y-149262361D01*
X149485126Y-148586152D02*
X149917042Y-147773841D01*
X149691863Y-149262361D02*
X152340707Y-150670777D01*
X149730199Y-147017606D02*
X145774595Y-144914373D01*
X151502148Y-134142413D02*
X151971620Y-133259465D01*
X151954376Y-142877141D02*
X151625745Y-143495204D01*
X152340707Y-150670777D02*
X153016916Y-150464039D01*
X152422549Y-145617728D02*
X154453329Y-146697512D01*
X152854566Y-133728936D02*
X151971620Y-133259465D01*
X154453329Y-146697512D02*
X154660067Y-147373723D01*
X156877338Y-151723862D02*
X157760284Y-152193333D01*
X158229756Y-151310385D02*
X157760284Y-152193333D01*
X164332886Y-139832067D02*
X163449938Y-139362595D01*
X164332886Y-139832067D02*
X163863415Y-140715013D01*
X149730199Y-147017607D02*
G75*
G02*
X149917038Y-147773838I-284696J-471535D01*
G01*
X152422549Y-145617728D02*
G75*
G02*
X151616357Y-143512864I649337J1455529D01*
G01*
D13*
X258899959Y-70626119D02*
X259617520Y-70697618D01*
X259087750Y-70979301D02*
X258646278Y-71214036D01*
X259275540Y-71332479D02*
X258899959Y-70626119D01*
X259617520Y-70697618D02*
X259275540Y-71332479D01*
X259617520Y-70697618D02*
X259359308Y-70211996D01*
X259617520Y-70697618D02*
X259875728Y-71183238D01*
X259970696Y-70509828D02*
X259617520Y-70697618D01*
X302310872Y-71328095D02*
X303028433Y-71399594D01*
X302498663Y-71681277D02*
X302057191Y-71916012D01*
X302686453Y-72034455D02*
X302310872Y-71328095D01*
X303028433Y-71399594D02*
X302686453Y-72034455D01*
X303028433Y-71399594D02*
X302770221Y-70913972D01*
X303028433Y-71399594D02*
X303286641Y-71885214D01*
X303381609Y-71211804D02*
X303028433Y-71399594D01*
X231920550Y-100827302D02*
X232638111Y-100898801D01*
X232108341Y-101180484D02*
X231666869Y-101415219D01*
X232296131Y-101533662D02*
X231920550Y-100827302D01*
X232638111Y-100898801D02*
X232296131Y-101533662D01*
X232638111Y-100898801D02*
X232379899Y-100413179D01*
X232638111Y-100898801D02*
X232896319Y-101384421D01*
X232991287Y-100711011D02*
X232638111Y-100898801D01*
D11*
X214809003Y-93673293D02*
X214339532Y-92790347D01*
X215222480Y-92320874D02*
X214339532Y-92790347D01*
X218330040Y-100295400D02*
X222303304Y-98182778D01*
X218564776Y-100736875D02*
X218330040Y-100295400D01*
X220536557Y-104445255D02*
X220254874Y-103915486D01*
X220912134Y-105151613D02*
X220442661Y-104268665D01*
X220912134Y-105151613D02*
X221795080Y-104682142D01*
X222303304Y-98182778D02*
X222631934Y-98800843D01*
X224492161Y-102342024D02*
X220536557Y-104445255D01*
X224837153Y-99327162D02*
X226867932Y-98247377D01*
X225655502Y-103422319D02*
X225223589Y-102610006D01*
X225655502Y-103422319D02*
X226331711Y-103629057D01*
X226331711Y-103629057D02*
X228980555Y-102220641D01*
X226700798Y-86217745D02*
X225817852Y-86687216D01*
X226700798Y-86217745D02*
X227170271Y-87100693D01*
X226867932Y-98247377D02*
X227544143Y-98454116D01*
X228980555Y-102220641D02*
X229187292Y-101544432D01*
X232390452Y-99048484D02*
X233273400Y-98579011D01*
X232803929Y-97696065D02*
X233273400Y-98579011D01*
X224492161Y-102342025D02*
G75*
G02*
X225223587Y-102610007I231722J-499703D01*
G01*
X224837153Y-99327162D02*
G75*
G02*
X222641322Y-98818504I-843585J1352251D01*
G01*
D13*
X117314484Y-76494437D02*
X117690065Y-75788077D01*
X117502275Y-76141255D02*
X117060801Y-75906521D01*
X117690065Y-75788077D02*
X118032044Y-76422940D01*
X118032044Y-76422940D02*
X117314484Y-76494437D01*
X118032044Y-76422940D02*
X117773833Y-76908560D01*
X118032044Y-76422940D02*
X118290253Y-75937318D01*
X118385223Y-76610727D02*
X118032044Y-76422940D01*
D11*
X250708371Y-80248119D02*
X250238900Y-79365173D01*
X251121848Y-78895700D02*
X250238900Y-79365173D01*
X254229408Y-86870226D02*
X258202672Y-84757604D01*
X254464144Y-87311701D02*
X254229408Y-86870226D01*
X256435925Y-91020081D02*
X256154242Y-90490312D01*
X256811502Y-91726439D02*
X256342029Y-90843491D01*
X256811502Y-91726439D02*
X257694448Y-91256968D01*
X258202672Y-84757604D02*
X258531302Y-85375669D01*
X260391529Y-88916850D02*
X256435925Y-91020081D01*
X260736521Y-85901988D02*
X262767300Y-84822203D01*
X261554870Y-89997145D02*
X261122957Y-89184832D01*
X261554870Y-89997145D02*
X262231079Y-90203883D01*
X262231079Y-90203883D02*
X264879923Y-88795467D01*
X262600166Y-72792571D02*
X261717220Y-73262042D01*
X262600166Y-72792571D02*
X263069639Y-73675519D01*
X262767300Y-84822203D02*
X263443511Y-85028942D01*
X264879923Y-88795467D02*
X265086660Y-88119258D01*
X268289820Y-85623310D02*
X269172768Y-85153837D01*
X268703297Y-84270891D02*
X269172768Y-85153837D01*
X260391529Y-88916851D02*
G75*
G02*
X261122955Y-89184833I231722J-499703D01*
G01*
X260736521Y-85901988D02*
G75*
G02*
X258540690Y-85393330I-843585J1352251D01*
G01*
D13*
X163886722Y-110317896D02*
X164262303Y-109611536D01*
X164074513Y-109964714D02*
X163633039Y-109729980D01*
X164262303Y-109611536D02*
X164604282Y-110246399D01*
X164604282Y-110246399D02*
X163886722Y-110317896D01*
X164604282Y-110246399D02*
X164346071Y-110732019D01*
X164604282Y-110246399D02*
X164862491Y-109760777D01*
X164957461Y-110434186D02*
X164604282Y-110246399D01*
X240840512Y-117603304D02*
X241558073Y-117674803D01*
X241028303Y-117956486D02*
X240586831Y-118191221D01*
X241216093Y-118309664D02*
X240840512Y-117603304D01*
X241558073Y-117674803D02*
X241216093Y-118309664D01*
X241558073Y-117674803D02*
X241299861Y-117189181D01*
X241558073Y-117674803D02*
X241816281Y-118160423D01*
X241911249Y-117487013D02*
X241558073Y-117674803D01*
X172806682Y-93541893D02*
X173182263Y-92835533D01*
X172994473Y-93188711D02*
X172552999Y-92953977D01*
X173182263Y-92835533D02*
X173524242Y-93470396D01*
X173524242Y-93470396D02*
X172806682Y-93541893D01*
X173524242Y-93470396D02*
X173266031Y-93956016D01*
X173524242Y-93470396D02*
X173782451Y-92984774D01*
X173877421Y-93658183D02*
X173524242Y-93470396D01*
D11*
X112518960Y-100956407D02*
X112988431Y-100073461D01*
X112518960Y-100956407D02*
X113401908Y-101425879D01*
X112894537Y-100250049D02*
X113176221Y-99720281D01*
X114866318Y-96541669D02*
X115101053Y-96100194D01*
X115101053Y-96100194D02*
X119074318Y-98212817D01*
X116605068Y-103921828D02*
X116811805Y-104598037D01*
X116605068Y-103921828D02*
X117036984Y-103109517D01*
X116811805Y-104598037D02*
X119460649Y-106006453D01*
X116850141Y-102353282D02*
X112894537Y-100250049D01*
X118622090Y-89478089D02*
X119091562Y-88595141D01*
X119074318Y-98212817D02*
X118745687Y-98830880D01*
X119460649Y-106006453D02*
X120136858Y-105799715D01*
X119542491Y-100953404D02*
X121573271Y-102033188D01*
X119974508Y-89064612D02*
X119091562Y-88595141D01*
X121573271Y-102033188D02*
X121780009Y-102709399D01*
X123997280Y-107059538D02*
X124880226Y-107529009D01*
X125349698Y-106646061D02*
X124880226Y-107529009D01*
X131452828Y-95167743D02*
X130569880Y-94698271D01*
X131452828Y-95167743D02*
X130983357Y-96050689D01*
X116850141Y-102353283D02*
G75*
G02*
X117036980Y-103109514I-284696J-471535D01*
G01*
X119542491Y-100953404D02*
G75*
G02*
X118736299Y-98848540I649337J1455529D01*
G01*
X99029254Y-85855811D02*
X99498725Y-84972865D01*
X99029254Y-85855811D02*
X99912202Y-86325283D01*
X99404831Y-85149453D02*
X99686515Y-84619685D01*
X101376612Y-81441073D02*
X101611347Y-80999598D01*
X101611347Y-80999598D02*
X105584612Y-83112221D01*
X103115362Y-88821232D02*
X103322099Y-89497441D01*
X103115362Y-88821232D02*
X103547278Y-88008921D01*
X103322099Y-89497441D02*
X105970943Y-90905857D01*
X103360435Y-87252686D02*
X99404831Y-85149453D01*
X105132384Y-74377493D02*
X105601856Y-73494545D01*
X105584612Y-83112221D02*
X105255981Y-83730284D01*
X105970943Y-90905857D02*
X106647152Y-90699119D01*
X106052785Y-85852808D02*
X108083565Y-86932592D01*
X106484802Y-73964016D02*
X105601856Y-73494545D01*
X108083565Y-86932592D02*
X108290303Y-87608803D01*
X110507574Y-91958942D02*
X111390520Y-92428413D01*
X111859992Y-91545465D02*
X111390520Y-92428413D01*
X117963122Y-80067147D02*
X117080174Y-79597675D01*
X117963122Y-80067147D02*
X117493651Y-80950093D01*
X103360435Y-87252687D02*
G75*
G02*
X103547274Y-88008918I-284696J-471535D01*
G01*
X106052785Y-85852808D02*
G75*
G02*
X105246593Y-83747944I649337J1455529D01*
G01*
D13*
X320150791Y-104880107D02*
X320868352Y-104951606D01*
X320338582Y-105233289D02*
X319897110Y-105468024D01*
X320526372Y-105586467D02*
X320150791Y-104880107D01*
X320868352Y-104951606D02*
X320526372Y-105586467D01*
X320868352Y-104951606D02*
X320610140Y-104465984D01*
X320868352Y-104951606D02*
X321126560Y-105437226D01*
X321221528Y-104763816D02*
X320868352Y-104951606D01*
D11*
X262789658Y-62498681D02*
X262320187Y-61615735D01*
X263203135Y-61146262D02*
X262320187Y-61615735D01*
X266310695Y-69120788D02*
X270283959Y-67008166D01*
X266545431Y-69562263D02*
X266310695Y-69120788D01*
X268517212Y-73270643D02*
X268235529Y-72740874D01*
X268892789Y-73977001D02*
X268423316Y-73094053D01*
X268892789Y-73977001D02*
X269775735Y-73507530D01*
X270283959Y-67008166D02*
X270612589Y-67626231D01*
X272472816Y-71167412D02*
X268517212Y-73270643D01*
X272817808Y-68152550D02*
X274848587Y-67072765D01*
X273636157Y-72247707D02*
X273204244Y-71435394D01*
X273636157Y-72247707D02*
X274312366Y-72454445D01*
X274312366Y-72454445D02*
X276961210Y-71046029D01*
X274681453Y-55043133D02*
X273798507Y-55512604D01*
X274681453Y-55043133D02*
X275150926Y-55926081D01*
X274848587Y-67072765D02*
X275524798Y-67279504D01*
X276961210Y-71046029D02*
X277167947Y-70369820D01*
X280371107Y-67873872D02*
X281254055Y-67404399D01*
X280784584Y-66521453D02*
X281254055Y-67404399D01*
X272472816Y-71167413D02*
G75*
G02*
X273204242Y-71435395I231722J-499703D01*
G01*
X272817808Y-68152550D02*
G75*
G02*
X270621977Y-67643892I-843585J1352251D01*
G01*
D13*
X139724144Y-74819030D02*
X140099725Y-74112670D01*
X139911935Y-74465848D02*
X139470461Y-74231114D01*
X140099725Y-74112670D02*
X140441704Y-74747533D01*
X140441704Y-74747533D02*
X139724144Y-74819030D01*
X140441704Y-74747533D02*
X140183493Y-75233153D01*
X140441704Y-74747533D02*
X140699913Y-74261911D01*
X140794883Y-74935320D02*
X140441704Y-74747533D01*
D12*
X226413552Y-108682110D02*
X227826270Y-107930954D01*
X227164707Y-110094824D02*
X226413552Y-108682110D01*
X232391709Y-79454356D02*
X233804427Y-78703200D01*
X233142864Y-80867070D02*
X232391709Y-79454356D01*
D13*
X288821168Y-86428690D02*
X289538729Y-86500189D01*
X289008959Y-86781872D02*
X288567487Y-87016607D01*
X289196749Y-87135050D02*
X288821168Y-86428690D01*
X289538729Y-86500189D02*
X289196749Y-87135050D01*
X289538729Y-86500189D02*
X289280517Y-86014567D01*
X289538729Y-86500189D02*
X289796937Y-86985809D01*
X289891905Y-86312399D02*
X289538729Y-86500189D01*
X297741126Y-103204691D02*
X298458687Y-103276190D01*
X297928917Y-103557873D02*
X297487445Y-103792608D01*
X298116707Y-103911051D02*
X297741126Y-103204691D01*
X298458687Y-103276190D02*
X298116707Y-103911051D01*
X298458687Y-103276190D02*
X298200475Y-102790568D01*
X298458687Y-103276190D02*
X298716895Y-103761810D01*
X298811863Y-103088400D02*
X298458687Y-103276190D01*
D11*
X247547038Y-114773552D02*
X247077567Y-113890606D01*
X247960515Y-113421133D02*
X247077567Y-113890606D01*
X251068075Y-121395659D02*
X255041339Y-119283037D01*
X251302811Y-121837134D02*
X251068075Y-121395659D01*
X253274592Y-125545514D02*
X252992909Y-125015745D01*
X253650169Y-126251872D02*
X253180696Y-125368924D01*
X253650169Y-126251872D02*
X254533115Y-125782401D01*
X255041339Y-119283037D02*
X255369969Y-119901102D01*
X257230196Y-123442283D02*
X253274592Y-125545514D01*
X257575188Y-120427421D02*
X259605967Y-119347636D01*
X258393537Y-124522578D02*
X257961624Y-123710265D01*
X258393537Y-124522578D02*
X259069746Y-124729316D01*
X259069746Y-124729316D02*
X261718590Y-123320900D01*
X259438833Y-107318004D02*
X258555887Y-107787475D01*
X259438833Y-107318004D02*
X259908306Y-108200952D01*
X259605967Y-119347636D02*
X260282178Y-119554375D01*
X261718590Y-123320900D02*
X261925327Y-122644691D01*
X265128487Y-120148743D02*
X266011435Y-119679270D01*
X265541964Y-118796324D02*
X266011435Y-119679270D01*
X257230196Y-123442284D02*
G75*
G02*
X257961622Y-123710266I231722J-499703D01*
G01*
X257575188Y-120427421D02*
G75*
G02*
X255379357Y-119918763I-843585J1352251D01*
G01*
D12*
X223275955Y-186221694D02*
X223443197Y-184630461D01*
X224867189Y-186388940D02*
X223275955Y-186221694D01*
X153717266Y-136792546D02*
X154468422Y-135379829D01*
X154468422Y-135379829D02*
X155881138Y-136130985D01*
X196856465Y-82654679D02*
X196856467Y-113254678D01*
X196856467Y-85254679D02*
X199516466Y-85254678D01*
X199516465Y-113254678D02*
X196856467Y-113254678D01*
X199516468Y-82654677D02*
X196856465Y-82654679D01*
X199516468Y-82654677D02*
X199516465Y-113254678D01*
X212096464Y-82654677D02*
X212096467Y-113254678D01*
X214756466Y-113254679D02*
X212096467Y-113254678D01*
X214756467Y-82654679D02*
X212096464Y-82654677D01*
X214756467Y-82654679D02*
X214756466Y-113254679D01*
D11*
X90109295Y-102631816D02*
X90578766Y-101748870D01*
X90109295Y-102631816D02*
X90992243Y-103101288D01*
X90484872Y-101925458D02*
X90766556Y-101395690D01*
X92456653Y-98217078D02*
X92691388Y-97775603D01*
X92691388Y-97775603D02*
X96664653Y-99888226D01*
X94195403Y-105597237D02*
X94402140Y-106273446D01*
X94195403Y-105597237D02*
X94627319Y-104784926D01*
X94402140Y-106273446D02*
X97050984Y-107681862D01*
X94440476Y-104028691D02*
X90484872Y-101925458D01*
X96212425Y-91153498D02*
X96681897Y-90270550D01*
X96664653Y-99888226D02*
X96336022Y-100506289D01*
X97050984Y-107681862D02*
X97727193Y-107475124D01*
X97132826Y-102628813D02*
X99163606Y-103708597D01*
X97564843Y-90740021D02*
X96681897Y-90270550D01*
X99163606Y-103708597D02*
X99370344Y-104384808D01*
X101587615Y-108734947D02*
X102470561Y-109204418D01*
X102940033Y-108321470D02*
X102470561Y-109204418D01*
X109043163Y-96843152D02*
X108160215Y-96373680D01*
X109043163Y-96843152D02*
X108573692Y-97726098D01*
X94440476Y-104028692D02*
G75*
G02*
X94627315Y-104784923I-284696J-471535D01*
G01*
X97132826Y-102628813D02*
G75*
G02*
X96326634Y-100523949I649337J1455529D01*
G01*
D12*
X202950000Y-185850000D02*
X205750000Y-185850000D01*
X202950000Y-187850000D02*
X202950000Y-185850000D01*
X205750000Y-185850000D02*
X205750000Y-187850000D01*
X205750000Y-187850000D02*
X202950000Y-187850000D01*
D11*
X241788407Y-63472108D02*
X241318936Y-62589162D01*
X242201884Y-62119689D02*
X241318936Y-62589162D01*
X245309444Y-70094215D02*
X249282708Y-67981593D01*
X245544180Y-70535690D02*
X245309444Y-70094215D01*
X247515961Y-74244070D02*
X247234278Y-73714301D01*
X247891538Y-74950428D02*
X247422065Y-74067480D01*
X247891538Y-74950428D02*
X248774484Y-74480957D01*
X249282708Y-67981593D02*
X249611338Y-68599658D01*
X251471565Y-72140839D02*
X247515961Y-74244070D01*
X251816557Y-69125977D02*
X253847336Y-68046192D01*
X252634906Y-73221134D02*
X252202993Y-72408821D01*
X252634906Y-73221134D02*
X253311115Y-73427872D01*
X253311115Y-73427872D02*
X255959959Y-72019456D01*
X253680202Y-56016560D02*
X252797256Y-56486031D01*
X253680202Y-56016560D02*
X254149675Y-56899508D01*
X253847336Y-68046192D02*
X254523547Y-68252931D01*
X255959959Y-72019456D02*
X256166696Y-71343247D01*
X259369856Y-68847299D02*
X260252804Y-68377826D01*
X259783333Y-67494880D02*
X260252804Y-68377826D01*
X251471565Y-72140840D02*
G75*
G02*
X252202991Y-72408822I231722J-499703D01*
G01*
X251816557Y-69125977D02*
G75*
G02*
X249620726Y-68617319I-843585J1352251D01*
G01*
X121438918Y-84180400D02*
X121908389Y-83297454D01*
X121438918Y-84180400D02*
X122321866Y-84649872D01*
X121814495Y-83474042D02*
X122096179Y-82944274D01*
X123786276Y-79765662D02*
X124021011Y-79324187D01*
X124021011Y-79324187D02*
X127994276Y-81436810D01*
X125525026Y-87145821D02*
X125731763Y-87822030D01*
X125525026Y-87145821D02*
X125956942Y-86333510D01*
X125731763Y-87822030D02*
X128380607Y-89230446D01*
X125770099Y-85577275D02*
X121814495Y-83474042D01*
X127542048Y-72702082D02*
X128011520Y-71819134D01*
X127994276Y-81436810D02*
X127665645Y-82054873D01*
X128380607Y-89230446D02*
X129056816Y-89023708D01*
X128462449Y-84177397D02*
X130493229Y-85257181D01*
X128894466Y-72288605D02*
X128011520Y-71819134D01*
X130493229Y-85257181D02*
X130699967Y-85933392D01*
X132917238Y-90283531D02*
X133800184Y-90753002D01*
X134269656Y-89870054D02*
X133800184Y-90753002D01*
X140372786Y-78391736D02*
X139489838Y-77922264D01*
X140372786Y-78391736D02*
X139903315Y-79274682D01*
X125770099Y-85577276D02*
G75*
G02*
X125956938Y-86333507I-284696J-471535D01*
G01*
X128462449Y-84177397D02*
G75*
G02*
X127656257Y-82072533I649337J1455529D01*
G01*
D12*
X186657778Y-89750836D02*
X187408934Y-88338119D01*
X187408934Y-88338119D02*
X188821650Y-89089275D01*
D13*
X264861063Y-147869016D02*
X265578624Y-147940515D01*
X265048854Y-148222198D02*
X264607382Y-148456933D01*
X265236644Y-148575376D02*
X264861063Y-147869016D01*
X265578624Y-147940515D02*
X265236644Y-148575376D01*
X265578624Y-147940515D02*
X265320412Y-147454893D01*
X265578624Y-147940515D02*
X265836832Y-148426135D01*
X265931800Y-147752725D02*
X265578624Y-147940515D01*
D12*
X253392960Y-78480927D02*
X254805678Y-77729771D01*
X254144115Y-79893641D02*
X253392960Y-78480927D01*
X230961678Y-159199111D02*
X231856385Y-157872650D01*
X232288139Y-160093818D02*
X230961678Y-159199111D01*
D13*
X246818666Y-88375550D02*
X247536227Y-88447049D01*
X247006457Y-88728732D02*
X246564985Y-88963467D01*
X247194247Y-89081910D02*
X246818666Y-88375550D01*
X247536227Y-88447049D02*
X247194247Y-89081910D01*
X247536227Y-88447049D02*
X247278015Y-87961427D01*
X247536227Y-88447049D02*
X247794435Y-88932669D01*
X247889403Y-88259259D02*
X247536227Y-88447049D01*
X279901201Y-69652683D02*
X280618762Y-69724182D01*
X280088992Y-70005865D02*
X279647520Y-70240600D01*
X280276782Y-70359043D02*
X279901201Y-69652683D01*
X280618762Y-69724182D02*
X280276782Y-70359043D01*
X280618762Y-69724182D02*
X280360550Y-69238560D01*
X280618762Y-69724182D02*
X280876970Y-70209802D01*
X280971938Y-69536392D02*
X280618762Y-69724182D01*
X264658590Y-121927560D02*
X265376151Y-121999059D01*
X264846381Y-122280742D02*
X264404909Y-122515477D01*
X265034171Y-122633920D02*
X264658590Y-121927560D01*
X265376151Y-121999059D02*
X265034171Y-122633920D01*
X265376151Y-121999059D02*
X265117939Y-121513437D01*
X265376151Y-121999059D02*
X265634359Y-122484679D01*
X265729327Y-121811269D02*
X265376151Y-121999059D01*
D11*
X280629574Y-96050687D02*
X280160103Y-95167741D01*
X281043051Y-94698268D02*
X280160103Y-95167741D01*
X284150611Y-102672794D02*
X288123875Y-100560172D01*
X284385347Y-103114269D02*
X284150611Y-102672794D01*
X286357128Y-106822649D02*
X286075445Y-106292880D01*
X286732705Y-107529007D02*
X286263232Y-106646059D01*
X286732705Y-107529007D02*
X287615651Y-107059536D01*
X288123875Y-100560172D02*
X288452505Y-101178237D01*
X290312732Y-104719418D02*
X286357128Y-106822649D01*
X290657724Y-101704556D02*
X292688503Y-100624771D01*
X291476073Y-105799713D02*
X291044160Y-104987400D01*
X291476073Y-105799713D02*
X292152282Y-106006451D01*
X292152282Y-106006451D02*
X294801126Y-104598035D01*
X292521369Y-88595139D02*
X291638423Y-89064610D01*
X292521369Y-88595139D02*
X292990842Y-89478087D01*
X292688503Y-100624771D02*
X293364714Y-100831510D01*
X294801126Y-104598035D02*
X295007863Y-103921826D01*
X298211023Y-101425878D02*
X299093971Y-100956405D01*
X298624500Y-100073459D02*
X299093971Y-100956405D01*
X290312732Y-104719419D02*
G75*
G02*
X291044158Y-104987401I231722J-499703D01*
G01*
X290657724Y-101704556D02*
G75*
G02*
X288461893Y-101195898I-843585J1352251D01*
G01*
D12*
X175074926Y-153793131D02*
X176401387Y-152898422D01*
X176401387Y-152898422D02*
X177296095Y-154224883D01*
D11*
X294119283Y-80950092D02*
X293649812Y-80067146D01*
X294532760Y-79597673D02*
X293649812Y-80067146D01*
X297640320Y-87572199D02*
X301613584Y-85459577D01*
X297875056Y-88013674D02*
X297640320Y-87572199D01*
X299846837Y-91722054D02*
X299565154Y-91192285D01*
X300222414Y-92428412D02*
X299752941Y-91545464D01*
X300222414Y-92428412D02*
X301105360Y-91958941D01*
X301613584Y-85459577D02*
X301942214Y-86077642D01*
X303802441Y-89618823D02*
X299846837Y-91722054D01*
X304147433Y-86603961D02*
X306178212Y-85524176D01*
X304965782Y-90699118D02*
X304533869Y-89886805D01*
X304965782Y-90699118D02*
X305641991Y-90905856D01*
X305641991Y-90905856D02*
X308290835Y-89497440D01*
X306011078Y-73494544D02*
X305128132Y-73964015D01*
X306011078Y-73494544D02*
X306480551Y-74377492D01*
X306178212Y-85524176D02*
X306854423Y-85730915D01*
X308290835Y-89497440D02*
X308497572Y-88821231D01*
X311700732Y-86325283D02*
X312583680Y-85855810D01*
X312114209Y-84972864D02*
X312583680Y-85855810D01*
X303802441Y-89618824D02*
G75*
G02*
X304533867Y-89886806I231722J-499703D01*
G01*
X304147433Y-86603961D02*
G75*
G02*
X301951602Y-86095303I-843585J1352251D01*
G01*
D12*
X107347504Y-77027636D02*
X108098660Y-75614919D01*
X108098660Y-75614919D02*
X109511376Y-76366075D01*
X250231632Y-113006362D02*
X251644350Y-112255206D01*
X250982787Y-114419076D02*
X250231632Y-113006362D01*
D13*
X267819922Y-87402123D02*
X268537483Y-87473622D01*
X268007713Y-87755305D02*
X267566241Y-87990040D01*
X268195503Y-88108483D02*
X267819922Y-87402123D01*
X268537483Y-87473622D02*
X268195503Y-88108483D01*
X268537483Y-87473622D02*
X268279271Y-86988000D01*
X268537483Y-87473622D02*
X268795691Y-87959242D01*
X268890659Y-87285832D02*
X268537483Y-87473622D01*
D12*
X274394204Y-77507491D02*
X275806922Y-76756335D01*
X275145359Y-78920205D02*
X274394204Y-77507491D01*
D11*
X229151130Y-160631559D02*
X228591937Y-161460597D01*
X229420975Y-162019789D02*
X228591937Y-161460597D01*
X235638755Y-166213737D02*
X238155123Y-162483066D01*
X236053275Y-166493333D02*
X235638755Y-166213737D01*
X236420637Y-149854071D02*
X235861445Y-150683109D01*
X236420637Y-149854071D02*
X237249675Y-150413264D01*
X238155123Y-162483066D02*
X238735451Y-162874500D01*
X239535233Y-168841943D02*
X239037810Y-168506427D01*
X240198463Y-169289297D02*
X239369425Y-168730104D01*
X240198463Y-169289297D02*
X240757655Y-168460259D01*
X240929636Y-162303927D02*
X242215780Y-160397141D01*
X242040418Y-165127855D02*
X239535233Y-168841943D01*
X242215780Y-160397141D02*
X242909893Y-160262217D01*
X243574754Y-165535545D02*
X242812039Y-165021086D01*
X243574754Y-165535545D02*
X244268870Y-165400622D01*
X244268870Y-165400622D02*
X245946449Y-162913509D01*
X245946449Y-162913509D02*
X245811525Y-162219394D01*
X247198125Y-157123579D02*
X248027163Y-157682771D01*
X247467970Y-158511809D02*
X248027163Y-157682771D01*
X240929635Y-162303927D02*
G75*
G02*
X238752032Y-162885686I-1379682J797926D01*
G01*
X242040419Y-165127855D02*
G75*
G02*
X242812038Y-165021088I439193J-332427D01*
G01*
D13*
X130804186Y-91595033D02*
X131179767Y-90888673D01*
X130991977Y-91241851D02*
X130550503Y-91007117D01*
X131179767Y-90888673D02*
X131521746Y-91523536D01*
X131521746Y-91523536D02*
X130804186Y-91595033D01*
X131521746Y-91523536D02*
X131263535Y-92009156D01*
X131521746Y-91523536D02*
X131779955Y-91037914D01*
X131874925Y-91711323D02*
X131521746Y-91523536D01*
D11*
X238627084Y-97997550D02*
X238157613Y-97114604D01*
X239040561Y-96645131D02*
X238157613Y-97114604D01*
X242148121Y-104619657D02*
X246121385Y-102507035D01*
X242382857Y-105061132D02*
X242148121Y-104619657D01*
X244354638Y-108769512D02*
X244072955Y-108239743D01*
X244730215Y-109475870D02*
X244260742Y-108592922D01*
X244730215Y-109475870D02*
X245613161Y-109006399D01*
X246121385Y-102507035D02*
X246450015Y-103125100D01*
X248310242Y-106666281D02*
X244354638Y-108769512D01*
X248655234Y-103651419D02*
X250686013Y-102571634D01*
X249473583Y-107746576D02*
X249041670Y-106934263D01*
X249473583Y-107746576D02*
X250149792Y-107953314D01*
X250149792Y-107953314D02*
X252798636Y-106544898D01*
X250518879Y-90542002D02*
X249635933Y-91011473D01*
X250518879Y-90542002D02*
X250988352Y-91424950D01*
X250686013Y-102571634D02*
X251362224Y-102778373D01*
X252798636Y-106544898D02*
X253005373Y-105868689D01*
X256208533Y-103372741D02*
X257091481Y-102903268D01*
X256622010Y-102020322D02*
X257091481Y-102903268D01*
X248310242Y-106666282D02*
G75*
G02*
X249041668Y-106934264I231722J-499703D01*
G01*
X248655234Y-103651419D02*
G75*
G02*
X246459403Y-103142761I-843585J1352251D01*
G01*
X271709620Y-79274680D02*
X271240149Y-78391734D01*
X272123097Y-77922261D02*
X271240149Y-78391734D01*
X275230657Y-85896787D02*
X279203921Y-83784165D01*
X275465393Y-86338262D02*
X275230657Y-85896787D01*
X277437174Y-90046642D02*
X277155491Y-89516873D01*
X277812751Y-90753000D02*
X277343278Y-89870052D01*
X277812751Y-90753000D02*
X278695697Y-90283529D01*
X279203921Y-83784165D02*
X279532551Y-84402230D01*
X281392778Y-87943411D02*
X277437174Y-90046642D01*
X281737770Y-84928549D02*
X283768549Y-83848764D01*
X282556119Y-89023706D02*
X282124206Y-88211393D01*
X282556119Y-89023706D02*
X283232328Y-89230444D01*
X283232328Y-89230444D02*
X285881172Y-87822028D01*
X283601415Y-71819132D02*
X282718469Y-72288603D01*
X283601415Y-71819132D02*
X284070888Y-72702080D01*
X283768549Y-83848764D02*
X284444760Y-84055503D01*
X285881172Y-87822028D02*
X286087909Y-87145819D01*
X289291069Y-84649871D02*
X290174017Y-84180398D01*
X289704546Y-83297452D02*
X290174017Y-84180398D01*
X281392778Y-87943412D02*
G75*
G02*
X282124204Y-88211394I231722J-499703D01*
G01*
X281737770Y-84928549D02*
G75*
G02*
X279541939Y-84419891I-843585J1352251D01*
G01*
D12*
X305723832Y-95958908D02*
X307136550Y-95207752D01*
X306474987Y-97371622D02*
X305723832Y-95958908D01*
D11*
X107949212Y-69079805D02*
X108418683Y-68196859D01*
X107949212Y-69079805D02*
X108832160Y-69549277D01*
X108324789Y-68373447D02*
X108606473Y-67843679D01*
X110296570Y-64665067D02*
X110531305Y-64223592D01*
X110531305Y-64223592D02*
X114504570Y-66336215D01*
X112035320Y-72045226D02*
X112242057Y-72721435D01*
X112035320Y-72045226D02*
X112467236Y-71232915D01*
X112242057Y-72721435D02*
X114890901Y-74129851D01*
X112280393Y-70476680D02*
X108324789Y-68373447D01*
X114052342Y-57601487D02*
X114521814Y-56718539D01*
X114504570Y-66336215D02*
X114175939Y-66954278D01*
X114890901Y-74129851D02*
X115567110Y-73923113D01*
X114972743Y-69076802D02*
X117003523Y-70156586D01*
X115404760Y-57188010D02*
X114521814Y-56718539D01*
X117003523Y-70156586D02*
X117210261Y-70832797D01*
X119427532Y-75182936D02*
X120310478Y-75652407D01*
X120779950Y-74769459D02*
X120310478Y-75652407D01*
X126883080Y-63291141D02*
X126000132Y-62821669D01*
X126883080Y-63291141D02*
X126413609Y-64174087D01*
X112280393Y-70476681D02*
G75*
G02*
X112467232Y-71232912I-284696J-471535D01*
G01*
X114972743Y-69076802D02*
G75*
G02*
X114166551Y-66971938I649337J1455529D01*
G01*
D13*
X99474561Y-110046446D02*
X99850142Y-109340086D01*
X99662352Y-109693264D02*
X99220878Y-109458530D01*
X99850142Y-109340086D02*
X100192121Y-109974949D01*
X100192121Y-109974949D02*
X99474561Y-110046446D01*
X100192121Y-109974949D02*
X99933910Y-110460569D01*
X100192121Y-109974949D02*
X100450330Y-109489327D01*
X100545300Y-110162736D02*
X100192121Y-109974949D01*
D12*
X120837207Y-92128228D02*
X121588363Y-90715511D01*
X121588363Y-90715511D02*
X123001079Y-91466667D01*
D13*
X142885475Y-109344465D02*
X143261056Y-108638105D01*
X143073266Y-108991283D02*
X142631792Y-108756549D01*
X143261056Y-108638105D02*
X143603035Y-109272968D01*
X143603035Y-109272968D02*
X142885475Y-109344465D01*
X143603035Y-109272968D02*
X143344824Y-109758588D01*
X143603035Y-109272968D02*
X143861244Y-108787346D01*
X143956214Y-109460755D02*
X143603035Y-109272968D01*
D12*
X296803872Y-79182899D02*
X298216590Y-78431743D01*
X297555027Y-80595613D02*
X296803872Y-79182899D01*
D13*
X121884226Y-108371032D02*
X122259807Y-107664672D01*
X122072017Y-108017850D02*
X121630543Y-107783116D01*
X122259807Y-107664672D02*
X122601786Y-108299535D01*
X122601786Y-108299535D02*
X121884226Y-108371032D01*
X122601786Y-108299535D02*
X122343575Y-108785155D01*
X122601786Y-108299535D02*
X122859995Y-107813913D01*
X122954965Y-108487322D02*
X122601786Y-108299535D01*
D12*
X265474250Y-60731491D02*
X266886968Y-59980335D01*
X266225405Y-62144205D02*
X265474250Y-60731491D01*
D11*
X142440167Y-85153833D02*
X142909638Y-84270887D01*
X142440167Y-85153833D02*
X143323115Y-85623305D01*
X142815744Y-84447475D02*
X143097428Y-83917707D01*
X144787525Y-80739095D02*
X145022260Y-80297620D01*
X145022260Y-80297620D02*
X148995525Y-82410243D01*
X146526275Y-88119254D02*
X146733012Y-88795463D01*
X146526275Y-88119254D02*
X146958191Y-87306943D01*
X146733012Y-88795463D02*
X149381856Y-90203879D01*
X146771348Y-86550708D02*
X142815744Y-84447475D01*
X148543297Y-73675515D02*
X149012769Y-72792567D01*
X148995525Y-82410243D02*
X148666894Y-83028306D01*
X149381856Y-90203879D02*
X150058065Y-89997141D01*
X149463698Y-85150830D02*
X151494478Y-86230614D01*
X149895715Y-73262038D02*
X149012769Y-72792567D01*
X151494478Y-86230614D02*
X151701216Y-86906825D01*
X153918487Y-91256964D02*
X154801433Y-91726435D01*
X155270905Y-90843487D02*
X154801433Y-91726435D01*
X161374035Y-79365169D02*
X160491087Y-78895697D01*
X161374035Y-79365169D02*
X160904564Y-80248115D01*
X146771348Y-86550709D02*
G75*
G02*
X146958187Y-87306940I-284696J-471535D01*
G01*
X149463698Y-85150830D02*
G75*
G02*
X148657506Y-83045966I649337J1455529D01*
G01*
X173362410Y-182466388D02*
X173675994Y-185449953D01*
X173675994Y-185449953D02*
X174225520Y-185894952D01*
X173807406Y-181916862D02*
X173362410Y-182466388D01*
X173807406Y-181916862D02*
X174722367Y-181820696D01*
X173980928Y-176871083D02*
X174085458Y-177865605D01*
X173980928Y-176871083D02*
X174975452Y-176766555D01*
X174776547Y-176787460D02*
X175373260Y-176724743D01*
X175244834Y-181242917D02*
X174776547Y-176787460D01*
X175339800Y-189799867D02*
X175444328Y-190794391D01*
X176438850Y-190689861D02*
X175444328Y-190794391D01*
X177910928Y-182692175D02*
X178151344Y-184979575D01*
X178151344Y-184979575D02*
X177706346Y-185529100D01*
X178953539Y-176348441D02*
X179450800Y-176296176D01*
X179450800Y-176296176D02*
X179921178Y-180771524D01*
X179921178Y-180771524D02*
X179225013Y-180844694D01*
X186909714Y-175512213D02*
X187904236Y-175407683D01*
X188008764Y-176402207D02*
X187904236Y-175407683D01*
X189367636Y-189330991D02*
X188373112Y-189435519D01*
X189367636Y-189330991D02*
X189263106Y-188336469D01*
X175244833Y-181242917D02*
G75*
G02*
X174722367Y-181820694I-550121J-27656D01*
G01*
X177910929Y-182692175D02*
G75*
G02*
X179205123Y-180846788I1569790J275597D01*
G01*
X163585768Y-157682769D02*
X164144961Y-158511807D01*
X163585768Y-157682769D02*
X164414805Y-157123574D01*
X164248998Y-157235415D02*
X164746420Y-156899899D01*
X165666482Y-162913506D02*
X167344061Y-165400620D01*
X165801406Y-162219392D02*
X165666482Y-162913506D01*
X165801406Y-162219392D02*
X166564119Y-161704934D01*
X166754181Y-160949502D02*
X164248998Y-157235415D01*
X167344061Y-165400620D02*
X168038177Y-165535543D01*
X167730956Y-154886805D02*
X168145474Y-154607208D01*
X168145474Y-154607208D02*
X170661841Y-158337876D01*
X169788588Y-160977466D02*
X171074731Y-162884252D01*
X170661841Y-158337876D02*
X170081516Y-158729312D01*
X170855273Y-168460258D02*
X171414468Y-169289295D01*
X171074731Y-162884252D02*
X170939808Y-163578367D01*
X172243506Y-168730102D02*
X171414468Y-169289295D01*
X174363256Y-150413262D02*
X175192294Y-149854069D01*
X175751489Y-150683106D02*
X175192294Y-149854069D01*
X183020994Y-161460595D02*
X182191957Y-162019790D01*
X183020994Y-161460595D02*
X182461801Y-160631557D01*
X166754180Y-160949502D02*
G75*
G02*
X166564119Y-161704934I-472744J-282686D01*
G01*
X169788588Y-160977466D02*
G75*
G02*
X170064935Y-158740496I1256662J980311D01*
G01*
D13*
X169864884Y-139545651D02*
X170240465Y-138839291D01*
X170052675Y-139192469D02*
X169611201Y-138957735D01*
X170240465Y-138839291D02*
X170582444Y-139474154D01*
X170582444Y-139474154D02*
X169864884Y-139545651D01*
X170582444Y-139474154D02*
X170324233Y-139959774D01*
X170582444Y-139474154D02*
X170840653Y-138988532D01*
X170935623Y-139661941D02*
X170582444Y-139474154D01*
D12*
X153919742Y-110851102D02*
X154670898Y-109438385D01*
X154670898Y-109438385D02*
X156083614Y-110189541D01*
D13*
X238739418Y-179249867D02*
X239199945Y-178694961D01*
X239137228Y-179291677D02*
X239084965Y-179788938D01*
X239199945Y-178694961D02*
X238652957Y-178637475D01*
X239199945Y-178694961D02*
X239535037Y-179333487D01*
X239199945Y-178694961D02*
X239746931Y-178752455D01*
X239241753Y-178297156D02*
X239199945Y-178694961D01*
X239535037Y-179333487D02*
X238739418Y-179249867D01*
X151805433Y-92568463D02*
X152181014Y-91862103D01*
X151993224Y-92215281D02*
X151551750Y-91980547D01*
X152181014Y-91862103D02*
X152522993Y-92496966D01*
X152522993Y-92496966D02*
X151805433Y-92568463D01*
X152522993Y-92496966D02*
X152264782Y-92982586D01*
X152522993Y-92496966D02*
X152781202Y-92011344D01*
X152876172Y-92684753D02*
X152522993Y-92496966D01*
D12*
X129757165Y-75352222D02*
X130508321Y-73939505D01*
X130508321Y-73939505D02*
X131921037Y-74690661D01*
D11*
X178339527Y-98579016D02*
X178808998Y-97696070D01*
X178339527Y-98579016D02*
X179222475Y-99048488D01*
X178715104Y-97872658D02*
X178996788Y-97342890D01*
X180686885Y-94164278D02*
X180921620Y-93722803D01*
X180921620Y-93722803D02*
X184894885Y-95835426D01*
X182425635Y-101544437D02*
X182632372Y-102220646D01*
X182425635Y-101544437D02*
X182857551Y-100732126D01*
X182632372Y-102220646D02*
X185281216Y-103629062D01*
X182670708Y-99975891D02*
X178715104Y-97872658D01*
X184442657Y-87100698D02*
X184912129Y-86217750D01*
X184894885Y-95835426D02*
X184566254Y-96453489D01*
X185281216Y-103629062D02*
X185957425Y-103422324D01*
X185363058Y-98576013D02*
X187393838Y-99655797D01*
X185795075Y-86687221D02*
X184912129Y-86217750D01*
X187393838Y-99655797D02*
X187600576Y-100332008D01*
X189817847Y-104682147D02*
X190700793Y-105151618D01*
X191170265Y-104268670D02*
X190700793Y-105151618D01*
X197273395Y-92790352D02*
X196390447Y-92320880D01*
X197273395Y-92790352D02*
X196803924Y-93673298D01*
X182670708Y-99975892D02*
G75*
G02*
X182857547Y-100732123I-284696J-471535D01*
G01*
X185363058Y-98576013D02*
G75*
G02*
X184556866Y-96471149I649337J1455529D01*
G01*
X259628330Y-97024116D02*
X259158859Y-96141170D01*
X260041807Y-95671697D02*
X259158859Y-96141170D01*
X263149367Y-103646223D02*
X267122631Y-101533601D01*
X263384103Y-104087698D02*
X263149367Y-103646223D01*
X265355884Y-107796078D02*
X265074201Y-107266309D01*
X265731461Y-108502436D02*
X265261988Y-107619488D01*
X265731461Y-108502436D02*
X266614407Y-108032965D01*
X267122631Y-101533601D02*
X267451261Y-102151666D01*
X269311488Y-105692847D02*
X265355884Y-107796078D01*
X269656480Y-102677985D02*
X271687259Y-101598200D01*
X270474829Y-106773142D02*
X270042916Y-105960829D01*
X270474829Y-106773142D02*
X271151038Y-106979880D01*
X271151038Y-106979880D02*
X273799882Y-105571464D01*
X271520125Y-89568568D02*
X270637179Y-90038039D01*
X271520125Y-89568568D02*
X271989598Y-90451516D01*
X271687259Y-101598200D02*
X272363470Y-101804939D01*
X273799882Y-105571464D02*
X274006619Y-104895255D01*
X277209779Y-102399307D02*
X278092727Y-101929834D01*
X277623256Y-101046888D02*
X278092727Y-101929834D01*
X269311488Y-105692848D02*
G75*
G02*
X270042914Y-105960830I231722J-499703D01*
G01*
X269656480Y-102677985D02*
G75*
G02*
X267460649Y-102169327I-843585J1352251D01*
G01*
X223728962Y-110449300D02*
X223259491Y-109566354D01*
X224142439Y-109096881D02*
X223259491Y-109566354D01*
X227249999Y-117071407D02*
X231223263Y-114958785D01*
X227484735Y-117512882D02*
X227249999Y-117071407D01*
X229456516Y-121221262D02*
X229174833Y-120691493D01*
X229832093Y-121927620D02*
X229362620Y-121044672D01*
X229832093Y-121927620D02*
X230715039Y-121458149D01*
X231223263Y-114958785D02*
X231551893Y-115576850D01*
X233412120Y-119118031D02*
X229456516Y-121221262D01*
X233757112Y-116103169D02*
X235787891Y-115023384D01*
X234575461Y-120198326D02*
X234143548Y-119386013D01*
X234575461Y-120198326D02*
X235251670Y-120405064D01*
X235251670Y-120405064D02*
X237900514Y-118996648D01*
X235620757Y-102993752D02*
X234737811Y-103463223D01*
X235620757Y-102993752D02*
X236090230Y-103876700D01*
X235787891Y-115023384D02*
X236464102Y-115230123D01*
X237900514Y-118996648D02*
X238107251Y-118320439D01*
X241310411Y-115824491D02*
X242193359Y-115355018D01*
X241723888Y-114472072D02*
X242193359Y-115355018D01*
X233412120Y-119118032D02*
G75*
G02*
X234143546Y-119386014I231722J-499703D01*
G01*
X233757112Y-116103169D02*
G75*
G02*
X231561281Y-115594511I-843585J1352251D01*
G01*
D13*
X108394522Y-93270441D02*
X108770103Y-92564081D01*
X108582313Y-92917259D02*
X108140839Y-92682525D01*
X108770103Y-92564081D02*
X109112082Y-93198944D01*
X109112082Y-93198944D02*
X108394522Y-93270441D01*
X109112082Y-93198944D02*
X108853871Y-93684564D01*
X109112082Y-93198944D02*
X109370291Y-92713322D01*
X109465261Y-93386731D02*
X109112082Y-93198944D01*
X276739878Y-104178121D02*
X277457439Y-104249620D01*
X276927669Y-104531303D02*
X276486197Y-104766038D01*
X277115459Y-104884481D02*
X276739878Y-104178121D01*
X277457439Y-104249620D02*
X277115459Y-104884481D01*
X277457439Y-104249620D02*
X277199227Y-103763998D01*
X277457439Y-104249620D02*
X277715647Y-104735240D01*
X277810615Y-104061830D02*
X277457439Y-104249620D01*
D11*
X133520208Y-101929836D02*
X133989679Y-101046890D01*
X133520208Y-101929836D02*
X134403156Y-102399308D01*
X133895785Y-101223478D02*
X134177469Y-100693710D01*
X135867566Y-97515098D02*
X136102301Y-97073623D01*
X136102301Y-97073623D02*
X140075566Y-99186246D01*
X137606316Y-104895257D02*
X137813053Y-105571466D01*
X137606316Y-104895257D02*
X138038232Y-104082946D01*
X137813053Y-105571466D02*
X140461897Y-106979882D01*
X137851389Y-103326711D02*
X133895785Y-101223478D01*
X139623338Y-90451518D02*
X140092810Y-89568570D01*
X140075566Y-99186246D02*
X139746935Y-99804309D01*
X140461897Y-106979882D02*
X141138106Y-106773144D01*
X140543739Y-101926833D02*
X142574519Y-103006617D01*
X140975756Y-90038041D02*
X140092810Y-89568570D01*
X142574519Y-103006617D02*
X142781257Y-103682828D01*
X144998528Y-108032967D02*
X145881474Y-108502438D01*
X146350946Y-107619490D02*
X145881474Y-108502438D01*
X152454076Y-96141172D02*
X151571128Y-95671700D01*
X152454076Y-96141172D02*
X151984605Y-97024118D01*
X137851389Y-103326712D02*
G75*
G02*
X138038228Y-104082943I-284696J-471535D01*
G01*
X140543739Y-101926833D02*
G75*
G02*
X139737547Y-99821969I649337J1455529D01*
G01*
D12*
X216160018Y-139992417D02*
X216160019Y-138592418D01*
X216160019Y-138592418D02*
X217560018Y-138592419D01*
X217560017Y-139992418D02*
X216160018Y-139992417D01*
X217560018Y-138592419D02*
X217560017Y-139992418D01*
D11*
X169419572Y-115355016D02*
X169889043Y-114472070D01*
X169419572Y-115355016D02*
X170302520Y-115824488D01*
X169795149Y-114648658D02*
X170076833Y-114118890D01*
X171766930Y-110940278D02*
X172001665Y-110498803D01*
X172001665Y-110498803D02*
X175974930Y-112611426D01*
X173505680Y-118320437D02*
X173712417Y-118996646D01*
X173505680Y-118320437D02*
X173937596Y-117508126D01*
X173712417Y-118996646D02*
X176361261Y-120405062D01*
X173750753Y-116751891D02*
X169795149Y-114648658D01*
X175522702Y-103876698D02*
X175992174Y-102993750D01*
X175974930Y-112611426D02*
X175646299Y-113229489D01*
X176361261Y-120405062D02*
X177037470Y-120198324D01*
X176443103Y-115352013D02*
X178473883Y-116431797D01*
X176875120Y-103463221D02*
X175992174Y-102993750D01*
X178473883Y-116431797D02*
X178680621Y-117108008D01*
X180897892Y-121458147D02*
X181780838Y-121927618D01*
X182250310Y-121044670D02*
X181780838Y-121927618D01*
X188353440Y-109566352D02*
X187470492Y-109096880D01*
X188353440Y-109566352D02*
X187883969Y-110449298D01*
X173750753Y-116751892D02*
G75*
G02*
X173937592Y-117508123I-284696J-471535D01*
G01*
X176443103Y-115352013D02*
G75*
G02*
X175636911Y-113247149I649337J1455529D01*
G01*
X160499613Y-132131022D02*
X160969084Y-131248076D01*
X160499613Y-132131022D02*
X161382561Y-132600494D01*
X160875190Y-131424664D02*
X161156874Y-130894896D01*
X162846971Y-127716284D02*
X163081706Y-127274809D01*
X163081706Y-127274809D02*
X167054971Y-129387432D01*
X164585721Y-135096443D02*
X164792458Y-135772652D01*
X164585721Y-135096443D02*
X165017637Y-134284132D01*
X164792458Y-135772652D02*
X167441302Y-137181068D01*
X164830794Y-133527897D02*
X160875190Y-131424664D01*
X166602743Y-120652704D02*
X167072215Y-119769756D01*
X167054971Y-129387432D02*
X166726340Y-130005495D01*
X167441302Y-137181068D02*
X168117511Y-136974330D01*
X167523144Y-132128019D02*
X169553924Y-133207803D01*
X167955161Y-120239227D02*
X167072215Y-119769756D01*
X169553924Y-133207803D02*
X169760662Y-133884014D01*
X171977933Y-138234153D02*
X172860879Y-138703624D01*
X173330351Y-137820676D02*
X172860879Y-138703624D01*
X179433481Y-126342358D02*
X178550533Y-125872886D01*
X179433481Y-126342358D02*
X178964010Y-127225304D01*
X164830794Y-133527898D02*
G75*
G02*
X165017633Y-134284129I-284696J-471535D01*
G01*
X167523144Y-132128019D02*
G75*
G02*
X166716952Y-130023155I649337J1455529D01*
G01*
D12*
X244473002Y-61704920D02*
X245885720Y-60953764D01*
X245224157Y-63117634D02*
X244473002Y-61704920D01*
D13*
X247888180Y-160303016D02*
X248555313Y-160029270D01*
X248219798Y-160526692D02*
X247940204Y-160941213D01*
X248551414Y-160750370D02*
X247888180Y-160303016D01*
X248555313Y-160029270D02*
X248099342Y-159721716D01*
X248555313Y-160029270D02*
X248551414Y-160750370D01*
X248555313Y-160029270D02*
X249011284Y-160336827D01*
X248778988Y-159697655D02*
X248555313Y-160029270D01*
D11*
X229707121Y-81221547D02*
X229237650Y-80338601D01*
X230120598Y-79869128D02*
X229237650Y-80338601D01*
X233228158Y-87843654D02*
X237201422Y-85731032D01*
X233462894Y-88285129D02*
X233228158Y-87843654D01*
X235434675Y-91993509D02*
X235152992Y-91463740D01*
X235810252Y-92699867D02*
X235340779Y-91816919D01*
X235810252Y-92699867D02*
X236693198Y-92230396D01*
X237201422Y-85731032D02*
X237530052Y-86349097D01*
X239390279Y-89890278D02*
X235434675Y-91993509D01*
X239735271Y-86875416D02*
X241766050Y-85795631D01*
X240553620Y-90970573D02*
X240121707Y-90158260D01*
X240553620Y-90970573D02*
X241229829Y-91177311D01*
X241229829Y-91177311D02*
X243878673Y-89768895D01*
X241598916Y-73765999D02*
X240715970Y-74235470D01*
X241598916Y-73765999D02*
X242068389Y-74648947D01*
X241766050Y-85795631D02*
X242442261Y-86002370D01*
X243878673Y-89768895D02*
X244085410Y-89092686D01*
X247288570Y-86596738D02*
X248171518Y-86127265D01*
X247702047Y-85244319D02*
X248171518Y-86127265D01*
X239390279Y-89890279D02*
G75*
G02*
X240121705Y-90158261I231722J-499703D01*
G01*
X239735271Y-86875416D02*
G75*
G02*
X237539440Y-86366758I-843585J1352251D01*
G01*
D12*
X138677125Y-58576219D02*
X139428281Y-57163502D01*
X139428281Y-57163502D02*
X140840997Y-57914658D01*
D11*
X232648924Y-127225307D02*
X232179453Y-126342361D01*
X233062401Y-125872888D02*
X232179453Y-126342361D01*
X236169961Y-133847414D02*
X240143225Y-131734792D01*
X236404697Y-134288889D02*
X236169961Y-133847414D01*
X238376478Y-137997269D02*
X238094795Y-137467500D01*
X238752055Y-138703627D02*
X238282582Y-137820679D01*
X238752055Y-138703627D02*
X239635001Y-138234156D01*
X240143225Y-131734792D02*
X240471855Y-132352857D01*
X242332082Y-135894038D02*
X238376478Y-137997269D01*
X242677074Y-132879176D02*
X244707853Y-131799391D01*
X243495423Y-136974333D02*
X243063510Y-136162020D01*
X243495423Y-136974333D02*
X244171632Y-137181071D01*
X244171632Y-137181071D02*
X246820476Y-135772655D01*
X244540719Y-119769759D02*
X243657773Y-120239230D01*
X244540719Y-119769759D02*
X245010192Y-120652707D01*
X244707853Y-131799391D02*
X245384064Y-132006130D01*
X246820476Y-135772655D02*
X247027213Y-135096446D01*
X250230373Y-132600498D02*
X251113321Y-132131025D01*
X250643850Y-131248079D02*
X251113321Y-132131025D01*
X242332082Y-135894039D02*
G75*
G02*
X243063508Y-136162021I231722J-499703D01*
G01*
X242677074Y-132879176D02*
G75*
G02*
X240481243Y-132370518I-843585J1352251D01*
G01*
D12*
X171759658Y-77299086D02*
X172510814Y-75886369D01*
X172510814Y-75886369D02*
X173923530Y-76637525D01*
X141838456Y-93101657D02*
X142589612Y-91688940D01*
X142589612Y-91688940D02*
X144002328Y-92440096D01*
D13*
X286654130Y-123143622D02*
X287360490Y-122768041D01*
X287007308Y-122955832D02*
X286772573Y-122514360D01*
X287288991Y-123485602D02*
X286654130Y-123143622D01*
X287288991Y-123485602D02*
X286803371Y-123743810D01*
X287288991Y-123485602D02*
X287774613Y-123227390D01*
X287360490Y-122768041D02*
X287288991Y-123485602D01*
X287476781Y-123838778D02*
X287288991Y-123485602D01*
X249760471Y-134379309D02*
X250478032Y-134450808D01*
X249948262Y-134732491D02*
X249506790Y-134967226D01*
X250136052Y-135085669D02*
X249760471Y-134379309D01*
X250478032Y-134450808D02*
X250136052Y-135085669D01*
X250478032Y-134450808D02*
X250219820Y-133965186D01*
X250478032Y-134450808D02*
X250736240Y-134936428D01*
X250831208Y-134263018D02*
X250478032Y-134450808D01*
D12*
X235333511Y-125458112D02*
X236746229Y-124706956D01*
X236084666Y-126870826D02*
X235333511Y-125458112D01*
D11*
X145601495Y-119679275D02*
X146070966Y-118796329D01*
X145601495Y-119679275D02*
X146484443Y-120148747D01*
X145977072Y-118972917D02*
X146258756Y-118443149D01*
X147948853Y-115264537D02*
X148183588Y-114823062D01*
X148183588Y-114823062D02*
X152156853Y-116935685D01*
X149687603Y-122644696D02*
X149894340Y-123320905D01*
X149687603Y-122644696D02*
X150119519Y-121832385D01*
X149894340Y-123320905D02*
X152543184Y-124729321D01*
X149932676Y-121076150D02*
X145977072Y-118972917D01*
X151704625Y-108200957D02*
X152174097Y-107318009D01*
X152156853Y-116935685D02*
X151828222Y-117553748D01*
X152543184Y-124729321D02*
X153219393Y-124522583D01*
X152625026Y-119676272D02*
X154655806Y-120756056D01*
X153057043Y-107787480D02*
X152174097Y-107318009D01*
X154655806Y-120756056D02*
X154862544Y-121432267D01*
X157079815Y-125782406D02*
X157962761Y-126251877D01*
X158432233Y-125368929D02*
X157962761Y-126251877D01*
X164535363Y-113890611D02*
X163652415Y-113421139D01*
X164535363Y-113890611D02*
X164065892Y-114773557D01*
X149932676Y-121076151D02*
G75*
G02*
X150119515Y-121832382I-284696J-471535D01*
G01*
X152625026Y-119676272D02*
G75*
G02*
X151818834Y-117571408I649337J1455529D01*
G01*
X151360129Y-68377825D02*
X151829600Y-67494879D01*
X151360129Y-68377825D02*
X152243077Y-68847297D01*
X151735706Y-67671467D02*
X152017390Y-67141699D01*
X153707487Y-63963087D02*
X153942222Y-63521612D01*
X153942222Y-63521612D02*
X157915487Y-65634235D01*
X155446237Y-71343246D02*
X155652974Y-72019455D01*
X155446237Y-71343246D02*
X155878153Y-70530935D01*
X155652974Y-72019455D02*
X158301818Y-73427871D01*
X155691310Y-69774700D02*
X151735706Y-67671467D01*
X157463259Y-56899507D02*
X157932731Y-56016559D01*
X157915487Y-65634235D02*
X157586856Y-66252298D01*
X158301818Y-73427871D02*
X158978027Y-73221133D01*
X158383660Y-68374822D02*
X160414440Y-69454606D01*
X158815677Y-56486030D02*
X157932731Y-56016559D01*
X160414440Y-69454606D02*
X160621178Y-70130817D01*
X162838449Y-74480956D02*
X163721395Y-74950427D01*
X164190867Y-74067479D02*
X163721395Y-74950427D01*
X170293997Y-62589161D02*
X169411049Y-62119689D01*
X170293997Y-62589161D02*
X169824526Y-63472107D01*
X155691310Y-69774701D02*
G75*
G02*
X155878149Y-70530932I-284696J-471535D01*
G01*
X158383660Y-68374822D02*
G75*
G02*
X157577468Y-66269958I649337J1455529D01*
G01*
D12*
X185951324Y-178830572D02*
X187542559Y-178663325D01*
X187542559Y-178663325D02*
X187709806Y-180254561D01*
D13*
X178784836Y-122769651D02*
X179160417Y-122063291D01*
X178972627Y-122416469D02*
X178531153Y-122181735D01*
X179160417Y-122063291D02*
X179502396Y-122698154D01*
X179502396Y-122698154D02*
X178784836Y-122769651D01*
X179502396Y-122698154D02*
X179244185Y-123183774D01*
X179502396Y-122698154D02*
X179760605Y-122212532D01*
X179855575Y-122885941D02*
X179502396Y-122698154D01*
D12*
X287883910Y-62406898D02*
X289296628Y-61655742D01*
X288635065Y-63819612D02*
X287883910Y-62406898D01*
%LPC*%
D14*
X193525000Y-160925000D03*
D15*
X219056467Y-144986688D03*
X219056468Y-144486689D03*
X219056467Y-143986688D03*
X219056466Y-143486687D03*
X219056466Y-142986689D03*
X219056467Y-142486688D03*
X219056467Y-141986688D03*
X219056466Y-141486687D03*
X219056466Y-140986689D03*
X219056467Y-140486688D03*
X219056470Y-139986688D03*
X219056467Y-139486688D03*
D16*
X222306466Y-137586688D03*
X222306466Y-146886688D03*
D14*
X218200000Y-160925000D03*
D17*
X178014106Y-162621365D03*
X176993576Y-161108373D03*
D18*
X184401861Y-188005294D03*
X184211097Y-186190294D03*
D19*
X169579444Y-100490099D03*
X167968062Y-99633315D03*
X193397521Y-96165841D03*
X191786139Y-95309057D03*
X160457012Y-143207555D03*
X158845630Y-142350771D03*
D20*
X258458503Y-113275592D03*
X260069885Y-112418808D03*
D14*
X157118565Y-133164714D03*
D21*
X219605556Y-84222313D03*
D22*
X220726899Y-83626083D03*
D20*
X291541037Y-94552725D03*
X293152419Y-93695941D03*
X261619832Y-78750153D03*
X263231214Y-77893369D03*
D19*
X178499407Y-83714091D03*
X176888025Y-82857307D03*
D23*
X228099570Y-179551858D03*
X228290334Y-177736858D03*
D20*
X270539794Y-95526153D03*
X272151176Y-94669369D03*
X313950702Y-96228138D03*
X315562084Y-95371354D03*
D19*
X166418115Y-65964656D03*
X164806733Y-65107872D03*
X127576949Y-98543237D03*
X125965567Y-97686453D03*
D14*
X254494365Y-133164711D03*
D24*
X238351970Y-155574546D03*
X239372502Y-154061554D03*
D20*
X240618582Y-79723584D03*
X242229964Y-78866800D03*
X273701113Y-61000716D03*
X275312495Y-60143932D03*
D19*
X175557605Y-129717851D03*
X173946223Y-128861067D03*
D25*
X140970743Y-126178518D03*
X141827529Y-124567139D03*
X142758711Y-127129199D03*
X143615499Y-125517818D03*
X144546681Y-128079880D03*
X145403469Y-126468499D03*
X146334651Y-129030559D03*
X147191437Y-127419180D03*
D26*
X128239013Y-127028304D03*
X133497094Y-117139291D03*
D27*
X123513741Y-121004867D03*
X125861099Y-116590129D03*
D28*
X136316481Y-127812203D03*
D29*
X138663838Y-123397467D03*
X137490160Y-125604835D03*
D20*
X243560382Y-125727347D03*
X245171764Y-124870563D03*
D14*
X185150000Y-133900000D03*
D20*
X258660978Y-139217045D03*
X260272360Y-138360261D03*
D14*
X230872274Y-170597886D03*
D20*
X225720466Y-92175336D03*
X227331848Y-91318552D03*
D30*
X278078279Y-117068654D03*
X283336360Y-126957667D03*
D27*
X285714275Y-116519491D03*
X288061630Y-120934228D03*
D31*
X272911534Y-123326828D03*
D29*
X275258891Y-127741566D03*
X274085212Y-125534195D03*
D20*
X282621078Y-77776722D03*
X284232460Y-76919938D03*
D14*
X284635100Y-68438087D03*
D20*
X252699872Y-61974153D03*
X254311254Y-61117369D03*
D14*
X126977827Y-68438087D03*
D32*
X198006462Y-162821682D03*
D33*
X200006464Y-162821684D03*
D20*
X296110784Y-62676130D03*
X297722166Y-61819346D03*
D14*
X236654447Y-99612701D03*
X226550000Y-133900000D03*
D34*
X208056467Y-189101038D03*
X205056468Y-189101040D03*
X203556469Y-189101040D03*
D35*
X209506469Y-192251040D03*
X209506469Y-189951041D03*
X202106467Y-192251037D03*
X202106467Y-189951038D03*
D19*
X105167283Y-100218644D03*
X103555901Y-99361860D03*
X123007199Y-66666638D03*
X121395817Y-65809854D03*
D14*
X174958486Y-99612703D03*
X302475018Y-101990096D03*
D36*
X233096433Y-68248242D03*
X229454579Y-71674156D03*
D37*
X230439162Y-74180268D03*
X235537760Y-69383987D03*
D19*
X160659484Y-117266102D03*
X159048102Y-116409318D03*
D14*
X109137913Y-101990096D03*
D19*
X184477559Y-112941845D03*
X182866177Y-112085061D03*
X157498154Y-82740662D03*
X155886772Y-81883878D03*
X136496904Y-81767234D03*
X134885522Y-80910450D03*
X114087243Y-83442640D03*
X112475861Y-82585856D03*
D14*
X180740646Y-170597884D03*
D38*
X265278285Y-129030559D03*
X264421499Y-127419180D03*
X267066255Y-128079880D03*
X266209469Y-126468499D03*
X268854223Y-127129199D03*
X267997437Y-125517818D03*
X270642193Y-126178518D03*
X269785407Y-124567139D03*
D20*
X249538543Y-96499590D03*
X251149925Y-95642806D03*
D19*
X148578196Y-99516662D03*
X146966814Y-98659878D03*
D20*
X305030744Y-79452133D03*
X306642126Y-78595349D03*
X234640426Y-108951339D03*
X236251808Y-108094555D03*
D19*
X145416866Y-64991222D03*
X143805484Y-64134438D03*
D39*
X269131860Y-94236145D03*
X268474599Y-93000017D03*
X263706682Y-95535163D03*
X264363943Y-96771291D03*
D40*
X173667328Y-190629234D03*
X173322384Y-187347312D03*
D39*
X290133113Y-93262711D03*
X289475852Y-92026583D03*
X284707935Y-94561729D03*
X285365196Y-95797857D03*
D41*
X177764560Y-85815024D03*
D42*
X170114992Y-88486469D03*
D43*
X172908348Y-83232930D03*
D42*
X166733092Y-84196626D03*
D41*
X168052136Y-80650836D03*
D44*
X173006647Y-90023989D03*
X163841438Y-82659106D03*
D39*
X257253052Y-137927030D03*
X256595791Y-136690902D03*
X251827874Y-139226048D03*
X252485135Y-140462176D03*
D45*
X169767937Y-169977718D03*
X167922601Y-167241894D03*
D46*
X168250232Y-97744718D03*
X168907493Y-96508590D03*
X164139576Y-93973444D03*
X163482315Y-95209572D03*
D39*
X224312540Y-90885320D03*
X223655279Y-89649192D03*
X218887362Y-92184338D03*
X219544623Y-93420466D03*
D41*
X299052997Y-63603383D03*
D42*
X296990141Y-71439016D03*
D43*
X294196785Y-66185477D03*
D42*
X291542565Y-71843888D03*
D41*
X289340573Y-68767571D03*
D47*
X299881795Y-69901497D03*
X288650912Y-73381408D03*
D41*
X144682021Y-67092160D03*
D42*
X137032453Y-69763605D03*
D43*
X139825809Y-64510066D03*
D42*
X133650553Y-65473762D03*
D41*
X134969597Y-61927972D03*
D44*
X139924108Y-71301125D03*
X130758899Y-63936242D03*
D46*
X183148352Y-110196469D03*
X183805613Y-108960341D03*
X179037696Y-106425195D03*
X178380435Y-107661323D03*
D48*
X162590785Y-76331274D03*
X159677057Y-74782020D03*
X189570193Y-106532456D03*
X186656465Y-104983202D03*
D49*
X126060987Y-120218702D03*
X127610241Y-117304974D03*
D46*
X174228389Y-126972471D03*
X174885650Y-125736343D03*
X170117733Y-123201197D03*
X169460472Y-124437325D03*
D48*
X156629682Y-153574168D03*
X153715954Y-152024914D03*
X156832156Y-127632716D03*
X153918428Y-126083462D03*
D46*
X165088903Y-63219277D03*
X165746164Y-61983149D03*
X160978247Y-59448003D03*
X160320986Y-60684131D03*
D41*
X316892915Y-97155395D03*
D42*
X314830059Y-104991028D03*
D43*
X312036703Y-99737489D03*
D42*
X309382483Y-105395900D03*
D41*
X307180491Y-102319583D03*
D47*
X317721713Y-103453509D03*
X306490830Y-106933420D03*
D46*
X103838074Y-97473268D03*
X104495335Y-96237140D03*
X99727418Y-93701994D03*
X99070157Y-94938122D03*
D41*
X230513559Y-177631168D03*
D43*
X229938650Y-183101039D03*
D42*
X235856054Y-183722983D03*
X233145467Y-188465630D03*
D41*
X229363741Y-188570910D03*
D50*
X236198386Y-180465925D03*
X232803135Y-191722689D03*
D46*
X121677993Y-63921259D03*
X122335254Y-62685131D03*
X117567337Y-60149985D03*
X116910076Y-61386113D03*
D51*
X257604024Y-104612746D03*
X254690296Y-106161998D03*
D41*
X168844602Y-102591030D03*
D42*
X161195034Y-105262475D03*
D43*
X163988390Y-100008936D03*
D42*
X157813134Y-100972632D03*
D41*
X159132178Y-97426842D03*
D44*
X164086689Y-106799995D03*
X154921480Y-99435112D03*
D39*
X248130619Y-95209577D03*
X247473358Y-93973449D03*
X242705441Y-96508595D03*
X243362702Y-97744723D03*
D46*
X156168944Y-79995285D03*
X156826205Y-78759157D03*
X152058288Y-76224011D03*
X151401027Y-77460139D03*
D41*
X261603192Y-140144298D03*
D42*
X259540336Y-147979931D03*
D43*
X256746980Y-142726392D03*
D42*
X254092760Y-148384803D03*
D41*
X251890768Y-145308486D03*
D47*
X262431990Y-146442412D03*
X251201107Y-149922323D03*
D51*
X313096221Y-87565287D03*
X310182493Y-89114539D03*
D41*
X159722164Y-145308493D03*
D42*
X152072596Y-147979938D03*
D43*
X154865952Y-142726399D03*
D42*
X148690696Y-143690095D03*
D41*
X150009740Y-140144305D03*
D44*
X154964251Y-149517458D03*
X145799042Y-142152575D03*
D51*
X260765351Y-70087306D03*
X257851623Y-71636558D03*
X304176264Y-70789282D03*
X301262536Y-72338534D03*
X233785942Y-100288489D03*
X230872214Y-101837741D03*
D41*
X228662678Y-93102585D03*
D42*
X226599822Y-100938218D03*
D43*
X223806466Y-95684679D03*
D42*
X221152246Y-101343090D03*
D41*
X218950254Y-98266773D03*
D47*
X229491476Y-99400699D03*
X218260593Y-102880610D03*
D48*
X119179876Y-77033251D03*
X116266148Y-75483997D03*
D41*
X264562046Y-79677411D03*
D42*
X262499190Y-87513044D03*
D43*
X259705834Y-82259505D03*
D42*
X257051614Y-87917916D03*
D41*
X254849622Y-84841599D03*
D47*
X265390844Y-85975525D03*
X254159961Y-89455436D03*
D48*
X165752114Y-110856710D03*
X162838386Y-109307456D03*
D51*
X242705904Y-117064491D03*
X239792176Y-118613743D03*
D48*
X174672074Y-94080707D03*
X171758346Y-92531453D03*
D41*
X126842106Y-100644169D03*
D42*
X119192538Y-103315614D03*
D43*
X121985894Y-98062075D03*
D42*
X115810638Y-99025771D03*
D41*
X117129682Y-95479981D03*
D44*
X122084193Y-104853134D03*
X112918984Y-97488251D03*
D41*
X113352400Y-85543573D03*
D42*
X105702832Y-88215018D03*
D43*
X108496188Y-82961479D03*
D42*
X102320932Y-83925175D03*
D41*
X103639976Y-80379385D03*
D44*
X108594487Y-89752538D03*
X99429278Y-82387655D03*
D51*
X322016183Y-104341294D03*
X319102455Y-105890546D03*
D41*
X276643333Y-61927973D03*
D42*
X274580477Y-69763606D03*
D43*
X271787121Y-64510067D03*
D42*
X269132901Y-70168478D03*
D41*
X266930909Y-67092161D03*
D47*
X277472131Y-68226087D03*
X266241248Y-71705998D03*
D48*
X141589536Y-75357844D03*
X138675808Y-73808590D03*
D39*
X233232497Y-107661323D03*
X232575236Y-106425195D03*
X227807319Y-108960341D03*
X228464580Y-110196469D03*
X239210654Y-78433569D03*
X238553393Y-77197441D03*
X233785476Y-79732587D03*
X234442737Y-80968715D03*
D51*
X290686560Y-85889877D03*
X287772832Y-87439129D03*
X299606518Y-102665878D03*
X296692790Y-104215130D03*
D41*
X261400713Y-114202844D03*
D42*
X259337857Y-122038477D03*
D43*
X256544501Y-116784938D03*
D42*
X253890281Y-122443349D03*
D41*
X251688289Y-119367032D03*
D47*
X262229511Y-120500958D03*
X250998628Y-123980869D03*
D52*
X226242788Y-179997717D03*
X224850458Y-179851378D03*
X224286004Y-185221797D03*
X225678334Y-185368136D03*
D46*
X159127795Y-140462175D03*
X159785056Y-139226047D03*
X155017139Y-136690901D03*
X154359878Y-137927029D03*
D53*
X213426466Y-83984679D03*
X213426467Y-86524677D03*
X213426466Y-89064678D03*
X213426466Y-91604682D03*
X213426465Y-94144678D03*
X213426466Y-96684678D03*
X213426465Y-99224678D03*
X213426467Y-101764676D03*
X213426466Y-104304678D03*
X213426467Y-106844679D03*
X213426466Y-109384677D03*
X213426466Y-111924678D03*
X198186466Y-111924678D03*
X198186466Y-109384677D03*
X198186465Y-106844679D03*
X198186466Y-104304678D03*
X198186466Y-101764674D03*
X198186467Y-99224678D03*
X198186466Y-96684678D03*
X198186467Y-94144678D03*
X198186465Y-91604680D03*
X198186466Y-89064678D03*
X198186465Y-86524677D03*
X198186466Y-83984679D03*
X200726466Y-109384678D03*
X203266466Y-109384679D03*
X205806466Y-109384678D03*
D41*
X104432441Y-102319578D03*
D42*
X96782873Y-104991023D03*
D43*
X99576229Y-99737484D03*
D42*
X93400973Y-100701180D03*
D41*
X94720017Y-97155390D03*
D44*
X99674528Y-106528543D03*
X90509319Y-99163660D03*
D54*
X205075000Y-186850000D03*
D55*
X203625000Y-186850000D03*
D41*
X255642082Y-62901400D03*
D42*
X253579226Y-70737033D03*
D43*
X250785870Y-65483494D03*
D42*
X248131650Y-71141905D03*
D41*
X245929658Y-68065588D03*
D47*
X256470880Y-69199514D03*
X245239997Y-72679425D03*
D41*
X135762064Y-83868162D03*
D42*
X128112496Y-86539607D03*
D43*
X130905852Y-81286068D03*
D42*
X124730596Y-82249764D03*
D41*
X126049640Y-78703974D03*
D44*
X131004151Y-88077127D03*
X121838942Y-80712244D03*
D46*
X192068307Y-93420465D03*
X192725568Y-92184337D03*
X187957651Y-89649191D03*
X187300390Y-90885319D03*
D51*
X266726455Y-147330203D03*
X263812727Y-148879455D03*
D39*
X260211905Y-77460140D03*
X259554644Y-76224012D03*
X254786727Y-78759158D03*
X255443988Y-79995286D03*
D56*
X236503219Y-155096509D03*
X235342566Y-154313639D03*
X232322923Y-158790441D03*
X233483576Y-159573311D03*
D51*
X248684058Y-87836737D03*
X245770330Y-89385989D03*
X281766593Y-69113870D03*
X278852865Y-70663122D03*
X266523982Y-121388747D03*
X263610254Y-122937999D03*
D41*
X294483249Y-95479979D03*
D42*
X292420393Y-103315612D03*
D43*
X289627037Y-98062073D03*
D42*
X286972817Y-103720484D03*
D41*
X284770825Y-100644167D03*
D47*
X295312047Y-101778093D03*
X284081164Y-105258004D03*
D57*
X178129353Y-159573310D03*
X179290006Y-158790440D03*
X176270363Y-154313638D03*
X175109710Y-155096508D03*
D41*
X307972958Y-80379384D03*
D42*
X305910102Y-88215017D03*
D43*
X303116746Y-82961478D03*
D42*
X300462526Y-88619889D03*
D41*
X298260534Y-85543572D03*
D47*
X308801756Y-86677498D03*
X297570873Y-90157409D03*
D46*
X112758033Y-80697265D03*
X113415294Y-79461137D03*
X108647377Y-76925991D03*
X107990116Y-78162119D03*
D39*
X257050577Y-111985575D03*
X256393316Y-110749447D03*
X251625399Y-113284593D03*
X252282660Y-114520721D03*
D51*
X269685314Y-86863310D03*
X266771586Y-88412562D03*
D39*
X281213149Y-76486704D03*
X280555888Y-75250576D03*
X275787971Y-77785722D03*
X276445232Y-79021850D03*
D41*
X241385111Y-155011977D03*
D42*
X243242324Y-162898882D03*
D43*
X238309550Y-159571684D03*
D42*
X238622477Y-165813848D03*
D41*
X235233989Y-164131391D03*
D58*
X245073681Y-160183783D03*
X236791122Y-168528944D03*
D48*
X132669578Y-92133847D03*
X129755850Y-90584593D03*
D41*
X252480759Y-97426842D03*
D42*
X250417903Y-105262475D03*
D43*
X247624547Y-100008936D03*
D42*
X244970327Y-105667347D03*
D41*
X242768335Y-102591030D03*
D47*
X253309557Y-103724956D03*
X242078674Y-107204867D03*
D41*
X285563295Y-78703972D03*
D42*
X283500439Y-86539605D03*
D43*
X280707083Y-81286066D03*
D42*
X278052863Y-86944477D03*
D41*
X275850871Y-83868160D03*
D47*
X286392093Y-85002086D03*
X275161210Y-88481997D03*
D39*
X312542777Y-94938121D03*
X311885516Y-93701993D03*
X307117599Y-96237139D03*
X307774860Y-97473267D03*
D41*
X122272358Y-68767567D03*
D42*
X114622790Y-71439012D03*
D43*
X117416146Y-66185473D03*
D42*
X111240890Y-67149169D03*
D41*
X112559934Y-63603379D03*
D44*
X117514445Y-72976532D03*
X108349236Y-65611649D03*
D48*
X101339953Y-110585260D03*
X98426225Y-109036006D03*
D46*
X126247736Y-95797857D03*
X126904997Y-94561729D03*
X122137080Y-92026583D03*
X121479819Y-93262711D03*
D48*
X144750867Y-109883279D03*
X141837139Y-108334025D03*
D39*
X303622817Y-78162112D03*
X302965556Y-76925984D03*
X298197639Y-79461130D03*
X298854900Y-80697258D03*
D48*
X123749618Y-108909846D03*
X120835890Y-107360592D03*
D39*
X272293195Y-59710704D03*
X271635934Y-58474576D03*
X266868017Y-61009722D03*
X267525278Y-62245850D03*
D41*
X156763313Y-84841595D03*
D42*
X149113745Y-87513040D03*
D43*
X151907101Y-82259501D03*
D42*
X145731845Y-83223197D03*
D41*
X147050889Y-79677407D03*
D44*
X152005400Y-89050560D03*
X142840191Y-81685677D03*
D41*
X182249190Y-188570907D03*
D42*
X175756877Y-183722982D03*
D43*
X181674282Y-183101037D03*
D42*
X177422183Y-178520409D03*
D41*
X181099374Y-177631167D03*
D59*
X176099206Y-186980041D03*
X177079852Y-175263350D03*
D41*
X176378942Y-164131389D03*
D42*
X168370607Y-162898880D03*
D43*
X173303381Y-159571682D03*
D42*
X167398526Y-157523467D03*
D41*
X170227820Y-155011975D03*
D60*
X170201963Y-165613979D03*
X165567169Y-154808367D03*
D48*
X171730276Y-140084465D03*
X168816548Y-138535211D03*
D46*
X159330271Y-114520731D03*
X159987532Y-113284603D03*
X155219615Y-110749457D03*
X154562354Y-111985585D03*
D61*
X239335831Y-177402086D03*
X238990887Y-180684008D03*
D48*
X153670825Y-93107277D03*
X150757097Y-91558023D03*
D46*
X135167694Y-79021851D03*
X135824955Y-77785723D03*
X131057038Y-75250577D03*
X130399777Y-76486705D03*
D41*
X192662673Y-98266778D03*
D42*
X185013105Y-100938223D03*
D43*
X187806461Y-95684684D03*
D42*
X181631205Y-96648380D03*
D41*
X182950249Y-93102590D03*
D44*
X187904760Y-102475743D03*
X178739551Y-95110860D03*
D41*
X273482005Y-96453408D03*
D42*
X271419149Y-104289041D03*
D43*
X268625793Y-99035502D03*
D42*
X265971573Y-104693913D03*
D41*
X263769581Y-101617596D03*
D47*
X274310803Y-102751522D03*
X263079920Y-106231433D03*
D41*
X237582637Y-109878592D03*
D42*
X235519781Y-117714225D03*
D43*
X232726425Y-112460686D03*
D42*
X230072205Y-118119097D03*
D41*
X227870213Y-115042780D03*
D47*
X238411435Y-116176706D03*
X227180552Y-119656617D03*
D48*
X110259914Y-93809255D03*
X107346186Y-92260001D03*
D51*
X278605270Y-103639308D03*
X275691542Y-105188560D03*
D41*
X147843354Y-101617598D03*
D42*
X140193786Y-104289043D03*
D43*
X142987142Y-99035504D03*
D42*
X136811886Y-99999200D03*
D41*
X138130930Y-96453410D03*
D44*
X143085441Y-105826563D03*
X133920232Y-98461680D03*
D62*
X216860018Y-139292418D03*
D41*
X183742718Y-115042778D03*
D42*
X176093150Y-117714223D03*
D43*
X178886506Y-112460684D03*
D42*
X172711250Y-113424380D03*
D41*
X174030294Y-109878590D03*
D44*
X178984805Y-119251743D03*
X169819596Y-111886860D03*
D41*
X174822759Y-131818784D03*
D42*
X167173191Y-134490229D03*
D43*
X169966547Y-129236690D03*
D42*
X163791291Y-130200386D03*
D41*
X165110335Y-126654596D03*
D44*
X170064846Y-136027749D03*
X160899637Y-128662866D03*
D39*
X251291947Y-60684133D03*
X250634686Y-59448005D03*
X245866769Y-61983151D03*
X246524030Y-63219279D03*
D63*
X249282264Y-158951522D03*
X247436928Y-161687346D03*
D41*
X243560796Y-80650839D03*
D42*
X241497940Y-88486472D03*
D43*
X238704584Y-83232933D03*
D42*
X236050364Y-88891344D03*
D41*
X233848372Y-85815027D03*
D47*
X244389594Y-86948953D03*
X233158711Y-90428864D03*
D46*
X144087654Y-62245848D03*
X144744915Y-61009720D03*
X139976998Y-58474574D03*
X139319737Y-59710702D03*
D41*
X246502599Y-126654599D03*
D42*
X244439743Y-134490232D03*
D43*
X241646387Y-129236693D03*
D42*
X238992167Y-134895104D03*
D41*
X236790175Y-131818787D03*
D47*
X247331397Y-132952713D03*
X236100514Y-136432624D03*
D46*
X177170187Y-80968715D03*
X177827448Y-79732587D03*
X173059531Y-77197441D03*
X172402270Y-78433569D03*
X147248985Y-96771286D03*
X147906246Y-95535158D03*
X143138329Y-93000012D03*
X142481068Y-94236140D03*
D64*
X287899303Y-124633433D03*
X286350051Y-121719705D03*
D51*
X251625863Y-133840496D03*
X248712135Y-135389748D03*
D39*
X242152456Y-124437325D03*
X241495195Y-123201197D03*
X236727278Y-125736343D03*
X237384539Y-126972471D03*
D41*
X159924641Y-119367037D03*
D42*
X152275073Y-122038482D03*
D43*
X155068429Y-116784943D03*
D42*
X148893173Y-117748639D03*
D41*
X150212217Y-114202849D03*
D44*
X155166728Y-123576002D03*
X146001519Y-116211119D03*
D41*
X165683275Y-68065587D03*
D42*
X158033707Y-70737032D03*
D43*
X160827063Y-65483493D03*
D42*
X154651807Y-66447189D03*
D41*
X155970851Y-62901399D03*
D44*
X160925362Y-72274552D03*
X151760153Y-64909669D03*
D65*
X185934594Y-185368134D03*
X187326924Y-185221796D03*
X186762470Y-179851376D03*
X185370140Y-179997714D03*
D48*
X180650228Y-123308465D03*
X177736500Y-121759211D03*
D39*
X294702855Y-61386111D03*
X294045594Y-60149983D03*
X289277677Y-62685129D03*
X289934938Y-63921257D03*
%LPD*%
M02*
