%TF.GenerationSoftware,KiCad,Pcbnew,8.0.1*%
%TF.CreationDate,2025-01-05T22:45:02+02:00*%
%TF.ProjectId,DeeDee_v1,44656544-6565-45f7-9631-2e6b69636164,v1.0.0*%
%TF.SameCoordinates,Original*%
%TF.FileFunction,Drillmap*%
%TF.FilePolarity,Positive*%
%FSLAX45Y45*%
G04 Gerber Fmt 4.5, Leading zero omitted, Abs format (unit mm)*
G04 Created by KiCad (PCBNEW 8.0.1) date 2025-01-05 22:45:02*
%MOMM*%
%LPD*%
G01*
G04 APERTURE LIST*
%ADD10C,0.150000*%
%ADD11C,0.100000*%
%ADD12C,0.050000*%
%ADD13C,0.120000*%
%ADD14C,0.200000*%
%ADD15C,0.190000*%
%ADD16C,0.300000*%
%ADD17C,0.340000*%
G04 APERTURE END LIST*
D10*
X14206480Y-14337025D02*
X14540581Y-13674315D01*
X14474115Y-13418665D02*
G75*
G02*
X14540579Y-13674314I-112125J-165615D01*
G01*
X19686358Y-8014480D02*
X21474935Y-8014481D01*
X23614687Y-6080891D02*
X25493702Y-5081802D01*
X25329438Y-15702696D02*
X24157381Y-17440342D01*
X27645611Y-4964248D02*
X29764575Y-5122668D01*
X27621440Y-4963906D02*
G75*
G02*
X27645611Y-4964247I9270J-199694D01*
G01*
X25578336Y-5058606D02*
X27621440Y-4963906D01*
X11235040Y-5228217D02*
G75*
G02*
X11396718Y-5122669I176581J-93883D01*
G01*
X19365960Y-19290193D02*
X17393138Y-19497545D01*
X25329438Y-15702696D02*
G75*
G02*
X25403392Y-15636873I165842J-111874D01*
G01*
X10235857Y-11367515D02*
X8646551Y-10522467D01*
X23988484Y-19313824D02*
G75*
G02*
X23768155Y-19497546I-199424J15184D01*
G01*
X24123766Y-17536997D02*
G75*
G02*
X24157384Y-17440344I199374J-15173D01*
G01*
X10506341Y-11284820D02*
G75*
G02*
X10235857Y-11367515I-176591J93900D01*
G01*
X11769041Y-11587315D02*
X10906550Y-11003404D01*
X30654953Y-11284820D02*
X30543455Y-11075125D01*
X15667591Y-5081803D02*
X17546606Y-6080892D01*
X17003912Y-17440342D02*
X15831854Y-15702696D01*
X25493702Y-5081802D02*
G75*
G02*
X25578336Y-5058605I93908J-176628D01*
G01*
X23571350Y-6111991D02*
G75*
G02*
X23614687Y-6080892I137210J-145459D01*
G01*
X14093917Y-14548826D02*
X14204481Y-14340885D01*
X21774428Y-19289097D02*
G75*
G02*
X21795334Y-19290192I12J-199834D01*
G01*
X24123766Y-17536997D02*
X23988484Y-19313824D01*
X15757900Y-15636875D02*
G75*
G02*
X15831855Y-15702696I-91830J-177635D01*
G01*
X29392253Y-11587315D02*
G75*
G02*
X27028866Y-13187339I-1309043J-611905D01*
G01*
X8563856Y-10251982D02*
X11235040Y-5228217D01*
X27067376Y-14548826D02*
G75*
G02*
X26982642Y-14820386I-176607J-93894D01*
G01*
X29764575Y-5122668D02*
G75*
G02*
X29926255Y-5228216I-14915J-199452D01*
G01*
X11396718Y-5122668D02*
X13515683Y-4964248D01*
X26982639Y-14820380D02*
X25403393Y-15636874D01*
X19365960Y-19290193D02*
G75*
G02*
X19386865Y-19289097I20900J-198768D01*
G01*
X26620712Y-13674314D02*
G75*
G02*
X26687180Y-13418667I178578J90034D01*
G01*
X17393138Y-19497545D02*
G75*
G02*
X17172807Y-19313823I-20908J198905D01*
G01*
X13539854Y-4963906D02*
X15582957Y-5058606D01*
X30254743Y-11003404D02*
G75*
G02*
X30543451Y-11075127I112117J-165626D01*
G01*
X17172809Y-19313823D02*
X17037528Y-17536998D01*
X17003912Y-17440342D02*
G75*
G02*
X17037529Y-17536997I-165852J-111858D01*
G01*
X23768155Y-19497544D02*
X21795334Y-19290192D01*
X26956812Y-14340885D02*
X27067376Y-14548826D01*
X15757900Y-15636875D02*
X14178654Y-14820380D01*
X27028866Y-13187340D02*
X26687178Y-13418665D01*
X26956812Y-14340885D02*
G75*
G02*
X26954813Y-14337025I177298J94265D01*
G01*
X15582957Y-5058606D02*
G75*
G02*
X15667591Y-5081803I-9267J-199804D01*
G01*
X17589943Y-6111991D02*
X19549126Y-7959970D01*
X14206480Y-14337025D02*
G75*
G02*
X14204481Y-14340885I-181400J91465D01*
G01*
X32514742Y-10522467D02*
X30925436Y-11367515D01*
X21612167Y-7959971D02*
G75*
G02*
X21474935Y-8014482I-137227J145471D01*
G01*
X10617838Y-11075125D02*
G75*
G02*
X10906550Y-11003404I176592J-93905D01*
G01*
X29926254Y-5228217D02*
X32597437Y-10251983D01*
X10617838Y-11075125D02*
X10506341Y-11284820D01*
X14132427Y-13187340D02*
G75*
G02*
X11769041Y-11587315I-1054340J988125D01*
G01*
X21612167Y-7959971D02*
X23571350Y-6111991D01*
X30925436Y-11367515D02*
G75*
G02*
X30654948Y-11284822I-93896J176595D01*
G01*
X17546606Y-6080892D02*
G75*
G02*
X17589944Y-6111991I-93886J-176578D01*
G01*
X26620712Y-13674314D02*
X26954813Y-14337025D01*
X13515683Y-4964248D02*
G75*
G02*
X13539854Y-4963906I14908J-199402D01*
G01*
X30254743Y-11003404D02*
X29392253Y-11587315D01*
X14178654Y-14820380D02*
G75*
G02*
X14093918Y-14548826I91857J177661D01*
G01*
X32597437Y-10251983D02*
G75*
G02*
X32514743Y-10522469I-176587J-93897D01*
G01*
X19686358Y-8014480D02*
G75*
G02*
X19549124Y-7959973I-8J199990D01*
G01*
X8646551Y-10522467D02*
G75*
G02*
X8563858Y-10251983I93889J176587D01*
G01*
X21774428Y-19289097D02*
X19386865Y-19289097D01*
X14474115Y-13418665D02*
X14132427Y-13187340D01*
D11*
X19680647Y-17423669D02*
G75*
G02*
X19480647Y-17423669I-100000J0D01*
G01*
X19480647Y-17423669D02*
G75*
G02*
X19680647Y-17423669I100000J0D01*
G01*
X21680647Y-17423669D02*
G75*
G02*
X21480647Y-17423669I-100000J0D01*
G01*
X21480647Y-17423669D02*
G75*
G02*
X21680647Y-17423669I100000J0D01*
G01*
D12*
X18980647Y-13673669D02*
X18980647Y-14773669D01*
X18880647Y-14773669D01*
X18880647Y-13673669D01*
X18980647Y-13673669D01*
D11*
X21222025Y-18323669D02*
X19942025Y-18323669D01*
X19942025Y-17623669D01*
X21222025Y-17623669D01*
X21222025Y-18323669D01*
D13*
X26873626Y-9540917D02*
X26555765Y-9709927D01*
X26410228Y-9436213D01*
X26728090Y-9267204D01*
X26873626Y-9540917D01*
X28973751Y-9443574D02*
X28655890Y-9612584D01*
X28510354Y-9338870D01*
X28828215Y-9169860D01*
X28973751Y-9443574D01*
X25685745Y-13910006D02*
X25367884Y-14079016D01*
X25222348Y-13805302D01*
X25540209Y-13636292D01*
X25685745Y-13910006D01*
X16851189Y-9533556D02*
X16705653Y-9807270D01*
X16387792Y-9638260D01*
X16533328Y-9364546D01*
X16851189Y-9533556D01*
X22391694Y-9205835D02*
X22073833Y-9374845D01*
X21928296Y-9101131D01*
X22246158Y-8932121D01*
X22391694Y-9205835D01*
X18341001Y-10778731D02*
X18195465Y-11052445D01*
X17877604Y-10883435D01*
X18023140Y-10609721D01*
X18341001Y-10778731D01*
X17449005Y-12456331D02*
X17303469Y-12730045D01*
X16985607Y-12561035D01*
X17131144Y-12287322D01*
X17449005Y-12456331D01*
X16535056Y-6081012D02*
X16389520Y-6354726D01*
X16071659Y-6185716D01*
X16217195Y-5912002D01*
X16535056Y-6081012D01*
X10409973Y-9506411D02*
X10264437Y-9780125D01*
X9946576Y-9611115D01*
X10092112Y-9337401D01*
X10409973Y-9506411D01*
X12193965Y-6151210D02*
X12048429Y-6424924D01*
X11730568Y-6255914D01*
X11876104Y-5982200D01*
X12193965Y-6151210D01*
X24773502Y-9638261D02*
X24455640Y-9807270D01*
X24310104Y-9533557D01*
X24627965Y-9364547D01*
X24773502Y-9638261D01*
X15643060Y-7758613D02*
X15497524Y-8032327D01*
X15179663Y-7863317D01*
X15325199Y-7589603D01*
X15643060Y-7758613D01*
X23283689Y-10883435D02*
X22965828Y-11052445D01*
X22820292Y-10778731D01*
X23138153Y-10609721D01*
X23283689Y-10883435D01*
X23881505Y-7960660D02*
X23563644Y-8129670D01*
X23418108Y-7855956D01*
X23735969Y-7686946D01*
X23881505Y-7960660D01*
X22699406Y-18098164D02*
X22661775Y-18456192D01*
X22353474Y-18423788D01*
X22391104Y-18065760D01*
X22699406Y-18098164D01*
X15938945Y-13805302D02*
X15793409Y-14079016D01*
X15475548Y-13910006D01*
X15621084Y-13636292D01*
X15938945Y-13805302D01*
X19232997Y-9101131D02*
X19087460Y-9374845D01*
X18769599Y-9205835D01*
X18915135Y-8932121D01*
X19232997Y-9101131D01*
X25981630Y-7863317D02*
X25663769Y-8032327D01*
X25518233Y-7758613D01*
X25836094Y-7589603D01*
X25981630Y-7863317D01*
X23670463Y-15631796D02*
X23469153Y-15930249D01*
X23212152Y-15756899D01*
X23413461Y-15458446D01*
X23670463Y-15631796D01*
X17949141Y-15756899D02*
X17692140Y-15930249D01*
X17490831Y-15631796D01*
X17747832Y-15458446D01*
X17949141Y-15756899D01*
X11301969Y-7828811D02*
X11156433Y-8102525D01*
X10838572Y-7933515D01*
X10984108Y-7659801D01*
X11301969Y-7828811D01*
X25665497Y-11315860D02*
X25347636Y-11484870D01*
X25202100Y-11211156D01*
X25519961Y-11042147D01*
X25665497Y-11315860D01*
X28081755Y-7765973D02*
X27763893Y-7934983D01*
X27618357Y-7661269D01*
X27936218Y-7492259D01*
X28081755Y-7765973D01*
X31214717Y-9611115D02*
X30896856Y-9780125D01*
X30751320Y-9506411D01*
X31069181Y-9337401D01*
X31214717Y-9611115D01*
X12650939Y-9338870D02*
X12505403Y-9612584D01*
X12187542Y-9443574D01*
X12333078Y-9169860D01*
X12650939Y-9338870D01*
X30322721Y-7933514D02*
X30004860Y-8102524D01*
X29859324Y-7828810D01*
X30177185Y-7659800D01*
X30322721Y-7933514D01*
X27189759Y-6088373D02*
X26871898Y-6257383D01*
X26726362Y-5983669D01*
X27044223Y-5814659D01*
X27189759Y-6088373D01*
X15959193Y-11211157D02*
X15813657Y-11484871D01*
X15495796Y-11315861D01*
X15641332Y-11042148D01*
X15959193Y-11211157D01*
X13542935Y-7661269D02*
X13397399Y-7934983D01*
X13079538Y-7765973D01*
X13225074Y-7492260D01*
X13542935Y-7661269D01*
X25089634Y-6185716D02*
X24771773Y-6354726D01*
X24626237Y-6081012D01*
X24944098Y-5912002D01*
X25089634Y-6185716D01*
X14434931Y-5983669D02*
X14289395Y-6257383D01*
X13971534Y-6088373D01*
X14117070Y-5814659D01*
X14434931Y-5983669D01*
X17743185Y-7855956D02*
X17597648Y-8129670D01*
X17279787Y-7960660D01*
X17425323Y-7686946D01*
X17743185Y-7855956D01*
X14751064Y-9436213D02*
X14605528Y-9709927D01*
X14287667Y-9540917D01*
X14433203Y-9267203D01*
X14751064Y-9436213D01*
X24175685Y-12561035D02*
X23857824Y-12730045D01*
X23712288Y-12456331D01*
X24030149Y-12287322D01*
X24175685Y-12561035D01*
X18807819Y-18423788D02*
X18499517Y-18456191D01*
X18461887Y-18098164D01*
X18770189Y-18065760D01*
X18807819Y-18423788D01*
X29430725Y-6255914D02*
X29112864Y-6424924D01*
X28967328Y-6151210D01*
X29285189Y-5982200D01*
X29430725Y-6255914D01*
D14*
D15*
X9377002Y-9620539D02*
X9567002Y-9810539D01*
X9567002Y-9620539D02*
X9377002Y-9810539D01*
X10268998Y-7942938D02*
X10458998Y-8132938D01*
X10458998Y-7942938D02*
X10268998Y-8132938D01*
X10348244Y-10136958D02*
X10538244Y-10326958D01*
X10538244Y-10136958D02*
X10348244Y-10326958D01*
X11160993Y-6265338D02*
X11350993Y-6455338D01*
X11350993Y-6265338D02*
X11160993Y-6455338D01*
X11240240Y-8459357D02*
X11430240Y-8649357D01*
X11430240Y-8459357D02*
X11240240Y-8649357D01*
X11617968Y-9452998D02*
X11807968Y-9642998D01*
X11807968Y-9452998D02*
X11617968Y-9642998D01*
X12132236Y-6781757D02*
X12322236Y-6971757D01*
X12322236Y-6781757D02*
X12132236Y-6971757D01*
X12509964Y-7775397D02*
X12699964Y-7965397D01*
X12699964Y-7775397D02*
X12509964Y-7965397D01*
X12589211Y-9969417D02*
X12779211Y-10159417D01*
X12779211Y-9969417D02*
X12589211Y-10159417D01*
X13401960Y-6097797D02*
X13591960Y-6287797D01*
X13591960Y-6097797D02*
X13401960Y-6287797D01*
X13481206Y-8291816D02*
X13671206Y-8481816D01*
X13671206Y-8291816D02*
X13481206Y-8481816D01*
X13718093Y-9550341D02*
X13908093Y-9740341D01*
X13908093Y-9550341D02*
X13718093Y-9740341D01*
X14373202Y-6614216D02*
X14563202Y-6804216D01*
X14563202Y-6614216D02*
X14373202Y-6804216D01*
X14610089Y-7872741D02*
X14800089Y-8062741D01*
X14800089Y-7872741D02*
X14610089Y-8062741D01*
X14689335Y-10066760D02*
X14879335Y-10256760D01*
X14879335Y-10066760D02*
X14689335Y-10256760D01*
X14905974Y-13919430D02*
X15095974Y-14109430D01*
X15095974Y-13919430D02*
X14905974Y-14109430D01*
X14926222Y-11325285D02*
X15116222Y-11515285D01*
X15116222Y-11325285D02*
X14926222Y-11515285D01*
X15502085Y-6195140D02*
X15692085Y-6385140D01*
X15692085Y-6195140D02*
X15502085Y-6385140D01*
X15581331Y-8389160D02*
X15771331Y-8579160D01*
X15771331Y-8389160D02*
X15581331Y-8579160D01*
X15818218Y-9647684D02*
X16008218Y-9837684D01*
X16008218Y-9647684D02*
X15818218Y-9837684D01*
X15877216Y-14435849D02*
X16067216Y-14625849D01*
X16067216Y-14435849D02*
X15877216Y-14625849D01*
X15897464Y-11841704D02*
X16087464Y-12031704D01*
X16087464Y-11841704D02*
X15897464Y-12031704D01*
X16416033Y-12570460D02*
X16606033Y-12760460D01*
X16606033Y-12570460D02*
X16416033Y-12760460D01*
X16473327Y-6711559D02*
X16663327Y-6901559D01*
X16663327Y-6711559D02*
X16473327Y-6901559D01*
X16710214Y-7970084D02*
X16900214Y-8160084D01*
X16900214Y-7970084D02*
X16710214Y-8160084D01*
X16789460Y-10164103D02*
X16979460Y-10354103D01*
X16979460Y-10164103D02*
X16789460Y-10354103D01*
X16927782Y-15406197D02*
X17117782Y-15596197D01*
X17117782Y-15406197D02*
X16927782Y-15596197D01*
X17308029Y-10892859D02*
X17498029Y-11082859D01*
X17498029Y-10892859D02*
X17308029Y-11082859D01*
X17387276Y-13086878D02*
X17577276Y-13276878D01*
X17577276Y-13086878D02*
X17387276Y-13276878D01*
X17542894Y-16318139D02*
X17732894Y-16508139D01*
X17732894Y-16318139D02*
X17542894Y-16508139D01*
X17681456Y-8486502D02*
X17871456Y-8676502D01*
X17871456Y-8486502D02*
X17681456Y-8676502D01*
X18014937Y-17668117D02*
X18204937Y-17858117D01*
X18204937Y-17668117D02*
X18014937Y-17858117D01*
X18129919Y-18762091D02*
X18319919Y-18952091D01*
X18319919Y-18762091D02*
X18129919Y-18952091D01*
X18200025Y-9215259D02*
X18390025Y-9405259D01*
X18390025Y-9215259D02*
X18200025Y-9405259D01*
X18279272Y-11409278D02*
X18469272Y-11599278D01*
X18469272Y-11409278D02*
X18279272Y-11599278D01*
X19171267Y-9731678D02*
X19361267Y-9921678D01*
X19361267Y-9731678D02*
X19171267Y-9921678D01*
X21800025Y-9731677D02*
X21990025Y-9921677D01*
X21990025Y-9731677D02*
X21800025Y-9921677D01*
X22692021Y-11409278D02*
X22882021Y-11599278D01*
X22882021Y-11409278D02*
X22692021Y-11599278D01*
X22771268Y-9215259D02*
X22961268Y-9405259D01*
X22961268Y-9215259D02*
X22771268Y-9405259D01*
X22841374Y-18762091D02*
X23031374Y-18952091D01*
X23031374Y-18762091D02*
X22841374Y-18952091D01*
X22956356Y-17668117D02*
X23146356Y-17858117D01*
X23146356Y-17668117D02*
X22956356Y-17858117D01*
X23289837Y-8486503D02*
X23479837Y-8676503D01*
X23479837Y-8486503D02*
X23289837Y-8676503D01*
X23428399Y-16318139D02*
X23618399Y-16508139D01*
X23618399Y-16318139D02*
X23428399Y-16508139D01*
X23584017Y-13086879D02*
X23774017Y-13276879D01*
X23774017Y-13086879D02*
X23584017Y-13276879D01*
X23663264Y-10892859D02*
X23853264Y-11082859D01*
X23853264Y-10892859D02*
X23663264Y-11082859D01*
X24043511Y-15406198D02*
X24233511Y-15596198D01*
X24233511Y-15406198D02*
X24043511Y-15596198D01*
X24181833Y-10164103D02*
X24371833Y-10354103D01*
X24371833Y-10164103D02*
X24181833Y-10354103D01*
X24261080Y-7970084D02*
X24451080Y-8160084D01*
X24451080Y-7970084D02*
X24261080Y-8160084D01*
X24497966Y-6711559D02*
X24687966Y-6901559D01*
X24687966Y-6711559D02*
X24497966Y-6901559D01*
X24555260Y-12570460D02*
X24745260Y-12760460D01*
X24745260Y-12570460D02*
X24555260Y-12760460D01*
X25073829Y-11841703D02*
X25263829Y-12031703D01*
X25263829Y-11841703D02*
X25073829Y-12031703D01*
X25094077Y-14435849D02*
X25284077Y-14625849D01*
X25284077Y-14435849D02*
X25094077Y-14625849D01*
X25153076Y-9647684D02*
X25343076Y-9837684D01*
X25343076Y-9647684D02*
X25153076Y-9837684D01*
X25389962Y-8389160D02*
X25579962Y-8579160D01*
X25579962Y-8389160D02*
X25389962Y-8579160D01*
X25469208Y-6195140D02*
X25659208Y-6385140D01*
X25659208Y-6195140D02*
X25469208Y-6385140D01*
X26045071Y-11325284D02*
X26235071Y-11515284D01*
X26235071Y-11325284D02*
X26045071Y-11515284D01*
X26065319Y-13919430D02*
X26255319Y-14109430D01*
X26255319Y-13919430D02*
X26065319Y-14109430D01*
X26281958Y-10066760D02*
X26471958Y-10256760D01*
X26471958Y-10066760D02*
X26281958Y-10256760D01*
X26361205Y-7872741D02*
X26551205Y-8062741D01*
X26551205Y-7872741D02*
X26361205Y-8062741D01*
X26598091Y-6614216D02*
X26788091Y-6804216D01*
X26788091Y-6614216D02*
X26598091Y-6804216D01*
X27253200Y-9550341D02*
X27443200Y-9740341D01*
X27443200Y-9550341D02*
X27253200Y-9740341D01*
X27490087Y-8291816D02*
X27680087Y-8481816D01*
X27680087Y-8291816D02*
X27490087Y-8481816D01*
X27569333Y-6097797D02*
X27759333Y-6287797D01*
X27759333Y-6097797D02*
X27569333Y-6287797D01*
X28382082Y-9969417D02*
X28572082Y-10159417D01*
X28572082Y-9969417D02*
X28382082Y-10159417D01*
X28461329Y-7775397D02*
X28651329Y-7965397D01*
X28651329Y-7775397D02*
X28461329Y-7965397D01*
X28839057Y-6781757D02*
X29029057Y-6971757D01*
X29029057Y-6781757D02*
X28839057Y-6971757D01*
X29353325Y-9452998D02*
X29543325Y-9642998D01*
X29543325Y-9452998D02*
X29353325Y-9642998D01*
X29731053Y-8459357D02*
X29921053Y-8649357D01*
X29921053Y-8459357D02*
X29731053Y-8649357D01*
X29810300Y-6265338D02*
X30000300Y-6455338D01*
X30000300Y-6265338D02*
X29810300Y-6455338D01*
X30623049Y-10136958D02*
X30813049Y-10326958D01*
X30813049Y-10136958D02*
X30623049Y-10326958D01*
X30702296Y-7942938D02*
X30892296Y-8132938D01*
X30892296Y-7942938D02*
X30702296Y-8132938D01*
X31594291Y-9620540D02*
X31784291Y-9810540D01*
X31784291Y-9620540D02*
X31594291Y-9810540D01*
D16*
X9490097Y-10070118D02*
G75*
G02*
X9190097Y-10070118I-150000J0D01*
G01*
X9190097Y-10070118D02*
G75*
G02*
X9490097Y-10070118I150000J0D01*
G01*
X9828287Y-10499102D02*
G75*
G02*
X9528287Y-10499102I-150000J0D01*
G01*
X9528287Y-10499102D02*
G75*
G02*
X9828287Y-10499102I150000J0D01*
G01*
X10382093Y-8392518D02*
G75*
G02*
X10082093Y-8392518I-150000J0D01*
G01*
X10082093Y-8392518D02*
G75*
G02*
X10382093Y-8392518I150000J0D01*
G01*
X10720283Y-8821502D02*
G75*
G02*
X10420283Y-8821502I-150000J0D01*
G01*
X10420283Y-8821502D02*
G75*
G02*
X10720283Y-8821502I150000J0D01*
G01*
X11274089Y-6714917D02*
G75*
G02*
X10974089Y-6714917I-150000J0D01*
G01*
X10974089Y-6714917D02*
G75*
G02*
X11274089Y-6714917I150000J0D01*
G01*
X11612279Y-7143901D02*
G75*
G02*
X11312279Y-7143901I-150000J0D01*
G01*
X11312279Y-7143901D02*
G75*
G02*
X11612279Y-7143901I150000J0D01*
G01*
X11731064Y-9902577D02*
G75*
G02*
X11431064Y-9902577I-150000J0D01*
G01*
X11431064Y-9902577D02*
G75*
G02*
X11731064Y-9902577I150000J0D01*
G01*
X12069254Y-10331561D02*
G75*
G02*
X11769254Y-10331561I-150000J0D01*
G01*
X11769254Y-10331561D02*
G75*
G02*
X12069254Y-10331561I150000J0D01*
G01*
X12623060Y-8224976D02*
G75*
G02*
X12323060Y-8224976I-150000J0D01*
G01*
X12323060Y-8224976D02*
G75*
G02*
X12623060Y-8224976I150000J0D01*
G01*
X12961250Y-8653961D02*
G75*
G02*
X12661250Y-8653961I-150000J0D01*
G01*
X12661250Y-8653961D02*
G75*
G02*
X12961250Y-8653961I150000J0D01*
G01*
X13515055Y-6547376D02*
G75*
G02*
X13215055Y-6547376I-150000J0D01*
G01*
X13215055Y-6547376D02*
G75*
G02*
X13515055Y-6547376I150000J0D01*
G01*
X13831189Y-9999920D02*
G75*
G02*
X13531189Y-9999920I-150000J0D01*
G01*
X13531189Y-9999920D02*
G75*
G02*
X13831189Y-9999920I150000J0D01*
G01*
X13853245Y-6976360D02*
G75*
G02*
X13553245Y-6976360I-150000J0D01*
G01*
X13553245Y-6976360D02*
G75*
G02*
X13853245Y-6976360I150000J0D01*
G01*
X14169379Y-10428904D02*
G75*
G02*
X13869379Y-10428904I-150000J0D01*
G01*
X13869379Y-10428904D02*
G75*
G02*
X14169379Y-10428904I150000J0D01*
G01*
X14723184Y-8322320D02*
G75*
G02*
X14423184Y-8322320I-150000J0D01*
G01*
X14423184Y-8322320D02*
G75*
G02*
X14723184Y-8322320I150000J0D01*
G01*
X15019070Y-14369009D02*
G75*
G02*
X14719070Y-14369009I-150000J0D01*
G01*
X14719070Y-14369009D02*
G75*
G02*
X15019070Y-14369009I150000J0D01*
G01*
X15039317Y-11774864D02*
G75*
G02*
X14739317Y-11774864I-150000J0D01*
G01*
X14739317Y-11774864D02*
G75*
G02*
X15039317Y-11774864I150000J0D01*
G01*
X15061374Y-8751304D02*
G75*
G02*
X14761374Y-8751304I-150000J0D01*
G01*
X14761374Y-8751304D02*
G75*
G02*
X15061374Y-8751304I150000J0D01*
G01*
X15357260Y-14797994D02*
G75*
G02*
X15057260Y-14797994I-150000J0D01*
G01*
X15057260Y-14797994D02*
G75*
G02*
X15357260Y-14797994I150000J0D01*
G01*
X15377507Y-12203848D02*
G75*
G02*
X15077507Y-12203848I-150000J0D01*
G01*
X15077507Y-12203848D02*
G75*
G02*
X15377507Y-12203848I150000J0D01*
G01*
X15615181Y-6644719D02*
G75*
G02*
X15315181Y-6644719I-150000J0D01*
G01*
X15315181Y-6644719D02*
G75*
G02*
X15615181Y-6644719I150000J0D01*
G01*
X15931313Y-10097263D02*
G75*
G02*
X15631313Y-10097263I-150000J0D01*
G01*
X15631313Y-10097263D02*
G75*
G02*
X15931313Y-10097263I150000J0D01*
G01*
X15953371Y-7073703D02*
G75*
G02*
X15653371Y-7073703I-150000J0D01*
G01*
X15653371Y-7073703D02*
G75*
G02*
X15953371Y-7073703I150000J0D01*
G01*
X16269503Y-10526248D02*
G75*
G02*
X15969503Y-10526248I-150000J0D01*
G01*
X15969503Y-10526248D02*
G75*
G02*
X16269503Y-10526248I150000J0D01*
G01*
X16529129Y-13020039D02*
G75*
G02*
X16229129Y-13020039I-150000J0D01*
G01*
X16229129Y-13020039D02*
G75*
G02*
X16529129Y-13020039I150000J0D01*
G01*
X16823309Y-8419663D02*
G75*
G02*
X16523309Y-8419663I-150000J0D01*
G01*
X16523309Y-8419663D02*
G75*
G02*
X16823309Y-8419663I150000J0D01*
G01*
X16867319Y-13449023D02*
G75*
G02*
X16567319Y-13449023I-150000J0D01*
G01*
X16567319Y-13449023D02*
G75*
G02*
X16867319Y-13449023I150000J0D01*
G01*
X16889853Y-15752347D02*
G75*
G02*
X16589853Y-15752347I-150000J0D01*
G01*
X16589853Y-15752347D02*
G75*
G02*
X16889853Y-15752347I150000J0D01*
G01*
X16987061Y-16289888D02*
G75*
G02*
X16687061Y-16289888I-150000J0D01*
G01*
X16687061Y-16289888D02*
G75*
G02*
X16987061Y-16289888I150000J0D01*
G01*
X17161499Y-8848647D02*
G75*
G02*
X16861499Y-8848647I-150000J0D01*
G01*
X16861499Y-8848647D02*
G75*
G02*
X17161499Y-8848647I150000J0D01*
G01*
X17421125Y-11342438D02*
G75*
G02*
X17121125Y-11342438I-150000J0D01*
G01*
X17121125Y-11342438D02*
G75*
G02*
X17421125Y-11342438I150000J0D01*
G01*
X17725688Y-18372298D02*
G75*
G02*
X17425688Y-18372298I-150000J0D01*
G01*
X17425688Y-18372298D02*
G75*
G02*
X17725688Y-18372298I150000J0D01*
G01*
X17759315Y-11771422D02*
G75*
G02*
X17459315Y-11771422I-150000J0D01*
G01*
X17459315Y-11771422D02*
G75*
G02*
X17759315Y-11771422I150000J0D01*
G01*
X17892218Y-17852041D02*
G75*
G02*
X17592218Y-17852041I-150000J0D01*
G01*
X17592218Y-17852041D02*
G75*
G02*
X17892218Y-17852041I150000J0D01*
G01*
X18313121Y-9664838D02*
G75*
G02*
X18013121Y-9664838I-150000J0D01*
G01*
X18013121Y-9664838D02*
G75*
G02*
X18313121Y-9664838I150000J0D01*
G01*
X18651311Y-10093822D02*
G75*
G02*
X18351311Y-10093822I-150000J0D01*
G01*
X18351311Y-10093822D02*
G75*
G02*
X18651311Y-10093822I150000J0D01*
G01*
X22265225Y-10134309D02*
G75*
G02*
X21965225Y-10134309I-150000J0D01*
G01*
X21965225Y-10134309D02*
G75*
G02*
X22265225Y-10134309I150000J0D01*
G01*
X22809982Y-10093822D02*
G75*
G02*
X22509982Y-10093822I-150000J0D01*
G01*
X22509982Y-10093822D02*
G75*
G02*
X22809982Y-10093822I150000J0D01*
G01*
X23157220Y-11811910D02*
G75*
G02*
X22857220Y-11811910I-150000J0D01*
G01*
X22857220Y-11811910D02*
G75*
G02*
X23157220Y-11811910I150000J0D01*
G01*
X23464547Y-18846563D02*
G75*
G02*
X23164547Y-18846563I-150000J0D01*
G01*
X23164547Y-18846563D02*
G75*
G02*
X23464547Y-18846563I150000J0D01*
G01*
X23701978Y-11771422D02*
G75*
G02*
X23401978Y-11771422I-150000J0D01*
G01*
X23401978Y-11771422D02*
G75*
G02*
X23701978Y-11771422I150000J0D01*
G01*
X23735605Y-18372298D02*
G75*
G02*
X23435605Y-18372298I-150000J0D01*
G01*
X23435605Y-18372298D02*
G75*
G02*
X23735605Y-18372298I150000J0D01*
G01*
X23755036Y-8889134D02*
G75*
G02*
X23455036Y-8889134I-150000J0D01*
G01*
X23455036Y-8889134D02*
G75*
G02*
X23755036Y-8889134I150000J0D01*
G01*
X24012248Y-16581385D02*
G75*
G02*
X23712248Y-16581385I-150000J0D01*
G01*
X23712248Y-16581385D02*
G75*
G02*
X24012248Y-16581385I150000J0D01*
G01*
X24049217Y-13489510D02*
G75*
G02*
X23749217Y-13489510I-150000J0D01*
G01*
X23749217Y-13489510D02*
G75*
G02*
X24049217Y-13489510I150000J0D01*
G01*
X24299794Y-8848647D02*
G75*
G02*
X23999794Y-8848647I-150000J0D01*
G01*
X23999794Y-8848647D02*
G75*
G02*
X24299794Y-8848647I150000J0D01*
G01*
X24474232Y-16289888D02*
G75*
G02*
X24174232Y-16289888I-150000J0D01*
G01*
X24174232Y-16289888D02*
G75*
G02*
X24474232Y-16289888I150000J0D01*
G01*
X24593974Y-13449023D02*
G75*
G02*
X24293974Y-13449023I-150000J0D01*
G01*
X24293974Y-13449023D02*
G75*
G02*
X24593974Y-13449023I150000J0D01*
G01*
X24647033Y-10566735D02*
G75*
G02*
X24347033Y-10566735I-150000J0D01*
G01*
X24347033Y-10566735D02*
G75*
G02*
X24647033Y-10566735I150000J0D01*
G01*
X24963165Y-7114190D02*
G75*
G02*
X24663165Y-7114190I-150000J0D01*
G01*
X24663165Y-7114190D02*
G75*
G02*
X24963165Y-7114190I150000J0D01*
G01*
X25191790Y-10526248D02*
G75*
G02*
X24891790Y-10526248I-150000J0D01*
G01*
X24891790Y-10526248D02*
G75*
G02*
X25191790Y-10526248I150000J0D01*
G01*
X25507923Y-7073703D02*
G75*
G02*
X25207923Y-7073703I-150000J0D01*
G01*
X25207923Y-7073703D02*
G75*
G02*
X25507923Y-7073703I150000J0D01*
G01*
X25539028Y-12244335D02*
G75*
G02*
X25239028Y-12244335I-150000J0D01*
G01*
X25239028Y-12244335D02*
G75*
G02*
X25539028Y-12244335I150000J0D01*
G01*
X25559276Y-14838480D02*
G75*
G02*
X25259276Y-14838480I-150000J0D01*
G01*
X25259276Y-14838480D02*
G75*
G02*
X25559276Y-14838480I150000J0D01*
G01*
X25855161Y-8791792D02*
G75*
G02*
X25555161Y-8791792I-150000J0D01*
G01*
X25555161Y-8791792D02*
G75*
G02*
X25855161Y-8791792I150000J0D01*
G01*
X26083786Y-12203848D02*
G75*
G02*
X25783786Y-12203848I-150000J0D01*
G01*
X25783786Y-12203848D02*
G75*
G02*
X26083786Y-12203848I150000J0D01*
G01*
X26104034Y-14797993D02*
G75*
G02*
X25804034Y-14797993I-150000J0D01*
G01*
X25804034Y-14797993D02*
G75*
G02*
X26104034Y-14797993I150000J0D01*
G01*
X26399919Y-8751304D02*
G75*
G02*
X26099919Y-8751304I-150000J0D01*
G01*
X26099919Y-8751304D02*
G75*
G02*
X26399919Y-8751304I150000J0D01*
G01*
X26747157Y-10469391D02*
G75*
G02*
X26447157Y-10469391I-150000J0D01*
G01*
X26447157Y-10469391D02*
G75*
G02*
X26747157Y-10469391I150000J0D01*
G01*
X27063290Y-7016848D02*
G75*
G02*
X26763290Y-7016848I-150000J0D01*
G01*
X26763290Y-7016848D02*
G75*
G02*
X27063290Y-7016848I150000J0D01*
G01*
X27291915Y-10428904D02*
G75*
G02*
X26991915Y-10428904I-150000J0D01*
G01*
X26991915Y-10428904D02*
G75*
G02*
X27291915Y-10428904I150000J0D01*
G01*
X27608048Y-6976361D02*
G75*
G02*
X27308048Y-6976361I-150000J0D01*
G01*
X27308048Y-6976361D02*
G75*
G02*
X27608048Y-6976361I150000J0D01*
G01*
X27955286Y-8694448D02*
G75*
G02*
X27655286Y-8694448I-150000J0D01*
G01*
X27655286Y-8694448D02*
G75*
G02*
X27955286Y-8694448I150000J0D01*
G01*
X28500044Y-8653961D02*
G75*
G02*
X28200044Y-8653961I-150000J0D01*
G01*
X28200044Y-8653961D02*
G75*
G02*
X28500044Y-8653961I150000J0D01*
G01*
X28847282Y-10372048D02*
G75*
G02*
X28547282Y-10372048I-150000J0D01*
G01*
X28547282Y-10372048D02*
G75*
G02*
X28847282Y-10372048I150000J0D01*
G01*
X29304256Y-7184389D02*
G75*
G02*
X29004256Y-7184389I-150000J0D01*
G01*
X29004256Y-7184389D02*
G75*
G02*
X29304256Y-7184389I150000J0D01*
G01*
X29392039Y-10331561D02*
G75*
G02*
X29092039Y-10331561I-150000J0D01*
G01*
X29092039Y-10331561D02*
G75*
G02*
X29392039Y-10331561I150000J0D01*
G01*
X29849014Y-7143902D02*
G75*
G02*
X29549014Y-7143902I-150000J0D01*
G01*
X29549014Y-7143902D02*
G75*
G02*
X29849014Y-7143902I150000J0D01*
G01*
X30196253Y-8861989D02*
G75*
G02*
X29896253Y-8861989I-150000J0D01*
G01*
X29896253Y-8861989D02*
G75*
G02*
X30196253Y-8861989I150000J0D01*
G01*
X30741010Y-8821502D02*
G75*
G02*
X30441010Y-8821502I-150000J0D01*
G01*
X30441010Y-8821502D02*
G75*
G02*
X30741010Y-8821502I150000J0D01*
G01*
X31088248Y-10539590D02*
G75*
G02*
X30788248Y-10539590I-150000J0D01*
G01*
X30788248Y-10539590D02*
G75*
G02*
X31088248Y-10539590I150000J0D01*
G01*
X31633006Y-10499103D02*
G75*
G02*
X31333006Y-10499103I-150000J0D01*
G01*
X31333006Y-10499103D02*
G75*
G02*
X31633006Y-10499103I150000J0D01*
G01*
D17*
X9957623Y-9803748D02*
X9957623Y-10143748D01*
X9787623Y-9973748D02*
X10127623Y-9973748D01*
X10849619Y-8126148D02*
X10849619Y-8466148D01*
X10679619Y-8296148D02*
X11019619Y-8296148D01*
X11741615Y-6448547D02*
X11741615Y-6788547D01*
X11571615Y-6618547D02*
X11911615Y-6618547D01*
X12198589Y-9636208D02*
X12198589Y-9976208D01*
X12028589Y-9806208D02*
X12368589Y-9806208D01*
X13090585Y-7958607D02*
X13090585Y-8298607D01*
X12920585Y-8128607D02*
X13260585Y-8128607D01*
X13982581Y-6281007D02*
X13982581Y-6621007D01*
X13812581Y-6451007D02*
X14152581Y-6451007D01*
X14298714Y-9733550D02*
X14298714Y-10073550D01*
X14128714Y-9903550D02*
X14468714Y-9903550D01*
X15190710Y-8055950D02*
X15190710Y-8395950D01*
X15020710Y-8225950D02*
X15360710Y-8225950D01*
X15486595Y-14102640D02*
X15486595Y-14442640D01*
X15316595Y-14272640D02*
X15656595Y-14272640D01*
X15506843Y-11508494D02*
X15506843Y-11848494D01*
X15336843Y-11678494D02*
X15676843Y-11678494D01*
X16082706Y-6378349D02*
X16082706Y-6718349D01*
X15912706Y-6548349D02*
X16252706Y-6548349D01*
X16398839Y-9830894D02*
X16398839Y-10170894D01*
X16228839Y-10000894D02*
X16568839Y-10000894D01*
X16996655Y-12753669D02*
X16996655Y-13093669D01*
X16826655Y-12923669D02*
X17166655Y-12923669D01*
X17290835Y-8153293D02*
X17290835Y-8493293D01*
X17120835Y-8323293D02*
X17460835Y-8323293D01*
X17330338Y-15787168D02*
X17330338Y-16127168D01*
X17160338Y-15957168D02*
X17500338Y-15957168D01*
X17888651Y-11076068D02*
X17888651Y-11416068D01*
X17718651Y-11246068D02*
X18058651Y-11246068D01*
X18167428Y-18140104D02*
X18167428Y-18480104D01*
X17997428Y-18310104D02*
X18337428Y-18310104D01*
X18780646Y-9398468D02*
X18780646Y-9738468D01*
X18610646Y-9568468D02*
X18950646Y-9568468D01*
X22380647Y-9398468D02*
X22380647Y-9738468D01*
X22210647Y-9568468D02*
X22550647Y-9568468D01*
X22993865Y-18140104D02*
X22993865Y-18480104D01*
X22823865Y-18310104D02*
X23163865Y-18310104D01*
X23272642Y-11076069D02*
X23272642Y-11416069D01*
X23102642Y-11246069D02*
X23442642Y-11246069D01*
X23830955Y-15787168D02*
X23830955Y-16127168D01*
X23660955Y-15957168D02*
X24000955Y-15957168D01*
X23870458Y-8153293D02*
X23870458Y-8493293D01*
X23700458Y-8323293D02*
X24040458Y-8323293D01*
X24164639Y-12753669D02*
X24164639Y-13093669D01*
X23994639Y-12923669D02*
X24334639Y-12923669D01*
X24762455Y-9830894D02*
X24762455Y-10170894D01*
X24592455Y-10000894D02*
X24932455Y-10000894D01*
X25078587Y-6378349D02*
X25078587Y-6718349D01*
X24908587Y-6548349D02*
X25248587Y-6548349D01*
X25654450Y-11508494D02*
X25654450Y-11848494D01*
X25484450Y-11678494D02*
X25824450Y-11678494D01*
X25674698Y-14102639D02*
X25674698Y-14442639D01*
X25504698Y-14272639D02*
X25844698Y-14272639D01*
X25970583Y-8055950D02*
X25970583Y-8395951D01*
X25800583Y-8225950D02*
X26140583Y-8225950D01*
X26862579Y-9733550D02*
X26862579Y-10073550D01*
X26692579Y-9903550D02*
X27032579Y-9903550D01*
X27178712Y-6281007D02*
X27178712Y-6621007D01*
X27008712Y-6451007D02*
X27348712Y-6451007D01*
X28070708Y-7958607D02*
X28070708Y-8298607D01*
X27900708Y-8128607D02*
X28240708Y-8128607D01*
X28962704Y-9636207D02*
X28962704Y-9976207D01*
X28792704Y-9806207D02*
X29132704Y-9806207D01*
X29419678Y-6448548D02*
X29419678Y-6788548D01*
X29249678Y-6618548D02*
X29589678Y-6618548D01*
X30311675Y-8126148D02*
X30311675Y-8466148D01*
X30141675Y-8296148D02*
X30481675Y-8296148D01*
X31203670Y-9803749D02*
X31203670Y-10143749D01*
X31033670Y-9973749D02*
X31373670Y-9973749D01*
D14*
X8793722Y-19817625D02*
X8793722Y-19617625D01*
X8793722Y-19617625D02*
X8841341Y-19617625D01*
X8841341Y-19617625D02*
X8869913Y-19627149D01*
X8869913Y-19627149D02*
X8888960Y-19646197D01*
X8888960Y-19646197D02*
X8898484Y-19665244D01*
X8898484Y-19665244D02*
X8908008Y-19703339D01*
X8908008Y-19703339D02*
X8908008Y-19731911D01*
X8908008Y-19731911D02*
X8898484Y-19770006D01*
X8898484Y-19770006D02*
X8888960Y-19789054D01*
X8888960Y-19789054D02*
X8869913Y-19808101D01*
X8869913Y-19808101D02*
X8841341Y-19817625D01*
X8841341Y-19817625D02*
X8793722Y-19817625D01*
X8993722Y-19817625D02*
X8993722Y-19684292D01*
X8993722Y-19722387D02*
X9003246Y-19703339D01*
X9003246Y-19703339D02*
X9012770Y-19693816D01*
X9012770Y-19693816D02*
X9031817Y-19684292D01*
X9031817Y-19684292D02*
X9050865Y-19684292D01*
X9117532Y-19817625D02*
X9117532Y-19684292D01*
X9117532Y-19617625D02*
X9108008Y-19627149D01*
X9108008Y-19627149D02*
X9117532Y-19636673D01*
X9117532Y-19636673D02*
X9127055Y-19627149D01*
X9127055Y-19627149D02*
X9117532Y-19617625D01*
X9117532Y-19617625D02*
X9117532Y-19636673D01*
X9241341Y-19817625D02*
X9222294Y-19808101D01*
X9222294Y-19808101D02*
X9212770Y-19789054D01*
X9212770Y-19789054D02*
X9212770Y-19617625D01*
X9346103Y-19817625D02*
X9327055Y-19808101D01*
X9327055Y-19808101D02*
X9317532Y-19789054D01*
X9317532Y-19789054D02*
X9317532Y-19617625D01*
X9574675Y-19817625D02*
X9574675Y-19617625D01*
X9574675Y-19617625D02*
X9641341Y-19760482D01*
X9641341Y-19760482D02*
X9708008Y-19617625D01*
X9708008Y-19617625D02*
X9708008Y-19817625D01*
X9888960Y-19817625D02*
X9888960Y-19712863D01*
X9888960Y-19712863D02*
X9879436Y-19693816D01*
X9879436Y-19693816D02*
X9860389Y-19684292D01*
X9860389Y-19684292D02*
X9822294Y-19684292D01*
X9822294Y-19684292D02*
X9803246Y-19693816D01*
X9888960Y-19808101D02*
X9869913Y-19817625D01*
X9869913Y-19817625D02*
X9822294Y-19817625D01*
X9822294Y-19817625D02*
X9803246Y-19808101D01*
X9803246Y-19808101D02*
X9793722Y-19789054D01*
X9793722Y-19789054D02*
X9793722Y-19770006D01*
X9793722Y-19770006D02*
X9803246Y-19750959D01*
X9803246Y-19750959D02*
X9822294Y-19741435D01*
X9822294Y-19741435D02*
X9869913Y-19741435D01*
X9869913Y-19741435D02*
X9888960Y-19731911D01*
X9984198Y-19684292D02*
X9984198Y-19884292D01*
X9984198Y-19693816D02*
X10003246Y-19684292D01*
X10003246Y-19684292D02*
X10041341Y-19684292D01*
X10041341Y-19684292D02*
X10060389Y-19693816D01*
X10060389Y-19693816D02*
X10069913Y-19703339D01*
X10069913Y-19703339D02*
X10079436Y-19722387D01*
X10079436Y-19722387D02*
X10079436Y-19779530D01*
X10079436Y-19779530D02*
X10069913Y-19798578D01*
X10069913Y-19798578D02*
X10060389Y-19808101D01*
X10060389Y-19808101D02*
X10041341Y-19817625D01*
X10041341Y-19817625D02*
X10003246Y-19817625D01*
X10003246Y-19817625D02*
X9984198Y-19808101D01*
X10165151Y-19798578D02*
X10174675Y-19808101D01*
X10174675Y-19808101D02*
X10165151Y-19817625D01*
X10165151Y-19817625D02*
X10155627Y-19808101D01*
X10155627Y-19808101D02*
X10165151Y-19798578D01*
X10165151Y-19798578D02*
X10165151Y-19817625D01*
X10165151Y-19693816D02*
X10174675Y-19703339D01*
X10174675Y-19703339D02*
X10165151Y-19712863D01*
X10165151Y-19712863D02*
X10155627Y-19703339D01*
X10155627Y-19703339D02*
X10165151Y-19693816D01*
X10165151Y-19693816D02*
X10165151Y-19712863D01*
D15*
X8342945Y-20051141D02*
X8532945Y-20241141D01*
X8532945Y-20051141D02*
X8342945Y-20241141D01*
D14*
X8898484Y-20237625D02*
X8784198Y-20237625D01*
X8841341Y-20237625D02*
X8841341Y-20037625D01*
X8841341Y-20037625D02*
X8822294Y-20066197D01*
X8822294Y-20066197D02*
X8803246Y-20085244D01*
X8803246Y-20085244D02*
X8784198Y-20094768D01*
X8984198Y-20218578D02*
X8993722Y-20228101D01*
X8993722Y-20228101D02*
X8984198Y-20237625D01*
X8984198Y-20237625D02*
X8974675Y-20228101D01*
X8974675Y-20228101D02*
X8984198Y-20218578D01*
X8984198Y-20218578D02*
X8984198Y-20237625D01*
X9088960Y-20237625D02*
X9127055Y-20237625D01*
X9127055Y-20237625D02*
X9146103Y-20228101D01*
X9146103Y-20228101D02*
X9155627Y-20218578D01*
X9155627Y-20218578D02*
X9174675Y-20190006D01*
X9174675Y-20190006D02*
X9184198Y-20151911D01*
X9184198Y-20151911D02*
X9184198Y-20075720D01*
X9184198Y-20075720D02*
X9174675Y-20056673D01*
X9174675Y-20056673D02*
X9165151Y-20047149D01*
X9165151Y-20047149D02*
X9146103Y-20037625D01*
X9146103Y-20037625D02*
X9108008Y-20037625D01*
X9108008Y-20037625D02*
X9088960Y-20047149D01*
X9088960Y-20047149D02*
X9079436Y-20056673D01*
X9079436Y-20056673D02*
X9069913Y-20075720D01*
X9069913Y-20075720D02*
X9069913Y-20123339D01*
X9069913Y-20123339D02*
X9079436Y-20142387D01*
X9079436Y-20142387D02*
X9088960Y-20151911D01*
X9088960Y-20151911D02*
X9108008Y-20161435D01*
X9108008Y-20161435D02*
X9146103Y-20161435D01*
X9146103Y-20161435D02*
X9165151Y-20151911D01*
X9165151Y-20151911D02*
X9174675Y-20142387D01*
X9174675Y-20142387D02*
X9184198Y-20123339D01*
X9308008Y-20037625D02*
X9327056Y-20037625D01*
X9327056Y-20037625D02*
X9346103Y-20047149D01*
X9346103Y-20047149D02*
X9355627Y-20056673D01*
X9355627Y-20056673D02*
X9365151Y-20075720D01*
X9365151Y-20075720D02*
X9374675Y-20113816D01*
X9374675Y-20113816D02*
X9374675Y-20161435D01*
X9374675Y-20161435D02*
X9365151Y-20199530D01*
X9365151Y-20199530D02*
X9355627Y-20218578D01*
X9355627Y-20218578D02*
X9346103Y-20228101D01*
X9346103Y-20228101D02*
X9327056Y-20237625D01*
X9327056Y-20237625D02*
X9308008Y-20237625D01*
X9308008Y-20237625D02*
X9288960Y-20228101D01*
X9288960Y-20228101D02*
X9279436Y-20218578D01*
X9279436Y-20218578D02*
X9269913Y-20199530D01*
X9269913Y-20199530D02*
X9260389Y-20161435D01*
X9260389Y-20161435D02*
X9260389Y-20113816D01*
X9260389Y-20113816D02*
X9269913Y-20075720D01*
X9269913Y-20075720D02*
X9279436Y-20056673D01*
X9279436Y-20056673D02*
X9288960Y-20047149D01*
X9288960Y-20047149D02*
X9308008Y-20037625D01*
X9498484Y-20037625D02*
X9517532Y-20037625D01*
X9517532Y-20037625D02*
X9536579Y-20047149D01*
X9536579Y-20047149D02*
X9546103Y-20056673D01*
X9546103Y-20056673D02*
X9555627Y-20075720D01*
X9555627Y-20075720D02*
X9565151Y-20113816D01*
X9565151Y-20113816D02*
X9565151Y-20161435D01*
X9565151Y-20161435D02*
X9555627Y-20199530D01*
X9555627Y-20199530D02*
X9546103Y-20218578D01*
X9546103Y-20218578D02*
X9536579Y-20228101D01*
X9536579Y-20228101D02*
X9517532Y-20237625D01*
X9517532Y-20237625D02*
X9498484Y-20237625D01*
X9498484Y-20237625D02*
X9479436Y-20228101D01*
X9479436Y-20228101D02*
X9469913Y-20218578D01*
X9469913Y-20218578D02*
X9460389Y-20199530D01*
X9460389Y-20199530D02*
X9450865Y-20161435D01*
X9450865Y-20161435D02*
X9450865Y-20113816D01*
X9450865Y-20113816D02*
X9460389Y-20075720D01*
X9460389Y-20075720D02*
X9469913Y-20056673D01*
X9469913Y-20056673D02*
X9479436Y-20047149D01*
X9479436Y-20047149D02*
X9498484Y-20037625D01*
X9650865Y-20237625D02*
X9650865Y-20104292D01*
X9650865Y-20123339D02*
X9660389Y-20113816D01*
X9660389Y-20113816D02*
X9679436Y-20104292D01*
X9679436Y-20104292D02*
X9708008Y-20104292D01*
X9708008Y-20104292D02*
X9727056Y-20113816D01*
X9727056Y-20113816D02*
X9736579Y-20132863D01*
X9736579Y-20132863D02*
X9736579Y-20237625D01*
X9736579Y-20132863D02*
X9746103Y-20113816D01*
X9746103Y-20113816D02*
X9765151Y-20104292D01*
X9765151Y-20104292D02*
X9793722Y-20104292D01*
X9793722Y-20104292D02*
X9812770Y-20113816D01*
X9812770Y-20113816D02*
X9822294Y-20132863D01*
X9822294Y-20132863D02*
X9822294Y-20237625D01*
X9917532Y-20237625D02*
X9917532Y-20104292D01*
X9917532Y-20123339D02*
X9927056Y-20113816D01*
X9927056Y-20113816D02*
X9946103Y-20104292D01*
X9946103Y-20104292D02*
X9974675Y-20104292D01*
X9974675Y-20104292D02*
X9993722Y-20113816D01*
X9993722Y-20113816D02*
X10003246Y-20132863D01*
X10003246Y-20132863D02*
X10003246Y-20237625D01*
X10003246Y-20132863D02*
X10012770Y-20113816D01*
X10012770Y-20113816D02*
X10031817Y-20104292D01*
X10031817Y-20104292D02*
X10060389Y-20104292D01*
X10060389Y-20104292D02*
X10079437Y-20113816D01*
X10079437Y-20113816D02*
X10088960Y-20132863D01*
X10088960Y-20132863D02*
X10088960Y-20237625D01*
X10479437Y-20028101D02*
X10308008Y-20285244D01*
X10736579Y-20037625D02*
X10755627Y-20037625D01*
X10755627Y-20037625D02*
X10774675Y-20047149D01*
X10774675Y-20047149D02*
X10784199Y-20056673D01*
X10784199Y-20056673D02*
X10793722Y-20075720D01*
X10793722Y-20075720D02*
X10803246Y-20113816D01*
X10803246Y-20113816D02*
X10803246Y-20161435D01*
X10803246Y-20161435D02*
X10793722Y-20199530D01*
X10793722Y-20199530D02*
X10784199Y-20218578D01*
X10784199Y-20218578D02*
X10774675Y-20228101D01*
X10774675Y-20228101D02*
X10755627Y-20237625D01*
X10755627Y-20237625D02*
X10736579Y-20237625D01*
X10736579Y-20237625D02*
X10717532Y-20228101D01*
X10717532Y-20228101D02*
X10708008Y-20218578D01*
X10708008Y-20218578D02*
X10698484Y-20199530D01*
X10698484Y-20199530D02*
X10688960Y-20161435D01*
X10688960Y-20161435D02*
X10688960Y-20113816D01*
X10688960Y-20113816D02*
X10698484Y-20075720D01*
X10698484Y-20075720D02*
X10708008Y-20056673D01*
X10708008Y-20056673D02*
X10717532Y-20047149D01*
X10717532Y-20047149D02*
X10736579Y-20037625D01*
X10888960Y-20218578D02*
X10898484Y-20228101D01*
X10898484Y-20228101D02*
X10888960Y-20237625D01*
X10888960Y-20237625D02*
X10879437Y-20228101D01*
X10879437Y-20228101D02*
X10888960Y-20218578D01*
X10888960Y-20218578D02*
X10888960Y-20237625D01*
X11022294Y-20037625D02*
X11041341Y-20037625D01*
X11041341Y-20037625D02*
X11060389Y-20047149D01*
X11060389Y-20047149D02*
X11069913Y-20056673D01*
X11069913Y-20056673D02*
X11079437Y-20075720D01*
X11079437Y-20075720D02*
X11088960Y-20113816D01*
X11088960Y-20113816D02*
X11088960Y-20161435D01*
X11088960Y-20161435D02*
X11079437Y-20199530D01*
X11079437Y-20199530D02*
X11069913Y-20218578D01*
X11069913Y-20218578D02*
X11060389Y-20228101D01*
X11060389Y-20228101D02*
X11041341Y-20237625D01*
X11041341Y-20237625D02*
X11022294Y-20237625D01*
X11022294Y-20237625D02*
X11003246Y-20228101D01*
X11003246Y-20228101D02*
X10993722Y-20218578D01*
X10993722Y-20218578D02*
X10984199Y-20199530D01*
X10984199Y-20199530D02*
X10974675Y-20161435D01*
X10974675Y-20161435D02*
X10974675Y-20113816D01*
X10974675Y-20113816D02*
X10984199Y-20075720D01*
X10984199Y-20075720D02*
X10993722Y-20056673D01*
X10993722Y-20056673D02*
X11003246Y-20047149D01*
X11003246Y-20047149D02*
X11022294Y-20037625D01*
X11155627Y-20037625D02*
X11288960Y-20037625D01*
X11288960Y-20037625D02*
X11203246Y-20237625D01*
X11450865Y-20104292D02*
X11450865Y-20237625D01*
X11403246Y-20028101D02*
X11355627Y-20170959D01*
X11355627Y-20170959D02*
X11479437Y-20170959D01*
X11584198Y-20123339D02*
X11565151Y-20113816D01*
X11565151Y-20113816D02*
X11555627Y-20104292D01*
X11555627Y-20104292D02*
X11546103Y-20085244D01*
X11546103Y-20085244D02*
X11546103Y-20075720D01*
X11546103Y-20075720D02*
X11555627Y-20056673D01*
X11555627Y-20056673D02*
X11565151Y-20047149D01*
X11565151Y-20047149D02*
X11584198Y-20037625D01*
X11584198Y-20037625D02*
X11622294Y-20037625D01*
X11622294Y-20037625D02*
X11641341Y-20047149D01*
X11641341Y-20047149D02*
X11650865Y-20056673D01*
X11650865Y-20056673D02*
X11660389Y-20075720D01*
X11660389Y-20075720D02*
X11660389Y-20085244D01*
X11660389Y-20085244D02*
X11650865Y-20104292D01*
X11650865Y-20104292D02*
X11641341Y-20113816D01*
X11641341Y-20113816D02*
X11622294Y-20123339D01*
X11622294Y-20123339D02*
X11584198Y-20123339D01*
X11584198Y-20123339D02*
X11565151Y-20132863D01*
X11565151Y-20132863D02*
X11555627Y-20142387D01*
X11555627Y-20142387D02*
X11546103Y-20161435D01*
X11546103Y-20161435D02*
X11546103Y-20199530D01*
X11546103Y-20199530D02*
X11555627Y-20218578D01*
X11555627Y-20218578D02*
X11565151Y-20228101D01*
X11565151Y-20228101D02*
X11584198Y-20237625D01*
X11584198Y-20237625D02*
X11622294Y-20237625D01*
X11622294Y-20237625D02*
X11641341Y-20228101D01*
X11641341Y-20228101D02*
X11650865Y-20218578D01*
X11650865Y-20218578D02*
X11660389Y-20199530D01*
X11660389Y-20199530D02*
X11660389Y-20161435D01*
X11660389Y-20161435D02*
X11650865Y-20142387D01*
X11650865Y-20142387D02*
X11641341Y-20132863D01*
X11641341Y-20132863D02*
X11622294Y-20123339D01*
X11736579Y-20037625D02*
X11736579Y-20075720D01*
X11812770Y-20037625D02*
X11812770Y-20075720D01*
X12108008Y-20313816D02*
X12098484Y-20304292D01*
X12098484Y-20304292D02*
X12079437Y-20275720D01*
X12079437Y-20275720D02*
X12069913Y-20256673D01*
X12069913Y-20256673D02*
X12060389Y-20228101D01*
X12060389Y-20228101D02*
X12050865Y-20180482D01*
X12050865Y-20180482D02*
X12050865Y-20142387D01*
X12050865Y-20142387D02*
X12060389Y-20094768D01*
X12060389Y-20094768D02*
X12069913Y-20066197D01*
X12069913Y-20066197D02*
X12079437Y-20047149D01*
X12079437Y-20047149D02*
X12098484Y-20018578D01*
X12098484Y-20018578D02*
X12108008Y-20009054D01*
X12165151Y-20037625D02*
X12298484Y-20037625D01*
X12298484Y-20037625D02*
X12212770Y-20237625D01*
X12365151Y-20056673D02*
X12374675Y-20047149D01*
X12374675Y-20047149D02*
X12393722Y-20037625D01*
X12393722Y-20037625D02*
X12441341Y-20037625D01*
X12441341Y-20037625D02*
X12460389Y-20047149D01*
X12460389Y-20047149D02*
X12469913Y-20056673D01*
X12469913Y-20056673D02*
X12479437Y-20075720D01*
X12479437Y-20075720D02*
X12479437Y-20094768D01*
X12479437Y-20094768D02*
X12469913Y-20123339D01*
X12469913Y-20123339D02*
X12355627Y-20237625D01*
X12355627Y-20237625D02*
X12479437Y-20237625D01*
X12717532Y-20237625D02*
X12717532Y-20037625D01*
X12803246Y-20237625D02*
X12803246Y-20132863D01*
X12803246Y-20132863D02*
X12793722Y-20113816D01*
X12793722Y-20113816D02*
X12774675Y-20104292D01*
X12774675Y-20104292D02*
X12746103Y-20104292D01*
X12746103Y-20104292D02*
X12727056Y-20113816D01*
X12727056Y-20113816D02*
X12717532Y-20123339D01*
X12927056Y-20237625D02*
X12908008Y-20228101D01*
X12908008Y-20228101D02*
X12898484Y-20218578D01*
X12898484Y-20218578D02*
X12888961Y-20199530D01*
X12888961Y-20199530D02*
X12888961Y-20142387D01*
X12888961Y-20142387D02*
X12898484Y-20123339D01*
X12898484Y-20123339D02*
X12908008Y-20113816D01*
X12908008Y-20113816D02*
X12927056Y-20104292D01*
X12927056Y-20104292D02*
X12955627Y-20104292D01*
X12955627Y-20104292D02*
X12974675Y-20113816D01*
X12974675Y-20113816D02*
X12984199Y-20123339D01*
X12984199Y-20123339D02*
X12993722Y-20142387D01*
X12993722Y-20142387D02*
X12993722Y-20199530D01*
X12993722Y-20199530D02*
X12984199Y-20218578D01*
X12984199Y-20218578D02*
X12974675Y-20228101D01*
X12974675Y-20228101D02*
X12955627Y-20237625D01*
X12955627Y-20237625D02*
X12927056Y-20237625D01*
X13108008Y-20237625D02*
X13088961Y-20228101D01*
X13088961Y-20228101D02*
X13079437Y-20209054D01*
X13079437Y-20209054D02*
X13079437Y-20037625D01*
X13260389Y-20228101D02*
X13241342Y-20237625D01*
X13241342Y-20237625D02*
X13203246Y-20237625D01*
X13203246Y-20237625D02*
X13184199Y-20228101D01*
X13184199Y-20228101D02*
X13174675Y-20209054D01*
X13174675Y-20209054D02*
X13174675Y-20132863D01*
X13174675Y-20132863D02*
X13184199Y-20113816D01*
X13184199Y-20113816D02*
X13203246Y-20104292D01*
X13203246Y-20104292D02*
X13241342Y-20104292D01*
X13241342Y-20104292D02*
X13260389Y-20113816D01*
X13260389Y-20113816D02*
X13269913Y-20132863D01*
X13269913Y-20132863D02*
X13269913Y-20151911D01*
X13269913Y-20151911D02*
X13174675Y-20170959D01*
X13346103Y-20228101D02*
X13365151Y-20237625D01*
X13365151Y-20237625D02*
X13403246Y-20237625D01*
X13403246Y-20237625D02*
X13422294Y-20228101D01*
X13422294Y-20228101D02*
X13431818Y-20209054D01*
X13431818Y-20209054D02*
X13431818Y-20199530D01*
X13431818Y-20199530D02*
X13422294Y-20180482D01*
X13422294Y-20180482D02*
X13403246Y-20170959D01*
X13403246Y-20170959D02*
X13374675Y-20170959D01*
X13374675Y-20170959D02*
X13355627Y-20161435D01*
X13355627Y-20161435D02*
X13346103Y-20142387D01*
X13346103Y-20142387D02*
X13346103Y-20132863D01*
X13346103Y-20132863D02*
X13355627Y-20113816D01*
X13355627Y-20113816D02*
X13374675Y-20104292D01*
X13374675Y-20104292D02*
X13403246Y-20104292D01*
X13403246Y-20104292D02*
X13422294Y-20113816D01*
X13498484Y-20313816D02*
X13508008Y-20304292D01*
X13508008Y-20304292D02*
X13527056Y-20275720D01*
X13527056Y-20275720D02*
X13536580Y-20256673D01*
X13536580Y-20256673D02*
X13546103Y-20228101D01*
X13546103Y-20228101D02*
X13555627Y-20180482D01*
X13555627Y-20180482D02*
X13555627Y-20142387D01*
X13555627Y-20142387D02*
X13546103Y-20094768D01*
X13546103Y-20094768D02*
X13536580Y-20066197D01*
X13536580Y-20066197D02*
X13527056Y-20047149D01*
X13527056Y-20047149D02*
X13508008Y-20018578D01*
X13508008Y-20018578D02*
X13498484Y-20009054D01*
X13860389Y-20313816D02*
X13850865Y-20304292D01*
X13850865Y-20304292D02*
X13831818Y-20275720D01*
X13831818Y-20275720D02*
X13822294Y-20256673D01*
X13822294Y-20256673D02*
X13812770Y-20228101D01*
X13812770Y-20228101D02*
X13803246Y-20180482D01*
X13803246Y-20180482D02*
X13803246Y-20142387D01*
X13803246Y-20142387D02*
X13812770Y-20094768D01*
X13812770Y-20094768D02*
X13822294Y-20066197D01*
X13822294Y-20066197D02*
X13831818Y-20047149D01*
X13831818Y-20047149D02*
X13850865Y-20018578D01*
X13850865Y-20018578D02*
X13860389Y-20009054D01*
X13936580Y-20104292D02*
X13936580Y-20237625D01*
X13936580Y-20123339D02*
X13946103Y-20113816D01*
X13946103Y-20113816D02*
X13965151Y-20104292D01*
X13965151Y-20104292D02*
X13993723Y-20104292D01*
X13993723Y-20104292D02*
X14012770Y-20113816D01*
X14012770Y-20113816D02*
X14022294Y-20132863D01*
X14022294Y-20132863D02*
X14022294Y-20237625D01*
X14146103Y-20237625D02*
X14127056Y-20228101D01*
X14127056Y-20228101D02*
X14117532Y-20218578D01*
X14117532Y-20218578D02*
X14108008Y-20199530D01*
X14108008Y-20199530D02*
X14108008Y-20142387D01*
X14108008Y-20142387D02*
X14117532Y-20123339D01*
X14117532Y-20123339D02*
X14127056Y-20113816D01*
X14127056Y-20113816D02*
X14146103Y-20104292D01*
X14146103Y-20104292D02*
X14174675Y-20104292D01*
X14174675Y-20104292D02*
X14193723Y-20113816D01*
X14193723Y-20113816D02*
X14203246Y-20123339D01*
X14203246Y-20123339D02*
X14212770Y-20142387D01*
X14212770Y-20142387D02*
X14212770Y-20199530D01*
X14212770Y-20199530D02*
X14203246Y-20218578D01*
X14203246Y-20218578D02*
X14193723Y-20228101D01*
X14193723Y-20228101D02*
X14174675Y-20237625D01*
X14174675Y-20237625D02*
X14146103Y-20237625D01*
X14269913Y-20104292D02*
X14346103Y-20104292D01*
X14298484Y-20037625D02*
X14298484Y-20209054D01*
X14298484Y-20209054D02*
X14308008Y-20228101D01*
X14308008Y-20228101D02*
X14327056Y-20237625D01*
X14327056Y-20237625D02*
X14346103Y-20237625D01*
X14565151Y-20104292D02*
X14565151Y-20304292D01*
X14565151Y-20113816D02*
X14584199Y-20104292D01*
X14584199Y-20104292D02*
X14622294Y-20104292D01*
X14622294Y-20104292D02*
X14641342Y-20113816D01*
X14641342Y-20113816D02*
X14650865Y-20123339D01*
X14650865Y-20123339D02*
X14660389Y-20142387D01*
X14660389Y-20142387D02*
X14660389Y-20199530D01*
X14660389Y-20199530D02*
X14650865Y-20218578D01*
X14650865Y-20218578D02*
X14641342Y-20228101D01*
X14641342Y-20228101D02*
X14622294Y-20237625D01*
X14622294Y-20237625D02*
X14584199Y-20237625D01*
X14584199Y-20237625D02*
X14565151Y-20228101D01*
X14774675Y-20237625D02*
X14755627Y-20228101D01*
X14755627Y-20228101D02*
X14746104Y-20209054D01*
X14746104Y-20209054D02*
X14746104Y-20037625D01*
X14936580Y-20237625D02*
X14936580Y-20132863D01*
X14936580Y-20132863D02*
X14927056Y-20113816D01*
X14927056Y-20113816D02*
X14908008Y-20104292D01*
X14908008Y-20104292D02*
X14869913Y-20104292D01*
X14869913Y-20104292D02*
X14850865Y-20113816D01*
X14936580Y-20228101D02*
X14917532Y-20237625D01*
X14917532Y-20237625D02*
X14869913Y-20237625D01*
X14869913Y-20237625D02*
X14850865Y-20228101D01*
X14850865Y-20228101D02*
X14841342Y-20209054D01*
X14841342Y-20209054D02*
X14841342Y-20190006D01*
X14841342Y-20190006D02*
X14850865Y-20170959D01*
X14850865Y-20170959D02*
X14869913Y-20161435D01*
X14869913Y-20161435D02*
X14917532Y-20161435D01*
X14917532Y-20161435D02*
X14936580Y-20151911D01*
X15003246Y-20104292D02*
X15079437Y-20104292D01*
X15031818Y-20037625D02*
X15031818Y-20209054D01*
X15031818Y-20209054D02*
X15041342Y-20228101D01*
X15041342Y-20228101D02*
X15060389Y-20237625D01*
X15060389Y-20237625D02*
X15079437Y-20237625D01*
X15222294Y-20228101D02*
X15203246Y-20237625D01*
X15203246Y-20237625D02*
X15165151Y-20237625D01*
X15165151Y-20237625D02*
X15146104Y-20228101D01*
X15146104Y-20228101D02*
X15136580Y-20209054D01*
X15136580Y-20209054D02*
X15136580Y-20132863D01*
X15136580Y-20132863D02*
X15146104Y-20113816D01*
X15146104Y-20113816D02*
X15165151Y-20104292D01*
X15165151Y-20104292D02*
X15203246Y-20104292D01*
X15203246Y-20104292D02*
X15222294Y-20113816D01*
X15222294Y-20113816D02*
X15231818Y-20132863D01*
X15231818Y-20132863D02*
X15231818Y-20151911D01*
X15231818Y-20151911D02*
X15136580Y-20170959D01*
X15403246Y-20237625D02*
X15403246Y-20037625D01*
X15403246Y-20228101D02*
X15384199Y-20237625D01*
X15384199Y-20237625D02*
X15346104Y-20237625D01*
X15346104Y-20237625D02*
X15327056Y-20228101D01*
X15327056Y-20228101D02*
X15317532Y-20218578D01*
X15317532Y-20218578D02*
X15308008Y-20199530D01*
X15308008Y-20199530D02*
X15308008Y-20142387D01*
X15308008Y-20142387D02*
X15317532Y-20123339D01*
X15317532Y-20123339D02*
X15327056Y-20113816D01*
X15327056Y-20113816D02*
X15346104Y-20104292D01*
X15346104Y-20104292D02*
X15384199Y-20104292D01*
X15384199Y-20104292D02*
X15403246Y-20113816D01*
X15479437Y-20313816D02*
X15488961Y-20304292D01*
X15488961Y-20304292D02*
X15508008Y-20275720D01*
X15508008Y-20275720D02*
X15517532Y-20256673D01*
X15517532Y-20256673D02*
X15527056Y-20228101D01*
X15527056Y-20228101D02*
X15536580Y-20180482D01*
X15536580Y-20180482D02*
X15536580Y-20142387D01*
X15536580Y-20142387D02*
X15527056Y-20094768D01*
X15527056Y-20094768D02*
X15517532Y-20066197D01*
X15517532Y-20066197D02*
X15508008Y-20047149D01*
X15508008Y-20047149D02*
X15488961Y-20018578D01*
X15488961Y-20018578D02*
X15479437Y-20009054D01*
X8532945Y-20456141D02*
G75*
G02*
X8332945Y-20456141I-100000J0D01*
G01*
X8332945Y-20456141D02*
G75*
G02*
X8532945Y-20456141I100000J0D01*
G01*
X8774675Y-20347625D02*
X8898484Y-20347625D01*
X8898484Y-20347625D02*
X8831817Y-20423816D01*
X8831817Y-20423816D02*
X8860389Y-20423816D01*
X8860389Y-20423816D02*
X8879436Y-20433339D01*
X8879436Y-20433339D02*
X8888960Y-20442863D01*
X8888960Y-20442863D02*
X8898484Y-20461911D01*
X8898484Y-20461911D02*
X8898484Y-20509530D01*
X8898484Y-20509530D02*
X8888960Y-20528578D01*
X8888960Y-20528578D02*
X8879436Y-20538101D01*
X8879436Y-20538101D02*
X8860389Y-20547625D01*
X8860389Y-20547625D02*
X8803246Y-20547625D01*
X8803246Y-20547625D02*
X8784198Y-20538101D01*
X8784198Y-20538101D02*
X8774675Y-20528578D01*
X8984198Y-20528578D02*
X8993722Y-20538101D01*
X8993722Y-20538101D02*
X8984198Y-20547625D01*
X8984198Y-20547625D02*
X8974675Y-20538101D01*
X8974675Y-20538101D02*
X8984198Y-20528578D01*
X8984198Y-20528578D02*
X8984198Y-20547625D01*
X9117532Y-20347625D02*
X9136579Y-20347625D01*
X9136579Y-20347625D02*
X9155627Y-20357149D01*
X9155627Y-20357149D02*
X9165151Y-20366673D01*
X9165151Y-20366673D02*
X9174675Y-20385720D01*
X9174675Y-20385720D02*
X9184198Y-20423816D01*
X9184198Y-20423816D02*
X9184198Y-20471435D01*
X9184198Y-20471435D02*
X9174675Y-20509530D01*
X9174675Y-20509530D02*
X9165151Y-20528578D01*
X9165151Y-20528578D02*
X9155627Y-20538101D01*
X9155627Y-20538101D02*
X9136579Y-20547625D01*
X9136579Y-20547625D02*
X9117532Y-20547625D01*
X9117532Y-20547625D02*
X9098484Y-20538101D01*
X9098484Y-20538101D02*
X9088960Y-20528578D01*
X9088960Y-20528578D02*
X9079436Y-20509530D01*
X9079436Y-20509530D02*
X9069913Y-20471435D01*
X9069913Y-20471435D02*
X9069913Y-20423816D01*
X9069913Y-20423816D02*
X9079436Y-20385720D01*
X9079436Y-20385720D02*
X9088960Y-20366673D01*
X9088960Y-20366673D02*
X9098484Y-20357149D01*
X9098484Y-20357149D02*
X9117532Y-20347625D01*
X9308008Y-20347625D02*
X9327056Y-20347625D01*
X9327056Y-20347625D02*
X9346103Y-20357149D01*
X9346103Y-20357149D02*
X9355627Y-20366673D01*
X9355627Y-20366673D02*
X9365151Y-20385720D01*
X9365151Y-20385720D02*
X9374675Y-20423816D01*
X9374675Y-20423816D02*
X9374675Y-20471435D01*
X9374675Y-20471435D02*
X9365151Y-20509530D01*
X9365151Y-20509530D02*
X9355627Y-20528578D01*
X9355627Y-20528578D02*
X9346103Y-20538101D01*
X9346103Y-20538101D02*
X9327056Y-20547625D01*
X9327056Y-20547625D02*
X9308008Y-20547625D01*
X9308008Y-20547625D02*
X9288960Y-20538101D01*
X9288960Y-20538101D02*
X9279436Y-20528578D01*
X9279436Y-20528578D02*
X9269913Y-20509530D01*
X9269913Y-20509530D02*
X9260389Y-20471435D01*
X9260389Y-20471435D02*
X9260389Y-20423816D01*
X9260389Y-20423816D02*
X9269913Y-20385720D01*
X9269913Y-20385720D02*
X9279436Y-20366673D01*
X9279436Y-20366673D02*
X9288960Y-20357149D01*
X9288960Y-20357149D02*
X9308008Y-20347625D01*
X9498484Y-20347625D02*
X9517532Y-20347625D01*
X9517532Y-20347625D02*
X9536579Y-20357149D01*
X9536579Y-20357149D02*
X9546103Y-20366673D01*
X9546103Y-20366673D02*
X9555627Y-20385720D01*
X9555627Y-20385720D02*
X9565151Y-20423816D01*
X9565151Y-20423816D02*
X9565151Y-20471435D01*
X9565151Y-20471435D02*
X9555627Y-20509530D01*
X9555627Y-20509530D02*
X9546103Y-20528578D01*
X9546103Y-20528578D02*
X9536579Y-20538101D01*
X9536579Y-20538101D02*
X9517532Y-20547625D01*
X9517532Y-20547625D02*
X9498484Y-20547625D01*
X9498484Y-20547625D02*
X9479436Y-20538101D01*
X9479436Y-20538101D02*
X9469913Y-20528578D01*
X9469913Y-20528578D02*
X9460389Y-20509530D01*
X9460389Y-20509530D02*
X9450865Y-20471435D01*
X9450865Y-20471435D02*
X9450865Y-20423816D01*
X9450865Y-20423816D02*
X9460389Y-20385720D01*
X9460389Y-20385720D02*
X9469913Y-20366673D01*
X9469913Y-20366673D02*
X9479436Y-20357149D01*
X9479436Y-20357149D02*
X9498484Y-20347625D01*
X9650865Y-20547625D02*
X9650865Y-20414292D01*
X9650865Y-20433339D02*
X9660389Y-20423816D01*
X9660389Y-20423816D02*
X9679436Y-20414292D01*
X9679436Y-20414292D02*
X9708008Y-20414292D01*
X9708008Y-20414292D02*
X9727056Y-20423816D01*
X9727056Y-20423816D02*
X9736579Y-20442863D01*
X9736579Y-20442863D02*
X9736579Y-20547625D01*
X9736579Y-20442863D02*
X9746103Y-20423816D01*
X9746103Y-20423816D02*
X9765151Y-20414292D01*
X9765151Y-20414292D02*
X9793722Y-20414292D01*
X9793722Y-20414292D02*
X9812770Y-20423816D01*
X9812770Y-20423816D02*
X9822294Y-20442863D01*
X9822294Y-20442863D02*
X9822294Y-20547625D01*
X9917532Y-20547625D02*
X9917532Y-20414292D01*
X9917532Y-20433339D02*
X9927056Y-20423816D01*
X9927056Y-20423816D02*
X9946103Y-20414292D01*
X9946103Y-20414292D02*
X9974675Y-20414292D01*
X9974675Y-20414292D02*
X9993722Y-20423816D01*
X9993722Y-20423816D02*
X10003246Y-20442863D01*
X10003246Y-20442863D02*
X10003246Y-20547625D01*
X10003246Y-20442863D02*
X10012770Y-20423816D01*
X10012770Y-20423816D02*
X10031817Y-20414292D01*
X10031817Y-20414292D02*
X10060389Y-20414292D01*
X10060389Y-20414292D02*
X10079437Y-20423816D01*
X10079437Y-20423816D02*
X10088960Y-20442863D01*
X10088960Y-20442863D02*
X10088960Y-20547625D01*
X10479437Y-20338101D02*
X10308008Y-20595244D01*
X10736579Y-20347625D02*
X10755627Y-20347625D01*
X10755627Y-20347625D02*
X10774675Y-20357149D01*
X10774675Y-20357149D02*
X10784199Y-20366673D01*
X10784199Y-20366673D02*
X10793722Y-20385720D01*
X10793722Y-20385720D02*
X10803246Y-20423816D01*
X10803246Y-20423816D02*
X10803246Y-20471435D01*
X10803246Y-20471435D02*
X10793722Y-20509530D01*
X10793722Y-20509530D02*
X10784199Y-20528578D01*
X10784199Y-20528578D02*
X10774675Y-20538101D01*
X10774675Y-20538101D02*
X10755627Y-20547625D01*
X10755627Y-20547625D02*
X10736579Y-20547625D01*
X10736579Y-20547625D02*
X10717532Y-20538101D01*
X10717532Y-20538101D02*
X10708008Y-20528578D01*
X10708008Y-20528578D02*
X10698484Y-20509530D01*
X10698484Y-20509530D02*
X10688960Y-20471435D01*
X10688960Y-20471435D02*
X10688960Y-20423816D01*
X10688960Y-20423816D02*
X10698484Y-20385720D01*
X10698484Y-20385720D02*
X10708008Y-20366673D01*
X10708008Y-20366673D02*
X10717532Y-20357149D01*
X10717532Y-20357149D02*
X10736579Y-20347625D01*
X10888960Y-20528578D02*
X10898484Y-20538101D01*
X10898484Y-20538101D02*
X10888960Y-20547625D01*
X10888960Y-20547625D02*
X10879437Y-20538101D01*
X10879437Y-20538101D02*
X10888960Y-20528578D01*
X10888960Y-20528578D02*
X10888960Y-20547625D01*
X11088960Y-20547625D02*
X10974675Y-20547625D01*
X11031818Y-20547625D02*
X11031818Y-20347625D01*
X11031818Y-20347625D02*
X11012770Y-20376197D01*
X11012770Y-20376197D02*
X10993722Y-20395244D01*
X10993722Y-20395244D02*
X10974675Y-20404768D01*
X11279437Y-20547625D02*
X11165151Y-20547625D01*
X11222294Y-20547625D02*
X11222294Y-20347625D01*
X11222294Y-20347625D02*
X11203246Y-20376197D01*
X11203246Y-20376197D02*
X11184199Y-20395244D01*
X11184199Y-20395244D02*
X11165151Y-20404768D01*
X11393722Y-20433339D02*
X11374675Y-20423816D01*
X11374675Y-20423816D02*
X11365151Y-20414292D01*
X11365151Y-20414292D02*
X11355627Y-20395244D01*
X11355627Y-20395244D02*
X11355627Y-20385720D01*
X11355627Y-20385720D02*
X11365151Y-20366673D01*
X11365151Y-20366673D02*
X11374675Y-20357149D01*
X11374675Y-20357149D02*
X11393722Y-20347625D01*
X11393722Y-20347625D02*
X11431818Y-20347625D01*
X11431818Y-20347625D02*
X11450865Y-20357149D01*
X11450865Y-20357149D02*
X11460389Y-20366673D01*
X11460389Y-20366673D02*
X11469913Y-20385720D01*
X11469913Y-20385720D02*
X11469913Y-20395244D01*
X11469913Y-20395244D02*
X11460389Y-20414292D01*
X11460389Y-20414292D02*
X11450865Y-20423816D01*
X11450865Y-20423816D02*
X11431818Y-20433339D01*
X11431818Y-20433339D02*
X11393722Y-20433339D01*
X11393722Y-20433339D02*
X11374675Y-20442863D01*
X11374675Y-20442863D02*
X11365151Y-20452387D01*
X11365151Y-20452387D02*
X11355627Y-20471435D01*
X11355627Y-20471435D02*
X11355627Y-20509530D01*
X11355627Y-20509530D02*
X11365151Y-20528578D01*
X11365151Y-20528578D02*
X11374675Y-20538101D01*
X11374675Y-20538101D02*
X11393722Y-20547625D01*
X11393722Y-20547625D02*
X11431818Y-20547625D01*
X11431818Y-20547625D02*
X11450865Y-20538101D01*
X11450865Y-20538101D02*
X11460389Y-20528578D01*
X11460389Y-20528578D02*
X11469913Y-20509530D01*
X11469913Y-20509530D02*
X11469913Y-20471435D01*
X11469913Y-20471435D02*
X11460389Y-20452387D01*
X11460389Y-20452387D02*
X11450865Y-20442863D01*
X11450865Y-20442863D02*
X11431818Y-20433339D01*
X11660389Y-20547625D02*
X11546103Y-20547625D01*
X11603246Y-20547625D02*
X11603246Y-20347625D01*
X11603246Y-20347625D02*
X11584198Y-20376197D01*
X11584198Y-20376197D02*
X11565151Y-20395244D01*
X11565151Y-20395244D02*
X11546103Y-20404768D01*
X11736579Y-20347625D02*
X11736579Y-20385720D01*
X11812770Y-20347625D02*
X11812770Y-20385720D01*
X12108008Y-20623816D02*
X12098484Y-20614292D01*
X12098484Y-20614292D02*
X12079437Y-20585720D01*
X12079437Y-20585720D02*
X12069913Y-20566673D01*
X12069913Y-20566673D02*
X12060389Y-20538101D01*
X12060389Y-20538101D02*
X12050865Y-20490482D01*
X12050865Y-20490482D02*
X12050865Y-20452387D01*
X12050865Y-20452387D02*
X12060389Y-20404768D01*
X12060389Y-20404768D02*
X12069913Y-20376197D01*
X12069913Y-20376197D02*
X12079437Y-20357149D01*
X12079437Y-20357149D02*
X12098484Y-20328578D01*
X12098484Y-20328578D02*
X12108008Y-20319054D01*
X12165151Y-20347625D02*
X12298484Y-20347625D01*
X12298484Y-20347625D02*
X12212770Y-20547625D01*
X12365151Y-20366673D02*
X12374675Y-20357149D01*
X12374675Y-20357149D02*
X12393722Y-20347625D01*
X12393722Y-20347625D02*
X12441341Y-20347625D01*
X12441341Y-20347625D02*
X12460389Y-20357149D01*
X12460389Y-20357149D02*
X12469913Y-20366673D01*
X12469913Y-20366673D02*
X12479437Y-20385720D01*
X12479437Y-20385720D02*
X12479437Y-20404768D01*
X12479437Y-20404768D02*
X12469913Y-20433339D01*
X12469913Y-20433339D02*
X12355627Y-20547625D01*
X12355627Y-20547625D02*
X12479437Y-20547625D01*
X12717532Y-20547625D02*
X12717532Y-20347625D01*
X12803246Y-20547625D02*
X12803246Y-20442863D01*
X12803246Y-20442863D02*
X12793722Y-20423816D01*
X12793722Y-20423816D02*
X12774675Y-20414292D01*
X12774675Y-20414292D02*
X12746103Y-20414292D01*
X12746103Y-20414292D02*
X12727056Y-20423816D01*
X12727056Y-20423816D02*
X12717532Y-20433339D01*
X12927056Y-20547625D02*
X12908008Y-20538101D01*
X12908008Y-20538101D02*
X12898484Y-20528578D01*
X12898484Y-20528578D02*
X12888961Y-20509530D01*
X12888961Y-20509530D02*
X12888961Y-20452387D01*
X12888961Y-20452387D02*
X12898484Y-20433339D01*
X12898484Y-20433339D02*
X12908008Y-20423816D01*
X12908008Y-20423816D02*
X12927056Y-20414292D01*
X12927056Y-20414292D02*
X12955627Y-20414292D01*
X12955627Y-20414292D02*
X12974675Y-20423816D01*
X12974675Y-20423816D02*
X12984199Y-20433339D01*
X12984199Y-20433339D02*
X12993722Y-20452387D01*
X12993722Y-20452387D02*
X12993722Y-20509530D01*
X12993722Y-20509530D02*
X12984199Y-20528578D01*
X12984199Y-20528578D02*
X12974675Y-20538101D01*
X12974675Y-20538101D02*
X12955627Y-20547625D01*
X12955627Y-20547625D02*
X12927056Y-20547625D01*
X13108008Y-20547625D02*
X13088961Y-20538101D01*
X13088961Y-20538101D02*
X13079437Y-20519054D01*
X13079437Y-20519054D02*
X13079437Y-20347625D01*
X13260389Y-20538101D02*
X13241342Y-20547625D01*
X13241342Y-20547625D02*
X13203246Y-20547625D01*
X13203246Y-20547625D02*
X13184199Y-20538101D01*
X13184199Y-20538101D02*
X13174675Y-20519054D01*
X13174675Y-20519054D02*
X13174675Y-20442863D01*
X13174675Y-20442863D02*
X13184199Y-20423816D01*
X13184199Y-20423816D02*
X13203246Y-20414292D01*
X13203246Y-20414292D02*
X13241342Y-20414292D01*
X13241342Y-20414292D02*
X13260389Y-20423816D01*
X13260389Y-20423816D02*
X13269913Y-20442863D01*
X13269913Y-20442863D02*
X13269913Y-20461911D01*
X13269913Y-20461911D02*
X13174675Y-20480959D01*
X13346103Y-20538101D02*
X13365151Y-20547625D01*
X13365151Y-20547625D02*
X13403246Y-20547625D01*
X13403246Y-20547625D02*
X13422294Y-20538101D01*
X13422294Y-20538101D02*
X13431818Y-20519054D01*
X13431818Y-20519054D02*
X13431818Y-20509530D01*
X13431818Y-20509530D02*
X13422294Y-20490482D01*
X13422294Y-20490482D02*
X13403246Y-20480959D01*
X13403246Y-20480959D02*
X13374675Y-20480959D01*
X13374675Y-20480959D02*
X13355627Y-20471435D01*
X13355627Y-20471435D02*
X13346103Y-20452387D01*
X13346103Y-20452387D02*
X13346103Y-20442863D01*
X13346103Y-20442863D02*
X13355627Y-20423816D01*
X13355627Y-20423816D02*
X13374675Y-20414292D01*
X13374675Y-20414292D02*
X13403246Y-20414292D01*
X13403246Y-20414292D02*
X13422294Y-20423816D01*
X13498484Y-20623816D02*
X13508008Y-20614292D01*
X13508008Y-20614292D02*
X13527056Y-20585720D01*
X13527056Y-20585720D02*
X13536580Y-20566673D01*
X13536580Y-20566673D02*
X13546103Y-20538101D01*
X13546103Y-20538101D02*
X13555627Y-20490482D01*
X13555627Y-20490482D02*
X13555627Y-20452387D01*
X13555627Y-20452387D02*
X13546103Y-20404768D01*
X13546103Y-20404768D02*
X13536580Y-20376197D01*
X13536580Y-20376197D02*
X13527056Y-20357149D01*
X13527056Y-20357149D02*
X13508008Y-20328578D01*
X13508008Y-20328578D02*
X13498484Y-20319054D01*
X13860389Y-20623816D02*
X13850865Y-20614292D01*
X13850865Y-20614292D02*
X13831818Y-20585720D01*
X13831818Y-20585720D02*
X13822294Y-20566673D01*
X13822294Y-20566673D02*
X13812770Y-20538101D01*
X13812770Y-20538101D02*
X13803246Y-20490482D01*
X13803246Y-20490482D02*
X13803246Y-20452387D01*
X13803246Y-20452387D02*
X13812770Y-20404768D01*
X13812770Y-20404768D02*
X13822294Y-20376197D01*
X13822294Y-20376197D02*
X13831818Y-20357149D01*
X13831818Y-20357149D02*
X13850865Y-20328578D01*
X13850865Y-20328578D02*
X13860389Y-20319054D01*
X13936580Y-20414292D02*
X13936580Y-20547625D01*
X13936580Y-20433339D02*
X13946103Y-20423816D01*
X13946103Y-20423816D02*
X13965151Y-20414292D01*
X13965151Y-20414292D02*
X13993723Y-20414292D01*
X13993723Y-20414292D02*
X14012770Y-20423816D01*
X14012770Y-20423816D02*
X14022294Y-20442863D01*
X14022294Y-20442863D02*
X14022294Y-20547625D01*
X14146103Y-20547625D02*
X14127056Y-20538101D01*
X14127056Y-20538101D02*
X14117532Y-20528578D01*
X14117532Y-20528578D02*
X14108008Y-20509530D01*
X14108008Y-20509530D02*
X14108008Y-20452387D01*
X14108008Y-20452387D02*
X14117532Y-20433339D01*
X14117532Y-20433339D02*
X14127056Y-20423816D01*
X14127056Y-20423816D02*
X14146103Y-20414292D01*
X14146103Y-20414292D02*
X14174675Y-20414292D01*
X14174675Y-20414292D02*
X14193723Y-20423816D01*
X14193723Y-20423816D02*
X14203246Y-20433339D01*
X14203246Y-20433339D02*
X14212770Y-20452387D01*
X14212770Y-20452387D02*
X14212770Y-20509530D01*
X14212770Y-20509530D02*
X14203246Y-20528578D01*
X14203246Y-20528578D02*
X14193723Y-20538101D01*
X14193723Y-20538101D02*
X14174675Y-20547625D01*
X14174675Y-20547625D02*
X14146103Y-20547625D01*
X14269913Y-20414292D02*
X14346103Y-20414292D01*
X14298484Y-20347625D02*
X14298484Y-20519054D01*
X14298484Y-20519054D02*
X14308008Y-20538101D01*
X14308008Y-20538101D02*
X14327056Y-20547625D01*
X14327056Y-20547625D02*
X14346103Y-20547625D01*
X14565151Y-20414292D02*
X14565151Y-20614292D01*
X14565151Y-20423816D02*
X14584199Y-20414292D01*
X14584199Y-20414292D02*
X14622294Y-20414292D01*
X14622294Y-20414292D02*
X14641342Y-20423816D01*
X14641342Y-20423816D02*
X14650865Y-20433339D01*
X14650865Y-20433339D02*
X14660389Y-20452387D01*
X14660389Y-20452387D02*
X14660389Y-20509530D01*
X14660389Y-20509530D02*
X14650865Y-20528578D01*
X14650865Y-20528578D02*
X14641342Y-20538101D01*
X14641342Y-20538101D02*
X14622294Y-20547625D01*
X14622294Y-20547625D02*
X14584199Y-20547625D01*
X14584199Y-20547625D02*
X14565151Y-20538101D01*
X14774675Y-20547625D02*
X14755627Y-20538101D01*
X14755627Y-20538101D02*
X14746104Y-20519054D01*
X14746104Y-20519054D02*
X14746104Y-20347625D01*
X14936580Y-20547625D02*
X14936580Y-20442863D01*
X14936580Y-20442863D02*
X14927056Y-20423816D01*
X14927056Y-20423816D02*
X14908008Y-20414292D01*
X14908008Y-20414292D02*
X14869913Y-20414292D01*
X14869913Y-20414292D02*
X14850865Y-20423816D01*
X14936580Y-20538101D02*
X14917532Y-20547625D01*
X14917532Y-20547625D02*
X14869913Y-20547625D01*
X14869913Y-20547625D02*
X14850865Y-20538101D01*
X14850865Y-20538101D02*
X14841342Y-20519054D01*
X14841342Y-20519054D02*
X14841342Y-20500006D01*
X14841342Y-20500006D02*
X14850865Y-20480959D01*
X14850865Y-20480959D02*
X14869913Y-20471435D01*
X14869913Y-20471435D02*
X14917532Y-20471435D01*
X14917532Y-20471435D02*
X14936580Y-20461911D01*
X15003246Y-20414292D02*
X15079437Y-20414292D01*
X15031818Y-20347625D02*
X15031818Y-20519054D01*
X15031818Y-20519054D02*
X15041342Y-20538101D01*
X15041342Y-20538101D02*
X15060389Y-20547625D01*
X15060389Y-20547625D02*
X15079437Y-20547625D01*
X15222294Y-20538101D02*
X15203246Y-20547625D01*
X15203246Y-20547625D02*
X15165151Y-20547625D01*
X15165151Y-20547625D02*
X15146104Y-20538101D01*
X15146104Y-20538101D02*
X15136580Y-20519054D01*
X15136580Y-20519054D02*
X15136580Y-20442863D01*
X15136580Y-20442863D02*
X15146104Y-20423816D01*
X15146104Y-20423816D02*
X15165151Y-20414292D01*
X15165151Y-20414292D02*
X15203246Y-20414292D01*
X15203246Y-20414292D02*
X15222294Y-20423816D01*
X15222294Y-20423816D02*
X15231818Y-20442863D01*
X15231818Y-20442863D02*
X15231818Y-20461911D01*
X15231818Y-20461911D02*
X15136580Y-20480959D01*
X15403246Y-20547625D02*
X15403246Y-20347625D01*
X15403246Y-20538101D02*
X15384199Y-20547625D01*
X15384199Y-20547625D02*
X15346104Y-20547625D01*
X15346104Y-20547625D02*
X15327056Y-20538101D01*
X15327056Y-20538101D02*
X15317532Y-20528578D01*
X15317532Y-20528578D02*
X15308008Y-20509530D01*
X15308008Y-20509530D02*
X15308008Y-20452387D01*
X15308008Y-20452387D02*
X15317532Y-20433339D01*
X15317532Y-20433339D02*
X15327056Y-20423816D01*
X15327056Y-20423816D02*
X15346104Y-20414292D01*
X15346104Y-20414292D02*
X15384199Y-20414292D01*
X15384199Y-20414292D02*
X15403246Y-20423816D01*
X15479437Y-20623816D02*
X15488961Y-20614292D01*
X15488961Y-20614292D02*
X15508008Y-20585720D01*
X15508008Y-20585720D02*
X15517532Y-20566673D01*
X15517532Y-20566673D02*
X15527056Y-20538101D01*
X15527056Y-20538101D02*
X15536580Y-20490482D01*
X15536580Y-20490482D02*
X15536580Y-20452387D01*
X15536580Y-20452387D02*
X15527056Y-20404768D01*
X15527056Y-20404768D02*
X15517532Y-20376197D01*
X15517532Y-20376197D02*
X15508008Y-20357149D01*
X15508008Y-20357149D02*
X15488961Y-20328578D01*
X15488961Y-20328578D02*
X15479437Y-20319054D01*
X8432945Y-20676141D02*
X8432945Y-20876141D01*
X8332945Y-20776141D02*
X8532945Y-20776141D01*
X8774675Y-20667625D02*
X8898484Y-20667625D01*
X8898484Y-20667625D02*
X8831817Y-20743816D01*
X8831817Y-20743816D02*
X8860389Y-20743816D01*
X8860389Y-20743816D02*
X8879436Y-20753339D01*
X8879436Y-20753339D02*
X8888960Y-20762863D01*
X8888960Y-20762863D02*
X8898484Y-20781911D01*
X8898484Y-20781911D02*
X8898484Y-20829530D01*
X8898484Y-20829530D02*
X8888960Y-20848578D01*
X8888960Y-20848578D02*
X8879436Y-20858101D01*
X8879436Y-20858101D02*
X8860389Y-20867625D01*
X8860389Y-20867625D02*
X8803246Y-20867625D01*
X8803246Y-20867625D02*
X8784198Y-20858101D01*
X8784198Y-20858101D02*
X8774675Y-20848578D01*
X8984198Y-20848578D02*
X8993722Y-20858101D01*
X8993722Y-20858101D02*
X8984198Y-20867625D01*
X8984198Y-20867625D02*
X8974675Y-20858101D01*
X8974675Y-20858101D02*
X8984198Y-20848578D01*
X8984198Y-20848578D02*
X8984198Y-20867625D01*
X9165151Y-20734292D02*
X9165151Y-20867625D01*
X9117532Y-20658101D02*
X9069913Y-20800959D01*
X9069913Y-20800959D02*
X9193722Y-20800959D01*
X9308008Y-20667625D02*
X9327056Y-20667625D01*
X9327056Y-20667625D02*
X9346103Y-20677149D01*
X9346103Y-20677149D02*
X9355627Y-20686673D01*
X9355627Y-20686673D02*
X9365151Y-20705720D01*
X9365151Y-20705720D02*
X9374675Y-20743816D01*
X9374675Y-20743816D02*
X9374675Y-20791435D01*
X9374675Y-20791435D02*
X9365151Y-20829530D01*
X9365151Y-20829530D02*
X9355627Y-20848578D01*
X9355627Y-20848578D02*
X9346103Y-20858101D01*
X9346103Y-20858101D02*
X9327056Y-20867625D01*
X9327056Y-20867625D02*
X9308008Y-20867625D01*
X9308008Y-20867625D02*
X9288960Y-20858101D01*
X9288960Y-20858101D02*
X9279436Y-20848578D01*
X9279436Y-20848578D02*
X9269913Y-20829530D01*
X9269913Y-20829530D02*
X9260389Y-20791435D01*
X9260389Y-20791435D02*
X9260389Y-20743816D01*
X9260389Y-20743816D02*
X9269913Y-20705720D01*
X9269913Y-20705720D02*
X9279436Y-20686673D01*
X9279436Y-20686673D02*
X9288960Y-20677149D01*
X9288960Y-20677149D02*
X9308008Y-20667625D01*
X9498484Y-20667625D02*
X9517532Y-20667625D01*
X9517532Y-20667625D02*
X9536579Y-20677149D01*
X9536579Y-20677149D02*
X9546103Y-20686673D01*
X9546103Y-20686673D02*
X9555627Y-20705720D01*
X9555627Y-20705720D02*
X9565151Y-20743816D01*
X9565151Y-20743816D02*
X9565151Y-20791435D01*
X9565151Y-20791435D02*
X9555627Y-20829530D01*
X9555627Y-20829530D02*
X9546103Y-20848578D01*
X9546103Y-20848578D02*
X9536579Y-20858101D01*
X9536579Y-20858101D02*
X9517532Y-20867625D01*
X9517532Y-20867625D02*
X9498484Y-20867625D01*
X9498484Y-20867625D02*
X9479436Y-20858101D01*
X9479436Y-20858101D02*
X9469913Y-20848578D01*
X9469913Y-20848578D02*
X9460389Y-20829530D01*
X9460389Y-20829530D02*
X9450865Y-20791435D01*
X9450865Y-20791435D02*
X9450865Y-20743816D01*
X9450865Y-20743816D02*
X9460389Y-20705720D01*
X9460389Y-20705720D02*
X9469913Y-20686673D01*
X9469913Y-20686673D02*
X9479436Y-20677149D01*
X9479436Y-20677149D02*
X9498484Y-20667625D01*
X9650865Y-20867625D02*
X9650865Y-20734292D01*
X9650865Y-20753339D02*
X9660389Y-20743816D01*
X9660389Y-20743816D02*
X9679436Y-20734292D01*
X9679436Y-20734292D02*
X9708008Y-20734292D01*
X9708008Y-20734292D02*
X9727056Y-20743816D01*
X9727056Y-20743816D02*
X9736579Y-20762863D01*
X9736579Y-20762863D02*
X9736579Y-20867625D01*
X9736579Y-20762863D02*
X9746103Y-20743816D01*
X9746103Y-20743816D02*
X9765151Y-20734292D01*
X9765151Y-20734292D02*
X9793722Y-20734292D01*
X9793722Y-20734292D02*
X9812770Y-20743816D01*
X9812770Y-20743816D02*
X9822294Y-20762863D01*
X9822294Y-20762863D02*
X9822294Y-20867625D01*
X9917532Y-20867625D02*
X9917532Y-20734292D01*
X9917532Y-20753339D02*
X9927056Y-20743816D01*
X9927056Y-20743816D02*
X9946103Y-20734292D01*
X9946103Y-20734292D02*
X9974675Y-20734292D01*
X9974675Y-20734292D02*
X9993722Y-20743816D01*
X9993722Y-20743816D02*
X10003246Y-20762863D01*
X10003246Y-20762863D02*
X10003246Y-20867625D01*
X10003246Y-20762863D02*
X10012770Y-20743816D01*
X10012770Y-20743816D02*
X10031817Y-20734292D01*
X10031817Y-20734292D02*
X10060389Y-20734292D01*
X10060389Y-20734292D02*
X10079437Y-20743816D01*
X10079437Y-20743816D02*
X10088960Y-20762863D01*
X10088960Y-20762863D02*
X10088960Y-20867625D01*
X10479437Y-20658101D02*
X10308008Y-20915244D01*
X10736579Y-20667625D02*
X10755627Y-20667625D01*
X10755627Y-20667625D02*
X10774675Y-20677149D01*
X10774675Y-20677149D02*
X10784199Y-20686673D01*
X10784199Y-20686673D02*
X10793722Y-20705720D01*
X10793722Y-20705720D02*
X10803246Y-20743816D01*
X10803246Y-20743816D02*
X10803246Y-20791435D01*
X10803246Y-20791435D02*
X10793722Y-20829530D01*
X10793722Y-20829530D02*
X10784199Y-20848578D01*
X10784199Y-20848578D02*
X10774675Y-20858101D01*
X10774675Y-20858101D02*
X10755627Y-20867625D01*
X10755627Y-20867625D02*
X10736579Y-20867625D01*
X10736579Y-20867625D02*
X10717532Y-20858101D01*
X10717532Y-20858101D02*
X10708008Y-20848578D01*
X10708008Y-20848578D02*
X10698484Y-20829530D01*
X10698484Y-20829530D02*
X10688960Y-20791435D01*
X10688960Y-20791435D02*
X10688960Y-20743816D01*
X10688960Y-20743816D02*
X10698484Y-20705720D01*
X10698484Y-20705720D02*
X10708008Y-20686673D01*
X10708008Y-20686673D02*
X10717532Y-20677149D01*
X10717532Y-20677149D02*
X10736579Y-20667625D01*
X10888960Y-20848578D02*
X10898484Y-20858101D01*
X10898484Y-20858101D02*
X10888960Y-20867625D01*
X10888960Y-20867625D02*
X10879437Y-20858101D01*
X10879437Y-20858101D02*
X10888960Y-20848578D01*
X10888960Y-20848578D02*
X10888960Y-20867625D01*
X11088960Y-20867625D02*
X10974675Y-20867625D01*
X11031818Y-20867625D02*
X11031818Y-20667625D01*
X11031818Y-20667625D02*
X11012770Y-20696197D01*
X11012770Y-20696197D02*
X10993722Y-20715244D01*
X10993722Y-20715244D02*
X10974675Y-20724768D01*
X11155627Y-20667625D02*
X11279437Y-20667625D01*
X11279437Y-20667625D02*
X11212770Y-20743816D01*
X11212770Y-20743816D02*
X11241341Y-20743816D01*
X11241341Y-20743816D02*
X11260389Y-20753339D01*
X11260389Y-20753339D02*
X11269913Y-20762863D01*
X11269913Y-20762863D02*
X11279437Y-20781911D01*
X11279437Y-20781911D02*
X11279437Y-20829530D01*
X11279437Y-20829530D02*
X11269913Y-20848578D01*
X11269913Y-20848578D02*
X11260389Y-20858101D01*
X11260389Y-20858101D02*
X11241341Y-20867625D01*
X11241341Y-20867625D02*
X11184199Y-20867625D01*
X11184199Y-20867625D02*
X11165151Y-20858101D01*
X11165151Y-20858101D02*
X11155627Y-20848578D01*
X11346103Y-20667625D02*
X11469913Y-20667625D01*
X11469913Y-20667625D02*
X11403246Y-20743816D01*
X11403246Y-20743816D02*
X11431818Y-20743816D01*
X11431818Y-20743816D02*
X11450865Y-20753339D01*
X11450865Y-20753339D02*
X11460389Y-20762863D01*
X11460389Y-20762863D02*
X11469913Y-20781911D01*
X11469913Y-20781911D02*
X11469913Y-20829530D01*
X11469913Y-20829530D02*
X11460389Y-20848578D01*
X11460389Y-20848578D02*
X11450865Y-20858101D01*
X11450865Y-20858101D02*
X11431818Y-20867625D01*
X11431818Y-20867625D02*
X11374675Y-20867625D01*
X11374675Y-20867625D02*
X11355627Y-20858101D01*
X11355627Y-20858101D02*
X11346103Y-20848578D01*
X11565151Y-20867625D02*
X11603246Y-20867625D01*
X11603246Y-20867625D02*
X11622294Y-20858101D01*
X11622294Y-20858101D02*
X11631818Y-20848578D01*
X11631818Y-20848578D02*
X11650865Y-20820006D01*
X11650865Y-20820006D02*
X11660389Y-20781911D01*
X11660389Y-20781911D02*
X11660389Y-20705720D01*
X11660389Y-20705720D02*
X11650865Y-20686673D01*
X11650865Y-20686673D02*
X11641341Y-20677149D01*
X11641341Y-20677149D02*
X11622294Y-20667625D01*
X11622294Y-20667625D02*
X11584198Y-20667625D01*
X11584198Y-20667625D02*
X11565151Y-20677149D01*
X11565151Y-20677149D02*
X11555627Y-20686673D01*
X11555627Y-20686673D02*
X11546103Y-20705720D01*
X11546103Y-20705720D02*
X11546103Y-20753339D01*
X11546103Y-20753339D02*
X11555627Y-20772387D01*
X11555627Y-20772387D02*
X11565151Y-20781911D01*
X11565151Y-20781911D02*
X11584198Y-20791435D01*
X11584198Y-20791435D02*
X11622294Y-20791435D01*
X11622294Y-20791435D02*
X11641341Y-20781911D01*
X11641341Y-20781911D02*
X11650865Y-20772387D01*
X11650865Y-20772387D02*
X11660389Y-20753339D01*
X11736579Y-20667625D02*
X11736579Y-20705720D01*
X11812770Y-20667625D02*
X11812770Y-20705720D01*
X12108008Y-20943816D02*
X12098484Y-20934292D01*
X12098484Y-20934292D02*
X12079437Y-20905720D01*
X12079437Y-20905720D02*
X12069913Y-20886673D01*
X12069913Y-20886673D02*
X12060389Y-20858101D01*
X12060389Y-20858101D02*
X12050865Y-20810482D01*
X12050865Y-20810482D02*
X12050865Y-20772387D01*
X12050865Y-20772387D02*
X12060389Y-20724768D01*
X12060389Y-20724768D02*
X12069913Y-20696197D01*
X12069913Y-20696197D02*
X12079437Y-20677149D01*
X12079437Y-20677149D02*
X12098484Y-20648578D01*
X12098484Y-20648578D02*
X12108008Y-20639054D01*
X12165151Y-20667625D02*
X12288960Y-20667625D01*
X12288960Y-20667625D02*
X12222294Y-20743816D01*
X12222294Y-20743816D02*
X12250865Y-20743816D01*
X12250865Y-20743816D02*
X12269913Y-20753339D01*
X12269913Y-20753339D02*
X12279437Y-20762863D01*
X12279437Y-20762863D02*
X12288960Y-20781911D01*
X12288960Y-20781911D02*
X12288960Y-20829530D01*
X12288960Y-20829530D02*
X12279437Y-20848578D01*
X12279437Y-20848578D02*
X12269913Y-20858101D01*
X12269913Y-20858101D02*
X12250865Y-20867625D01*
X12250865Y-20867625D02*
X12193722Y-20867625D01*
X12193722Y-20867625D02*
X12174675Y-20858101D01*
X12174675Y-20858101D02*
X12165151Y-20848578D01*
X12460389Y-20667625D02*
X12422294Y-20667625D01*
X12422294Y-20667625D02*
X12403246Y-20677149D01*
X12403246Y-20677149D02*
X12393722Y-20686673D01*
X12393722Y-20686673D02*
X12374675Y-20715244D01*
X12374675Y-20715244D02*
X12365151Y-20753339D01*
X12365151Y-20753339D02*
X12365151Y-20829530D01*
X12365151Y-20829530D02*
X12374675Y-20848578D01*
X12374675Y-20848578D02*
X12384199Y-20858101D01*
X12384199Y-20858101D02*
X12403246Y-20867625D01*
X12403246Y-20867625D02*
X12441341Y-20867625D01*
X12441341Y-20867625D02*
X12460389Y-20858101D01*
X12460389Y-20858101D02*
X12469913Y-20848578D01*
X12469913Y-20848578D02*
X12479437Y-20829530D01*
X12479437Y-20829530D02*
X12479437Y-20781911D01*
X12479437Y-20781911D02*
X12469913Y-20762863D01*
X12469913Y-20762863D02*
X12460389Y-20753339D01*
X12460389Y-20753339D02*
X12441341Y-20743816D01*
X12441341Y-20743816D02*
X12403246Y-20743816D01*
X12403246Y-20743816D02*
X12384199Y-20753339D01*
X12384199Y-20753339D02*
X12374675Y-20762863D01*
X12374675Y-20762863D02*
X12365151Y-20781911D01*
X12717532Y-20867625D02*
X12717532Y-20667625D01*
X12803246Y-20867625D02*
X12803246Y-20762863D01*
X12803246Y-20762863D02*
X12793722Y-20743816D01*
X12793722Y-20743816D02*
X12774675Y-20734292D01*
X12774675Y-20734292D02*
X12746103Y-20734292D01*
X12746103Y-20734292D02*
X12727056Y-20743816D01*
X12727056Y-20743816D02*
X12717532Y-20753339D01*
X12927056Y-20867625D02*
X12908008Y-20858101D01*
X12908008Y-20858101D02*
X12898484Y-20848578D01*
X12898484Y-20848578D02*
X12888961Y-20829530D01*
X12888961Y-20829530D02*
X12888961Y-20772387D01*
X12888961Y-20772387D02*
X12898484Y-20753339D01*
X12898484Y-20753339D02*
X12908008Y-20743816D01*
X12908008Y-20743816D02*
X12927056Y-20734292D01*
X12927056Y-20734292D02*
X12955627Y-20734292D01*
X12955627Y-20734292D02*
X12974675Y-20743816D01*
X12974675Y-20743816D02*
X12984199Y-20753339D01*
X12984199Y-20753339D02*
X12993722Y-20772387D01*
X12993722Y-20772387D02*
X12993722Y-20829530D01*
X12993722Y-20829530D02*
X12984199Y-20848578D01*
X12984199Y-20848578D02*
X12974675Y-20858101D01*
X12974675Y-20858101D02*
X12955627Y-20867625D01*
X12955627Y-20867625D02*
X12927056Y-20867625D01*
X13108008Y-20867625D02*
X13088961Y-20858101D01*
X13088961Y-20858101D02*
X13079437Y-20839054D01*
X13079437Y-20839054D02*
X13079437Y-20667625D01*
X13260389Y-20858101D02*
X13241342Y-20867625D01*
X13241342Y-20867625D02*
X13203246Y-20867625D01*
X13203246Y-20867625D02*
X13184199Y-20858101D01*
X13184199Y-20858101D02*
X13174675Y-20839054D01*
X13174675Y-20839054D02*
X13174675Y-20762863D01*
X13174675Y-20762863D02*
X13184199Y-20743816D01*
X13184199Y-20743816D02*
X13203246Y-20734292D01*
X13203246Y-20734292D02*
X13241342Y-20734292D01*
X13241342Y-20734292D02*
X13260389Y-20743816D01*
X13260389Y-20743816D02*
X13269913Y-20762863D01*
X13269913Y-20762863D02*
X13269913Y-20781911D01*
X13269913Y-20781911D02*
X13174675Y-20800959D01*
X13346103Y-20858101D02*
X13365151Y-20867625D01*
X13365151Y-20867625D02*
X13403246Y-20867625D01*
X13403246Y-20867625D02*
X13422294Y-20858101D01*
X13422294Y-20858101D02*
X13431818Y-20839054D01*
X13431818Y-20839054D02*
X13431818Y-20829530D01*
X13431818Y-20829530D02*
X13422294Y-20810482D01*
X13422294Y-20810482D02*
X13403246Y-20800959D01*
X13403246Y-20800959D02*
X13374675Y-20800959D01*
X13374675Y-20800959D02*
X13355627Y-20791435D01*
X13355627Y-20791435D02*
X13346103Y-20772387D01*
X13346103Y-20772387D02*
X13346103Y-20762863D01*
X13346103Y-20762863D02*
X13355627Y-20743816D01*
X13355627Y-20743816D02*
X13374675Y-20734292D01*
X13374675Y-20734292D02*
X13403246Y-20734292D01*
X13403246Y-20734292D02*
X13422294Y-20743816D01*
X13498484Y-20943816D02*
X13508008Y-20934292D01*
X13508008Y-20934292D02*
X13527056Y-20905720D01*
X13527056Y-20905720D02*
X13536580Y-20886673D01*
X13536580Y-20886673D02*
X13546103Y-20858101D01*
X13546103Y-20858101D02*
X13555627Y-20810482D01*
X13555627Y-20810482D02*
X13555627Y-20772387D01*
X13555627Y-20772387D02*
X13546103Y-20724768D01*
X13546103Y-20724768D02*
X13536580Y-20696197D01*
X13536580Y-20696197D02*
X13527056Y-20677149D01*
X13527056Y-20677149D02*
X13508008Y-20648578D01*
X13508008Y-20648578D02*
X13498484Y-20639054D01*
X13860389Y-20943816D02*
X13850865Y-20934292D01*
X13850865Y-20934292D02*
X13831818Y-20905720D01*
X13831818Y-20905720D02*
X13822294Y-20886673D01*
X13822294Y-20886673D02*
X13812770Y-20858101D01*
X13812770Y-20858101D02*
X13803246Y-20810482D01*
X13803246Y-20810482D02*
X13803246Y-20772387D01*
X13803246Y-20772387D02*
X13812770Y-20724768D01*
X13812770Y-20724768D02*
X13822294Y-20696197D01*
X13822294Y-20696197D02*
X13831818Y-20677149D01*
X13831818Y-20677149D02*
X13850865Y-20648578D01*
X13850865Y-20648578D02*
X13860389Y-20639054D01*
X13936580Y-20734292D02*
X13936580Y-20867625D01*
X13936580Y-20753339D02*
X13946103Y-20743816D01*
X13946103Y-20743816D02*
X13965151Y-20734292D01*
X13965151Y-20734292D02*
X13993723Y-20734292D01*
X13993723Y-20734292D02*
X14012770Y-20743816D01*
X14012770Y-20743816D02*
X14022294Y-20762863D01*
X14022294Y-20762863D02*
X14022294Y-20867625D01*
X14146103Y-20867625D02*
X14127056Y-20858101D01*
X14127056Y-20858101D02*
X14117532Y-20848578D01*
X14117532Y-20848578D02*
X14108008Y-20829530D01*
X14108008Y-20829530D02*
X14108008Y-20772387D01*
X14108008Y-20772387D02*
X14117532Y-20753339D01*
X14117532Y-20753339D02*
X14127056Y-20743816D01*
X14127056Y-20743816D02*
X14146103Y-20734292D01*
X14146103Y-20734292D02*
X14174675Y-20734292D01*
X14174675Y-20734292D02*
X14193723Y-20743816D01*
X14193723Y-20743816D02*
X14203246Y-20753339D01*
X14203246Y-20753339D02*
X14212770Y-20772387D01*
X14212770Y-20772387D02*
X14212770Y-20829530D01*
X14212770Y-20829530D02*
X14203246Y-20848578D01*
X14203246Y-20848578D02*
X14193723Y-20858101D01*
X14193723Y-20858101D02*
X14174675Y-20867625D01*
X14174675Y-20867625D02*
X14146103Y-20867625D01*
X14269913Y-20734292D02*
X14346103Y-20734292D01*
X14298484Y-20667625D02*
X14298484Y-20839054D01*
X14298484Y-20839054D02*
X14308008Y-20858101D01*
X14308008Y-20858101D02*
X14327056Y-20867625D01*
X14327056Y-20867625D02*
X14346103Y-20867625D01*
X14565151Y-20734292D02*
X14565151Y-20934292D01*
X14565151Y-20743816D02*
X14584199Y-20734292D01*
X14584199Y-20734292D02*
X14622294Y-20734292D01*
X14622294Y-20734292D02*
X14641342Y-20743816D01*
X14641342Y-20743816D02*
X14650865Y-20753339D01*
X14650865Y-20753339D02*
X14660389Y-20772387D01*
X14660389Y-20772387D02*
X14660389Y-20829530D01*
X14660389Y-20829530D02*
X14650865Y-20848578D01*
X14650865Y-20848578D02*
X14641342Y-20858101D01*
X14641342Y-20858101D02*
X14622294Y-20867625D01*
X14622294Y-20867625D02*
X14584199Y-20867625D01*
X14584199Y-20867625D02*
X14565151Y-20858101D01*
X14774675Y-20867625D02*
X14755627Y-20858101D01*
X14755627Y-20858101D02*
X14746104Y-20839054D01*
X14746104Y-20839054D02*
X14746104Y-20667625D01*
X14936580Y-20867625D02*
X14936580Y-20762863D01*
X14936580Y-20762863D02*
X14927056Y-20743816D01*
X14927056Y-20743816D02*
X14908008Y-20734292D01*
X14908008Y-20734292D02*
X14869913Y-20734292D01*
X14869913Y-20734292D02*
X14850865Y-20743816D01*
X14936580Y-20858101D02*
X14917532Y-20867625D01*
X14917532Y-20867625D02*
X14869913Y-20867625D01*
X14869913Y-20867625D02*
X14850865Y-20858101D01*
X14850865Y-20858101D02*
X14841342Y-20839054D01*
X14841342Y-20839054D02*
X14841342Y-20820006D01*
X14841342Y-20820006D02*
X14850865Y-20800959D01*
X14850865Y-20800959D02*
X14869913Y-20791435D01*
X14869913Y-20791435D02*
X14917532Y-20791435D01*
X14917532Y-20791435D02*
X14936580Y-20781911D01*
X15003246Y-20734292D02*
X15079437Y-20734292D01*
X15031818Y-20667625D02*
X15031818Y-20839054D01*
X15031818Y-20839054D02*
X15041342Y-20858101D01*
X15041342Y-20858101D02*
X15060389Y-20867625D01*
X15060389Y-20867625D02*
X15079437Y-20867625D01*
X15222294Y-20858101D02*
X15203246Y-20867625D01*
X15203246Y-20867625D02*
X15165151Y-20867625D01*
X15165151Y-20867625D02*
X15146104Y-20858101D01*
X15146104Y-20858101D02*
X15136580Y-20839054D01*
X15136580Y-20839054D02*
X15136580Y-20762863D01*
X15136580Y-20762863D02*
X15146104Y-20743816D01*
X15146104Y-20743816D02*
X15165151Y-20734292D01*
X15165151Y-20734292D02*
X15203246Y-20734292D01*
X15203246Y-20734292D02*
X15222294Y-20743816D01*
X15222294Y-20743816D02*
X15231818Y-20762863D01*
X15231818Y-20762863D02*
X15231818Y-20781911D01*
X15231818Y-20781911D02*
X15136580Y-20800959D01*
X15403246Y-20867625D02*
X15403246Y-20667625D01*
X15403246Y-20858101D02*
X15384199Y-20867625D01*
X15384199Y-20867625D02*
X15346104Y-20867625D01*
X15346104Y-20867625D02*
X15327056Y-20858101D01*
X15327056Y-20858101D02*
X15317532Y-20848578D01*
X15317532Y-20848578D02*
X15308008Y-20829530D01*
X15308008Y-20829530D02*
X15308008Y-20772387D01*
X15308008Y-20772387D02*
X15317532Y-20753339D01*
X15317532Y-20753339D02*
X15327056Y-20743816D01*
X15327056Y-20743816D02*
X15346104Y-20734292D01*
X15346104Y-20734292D02*
X15384199Y-20734292D01*
X15384199Y-20734292D02*
X15403246Y-20743816D01*
X15479437Y-20943816D02*
X15488961Y-20934292D01*
X15488961Y-20934292D02*
X15508008Y-20905720D01*
X15508008Y-20905720D02*
X15517532Y-20886673D01*
X15517532Y-20886673D02*
X15527056Y-20858101D01*
X15527056Y-20858101D02*
X15536580Y-20810482D01*
X15536580Y-20810482D02*
X15536580Y-20772387D01*
X15536580Y-20772387D02*
X15527056Y-20724768D01*
X15527056Y-20724768D02*
X15517532Y-20696197D01*
X15517532Y-20696197D02*
X15508008Y-20677149D01*
X15508008Y-20677149D02*
X15488961Y-20648578D01*
X15488961Y-20648578D02*
X15479437Y-20639054D01*
M02*
