G04 #@! TF.GenerationSoftware,KiCad,Pcbnew,8.0.1*
G04 #@! TF.CreationDate,2025-01-05T22:43:36+02:00*
G04 #@! TF.ProjectId,DeeDee_v1,44656544-6565-45f7-9631-2e6b69636164,v1.0.0*
G04 #@! TF.SameCoordinates,Original*
G04 #@! TF.FileFunction,Legend,Top*
G04 #@! TF.FilePolarity,Positive*
%FSLAX46Y46*%
G04 Gerber Fmt 4.6, Leading zero omitted, Abs format (unit mm)*
G04 Created by KiCad (PCBNEW 8.0.1) date 2025-01-05 22:43:36*
%MOMM*%
%LPD*%
G01*
G04 APERTURE LIST*
G04 Aperture macros list*
%AMRoundRect*
0 Rectangle with rounded corners*
0 $1 Rounding radius*
0 $2 $3 $4 $5 $6 $7 $8 $9 X,Y pos of 4 corners*
0 Add a 4 corners polygon primitive as box body*
4,1,4,$2,$3,$4,$5,$6,$7,$8,$9,$2,$3,0*
0 Add four circle primitives for the rounded corners*
1,1,$1+$1,$2,$3*
1,1,$1+$1,$4,$5*
1,1,$1+$1,$6,$7*
1,1,$1+$1,$8,$9*
0 Add four rect primitives between the rounded corners*
20,1,$1+$1,$2,$3,$4,$5,0*
20,1,$1+$1,$4,$5,$6,$7,0*
20,1,$1+$1,$6,$7,$8,$9,0*
20,1,$1+$1,$8,$9,$2,$3,0*%
%AMHorizOval*
0 Thick line with rounded ends*
0 $1 width*
0 $2 $3 position (X,Y) of the first rounded end (center of the circle)*
0 $4 $5 position (X,Y) of the second rounded end (center of the circle)*
0 Add line between two ends*
20,1,$1,$2,$3,$4,$5,0*
0 Add two circle primitives to create the rounded ends*
1,1,$1,$2,$3*
1,1,$1,$4,$5*%
%AMRotRect*
0 Rectangle, with rotation*
0 The origin of the aperture is its center*
0 $1 length*
0 $2 width*
0 $3 Rotation angle, in degrees counterclockwise*
0 Add horizontal line*
21,1,$1,$2,0,0,$3*%
G04 Aperture macros list end*
%ADD10C,0.150000*%
%ADD11C,0.000000*%
%ADD12C,0.120000*%
%ADD13C,0.100000*%
%ADD14C,0.127000*%
%ADD15C,0.200000*%
%ADD16C,3.800000*%
%ADD17RotRect,1.000000X1.000000X118.000000*%
%ADD18HorizOval,1.000000X0.000000X0.000000X0.000000X0.000000X0*%
%ADD19RotRect,3.200000X2.000000X152.000000*%
%ADD20C,1.500000*%
%ADD21RotRect,2.000000X2.000000X152.000000*%
%ADD22C,2.000000*%
%ADD23RotRect,3.200000X2.000000X28.000000*%
%ADD24RotRect,2.000000X2.000000X28.000000*%
%ADD25RoundRect,0.240000X-0.360000X-0.635000X0.360000X-0.635000X0.360000X0.635000X-0.360000X0.635000X0*%
%ADD26O,1.200000X1.750000*%
%ADD27C,2.100000*%
%ADD28R,1.000000X5.500000*%
%ADD29R,1.600000X3.000000*%
%ADD30C,1.900000*%
%ADD31C,3.000000*%
%ADD32C,3.400000*%
%ADD33C,1.700000*%
G04 APERTURE END LIST*
D10*
X193136779Y-148474931D02*
X193136779Y-147474931D01*
X193136779Y-147474931D02*
X193374874Y-147474931D01*
X193374874Y-147474931D02*
X193517731Y-147522550D01*
X193517731Y-147522550D02*
X193612969Y-147617788D01*
X193612969Y-147617788D02*
X193660588Y-147713026D01*
X193660588Y-147713026D02*
X193708207Y-147903502D01*
X193708207Y-147903502D02*
X193708207Y-148046359D01*
X193708207Y-148046359D02*
X193660588Y-148236835D01*
X193660588Y-148236835D02*
X193612969Y-148332073D01*
X193612969Y-148332073D02*
X193517731Y-148427312D01*
X193517731Y-148427312D02*
X193374874Y-148474931D01*
X193374874Y-148474931D02*
X193136779Y-148474931D01*
X194517731Y-148427312D02*
X194422493Y-148474931D01*
X194422493Y-148474931D02*
X194232017Y-148474931D01*
X194232017Y-148474931D02*
X194136779Y-148427312D01*
X194136779Y-148427312D02*
X194089160Y-148332073D01*
X194089160Y-148332073D02*
X194089160Y-147951121D01*
X194089160Y-147951121D02*
X194136779Y-147855883D01*
X194136779Y-147855883D02*
X194232017Y-147808264D01*
X194232017Y-147808264D02*
X194422493Y-147808264D01*
X194422493Y-147808264D02*
X194517731Y-147855883D01*
X194517731Y-147855883D02*
X194565350Y-147951121D01*
X194565350Y-147951121D02*
X194565350Y-148046359D01*
X194565350Y-148046359D02*
X194089160Y-148141597D01*
X195374874Y-148427312D02*
X195279636Y-148474931D01*
X195279636Y-148474931D02*
X195089160Y-148474931D01*
X195089160Y-148474931D02*
X194993922Y-148427312D01*
X194993922Y-148427312D02*
X194946303Y-148332073D01*
X194946303Y-148332073D02*
X194946303Y-147951121D01*
X194946303Y-147951121D02*
X194993922Y-147855883D01*
X194993922Y-147855883D02*
X195089160Y-147808264D01*
X195089160Y-147808264D02*
X195279636Y-147808264D01*
X195279636Y-147808264D02*
X195374874Y-147855883D01*
X195374874Y-147855883D02*
X195422493Y-147951121D01*
X195422493Y-147951121D02*
X195422493Y-148046359D01*
X195422493Y-148046359D02*
X194946303Y-148141597D01*
X195851065Y-148474931D02*
X195851065Y-147474931D01*
X195851065Y-147474931D02*
X196089160Y-147474931D01*
X196089160Y-147474931D02*
X196232017Y-147522550D01*
X196232017Y-147522550D02*
X196327255Y-147617788D01*
X196327255Y-147617788D02*
X196374874Y-147713026D01*
X196374874Y-147713026D02*
X196422493Y-147903502D01*
X196422493Y-147903502D02*
X196422493Y-148046359D01*
X196422493Y-148046359D02*
X196374874Y-148236835D01*
X196374874Y-148236835D02*
X196327255Y-148332073D01*
X196327255Y-148332073D02*
X196232017Y-148427312D01*
X196232017Y-148427312D02*
X196089160Y-148474931D01*
X196089160Y-148474931D02*
X195851065Y-148474931D01*
X197232017Y-148427312D02*
X197136779Y-148474931D01*
X197136779Y-148474931D02*
X196946303Y-148474931D01*
X196946303Y-148474931D02*
X196851065Y-148427312D01*
X196851065Y-148427312D02*
X196803446Y-148332073D01*
X196803446Y-148332073D02*
X196803446Y-147951121D01*
X196803446Y-147951121D02*
X196851065Y-147855883D01*
X196851065Y-147855883D02*
X196946303Y-147808264D01*
X196946303Y-147808264D02*
X197136779Y-147808264D01*
X197136779Y-147808264D02*
X197232017Y-147855883D01*
X197232017Y-147855883D02*
X197279636Y-147951121D01*
X197279636Y-147951121D02*
X197279636Y-148046359D01*
X197279636Y-148046359D02*
X196803446Y-148141597D01*
X198089160Y-148427312D02*
X197993922Y-148474931D01*
X197993922Y-148474931D02*
X197803446Y-148474931D01*
X197803446Y-148474931D02*
X197708208Y-148427312D01*
X197708208Y-148427312D02*
X197660589Y-148332073D01*
X197660589Y-148332073D02*
X197660589Y-147951121D01*
X197660589Y-147951121D02*
X197708208Y-147855883D01*
X197708208Y-147855883D02*
X197803446Y-147808264D01*
X197803446Y-147808264D02*
X197993922Y-147808264D01*
X197993922Y-147808264D02*
X198089160Y-147855883D01*
X198089160Y-147855883D02*
X198136779Y-147951121D01*
X198136779Y-147951121D02*
X198136779Y-148046359D01*
X198136779Y-148046359D02*
X197660589Y-148141597D01*
X199232018Y-147808264D02*
X199470113Y-148474931D01*
X199470113Y-148474931D02*
X199708208Y-147808264D01*
X200612970Y-148474931D02*
X200041542Y-148474931D01*
X200327256Y-148474931D02*
X200327256Y-147474931D01*
X200327256Y-147474931D02*
X200232018Y-147617788D01*
X200232018Y-147617788D02*
X200136780Y-147713026D01*
X200136780Y-147713026D02*
X200041542Y-147760645D01*
X201041542Y-148379692D02*
X201089161Y-148427312D01*
X201089161Y-148427312D02*
X201041542Y-148474931D01*
X201041542Y-148474931D02*
X200993923Y-148427312D01*
X200993923Y-148427312D02*
X201041542Y-148379692D01*
X201041542Y-148379692D02*
X201041542Y-148474931D01*
X201708208Y-147474931D02*
X201803446Y-147474931D01*
X201803446Y-147474931D02*
X201898684Y-147522550D01*
X201898684Y-147522550D02*
X201946303Y-147570169D01*
X201946303Y-147570169D02*
X201993922Y-147665407D01*
X201993922Y-147665407D02*
X202041541Y-147855883D01*
X202041541Y-147855883D02*
X202041541Y-148093978D01*
X202041541Y-148093978D02*
X201993922Y-148284454D01*
X201993922Y-148284454D02*
X201946303Y-148379692D01*
X201946303Y-148379692D02*
X201898684Y-148427312D01*
X201898684Y-148427312D02*
X201803446Y-148474931D01*
X201803446Y-148474931D02*
X201708208Y-148474931D01*
X201708208Y-148474931D02*
X201612970Y-148427312D01*
X201612970Y-148427312D02*
X201565351Y-148379692D01*
X201565351Y-148379692D02*
X201517732Y-148284454D01*
X201517732Y-148284454D02*
X201470113Y-148093978D01*
X201470113Y-148093978D02*
X201470113Y-147855883D01*
X201470113Y-147855883D02*
X201517732Y-147665407D01*
X201517732Y-147665407D02*
X201565351Y-147570169D01*
X201565351Y-147570169D02*
X201612970Y-147522550D01*
X201612970Y-147522550D02*
X201708208Y-147474931D01*
X193422493Y-150465827D02*
X193374874Y-150418208D01*
X193374874Y-150418208D02*
X193279636Y-150275351D01*
X193279636Y-150275351D02*
X193232017Y-150180113D01*
X193232017Y-150180113D02*
X193184398Y-150037256D01*
X193184398Y-150037256D02*
X193136779Y-149799160D01*
X193136779Y-149799160D02*
X193136779Y-149608684D01*
X193136779Y-149608684D02*
X193184398Y-149370589D01*
X193184398Y-149370589D02*
X193232017Y-149227732D01*
X193232017Y-149227732D02*
X193279636Y-149132494D01*
X193279636Y-149132494D02*
X193374874Y-148989636D01*
X193374874Y-148989636D02*
X193422493Y-148942017D01*
X194232017Y-150037256D02*
X194136779Y-150084875D01*
X194136779Y-150084875D02*
X193946303Y-150084875D01*
X193946303Y-150084875D02*
X193851065Y-150037256D01*
X193851065Y-150037256D02*
X193803446Y-149989636D01*
X193803446Y-149989636D02*
X193755827Y-149894398D01*
X193755827Y-149894398D02*
X193755827Y-149608684D01*
X193755827Y-149608684D02*
X193803446Y-149513446D01*
X193803446Y-149513446D02*
X193851065Y-149465827D01*
X193851065Y-149465827D02*
X193946303Y-149418208D01*
X193946303Y-149418208D02*
X194136779Y-149418208D01*
X194136779Y-149418208D02*
X194232017Y-149465827D01*
X194565351Y-150465827D02*
X194612970Y-150418208D01*
X194612970Y-150418208D02*
X194708208Y-150275351D01*
X194708208Y-150275351D02*
X194755827Y-150180113D01*
X194755827Y-150180113D02*
X194803446Y-150037256D01*
X194803446Y-150037256D02*
X194851065Y-149799160D01*
X194851065Y-149799160D02*
X194851065Y-149608684D01*
X194851065Y-149608684D02*
X194803446Y-149370589D01*
X194803446Y-149370589D02*
X194755827Y-149227732D01*
X194755827Y-149227732D02*
X194708208Y-149132494D01*
X194708208Y-149132494D02*
X194612970Y-148989636D01*
X194612970Y-148989636D02*
X194565351Y-148942017D01*
X196041542Y-149180113D02*
X196089161Y-149132494D01*
X196089161Y-149132494D02*
X196184399Y-149084875D01*
X196184399Y-149084875D02*
X196422494Y-149084875D01*
X196422494Y-149084875D02*
X196517732Y-149132494D01*
X196517732Y-149132494D02*
X196565351Y-149180113D01*
X196565351Y-149180113D02*
X196612970Y-149275351D01*
X196612970Y-149275351D02*
X196612970Y-149370589D01*
X196612970Y-149370589D02*
X196565351Y-149513446D01*
X196565351Y-149513446D02*
X195993923Y-150084875D01*
X195993923Y-150084875D02*
X196612970Y-150084875D01*
X197232018Y-149084875D02*
X197327256Y-149084875D01*
X197327256Y-149084875D02*
X197422494Y-149132494D01*
X197422494Y-149132494D02*
X197470113Y-149180113D01*
X197470113Y-149180113D02*
X197517732Y-149275351D01*
X197517732Y-149275351D02*
X197565351Y-149465827D01*
X197565351Y-149465827D02*
X197565351Y-149703922D01*
X197565351Y-149703922D02*
X197517732Y-149894398D01*
X197517732Y-149894398D02*
X197470113Y-149989636D01*
X197470113Y-149989636D02*
X197422494Y-150037256D01*
X197422494Y-150037256D02*
X197327256Y-150084875D01*
X197327256Y-150084875D02*
X197232018Y-150084875D01*
X197232018Y-150084875D02*
X197136780Y-150037256D01*
X197136780Y-150037256D02*
X197089161Y-149989636D01*
X197089161Y-149989636D02*
X197041542Y-149894398D01*
X197041542Y-149894398D02*
X196993923Y-149703922D01*
X196993923Y-149703922D02*
X196993923Y-149465827D01*
X196993923Y-149465827D02*
X197041542Y-149275351D01*
X197041542Y-149275351D02*
X197089161Y-149180113D01*
X197089161Y-149180113D02*
X197136780Y-149132494D01*
X197136780Y-149132494D02*
X197232018Y-149084875D01*
X197946304Y-149180113D02*
X197993923Y-149132494D01*
X197993923Y-149132494D02*
X198089161Y-149084875D01*
X198089161Y-149084875D02*
X198327256Y-149084875D01*
X198327256Y-149084875D02*
X198422494Y-149132494D01*
X198422494Y-149132494D02*
X198470113Y-149180113D01*
X198470113Y-149180113D02*
X198517732Y-149275351D01*
X198517732Y-149275351D02*
X198517732Y-149370589D01*
X198517732Y-149370589D02*
X198470113Y-149513446D01*
X198470113Y-149513446D02*
X197898685Y-150084875D01*
X197898685Y-150084875D02*
X198517732Y-150084875D01*
X199422494Y-149084875D02*
X198946304Y-149084875D01*
X198946304Y-149084875D02*
X198898685Y-149561065D01*
X198898685Y-149561065D02*
X198946304Y-149513446D01*
X198946304Y-149513446D02*
X199041542Y-149465827D01*
X199041542Y-149465827D02*
X199279637Y-149465827D01*
X199279637Y-149465827D02*
X199374875Y-149513446D01*
X199374875Y-149513446D02*
X199422494Y-149561065D01*
X199422494Y-149561065D02*
X199470113Y-149656303D01*
X199470113Y-149656303D02*
X199470113Y-149894398D01*
X199470113Y-149894398D02*
X199422494Y-149989636D01*
X199422494Y-149989636D02*
X199374875Y-150037256D01*
X199374875Y-150037256D02*
X199279637Y-150084875D01*
X199279637Y-150084875D02*
X199041542Y-150084875D01*
X199041542Y-150084875D02*
X198946304Y-150037256D01*
X198946304Y-150037256D02*
X198898685Y-149989636D01*
X200660590Y-150084875D02*
X200660590Y-149084875D01*
X200660590Y-149084875D02*
X200993923Y-149799160D01*
X200993923Y-149799160D02*
X201327256Y-149084875D01*
X201327256Y-149084875D02*
X201327256Y-150084875D01*
X201803447Y-150084875D02*
X201803447Y-149084875D01*
X202136780Y-149084875D02*
X202708208Y-149084875D01*
X202422494Y-150084875D02*
X202422494Y-149084875D01*
X193089160Y-151647200D02*
X193184398Y-151694819D01*
X193184398Y-151694819D02*
X193374874Y-151694819D01*
X193374874Y-151694819D02*
X193470112Y-151647200D01*
X193470112Y-151647200D02*
X193517731Y-151551961D01*
X193517731Y-151551961D02*
X193517731Y-151504342D01*
X193517731Y-151504342D02*
X193470112Y-151409104D01*
X193470112Y-151409104D02*
X193374874Y-151361485D01*
X193374874Y-151361485D02*
X193232017Y-151361485D01*
X193232017Y-151361485D02*
X193136779Y-151313866D01*
X193136779Y-151313866D02*
X193089160Y-151218628D01*
X193089160Y-151218628D02*
X193089160Y-151171009D01*
X193089160Y-151171009D02*
X193136779Y-151075771D01*
X193136779Y-151075771D02*
X193232017Y-151028152D01*
X193232017Y-151028152D02*
X193374874Y-151028152D01*
X193374874Y-151028152D02*
X193470112Y-151075771D01*
X193946303Y-151694819D02*
X193946303Y-151028152D01*
X193946303Y-150694819D02*
X193898684Y-150742438D01*
X193898684Y-150742438D02*
X193946303Y-150790057D01*
X193946303Y-150790057D02*
X193993922Y-150742438D01*
X193993922Y-150742438D02*
X193946303Y-150694819D01*
X193946303Y-150694819D02*
X193946303Y-150790057D01*
X194422493Y-151694819D02*
X194422493Y-151028152D01*
X194422493Y-151123390D02*
X194470112Y-151075771D01*
X194470112Y-151075771D02*
X194565350Y-151028152D01*
X194565350Y-151028152D02*
X194708207Y-151028152D01*
X194708207Y-151028152D02*
X194803445Y-151075771D01*
X194803445Y-151075771D02*
X194851064Y-151171009D01*
X194851064Y-151171009D02*
X194851064Y-151694819D01*
X194851064Y-151171009D02*
X194898683Y-151075771D01*
X194898683Y-151075771D02*
X194993921Y-151028152D01*
X194993921Y-151028152D02*
X195136778Y-151028152D01*
X195136778Y-151028152D02*
X195232017Y-151075771D01*
X195232017Y-151075771D02*
X195279636Y-151171009D01*
X195279636Y-151171009D02*
X195279636Y-151694819D01*
X195755826Y-151694819D02*
X195755826Y-151028152D01*
X195755826Y-150694819D02*
X195708207Y-150742438D01*
X195708207Y-150742438D02*
X195755826Y-150790057D01*
X195755826Y-150790057D02*
X195803445Y-150742438D01*
X195803445Y-150742438D02*
X195755826Y-150694819D01*
X195755826Y-150694819D02*
X195755826Y-150790057D01*
X196184397Y-151647200D02*
X196279635Y-151694819D01*
X196279635Y-151694819D02*
X196470111Y-151694819D01*
X196470111Y-151694819D02*
X196565349Y-151647200D01*
X196565349Y-151647200D02*
X196612968Y-151551961D01*
X196612968Y-151551961D02*
X196612968Y-151504342D01*
X196612968Y-151504342D02*
X196565349Y-151409104D01*
X196565349Y-151409104D02*
X196470111Y-151361485D01*
X196470111Y-151361485D02*
X196327254Y-151361485D01*
X196327254Y-151361485D02*
X196232016Y-151313866D01*
X196232016Y-151313866D02*
X196184397Y-151218628D01*
X196184397Y-151218628D02*
X196184397Y-151171009D01*
X196184397Y-151171009D02*
X196232016Y-151075771D01*
X196232016Y-151075771D02*
X196327254Y-151028152D01*
X196327254Y-151028152D02*
X196470111Y-151028152D01*
X196470111Y-151028152D02*
X196565349Y-151075771D01*
X197041540Y-151694819D02*
X197041540Y-151028152D01*
X197041540Y-150694819D02*
X196993921Y-150742438D01*
X196993921Y-150742438D02*
X197041540Y-150790057D01*
X197041540Y-150790057D02*
X197089159Y-150742438D01*
X197089159Y-150742438D02*
X197041540Y-150694819D01*
X197041540Y-150694819D02*
X197041540Y-150790057D01*
X197517730Y-151694819D02*
X197517730Y-151028152D01*
X197517730Y-151123390D02*
X197565349Y-151075771D01*
X197565349Y-151075771D02*
X197660587Y-151028152D01*
X197660587Y-151028152D02*
X197803444Y-151028152D01*
X197803444Y-151028152D02*
X197898682Y-151075771D01*
X197898682Y-151075771D02*
X197946301Y-151171009D01*
X197946301Y-151171009D02*
X197946301Y-151694819D01*
X197946301Y-151171009D02*
X197993920Y-151075771D01*
X197993920Y-151075771D02*
X198089158Y-151028152D01*
X198089158Y-151028152D02*
X198232015Y-151028152D01*
X198232015Y-151028152D02*
X198327254Y-151075771D01*
X198327254Y-151075771D02*
X198374873Y-151171009D01*
X198374873Y-151171009D02*
X198374873Y-151694819D01*
X198851063Y-151694819D02*
X198851063Y-151028152D01*
X198851063Y-150694819D02*
X198803444Y-150742438D01*
X198803444Y-150742438D02*
X198851063Y-150790057D01*
X198851063Y-150790057D02*
X198898682Y-150742438D01*
X198898682Y-150742438D02*
X198851063Y-150694819D01*
X198851063Y-150694819D02*
X198851063Y-150790057D01*
X199279634Y-151647200D02*
X199374872Y-151694819D01*
X199374872Y-151694819D02*
X199565348Y-151694819D01*
X199565348Y-151694819D02*
X199660586Y-151647200D01*
X199660586Y-151647200D02*
X199708205Y-151551961D01*
X199708205Y-151551961D02*
X199708205Y-151504342D01*
X199708205Y-151504342D02*
X199660586Y-151409104D01*
X199660586Y-151409104D02*
X199565348Y-151361485D01*
X199565348Y-151361485D02*
X199422491Y-151361485D01*
X199422491Y-151361485D02*
X199327253Y-151313866D01*
X199327253Y-151313866D02*
X199279634Y-151218628D01*
X199279634Y-151218628D02*
X199279634Y-151171009D01*
X199279634Y-151171009D02*
X199327253Y-151075771D01*
X199327253Y-151075771D02*
X199422491Y-151028152D01*
X199422491Y-151028152D02*
X199565348Y-151028152D01*
X199565348Y-151028152D02*
X199660586Y-151075771D01*
X219270508Y-87595828D02*
X218850056Y-87819386D01*
X218850056Y-87819386D02*
X218380585Y-86936439D01*
X219318910Y-86976841D02*
X219613226Y-86820351D01*
X219985275Y-87215780D02*
X219564824Y-87439338D01*
X219564824Y-87439338D02*
X219095352Y-86556390D01*
X219095352Y-86556390D02*
X219515803Y-86332832D01*
X220363681Y-87014578D02*
X219894210Y-86131630D01*
X219894210Y-86131630D02*
X220104435Y-86019851D01*
X220104435Y-86019851D02*
X220252926Y-85994829D01*
X220252926Y-85994829D02*
X220381728Y-86034208D01*
X220381728Y-86034208D02*
X220468485Y-86095942D01*
X220468485Y-86095942D02*
X220599953Y-86241767D01*
X220599953Y-86241767D02*
X220667021Y-86367902D01*
X220667021Y-86367902D02*
X220714399Y-86558439D01*
X220714399Y-86558439D02*
X220717065Y-86664885D01*
X220717065Y-86664885D02*
X220677686Y-86793686D01*
X220677686Y-86793686D02*
X220573907Y-86902799D01*
X220573907Y-86902799D02*
X220363681Y-87014578D01*
X221919351Y-86187414D02*
X221449879Y-85304466D01*
X221449879Y-85304466D02*
X221786240Y-85125620D01*
X221786240Y-85125620D02*
X221892686Y-85122953D01*
X221892686Y-85122953D02*
X221957087Y-85142643D01*
X221957087Y-85142643D02*
X222043844Y-85204377D01*
X222043844Y-85204377D02*
X222110911Y-85330512D01*
X222110911Y-85330512D02*
X222113578Y-85436958D01*
X222113578Y-85436958D02*
X222093889Y-85501359D01*
X222093889Y-85501359D02*
X222032154Y-85588116D01*
X222032154Y-85588116D02*
X221695793Y-85766962D01*
X222248737Y-84879706D02*
X222928434Y-85650875D01*
X222928434Y-85650875D02*
X222761278Y-84930775D01*
X222761278Y-84930775D02*
X223264795Y-85472028D01*
X223264795Y-85472028D02*
X223005549Y-84477302D01*
X224315923Y-84913134D02*
X223798049Y-84649173D01*
X223811381Y-85181403D02*
X223341910Y-84298456D01*
X223341910Y-84298456D02*
X223678271Y-84119609D01*
X223678271Y-84119609D02*
X223784717Y-84116943D01*
X223784717Y-84116943D02*
X223849118Y-84136632D01*
X223849118Y-84136632D02*
X223935874Y-84198367D01*
X223935874Y-84198367D02*
X224002942Y-84324502D01*
X224002942Y-84324502D02*
X224005608Y-84430948D01*
X224005608Y-84430948D02*
X223985919Y-84495349D01*
X223985919Y-84495349D02*
X223924184Y-84582106D01*
X223924184Y-84582106D02*
X223587823Y-84760952D01*
X198098805Y-171478088D02*
X198241662Y-171525707D01*
X198241662Y-171525707D02*
X198289281Y-171573326D01*
X198289281Y-171573326D02*
X198336900Y-171668564D01*
X198336900Y-171668564D02*
X198336900Y-171811421D01*
X198336900Y-171811421D02*
X198289281Y-171906659D01*
X198289281Y-171906659D02*
X198241662Y-171954279D01*
X198241662Y-171954279D02*
X198146424Y-172001898D01*
X198146424Y-172001898D02*
X197765472Y-172001898D01*
X197765472Y-172001898D02*
X197765472Y-171001898D01*
X197765472Y-171001898D02*
X198098805Y-171001898D01*
X198098805Y-171001898D02*
X198194043Y-171049517D01*
X198194043Y-171049517D02*
X198241662Y-171097136D01*
X198241662Y-171097136D02*
X198289281Y-171192374D01*
X198289281Y-171192374D02*
X198289281Y-171287612D01*
X198289281Y-171287612D02*
X198241662Y-171382850D01*
X198241662Y-171382850D02*
X198194043Y-171430469D01*
X198194043Y-171430469D02*
X198098805Y-171478088D01*
X198098805Y-171478088D02*
X197765472Y-171478088D01*
X198717853Y-171716183D02*
X199194043Y-171716183D01*
X198622615Y-172001898D02*
X198955948Y-171001898D01*
X198955948Y-171001898D02*
X199289281Y-172001898D01*
X199479758Y-171001898D02*
X200051186Y-171001898D01*
X199765472Y-172001898D02*
X199765472Y-171001898D01*
X204197656Y-172794688D02*
X204340513Y-172842307D01*
X204340513Y-172842307D02*
X204578608Y-172842307D01*
X204578608Y-172842307D02*
X204673846Y-172794688D01*
X204673846Y-172794688D02*
X204721465Y-172747068D01*
X204721465Y-172747068D02*
X204769084Y-172651830D01*
X204769084Y-172651830D02*
X204769084Y-172556592D01*
X204769084Y-172556592D02*
X204721465Y-172461354D01*
X204721465Y-172461354D02*
X204673846Y-172413735D01*
X204673846Y-172413735D02*
X204578608Y-172366116D01*
X204578608Y-172366116D02*
X204388132Y-172318497D01*
X204388132Y-172318497D02*
X204292894Y-172270878D01*
X204292894Y-172270878D02*
X204245275Y-172223259D01*
X204245275Y-172223259D02*
X204197656Y-172128021D01*
X204197656Y-172128021D02*
X204197656Y-172032783D01*
X204197656Y-172032783D02*
X204245275Y-171937545D01*
X204245275Y-171937545D02*
X204292894Y-171889926D01*
X204292894Y-171889926D02*
X204388132Y-171842307D01*
X204388132Y-171842307D02*
X204626227Y-171842307D01*
X204626227Y-171842307D02*
X204769084Y-171889926D01*
X205150037Y-172794688D02*
X205292894Y-172842307D01*
X205292894Y-172842307D02*
X205530989Y-172842307D01*
X205530989Y-172842307D02*
X205626227Y-172794688D01*
X205626227Y-172794688D02*
X205673846Y-172747068D01*
X205673846Y-172747068D02*
X205721465Y-172651830D01*
X205721465Y-172651830D02*
X205721465Y-172556592D01*
X205721465Y-172556592D02*
X205673846Y-172461354D01*
X205673846Y-172461354D02*
X205626227Y-172413735D01*
X205626227Y-172413735D02*
X205530989Y-172366116D01*
X205530989Y-172366116D02*
X205340513Y-172318497D01*
X205340513Y-172318497D02*
X205245275Y-172270878D01*
X205245275Y-172270878D02*
X205197656Y-172223259D01*
X205197656Y-172223259D02*
X205150037Y-172128021D01*
X205150037Y-172128021D02*
X205150037Y-172032783D01*
X205150037Y-172032783D02*
X205197656Y-171937545D01*
X205197656Y-171937545D02*
X205245275Y-171889926D01*
X205245275Y-171889926D02*
X205340513Y-171842307D01*
X205340513Y-171842307D02*
X205578608Y-171842307D01*
X205578608Y-171842307D02*
X205721465Y-171889926D01*
X206150037Y-172842307D02*
X206150037Y-171842307D01*
X206150037Y-171842307D02*
X206388132Y-171842307D01*
X206388132Y-171842307D02*
X206530989Y-171889926D01*
X206530989Y-171889926D02*
X206626227Y-171985164D01*
X206626227Y-171985164D02*
X206673846Y-172080402D01*
X206673846Y-172080402D02*
X206721465Y-172270878D01*
X206721465Y-172270878D02*
X206721465Y-172413735D01*
X206721465Y-172413735D02*
X206673846Y-172604211D01*
X206673846Y-172604211D02*
X206626227Y-172699449D01*
X206626227Y-172699449D02*
X206530989Y-172794688D01*
X206530989Y-172794688D02*
X206388132Y-172842307D01*
X206388132Y-172842307D02*
X206150037Y-172842307D01*
X207673846Y-172842307D02*
X207102418Y-172842307D01*
X207388132Y-172842307D02*
X207388132Y-171842307D01*
X207388132Y-171842307D02*
X207292894Y-171985164D01*
X207292894Y-171985164D02*
X207197656Y-172080402D01*
X207197656Y-172080402D02*
X207102418Y-172128021D01*
X208007180Y-171842307D02*
X208626227Y-171842307D01*
X208626227Y-171842307D02*
X208292894Y-172223259D01*
X208292894Y-172223259D02*
X208435751Y-172223259D01*
X208435751Y-172223259D02*
X208530989Y-172270878D01*
X208530989Y-172270878D02*
X208578608Y-172318497D01*
X208578608Y-172318497D02*
X208626227Y-172413735D01*
X208626227Y-172413735D02*
X208626227Y-172651830D01*
X208626227Y-172651830D02*
X208578608Y-172747068D01*
X208578608Y-172747068D02*
X208530989Y-172794688D01*
X208530989Y-172794688D02*
X208435751Y-172842307D01*
X208435751Y-172842307D02*
X208150037Y-172842307D01*
X208150037Y-172842307D02*
X208054799Y-172794688D01*
X208054799Y-172794688D02*
X208007180Y-172747068D01*
X209245275Y-171842307D02*
X209340513Y-171842307D01*
X209340513Y-171842307D02*
X209435751Y-171889926D01*
X209435751Y-171889926D02*
X209483370Y-171937545D01*
X209483370Y-171937545D02*
X209530989Y-172032783D01*
X209530989Y-172032783D02*
X209578608Y-172223259D01*
X209578608Y-172223259D02*
X209578608Y-172461354D01*
X209578608Y-172461354D02*
X209530989Y-172651830D01*
X209530989Y-172651830D02*
X209483370Y-172747068D01*
X209483370Y-172747068D02*
X209435751Y-172794688D01*
X209435751Y-172794688D02*
X209340513Y-172842307D01*
X209340513Y-172842307D02*
X209245275Y-172842307D01*
X209245275Y-172842307D02*
X209150037Y-172794688D01*
X209150037Y-172794688D02*
X209102418Y-172747068D01*
X209102418Y-172747068D02*
X209054799Y-172651830D01*
X209054799Y-172651830D02*
X209007180Y-172461354D01*
X209007180Y-172461354D02*
X209007180Y-172223259D01*
X209007180Y-172223259D02*
X209054799Y-172032783D01*
X209054799Y-172032783D02*
X209102418Y-171937545D01*
X209102418Y-171937545D02*
X209150037Y-171889926D01*
X209150037Y-171889926D02*
X209245275Y-171842307D01*
X210435751Y-171842307D02*
X210245275Y-171842307D01*
X210245275Y-171842307D02*
X210150037Y-171889926D01*
X210150037Y-171889926D02*
X210102418Y-171937545D01*
X210102418Y-171937545D02*
X210007180Y-172080402D01*
X210007180Y-172080402D02*
X209959561Y-172270878D01*
X209959561Y-172270878D02*
X209959561Y-172651830D01*
X209959561Y-172651830D02*
X210007180Y-172747068D01*
X210007180Y-172747068D02*
X210054799Y-172794688D01*
X210054799Y-172794688D02*
X210150037Y-172842307D01*
X210150037Y-172842307D02*
X210340513Y-172842307D01*
X210340513Y-172842307D02*
X210435751Y-172794688D01*
X210435751Y-172794688D02*
X210483370Y-172747068D01*
X210483370Y-172747068D02*
X210530989Y-172651830D01*
X210530989Y-172651830D02*
X210530989Y-172413735D01*
X210530989Y-172413735D02*
X210483370Y-172318497D01*
X210483370Y-172318497D02*
X210435751Y-172270878D01*
X210435751Y-172270878D02*
X210340513Y-172223259D01*
X210340513Y-172223259D02*
X210150037Y-172223259D01*
X210150037Y-172223259D02*
X210054799Y-172270878D01*
X210054799Y-172270878D02*
X210007180Y-172318497D01*
X210007180Y-172318497D02*
X209959561Y-172413735D01*
X211911942Y-171842307D02*
X212102418Y-171842307D01*
X212102418Y-171842307D02*
X212197656Y-171889926D01*
X212197656Y-171889926D02*
X212292894Y-171985164D01*
X212292894Y-171985164D02*
X212340513Y-172175640D01*
X212340513Y-172175640D02*
X212340513Y-172508973D01*
X212340513Y-172508973D02*
X212292894Y-172699449D01*
X212292894Y-172699449D02*
X212197656Y-172794688D01*
X212197656Y-172794688D02*
X212102418Y-172842307D01*
X212102418Y-172842307D02*
X211911942Y-172842307D01*
X211911942Y-172842307D02*
X211816704Y-172794688D01*
X211816704Y-172794688D02*
X211721466Y-172699449D01*
X211721466Y-172699449D02*
X211673847Y-172508973D01*
X211673847Y-172508973D02*
X211673847Y-172175640D01*
X211673847Y-172175640D02*
X211721466Y-171985164D01*
X211721466Y-171985164D02*
X211816704Y-171889926D01*
X211816704Y-171889926D02*
X211911942Y-171842307D01*
X213245275Y-172842307D02*
X212769085Y-172842307D01*
X212769085Y-172842307D02*
X212769085Y-171842307D01*
X213578609Y-172318497D02*
X213911942Y-172318497D01*
X214054799Y-172842307D02*
X213578609Y-172842307D01*
X213578609Y-172842307D02*
X213578609Y-171842307D01*
X213578609Y-171842307D02*
X214054799Y-171842307D01*
X214483371Y-172842307D02*
X214483371Y-171842307D01*
X214483371Y-171842307D02*
X214721466Y-171842307D01*
X214721466Y-171842307D02*
X214864323Y-171889926D01*
X214864323Y-171889926D02*
X214959561Y-171985164D01*
X214959561Y-171985164D02*
X215007180Y-172080402D01*
X215007180Y-172080402D02*
X215054799Y-172270878D01*
X215054799Y-172270878D02*
X215054799Y-172413735D01*
X215054799Y-172413735D02*
X215007180Y-172604211D01*
X215007180Y-172604211D02*
X214959561Y-172699449D01*
X214959561Y-172699449D02*
X214864323Y-172794688D01*
X214864323Y-172794688D02*
X214721466Y-172842307D01*
X214721466Y-172842307D02*
X214483371Y-172842307D01*
D11*
G36*
X198608913Y-152561437D02*
G01*
X198665725Y-152562404D01*
X198706677Y-152564226D01*
X198734362Y-152567076D01*
X198751373Y-152571127D01*
X198759963Y-152576196D01*
X198765580Y-152586068D01*
X198769683Y-152604609D01*
X198772472Y-152634539D01*
X198774145Y-152678578D01*
X198774902Y-152739447D01*
X198775000Y-152781317D01*
X198775000Y-152971394D01*
X198977632Y-152974254D01*
X199180264Y-152977114D01*
X199183122Y-153179830D01*
X199185981Y-153382546D01*
X199791017Y-153382546D01*
X200396053Y-153382546D01*
X200396053Y-153177197D01*
X200396053Y-152971849D01*
X200601316Y-152971849D01*
X200806579Y-152971849D01*
X200806579Y-152766501D01*
X200806579Y-152561153D01*
X201027632Y-152561153D01*
X201248685Y-152561153D01*
X201248685Y-152782297D01*
X201248685Y-153003441D01*
X201043421Y-153003441D01*
X200838158Y-153003441D01*
X200838158Y-153192766D01*
X200838158Y-153382091D01*
X201040790Y-153384951D01*
X201243421Y-153387811D01*
X201246275Y-153595570D01*
X201249128Y-153803329D01*
X201456801Y-153806184D01*
X201664474Y-153809038D01*
X201667332Y-154011527D01*
X201670190Y-154214016D01*
X201872595Y-154216875D01*
X202075000Y-154219735D01*
X202077714Y-154854208D01*
X202080428Y-155488682D01*
X201870680Y-155488682D01*
X201805471Y-155488371D01*
X201746823Y-155487507D01*
X201698235Y-155486187D01*
X201663208Y-155484511D01*
X201645241Y-155482577D01*
X201644282Y-155482290D01*
X201640007Y-155478803D01*
X201636521Y-155470656D01*
X201633748Y-155455904D01*
X201631608Y-155432605D01*
X201630022Y-155398817D01*
X201628911Y-155352597D01*
X201628198Y-155292001D01*
X201627802Y-155215088D01*
X201627645Y-155119914D01*
X201627632Y-155071593D01*
X201627632Y-154667288D01*
X201438158Y-154667288D01*
X201248685Y-154667288D01*
X201248685Y-155077985D01*
X201248685Y-155488682D01*
X201043421Y-155488682D01*
X200838158Y-155488682D01*
X200838158Y-155694030D01*
X200838158Y-155899378D01*
X200406579Y-155899378D01*
X199975000Y-155899378D01*
X199975000Y-155684626D01*
X199975183Y-155611127D01*
X199975866Y-155556017D01*
X199977249Y-155516626D01*
X199979534Y-155490282D01*
X199982921Y-155474316D01*
X199987613Y-155466058D01*
X199991651Y-155463481D01*
X200005632Y-155462045D01*
X200038248Y-155460720D01*
X200087081Y-155459546D01*
X200149714Y-155458559D01*
X200223729Y-155457796D01*
X200306709Y-155457295D01*
X200396236Y-155457092D01*
X200407440Y-155457089D01*
X200806579Y-155457089D01*
X200806579Y-155267537D01*
X200806579Y-155077985D01*
X199790790Y-155077985D01*
X198775000Y-155077985D01*
X198775000Y-155267537D01*
X198775000Y-155457089D01*
X199185527Y-155457089D01*
X199596053Y-155457089D01*
X199596053Y-155678234D01*
X199596053Y-155899378D01*
X199171492Y-155899378D01*
X199078933Y-155899209D01*
X198992990Y-155898728D01*
X198915929Y-155897972D01*
X198850019Y-155896976D01*
X198797527Y-155895779D01*
X198760723Y-155894417D01*
X198741875Y-155892927D01*
X198739913Y-155892358D01*
X198737710Y-155880088D01*
X198735791Y-155850162D01*
X198734271Y-155805982D01*
X198733267Y-155750952D01*
X198732895Y-155688476D01*
X198732895Y-155687009D01*
X198732895Y-155488682D01*
X198527632Y-155488682D01*
X198322369Y-155488682D01*
X198322369Y-155077985D01*
X198322369Y-154667288D01*
X197921617Y-154667288D01*
X197816404Y-154667176D01*
X197730342Y-154666792D01*
X197661534Y-154666068D01*
X197608078Y-154664935D01*
X197568076Y-154663325D01*
X197539629Y-154661169D01*
X197520836Y-154658398D01*
X197509798Y-154654943D01*
X197505827Y-154652245D01*
X197500287Y-154642524D01*
X197496218Y-154624257D01*
X197493429Y-154594758D01*
X197491728Y-154551339D01*
X197490923Y-154491316D01*
X197490790Y-154441631D01*
X197490790Y-154246061D01*
X197285527Y-154246061D01*
X197080264Y-154246061D01*
X197080264Y-153608955D01*
X197080264Y-152971849D01*
X197306579Y-152971849D01*
X197532895Y-152971849D01*
X197532895Y-153593159D01*
X197532895Y-154214469D01*
X197722369Y-154214469D01*
X197911842Y-154214469D01*
X197911842Y-154009121D01*
X197911842Y-153835365D01*
X198775000Y-153835365D01*
X198775000Y-154024917D01*
X198775000Y-154214469D01*
X198964474Y-154214469D01*
X199153948Y-154214469D01*
X199153948Y-154024917D01*
X199153948Y-153835365D01*
X200427632Y-153835365D01*
X200427632Y-154024917D01*
X200427632Y-154214469D01*
X200617106Y-154214469D01*
X200806579Y-154214469D01*
X200806579Y-154024917D01*
X200806579Y-153835365D01*
X200617106Y-153835365D01*
X200427632Y-153835365D01*
X199153948Y-153835365D01*
X198964474Y-153835365D01*
X198775000Y-153835365D01*
X197911842Y-153835365D01*
X197911842Y-153803773D01*
X198117106Y-153803773D01*
X198322369Y-153803773D01*
X198322369Y-153593159D01*
X198322369Y-153382546D01*
X198527632Y-153382546D01*
X198732895Y-153382546D01*
X198732895Y-153198259D01*
X198732895Y-153013972D01*
X198542670Y-153013972D01*
X198471316Y-153013636D01*
X198418289Y-153012495D01*
X198380871Y-153010351D01*
X198356345Y-153007005D01*
X198341994Y-153002256D01*
X198337406Y-152998928D01*
X198332070Y-152989598D01*
X198328095Y-152972035D01*
X198325310Y-152943643D01*
X198323542Y-152901830D01*
X198322619Y-152844000D01*
X198322369Y-152772518D01*
X198322369Y-152561153D01*
X198533647Y-152561153D01*
X198608913Y-152561437D01*
G37*
D12*
X219455630Y-85559185D02*
X218934516Y-84579111D01*
X219755482Y-82885441D02*
X220819435Y-82319730D01*
X220012063Y-83367998D02*
X219755482Y-82885441D01*
X220126669Y-85202384D02*
X219455630Y-85559185D01*
X220797710Y-84845585D02*
X220541131Y-84363027D01*
X220797710Y-84845585D02*
X221861661Y-84279871D01*
X221196171Y-83028269D02*
X220819435Y-82319730D01*
X221861661Y-84279871D02*
X221484925Y-83571333D01*
X122712189Y-124429412D02*
X123932817Y-122133747D01*
X124871761Y-120367853D02*
X126092387Y-118072189D01*
X126332276Y-126354245D02*
X122712189Y-124429412D01*
X127031330Y-116306294D02*
X128251957Y-114010631D01*
X128251957Y-114010631D02*
X131872040Y-115935465D01*
X129911014Y-128143838D02*
X133531099Y-130068670D01*
X130633318Y-122525271D02*
X131102789Y-121642325D01*
X131309527Y-122318532D02*
X130426580Y-121849062D01*
X133531099Y-130068670D02*
X139023916Y-119738183D01*
X135300443Y-129084078D02*
X135706168Y-128960033D01*
X135403832Y-117813350D02*
X139023916Y-119738183D01*
X135706168Y-128960033D02*
X135830212Y-129365762D01*
X135830212Y-129365762D02*
X135300443Y-129084078D01*
X133868056Y-122083797D02*
G75*
G02*
X127868054Y-122083797I-3000001J0D01*
G01*
X127868054Y-122083797D02*
G75*
G02*
X133868056Y-122083797I3000001J0D01*
G01*
X271895496Y-122054953D02*
X272425262Y-121773270D01*
X272301220Y-122178994D02*
X271895496Y-122054953D01*
X272425262Y-121773270D02*
X272301220Y-122178994D01*
X272598404Y-119755841D02*
X278091221Y-130086328D01*
X276218490Y-117831007D02*
X272598404Y-119755841D01*
X279703332Y-115864827D02*
X283323419Y-113939992D01*
X280265847Y-122247897D02*
X281148792Y-121778425D01*
X280472584Y-121571687D02*
X280942054Y-122454634D01*
X281711306Y-128161495D02*
X278091221Y-130086328D01*
X283323419Y-113939992D02*
X284544045Y-116235658D01*
X285482987Y-118001551D02*
X286703613Y-120297218D01*
X287642555Y-122063113D02*
X288863182Y-124358775D01*
X288863182Y-124358775D02*
X285243097Y-126283607D01*
X283707319Y-122013160D02*
G75*
G02*
X277707317Y-122013160I-3000001J0D01*
G01*
X277707317Y-122013160D02*
G75*
G02*
X283707319Y-122013160I3000001J0D01*
G01*
X195946463Y-161361683D02*
X195946463Y-162361683D01*
X195946464Y-169181685D02*
X195946463Y-168181683D01*
X196866460Y-169181684D02*
X195946464Y-169181685D01*
X196946463Y-161361683D02*
X195946463Y-161361683D01*
D13*
X197506462Y-170221684D02*
X198506462Y-170221681D01*
X200006464Y-169721682D02*
X200006463Y-170721684D01*
X200506464Y-170221684D02*
X199506464Y-170221681D01*
D12*
X201146461Y-169181684D02*
X202066460Y-169181684D01*
X201146463Y-161361683D02*
X202066463Y-161361683D01*
X202066460Y-169181684D02*
X202066463Y-168181683D01*
X202066463Y-161361683D02*
X202066463Y-162361683D01*
X226721900Y-70812486D02*
X232403195Y-65468058D01*
X229243374Y-73492891D02*
X226721900Y-70812486D01*
X230870001Y-72813927D02*
X234147667Y-69730604D01*
X234924668Y-68148463D02*
X232403195Y-65468058D01*
D14*
X203831464Y-169071687D02*
X203831467Y-168391685D01*
X203831468Y-164071684D02*
X203831464Y-164751686D01*
X203831468Y-164071684D02*
X205986466Y-164071685D01*
X213626466Y-164071686D02*
X215781468Y-164071685D01*
X215781464Y-169071688D02*
X203831464Y-169071687D01*
X215781468Y-164071685D02*
X215781465Y-164751687D01*
X215781468Y-168391686D02*
X215781464Y-169071688D01*
D15*
X212906465Y-160921685D02*
G75*
G02*
X212706467Y-160921685I-99999J0D01*
G01*
X212706467Y-160921685D02*
G75*
G02*
X212906465Y-160921685I99999J0D01*
G01*
D11*
G36*
X205364399Y-87918910D02*
G01*
X205430144Y-87976725D01*
X205437393Y-88038955D01*
X205390874Y-88127899D01*
X205308380Y-88149405D01*
X205223502Y-88098068D01*
X205207520Y-88075946D01*
X205135032Y-88012516D01*
X205077098Y-88006020D01*
X205059418Y-88002117D01*
X205113087Y-87963979D01*
X205124562Y-87957181D01*
X205254395Y-87910266D01*
X205364399Y-87918910D01*
G37*
G36*
X209230622Y-82783766D02*
G01*
X209406627Y-82790378D01*
X209539044Y-82800904D01*
X209594490Y-82810865D01*
X209927592Y-82919547D01*
X210193431Y-83018756D01*
X210385736Y-83105725D01*
X210498248Y-83177689D01*
X210526598Y-83222426D01*
X210564365Y-83262811D01*
X210596505Y-83267944D01*
X210658527Y-83293111D01*
X210666415Y-83314549D01*
X210702284Y-83359309D01*
X210716112Y-83361156D01*
X210779224Y-83394616D01*
X210885977Y-83484175D01*
X211021229Y-83613599D01*
X211169828Y-83766651D01*
X211316633Y-83927100D01*
X211446494Y-84078703D01*
X211544266Y-84205234D01*
X211594804Y-84290454D01*
X211598535Y-84306986D01*
X211554873Y-84309778D01*
X211435583Y-84310516D01*
X211258227Y-84309253D01*
X211040362Y-84306029D01*
X211010606Y-84305479D01*
X210782780Y-84303760D01*
X210587248Y-84307106D01*
X210443737Y-84314843D01*
X210371959Y-84326292D01*
X210369767Y-84327434D01*
X210280360Y-84362542D01*
X210225231Y-84374723D01*
X210115085Y-84411320D01*
X210028797Y-84457631D01*
X209923232Y-84510025D01*
X209852000Y-84526294D01*
X209768972Y-84559239D01*
X209700188Y-84619503D01*
X209616823Y-84690266D01*
X209555467Y-84712714D01*
X209520947Y-84729030D01*
X209542463Y-84790028D01*
X209573709Y-84840881D01*
X209665439Y-84961313D01*
X209790630Y-85099133D01*
X209929971Y-85236197D01*
X210064161Y-85354365D01*
X210173897Y-85435489D01*
X210234315Y-85461809D01*
X210329764Y-85486467D01*
X210444351Y-85541339D01*
X210544465Y-85607015D01*
X210596494Y-85664082D01*
X210598156Y-85671915D01*
X210620236Y-85741976D01*
X210658951Y-85821269D01*
X210696963Y-85969837D01*
X210679994Y-86141534D01*
X210612835Y-86287954D01*
X210612727Y-86288090D01*
X210523244Y-86395567D01*
X210435095Y-86488422D01*
X210367630Y-86547767D01*
X210340184Y-86554715D01*
X210340177Y-86554281D01*
X210312135Y-86546950D01*
X210281918Y-86566429D01*
X210206977Y-86589380D01*
X210072423Y-86602288D01*
X209911362Y-86604675D01*
X209756902Y-86596065D01*
X209642150Y-86575985D01*
X209641093Y-86575655D01*
X209586724Y-86584417D01*
X209582837Y-86611889D01*
X209565384Y-86665354D01*
X209547881Y-86670146D01*
X209506535Y-86707894D01*
X209501277Y-86740054D01*
X209476110Y-86802075D01*
X209454670Y-86809961D01*
X209411790Y-86846992D01*
X209408068Y-86870727D01*
X209376834Y-86934493D01*
X209300523Y-87029514D01*
X209205194Y-87128464D01*
X209116914Y-87204003D01*
X209066008Y-87229413D01*
X209010065Y-87258100D01*
X208933004Y-87321010D01*
X208850251Y-87379341D01*
X208795135Y-87388169D01*
X208757276Y-87392736D01*
X208755589Y-87403035D01*
X208719940Y-87446600D01*
X208635349Y-87511333D01*
X208535352Y-87574970D01*
X208453483Y-87615250D01*
X208429350Y-87619604D01*
X208383676Y-87646396D01*
X208324487Y-87702125D01*
X208273835Y-87765908D01*
X208271936Y-87788679D01*
X208273514Y-87816927D01*
X208252981Y-87846935D01*
X208209531Y-87954498D01*
X208195009Y-88110528D01*
X208210724Y-88274473D01*
X208236352Y-88362629D01*
X208275433Y-88474569D01*
X208291639Y-88549052D01*
X208310064Y-88609133D01*
X208354052Y-88708453D01*
X208410338Y-88821383D01*
X208465643Y-88922295D01*
X208506695Y-88985563D01*
X208520455Y-88990858D01*
X208561558Y-88991227D01*
X208670026Y-89019890D01*
X208826652Y-89070603D01*
X209012230Y-89137115D01*
X209207551Y-89213181D01*
X209221644Y-89218925D01*
X209325198Y-89253217D01*
X209355532Y-89260508D01*
X209444102Y-89287230D01*
X209546722Y-89326179D01*
X209673935Y-89378872D01*
X209475294Y-89574142D01*
X209317992Y-89725778D01*
X209210431Y-89820767D01*
X209138478Y-89870368D01*
X209088010Y-89885824D01*
X209083795Y-89885928D01*
X209036928Y-89917574D01*
X209035222Y-89928828D01*
X208995124Y-89968023D01*
X208899660Y-90001504D01*
X208821928Y-90025976D01*
X208777723Y-90072628D01*
X208753301Y-90166602D01*
X208738409Y-90296492D01*
X208731437Y-90410500D01*
X208724261Y-90603394D01*
X208717219Y-90860851D01*
X208710641Y-91168548D01*
X208704863Y-91512160D01*
X208700217Y-91877368D01*
X208699201Y-91977913D01*
X208695580Y-92378416D01*
X208693590Y-92695836D01*
X208693777Y-92940294D01*
X208696695Y-93121915D01*
X208702886Y-93250818D01*
X208712911Y-93337131D01*
X208727307Y-93390966D01*
X208746632Y-93422450D01*
X208771434Y-93441710D01*
X208778891Y-93445987D01*
X208867098Y-93510168D01*
X208970117Y-93604907D01*
X209062951Y-93704468D01*
X209120600Y-93783113D01*
X209128433Y-93805853D01*
X209157731Y-93863873D01*
X209195906Y-93908209D01*
X209266870Y-94017526D01*
X209337516Y-94189072D01*
X209398544Y-94392298D01*
X209440648Y-94596652D01*
X209454671Y-94757843D01*
X209443543Y-94923248D01*
X209399868Y-95042129D01*
X209322478Y-95143809D01*
X209236723Y-95228959D01*
X209176975Y-95268454D01*
X209165661Y-95267253D01*
X209122280Y-95281717D01*
X209046778Y-95348899D01*
X209029873Y-95367268D01*
X208924460Y-95482204D01*
X208799756Y-95613928D01*
X208767320Y-95647464D01*
X208696414Y-95725332D01*
X208650604Y-95798674D01*
X208622897Y-95891559D01*
X208606285Y-96028060D01*
X208593768Y-96232245D01*
X208593019Y-96246676D01*
X208586858Y-96436934D01*
X208588987Y-96586383D01*
X208598739Y-96674871D01*
X208607784Y-96690329D01*
X208670330Y-96677956D01*
X208791220Y-96646117D01*
X208892347Y-96617012D01*
X209074558Y-96580366D01*
X209315431Y-96556099D01*
X209588818Y-96544283D01*
X209868562Y-96544979D01*
X210128516Y-96558253D01*
X210342529Y-96584180D01*
X210460011Y-96612967D01*
X210874875Y-96791421D01*
X211225514Y-97015136D01*
X211536606Y-97301359D01*
X211677554Y-97464076D01*
X211828570Y-97654882D01*
X211927602Y-97797189D01*
X211985167Y-97911650D01*
X212011780Y-98018915D01*
X212017974Y-98132651D01*
X211996655Y-98275898D01*
X211926680Y-98392668D01*
X211799016Y-98487946D01*
X211604631Y-98566713D01*
X211334495Y-98633960D01*
X211007027Y-98690577D01*
X210856637Y-98707458D01*
X210659902Y-98721548D01*
X210436998Y-98732379D01*
X210208103Y-98739480D01*
X209993392Y-98742377D01*
X209813045Y-98740602D01*
X209687238Y-98733682D01*
X209637208Y-98722564D01*
X209583421Y-98706057D01*
X209469115Y-98685145D01*
X209399907Y-98675124D01*
X209214989Y-98636707D01*
X208990084Y-98569830D01*
X208751766Y-98484661D01*
X208526606Y-98391370D01*
X208341181Y-98300130D01*
X208228748Y-98226922D01*
X208084444Y-98108800D01*
X207987758Y-98042044D01*
X207917396Y-98015263D01*
X207852057Y-98017067D01*
X207840454Y-98019287D01*
X207725056Y-98044500D01*
X207591926Y-98075541D01*
X207483801Y-98102301D01*
X207450634Y-98111482D01*
X207394859Y-98122140D01*
X207278120Y-98141323D01*
X207194303Y-98154370D01*
X207031992Y-98179629D01*
X206889991Y-98202482D01*
X206844761Y-98210077D01*
X206585532Y-98241051D01*
X206270745Y-98257952D01*
X205937071Y-98260235D01*
X205621177Y-98247351D01*
X205446597Y-98231050D01*
X205098237Y-98178172D01*
X204808665Y-98107867D01*
X204543802Y-98010686D01*
X204384934Y-97936723D01*
X204263569Y-97868996D01*
X204209346Y-97809585D01*
X204202459Y-97733218D01*
X204205862Y-97708199D01*
X204211183Y-97690298D01*
X204436812Y-97690298D01*
X204455194Y-97738561D01*
X204471892Y-97736476D01*
X204528010Y-97747849D01*
X204580640Y-97788459D01*
X204637378Y-97833429D01*
X204654305Y-97829788D01*
X204683078Y-97827560D01*
X204724212Y-97855467D01*
X204780575Y-97888005D01*
X204794121Y-97878770D01*
X204822327Y-97873203D01*
X204856666Y-97895962D01*
X204924090Y-97926065D01*
X204948750Y-97918330D01*
X205005195Y-97916156D01*
X205037673Y-97934641D01*
X205103584Y-97951762D01*
X205244345Y-97967630D01*
X205441595Y-97980818D01*
X205676971Y-97989889D01*
X205772836Y-97991964D01*
X206013272Y-97996981D01*
X206218078Y-98003033D01*
X206370390Y-98009480D01*
X206453344Y-98015688D01*
X206463410Y-98018037D01*
X206513478Y-98017081D01*
X206615522Y-97995149D01*
X206626530Y-97992198D01*
X206760679Y-97963666D01*
X206868066Y-97952968D01*
X206974444Y-97946392D01*
X207118033Y-97928614D01*
X207147699Y-97924004D01*
X207300514Y-97900142D01*
X207434179Y-97880653D01*
X207450634Y-97878434D01*
X207547885Y-97862806D01*
X207590453Y-97852155D01*
X207653294Y-97835145D01*
X207660359Y-97833957D01*
X207738664Y-97814234D01*
X207811827Y-97791310D01*
X207849329Y-97775908D01*
X207876619Y-97749892D01*
X207895321Y-97699929D01*
X207907055Y-97612681D01*
X207913445Y-97474818D01*
X207916114Y-97273003D01*
X207916684Y-96993903D01*
X207916689Y-96929575D01*
X207916689Y-96103176D01*
X207753570Y-96122218D01*
X207590452Y-96141261D01*
X207590451Y-96467690D01*
X207590451Y-96794120D01*
X207450635Y-96773599D01*
X207342802Y-96769678D01*
X207320334Y-96801382D01*
X207382921Y-96867583D01*
X207497240Y-96946660D01*
X207629888Y-97042031D01*
X207681065Y-97108050D01*
X207648830Y-97141707D01*
X207625404Y-97144866D01*
X207547807Y-97154154D01*
X207415483Y-97173306D01*
X207334121Y-97185943D01*
X207201220Y-97199658D01*
X206999949Y-97211330D01*
X206755138Y-97219902D01*
X206491623Y-97224318D01*
X206425313Y-97224648D01*
X206154601Y-97224048D01*
X205959113Y-97219340D01*
X205820881Y-97208452D01*
X205721942Y-97189317D01*
X205644330Y-97159866D01*
X205586414Y-97128023D01*
X205486894Y-97054725D01*
X205436512Y-96991038D01*
X205434946Y-96976555D01*
X205415690Y-96926799D01*
X205399993Y-96923356D01*
X205364651Y-96883558D01*
X205353387Y-96809593D01*
X205336204Y-96710911D01*
X205306781Y-96667027D01*
X205263903Y-96672269D01*
X205260176Y-96690329D01*
X205231786Y-96720721D01*
X205213569Y-96713632D01*
X205170624Y-96717327D01*
X205166966Y-96734184D01*
X205136992Y-96781685D01*
X205125843Y-96783539D01*
X205076968Y-96813462D01*
X204988028Y-96888305D01*
X204882651Y-96985688D01*
X204784461Y-97083224D01*
X204717084Y-97158535D01*
X204700910Y-97186096D01*
X204678274Y-97233134D01*
X204621012Y-97330551D01*
X204587044Y-97385218D01*
X204524951Y-97498067D01*
X204498365Y-97576866D01*
X204501600Y-97594017D01*
X204496386Y-97621054D01*
X204483416Y-97622439D01*
X204441730Y-97660040D01*
X204436812Y-97690298D01*
X204211183Y-97690298D01*
X204253932Y-97546473D01*
X204345997Y-97343790D01*
X204465874Y-97130368D01*
X204597374Y-96936426D01*
X204662020Y-96856666D01*
X204803294Y-96725975D01*
X204892031Y-96662686D01*
X205560036Y-96662686D01*
X205563175Y-96816769D01*
X205647621Y-96940087D01*
X205785564Y-97011310D01*
X205901153Y-97030402D01*
X206084185Y-97045015D01*
X206308978Y-97054705D01*
X206549848Y-97059020D01*
X206781117Y-97057524D01*
X206977102Y-97049768D01*
X207112121Y-97035305D01*
X207116811Y-97034397D01*
X207260695Y-97005620D01*
X207159081Y-96829066D01*
X207086483Y-96721705D01*
X207003115Y-96658240D01*
X206874770Y-96616772D01*
X206803528Y-96601512D01*
X206643401Y-96579172D01*
X206425890Y-96561803D01*
X206186775Y-96551894D01*
X206068887Y-96550513D01*
X205853007Y-96551448D01*
X205712580Y-96556856D01*
X205629836Y-96570658D01*
X205587025Y-96596768D01*
X205566377Y-96639099D01*
X205560036Y-96662686D01*
X204892031Y-96662686D01*
X204992021Y-96591367D01*
X205148748Y-96501226D01*
X205281752Y-96435519D01*
X205391181Y-96390474D01*
X205500097Y-96361880D01*
X205631556Y-96345527D01*
X205808612Y-96337210D01*
X206054328Y-96332713D01*
X206073141Y-96332453D01*
X206374321Y-96332416D01*
X206608965Y-96343215D01*
X206803339Y-96367103D01*
X206983732Y-96406343D01*
X207007883Y-96412786D01*
X207167746Y-96456079D01*
X207286826Y-96488032D01*
X207341942Y-96502429D01*
X207343158Y-96502682D01*
X207344597Y-96458580D01*
X207343794Y-96334074D01*
X207340959Y-96141949D01*
X207340227Y-96103175D01*
X208056506Y-96103175D01*
X208057987Y-96944367D01*
X208059190Y-97259072D01*
X208064061Y-97494664D01*
X208076414Y-97665247D01*
X208100055Y-97784925D01*
X208138791Y-97867791D01*
X208196431Y-97927953D01*
X208276779Y-97979508D01*
X208347789Y-98017613D01*
X208455589Y-98082712D01*
X208517078Y-98135940D01*
X208522562Y-98148451D01*
X208551743Y-98166345D01*
X208569166Y-98158402D01*
X208611578Y-98165700D01*
X208615771Y-98186723D01*
X208633122Y-98221432D01*
X208645203Y-98214416D01*
X208703397Y-98211442D01*
X208773368Y-98239361D01*
X208876468Y-98286716D01*
X208933999Y-98304041D01*
X209030298Y-98331325D01*
X209073814Y-98348402D01*
X209184783Y-98384452D01*
X209256990Y-98400243D01*
X209389991Y-98432677D01*
X209466717Y-98458335D01*
X209542381Y-98469090D01*
X209691660Y-98476477D01*
X209895014Y-98480622D01*
X210132908Y-98481647D01*
X210385808Y-98479680D01*
X210634177Y-98474839D01*
X210858482Y-98467258D01*
X211039188Y-98457053D01*
X211134823Y-98447691D01*
X211244318Y-98424429D01*
X211301948Y-98401902D01*
X211378783Y-98378213D01*
X211499953Y-98361122D01*
X211509319Y-98360387D01*
X211639994Y-98331739D01*
X211736589Y-98278593D01*
X211738882Y-98276314D01*
X211800311Y-98153208D01*
X211794294Y-98006684D01*
X211728300Y-97883364D01*
X211676078Y-97804022D01*
X211671352Y-97757537D01*
X211654439Y-97710139D01*
X211600293Y-97669992D01*
X211531133Y-97617759D01*
X211517429Y-97585172D01*
X211495137Y-97529409D01*
X211424036Y-97439514D01*
X211327327Y-97340540D01*
X211228211Y-97257541D01*
X211192136Y-97233875D01*
X211000028Y-97125604D01*
X210835506Y-97038975D01*
X210712976Y-96980972D01*
X210646848Y-96958578D01*
X210641152Y-96966792D01*
X210640361Y-97011979D01*
X210622559Y-97016568D01*
X210575446Y-97052548D01*
X210573201Y-97067779D01*
X210540649Y-97129566D01*
X210461891Y-97219735D01*
X210365299Y-97310732D01*
X210279240Y-97375009D01*
X210242037Y-97389413D01*
X210201929Y-97425371D01*
X210200360Y-97438768D01*
X210172390Y-97467814D01*
X210157733Y-97461779D01*
X210107516Y-97471476D01*
X210096202Y-97492153D01*
X210043867Y-97520111D01*
X209924678Y-97542280D01*
X209764869Y-97557566D01*
X209590679Y-97564877D01*
X209428343Y-97563117D01*
X209304104Y-97551191D01*
X209244193Y-97528002D01*
X209244009Y-97527717D01*
X209188117Y-97501623D01*
X209171818Y-97507916D01*
X209098218Y-97511007D01*
X209070175Y-97498374D01*
X208973575Y-97459183D01*
X208927877Y-97448931D01*
X208830312Y-97418552D01*
X208705801Y-97362195D01*
X208694850Y-97356441D01*
X208587484Y-97306320D01*
X208516690Y-97286045D01*
X208510910Y-97286619D01*
X208479186Y-97259023D01*
X208476311Y-97236552D01*
X208798219Y-97236552D01*
X209044886Y-97311501D01*
X209287635Y-97359957D01*
X209575233Y-97377257D01*
X209644499Y-97376280D01*
X209848034Y-97364495D01*
X209992175Y-97337738D01*
X210110499Y-97287790D01*
X210180469Y-97244990D01*
X210301493Y-97147441D01*
X210402079Y-97036107D01*
X210465888Y-96933206D01*
X210476567Y-96860961D01*
X210470069Y-96851293D01*
X210399946Y-96823115D01*
X210261225Y-96795624D01*
X210078500Y-96771502D01*
X209876365Y-96753430D01*
X209679412Y-96744087D01*
X209512236Y-96746159D01*
X209508146Y-96746412D01*
X209330055Y-96764000D01*
X209222785Y-96793207D01*
X209164065Y-96840893D01*
X209155088Y-96855192D01*
X209090578Y-96942625D01*
X208989337Y-97053606D01*
X208951675Y-97090613D01*
X208798219Y-97236552D01*
X208476311Y-97236552D01*
X208475955Y-97233774D01*
X208513616Y-97176225D01*
X208601099Y-97111779D01*
X208700160Y-97064084D01*
X208765849Y-97054574D01*
X208811249Y-97025084D01*
X208848928Y-96969725D01*
X208873578Y-96906629D01*
X208839130Y-96887134D01*
X208756924Y-96892696D01*
X208646815Y-96913005D01*
X208584517Y-96939077D01*
X208518236Y-96963163D01*
X208441386Y-96969963D01*
X208329141Y-96969962D01*
X208361506Y-96556261D01*
X208393868Y-96142560D01*
X208225187Y-96122866D01*
X208056506Y-96103175D01*
X207340227Y-96103175D01*
X207337234Y-95944642D01*
X207336299Y-95894978D01*
X207330022Y-95605936D01*
X207329765Y-95595100D01*
X207543844Y-95595100D01*
X207543845Y-95944641D01*
X207680911Y-95944641D01*
X207790219Y-95927956D01*
X207851232Y-95890835D01*
X207855388Y-95867481D01*
X208064256Y-95867481D01*
X208117335Y-95919407D01*
X208227366Y-95944233D01*
X208245679Y-95944640D01*
X208351366Y-95924972D01*
X208382745Y-95880166D01*
X208343149Y-95827745D01*
X208252092Y-95791317D01*
X208151172Y-95781521D01*
X208086200Y-95804349D01*
X208064256Y-95867481D01*
X207855388Y-95867481D01*
X207855388Y-95867480D01*
X207856883Y-95859077D01*
X207828639Y-95871546D01*
X207751475Y-95873874D01*
X207700010Y-95845658D01*
X207658930Y-95788991D01*
X207645110Y-95694734D01*
X207655314Y-95537598D01*
X207657760Y-95515407D01*
X207671304Y-95361419D01*
X207665391Y-95279031D01*
X207636908Y-95248078D01*
X207616068Y-95245559D01*
X207578211Y-95262210D01*
X207555976Y-95323773D01*
X207545770Y-95447659D01*
X207543844Y-95595100D01*
X207329765Y-95595100D01*
X207325065Y-95397026D01*
X207314271Y-95016439D01*
X207310750Y-94928953D01*
X207516625Y-94928953D01*
X207557898Y-95029285D01*
X207613754Y-95062389D01*
X207712156Y-95059430D01*
X207754368Y-94995276D01*
X207744272Y-94935198D01*
X207700287Y-94878345D01*
X207682488Y-94872714D01*
X207608380Y-94857558D01*
X207578693Y-94847393D01*
X207527252Y-94857238D01*
X207516625Y-94928953D01*
X207310750Y-94928953D01*
X207302408Y-94721705D01*
X207288924Y-94505459D01*
X207279644Y-94419430D01*
X207503017Y-94419430D01*
X207520156Y-94556481D01*
X207526615Y-94581430D01*
X207584352Y-94660260D01*
X207676065Y-94687510D01*
X207762398Y-94658615D01*
X207795189Y-94612573D01*
X207812775Y-94521740D01*
X207822678Y-94383274D01*
X207823478Y-94332512D01*
X207823478Y-94126172D01*
X207660936Y-94231461D01*
X207545283Y-94323234D01*
X207503017Y-94419430D01*
X207279644Y-94419430D01*
X207279644Y-94419429D01*
X207273268Y-94360343D01*
X207254892Y-94278997D01*
X207239669Y-94255788D01*
X207169800Y-94165871D01*
X207148642Y-94028729D01*
X207161666Y-93966356D01*
X207161666Y-93966355D01*
X207326225Y-93966355D01*
X207340955Y-94072263D01*
X207424974Y-94123495D01*
X207467646Y-94127028D01*
X207574732Y-94087946D01*
X207702689Y-93982628D01*
X207832230Y-93828955D01*
X207899489Y-93726421D01*
X207930064Y-93690143D01*
X207952581Y-93712924D01*
X207972932Y-93807438D01*
X207988304Y-93917302D01*
X207998308Y-94014652D01*
X208002176Y-94118476D01*
X207998751Y-94241143D01*
X207986866Y-94395021D01*
X207965363Y-94592476D01*
X207933084Y-94845880D01*
X207888864Y-95167599D01*
X207836309Y-95536843D01*
X207828083Y-95648502D01*
X207838886Y-95708394D01*
X207844850Y-95711614D01*
X207899744Y-95686815D01*
X208000799Y-95623892D01*
X208059712Y-95583447D01*
X208200556Y-95467416D01*
X208298660Y-95339294D01*
X208360947Y-95179975D01*
X208394347Y-94970353D01*
X208405785Y-94691318D01*
X208406047Y-94628025D01*
X208411347Y-94387370D01*
X208426113Y-94227752D01*
X208448659Y-94151646D01*
X208477289Y-94161533D01*
X208510315Y-94259897D01*
X208542656Y-94427742D01*
X208560383Y-94676391D01*
X208542500Y-94938725D01*
X208493872Y-95184133D01*
X208419381Y-95381994D01*
X208380781Y-95444607D01*
X208315436Y-95565649D01*
X208325285Y-95637586D01*
X208401963Y-95652635D01*
X208537115Y-95603004D01*
X208545875Y-95598354D01*
X208717168Y-95455429D01*
X208830911Y-95249026D01*
X208884990Y-94990587D01*
X208877303Y-94691560D01*
X208805734Y-94363393D01*
X208785163Y-94299930D01*
X208733168Y-94124408D01*
X208713674Y-94006129D01*
X208725591Y-93953516D01*
X208767833Y-93974989D01*
X208818255Y-94043981D01*
X208925504Y-94283464D01*
X208999934Y-94606258D01*
X209028754Y-94842517D01*
X209058524Y-95175651D01*
X209163388Y-95070788D01*
X209226733Y-94987307D01*
X209258667Y-94879403D01*
X209268182Y-94714734D01*
X209268248Y-94693737D01*
X209222775Y-94370183D01*
X209090811Y-94060596D01*
X208879047Y-93776412D01*
X208594167Y-93529077D01*
X208582847Y-93521153D01*
X208559792Y-93502047D01*
X208539634Y-93473940D01*
X208521490Y-93428989D01*
X208504477Y-93359336D01*
X208487713Y-93257127D01*
X208470310Y-93114514D01*
X208451393Y-92923637D01*
X208430074Y-92676649D01*
X208405468Y-92365696D01*
X208376693Y-91982926D01*
X208342863Y-91520482D01*
X208315921Y-91148111D01*
X208282794Y-90694407D01*
X208259543Y-90383052D01*
X208259543Y-90383051D01*
X208429350Y-90383051D01*
X208433221Y-90524071D01*
X208444651Y-90572293D01*
X208463369Y-90527798D01*
X208489107Y-90390669D01*
X208493324Y-90363633D01*
X208503641Y-90230786D01*
X208485492Y-90168393D01*
X208476505Y-90165559D01*
X208448810Y-90207303D01*
X208431851Y-90313320D01*
X208429350Y-90383051D01*
X208259543Y-90383051D01*
X208251066Y-90269539D01*
X208221453Y-89882450D01*
X208194675Y-89542089D01*
X208182012Y-89386907D01*
X208384015Y-89386907D01*
X208390537Y-89576143D01*
X208399746Y-89766487D01*
X208411846Y-89879526D01*
X208431242Y-89931155D01*
X208462344Y-89937269D01*
X208487608Y-89926158D01*
X208553390Y-89903649D01*
X208569166Y-89913295D01*
X208597557Y-89915376D01*
X208631712Y-89892037D01*
X208699670Y-89862473D01*
X208724923Y-89870794D01*
X208752836Y-89865170D01*
X208755590Y-89844337D01*
X208782928Y-89809250D01*
X208802195Y-89816016D01*
X208844604Y-89808721D01*
X208848800Y-89787697D01*
X208865554Y-89752335D01*
X208877111Y-89758886D01*
X208925821Y-89749456D01*
X209009667Y-89689940D01*
X209028102Y-89673441D01*
X209125525Y-89597226D01*
X209202602Y-89560328D01*
X209209517Y-89559688D01*
X209263864Y-89540418D01*
X209238091Y-89480045D01*
X209198341Y-89436515D01*
X209143447Y-89392863D01*
X209128434Y-89395990D01*
X209097622Y-89402656D01*
X209070177Y-89389016D01*
X208971372Y-89348583D01*
X208936717Y-89340921D01*
X208840115Y-89315159D01*
X208726988Y-89274030D01*
X208591404Y-89227174D01*
X208483747Y-89200746D01*
X208431130Y-89195469D01*
X208399885Y-89212984D01*
X208385642Y-89270918D01*
X208384015Y-89386907D01*
X208182012Y-89386907D01*
X208171446Y-89257402D01*
X208152489Y-89037335D01*
X208138517Y-88890836D01*
X208130254Y-88826850D01*
X208129467Y-88824818D01*
X208078462Y-88826836D01*
X208052367Y-88839860D01*
X208038959Y-88868332D01*
X208028269Y-88939676D01*
X208020217Y-89060206D01*
X208014715Y-89236251D01*
X208011691Y-89474124D01*
X208011054Y-89780144D01*
X208012726Y-90160632D01*
X208016624Y-90621908D01*
X208022401Y-91148003D01*
X208049381Y-93420954D01*
X207867892Y-93451616D01*
X207645367Y-93527635D01*
X207472545Y-93676909D01*
X207382977Y-93813858D01*
X207326225Y-93966355D01*
X207161666Y-93966355D01*
X207179951Y-93878790D01*
X207195018Y-93846014D01*
X207217652Y-93790781D01*
X207234270Y-93716849D01*
X207245269Y-93612357D01*
X207251033Y-93465450D01*
X207251958Y-93264272D01*
X207248433Y-92996962D01*
X207240849Y-92651664D01*
X207238072Y-92540162D01*
X207223431Y-91989501D01*
X207209437Y-91525297D01*
X207195649Y-91140802D01*
X207181612Y-90829269D01*
X207166885Y-90583948D01*
X207151018Y-90398094D01*
X207133569Y-90264956D01*
X207121770Y-90212164D01*
X207121770Y-90212163D01*
X207394927Y-90212163D01*
X207423597Y-91225834D01*
X207433841Y-91568972D01*
X207445328Y-91922209D01*
X207457171Y-92260197D01*
X207468476Y-92557582D01*
X207478357Y-92789012D01*
X207479007Y-92802811D01*
X207505750Y-93366118D01*
X207687916Y-93317494D01*
X207870084Y-93268872D01*
X207870083Y-91740518D01*
X207870084Y-90212164D01*
X207632505Y-90212163D01*
X207394927Y-90212163D01*
X207121770Y-90212163D01*
X207114088Y-90177787D01*
X207092130Y-90129841D01*
X207077790Y-90117195D01*
X206982385Y-90071118D01*
X206891368Y-90028443D01*
X206665282Y-89913045D01*
X206511533Y-89807225D01*
X206452510Y-89750413D01*
X206400822Y-89683524D01*
X206406809Y-89631824D01*
X206423681Y-89614015D01*
X206758367Y-89614015D01*
X206763372Y-89682363D01*
X206802140Y-89750936D01*
X206858420Y-89782374D01*
X206930452Y-89800443D01*
X207057986Y-89841716D01*
X207171001Y-89881831D01*
X207353304Y-89935987D01*
X207537544Y-89970807D01*
X207625405Y-89977615D01*
X207823478Y-89979136D01*
X207823478Y-89652898D01*
X207822058Y-89482530D01*
X207812469Y-89384994D01*
X207786722Y-89339910D01*
X207736825Y-89326897D01*
X207695312Y-89326022D01*
X207519986Y-89310007D01*
X207401483Y-89268106D01*
X207357428Y-89206580D01*
X207357423Y-89205863D01*
X207377936Y-89166572D01*
X207453262Y-89179366D01*
X207476971Y-89187997D01*
X207613478Y-89223553D01*
X207709999Y-89233449D01*
X207773425Y-89226953D01*
X207807380Y-89192747D01*
X207821016Y-89108758D01*
X207823478Y-88959641D01*
X207825742Y-88806372D01*
X207840730Y-88721604D01*
X207880740Y-88680629D01*
X207958071Y-88658737D01*
X207974946Y-88655311D01*
X208069632Y-88627491D01*
X208077923Y-88596864D01*
X208062187Y-88584786D01*
X208020200Y-88527948D01*
X208025181Y-88500739D01*
X208014028Y-88462256D01*
X207984548Y-88456690D01*
X207923794Y-88478279D01*
X207916688Y-88495529D01*
X207875164Y-88519258D01*
X207770741Y-88533017D01*
X207718616Y-88534400D01*
X207593376Y-88540084D01*
X207534461Y-88567720D01*
X207515175Y-88633256D01*
X207513443Y-88657001D01*
X207488922Y-88761519D01*
X207451206Y-88813647D01*
X207402690Y-88870417D01*
X207399817Y-88889118D01*
X207376419Y-89023876D01*
X207302153Y-89166647D01*
X207202301Y-89271700D01*
X207181419Y-89284193D01*
X207056032Y-89368476D01*
X206949781Y-89466180D01*
X206865488Y-89546036D01*
X206801683Y-89582730D01*
X206798314Y-89582990D01*
X206758367Y-89614015D01*
X206423681Y-89614015D01*
X206423682Y-89614014D01*
X206476405Y-89558377D01*
X206484619Y-89550716D01*
X206699229Y-89356816D01*
X206852729Y-89231599D01*
X206944371Y-89175555D01*
X207004821Y-89143726D01*
X206973525Y-89123937D01*
X206851171Y-89116196D01*
X206638440Y-89120517D01*
X206336021Y-89136912D01*
X206022472Y-89159306D01*
X205706191Y-89183478D01*
X205391896Y-89207149D01*
X205102712Y-89228602D01*
X204861765Y-89246121D01*
X204700909Y-89257403D01*
X204486075Y-89272487D01*
X204278223Y-89288010D01*
X204116725Y-89301014D01*
X204095038Y-89302911D01*
X203985030Y-89312234D01*
X203799802Y-89327389D01*
X203557062Y-89346949D01*
X203274516Y-89369490D01*
X202969878Y-89393588D01*
X202906598Y-89398567D01*
X202615926Y-89421722D01*
X202359076Y-89442763D01*
X202149705Y-89460524D01*
X202001462Y-89473838D01*
X201928006Y-89481538D01*
X201922508Y-89482644D01*
X201899334Y-89523940D01*
X201845870Y-89621887D01*
X201803832Y-89699503D01*
X201663964Y-89882555D01*
X201478352Y-90020946D01*
X201273770Y-90098646D01*
X201122459Y-90107289D01*
X200969513Y-90090719D01*
X200998752Y-90285700D01*
X201003782Y-90460555D01*
X200981675Y-90681220D01*
X200938799Y-90906527D01*
X200881530Y-91095313D01*
X200868668Y-91125603D01*
X200786918Y-91219101D01*
X200651867Y-91302423D01*
X200502951Y-91356028D01*
X200389899Y-91362762D01*
X200154793Y-91281014D01*
X199990889Y-91139184D01*
X199898073Y-90937111D01*
X199876230Y-90674640D01*
X199877235Y-90655951D01*
X199893618Y-90501292D01*
X199918779Y-90381847D01*
X199937872Y-90337851D01*
X199974094Y-90265095D01*
X200022121Y-90133865D01*
X200060738Y-90009269D01*
X200102319Y-89856546D01*
X200115505Y-89760128D01*
X200098095Y-89686864D01*
X200047884Y-89603607D01*
X200032266Y-89580729D01*
X199936380Y-89466886D01*
X199836631Y-89385653D01*
X199819837Y-89376825D01*
X199739088Y-89321884D01*
X199714120Y-89277723D01*
X199684097Y-89205934D01*
X199644212Y-89156882D01*
X199578321Y-89032122D01*
X199581795Y-88943137D01*
X199768413Y-88943137D01*
X199792380Y-89058757D01*
X199852387Y-89146727D01*
X199944047Y-89256751D01*
X199945598Y-89111569D01*
X199988504Y-88948623D01*
X200097071Y-88790618D01*
X200246103Y-88662534D01*
X200410411Y-88589347D01*
X200480797Y-88580972D01*
X200547164Y-88599864D01*
X200538715Y-88646499D01*
X200463436Y-88705801D01*
X200397726Y-88737818D01*
X200222213Y-88845225D01*
X200103530Y-88987486D01*
X200056249Y-89144196D01*
X200061152Y-89209249D01*
X200109394Y-89340568D01*
X200172775Y-89433181D01*
X200221853Y-89474554D01*
X200264347Y-89473888D01*
X200318799Y-89419667D01*
X200403751Y-89300380D01*
X200416317Y-89281965D01*
X200536023Y-89125915D01*
X200626698Y-89053971D01*
X200692747Y-89063227D01*
X200711839Y-89086675D01*
X200701586Y-89144924D01*
X200646611Y-89243778D01*
X200617648Y-89284750D01*
X200466889Y-89518399D01*
X200324859Y-89796926D01*
X200201554Y-90094446D01*
X200106984Y-90385078D01*
X200051147Y-90642941D01*
X200040358Y-90778458D01*
X200075478Y-90953297D01*
X200167440Y-91087467D01*
X200296148Y-91170540D01*
X200441503Y-91192096D01*
X200583410Y-91141693D01*
X200642509Y-91090925D01*
X200734709Y-90934283D01*
X200793224Y-90709427D01*
X200814920Y-90436202D01*
X200796660Y-90134461D01*
X200795318Y-90124084D01*
X200773656Y-89930764D01*
X200771589Y-89798729D01*
X200791132Y-89697724D01*
X200829890Y-89606292D01*
X200917259Y-89441593D01*
X201018100Y-89267711D01*
X201120157Y-89103788D01*
X201211193Y-88968964D01*
X201278948Y-88882377D01*
X201307168Y-88860604D01*
X201363661Y-88896110D01*
X201370431Y-88987477D01*
X201327882Y-89111969D01*
X201301924Y-89158340D01*
X201241269Y-89259799D01*
X201229247Y-89301286D01*
X201265218Y-89301948D01*
X201297390Y-89293903D01*
X201378058Y-89288911D01*
X201392703Y-89324450D01*
X201349704Y-89384912D01*
X201257453Y-89454689D01*
X201192157Y-89489778D01*
X201053608Y-89579924D01*
X200960987Y-89687287D01*
X200925114Y-89792103D01*
X200956809Y-89874613D01*
X200974159Y-89887956D01*
X201118263Y-89929083D01*
X201290154Y-89907127D01*
X201460031Y-89832290D01*
X201598095Y-89714775D01*
X201635812Y-89661402D01*
X201687452Y-89537322D01*
X201730862Y-89370902D01*
X201744632Y-89289311D01*
X201778190Y-89127104D01*
X201823533Y-89051984D01*
X201840674Y-89047027D01*
X201890273Y-89087408D01*
X201904579Y-89163540D01*
X201924900Y-89253329D01*
X202000252Y-89280149D01*
X202009441Y-89280292D01*
X202114690Y-89276751D01*
X202296038Y-89266391D01*
X202543229Y-89250050D01*
X202846014Y-89228563D01*
X203194141Y-89202766D01*
X203577363Y-89173496D01*
X203985424Y-89141587D01*
X204408081Y-89107877D01*
X204835076Y-89073204D01*
X205256161Y-89038400D01*
X205661085Y-89004303D01*
X206039600Y-88971747D01*
X206381450Y-88941570D01*
X206676390Y-88914608D01*
X206914167Y-88891697D01*
X207084528Y-88873671D01*
X207177226Y-88861370D01*
X207191197Y-88857677D01*
X207214790Y-88802372D01*
X207207778Y-88788635D01*
X207157483Y-88784616D01*
X207022449Y-88782713D01*
X206811118Y-88782837D01*
X206531935Y-88784890D01*
X206193347Y-88788789D01*
X205803800Y-88794430D01*
X205371732Y-88801729D01*
X204905596Y-88810589D01*
X204568079Y-88817575D01*
X201955298Y-88873431D01*
X201568746Y-88707441D01*
X201259104Y-88582699D01*
X201003913Y-88501170D01*
X200778249Y-88457203D01*
X200557178Y-88445158D01*
X200431088Y-88449931D01*
X200259871Y-88464739D01*
X200147055Y-88492265D01*
X200057863Y-88547663D01*
X199957515Y-88646088D01*
X199941402Y-88663301D01*
X199816896Y-88817782D01*
X199768413Y-88943137D01*
X199581795Y-88943137D01*
X199581795Y-88943136D01*
X199584298Y-88879031D01*
X199652237Y-88714015D01*
X199772228Y-88553472D01*
X199934367Y-88413806D01*
X200128742Y-88311418D01*
X200162068Y-88299624D01*
X200293632Y-88274847D01*
X200474331Y-88263868D01*
X200673911Y-88265754D01*
X200862116Y-88279584D01*
X201008689Y-88304423D01*
X201069660Y-88327453D01*
X201172382Y-88370078D01*
X201227384Y-88382822D01*
X201317880Y-88410015D01*
X201457259Y-88465656D01*
X201576925Y-88519725D01*
X201718297Y-88583344D01*
X201825485Y-88624873D01*
X201869625Y-88634969D01*
X201904431Y-88659799D01*
X201904535Y-88662531D01*
X201949151Y-88670433D01*
X202075204Y-88675454D01*
X202270964Y-88677568D01*
X202524700Y-88676761D01*
X202824679Y-88673010D01*
X203159176Y-88666296D01*
X203221142Y-88664797D01*
X203649020Y-88654318D01*
X204138142Y-88642576D01*
X204656567Y-88630326D01*
X205172351Y-88618317D01*
X205653548Y-88607302D01*
X205920237Y-88601304D01*
X206317019Y-88592094D01*
X206630520Y-88583613D01*
X206870661Y-88575066D01*
X207047363Y-88565646D01*
X207170544Y-88554553D01*
X207250124Y-88540988D01*
X207296022Y-88524152D01*
X207318153Y-88503238D01*
X207324275Y-88487935D01*
X207310904Y-88379066D01*
X207211833Y-88292583D01*
X207032311Y-88230453D01*
X206777587Y-88194638D01*
X206518523Y-88186274D01*
X206249586Y-88193416D01*
X206037089Y-88217095D01*
X205844672Y-88265145D01*
X205635971Y-88345394D01*
X205503899Y-88404785D01*
X205362307Y-88455842D01*
X205250276Y-88470263D01*
X205224268Y-88464917D01*
X205113872Y-88431121D01*
X205027147Y-88412033D01*
X204839175Y-88342888D01*
X204718632Y-88223290D01*
X204673832Y-88067747D01*
X204713085Y-87890767D01*
X204720115Y-87876102D01*
X204755594Y-87795150D01*
X204750348Y-87740749D01*
X204690523Y-87687533D01*
X204580873Y-87621030D01*
X204463744Y-87546842D01*
X204389034Y-87488864D01*
X204374671Y-87469062D01*
X204337291Y-87428885D01*
X204269809Y-87391931D01*
X204193445Y-87333962D01*
X204099576Y-87230512D01*
X204005566Y-87105897D01*
X203928778Y-86984441D01*
X203886578Y-86890458D01*
X203886336Y-86854914D01*
X203880512Y-86799386D01*
X203872956Y-86793421D01*
X203836195Y-86722061D01*
X203827483Y-86588780D01*
X203838622Y-86490485D01*
X204058222Y-86490485D01*
X204083822Y-86712611D01*
X204190396Y-86938628D01*
X204372918Y-87160462D01*
X204626359Y-87370033D01*
X204900307Y-87535934D01*
X205231112Y-87709769D01*
X205052067Y-87860087D01*
X204933996Y-87980592D01*
X204904215Y-88074860D01*
X204963841Y-88149652D01*
X205109956Y-88210516D01*
X205236848Y-88238964D01*
X205341498Y-88228158D01*
X205471928Y-88172332D01*
X205485538Y-88165431D01*
X205763041Y-88054357D01*
X206069723Y-87982825D01*
X206388270Y-87949830D01*
X206701374Y-87954358D01*
X206991722Y-87995399D01*
X207242001Y-88071943D01*
X207434903Y-88182979D01*
X207529209Y-88284723D01*
X207634039Y-88369528D01*
X207773558Y-88396213D01*
X207898798Y-88358882D01*
X207931175Y-88296521D01*
X207959111Y-88172535D01*
X207971605Y-88068312D01*
X207999668Y-87895844D01*
X208048140Y-87740762D01*
X208079378Y-87679297D01*
X208153296Y-87600507D01*
X208286657Y-87489119D01*
X208459311Y-87361059D01*
X208617774Y-87253675D01*
X208920350Y-87036612D01*
X209163214Y-86819262D01*
X209337152Y-86611185D01*
X209432951Y-86421948D01*
X209438573Y-86401703D01*
X209475954Y-86322003D01*
X209545959Y-86317193D01*
X209565555Y-86323294D01*
X209667236Y-86345960D01*
X209820456Y-86367433D01*
X209924362Y-86377497D01*
X210084676Y-86383985D01*
X210191858Y-86365362D01*
X210284744Y-86311729D01*
X210332161Y-86273591D01*
X210450458Y-86127337D01*
X210477844Y-85968249D01*
X210413207Y-85803418D01*
X210407441Y-85795013D01*
X210300611Y-85716805D01*
X210141952Y-85686342D01*
X209959540Y-85703367D01*
X209781443Y-85767627D01*
X209725410Y-85801176D01*
X209543661Y-85888836D01*
X209300701Y-85956787D01*
X209027494Y-85999174D01*
X208755002Y-86010143D01*
X208651487Y-86004269D01*
X208297937Y-85927601D01*
X207944277Y-85765515D01*
X207603360Y-85524901D01*
X207396643Y-85331687D01*
X207252667Y-85184392D01*
X207153689Y-85093316D01*
X207080327Y-85047278D01*
X207013203Y-85035094D01*
X206932927Y-85045580D01*
X206909014Y-85050335D01*
X206741093Y-85087276D01*
X206657271Y-85120947D01*
X206649880Y-85164359D01*
X206711238Y-85230545D01*
X206772417Y-85282118D01*
X206956247Y-85488931D01*
X207073205Y-85738203D01*
X207122912Y-86010133D01*
X207105010Y-86284927D01*
X207019124Y-86542789D01*
X206864884Y-86763923D01*
X206801198Y-86823554D01*
X206617206Y-86945430D01*
X206430388Y-86990243D01*
X206250417Y-86976628D01*
X206079119Y-86950630D01*
X205900230Y-86928123D01*
X205889350Y-86926952D01*
X205739913Y-86907334D01*
X205613592Y-86884639D01*
X205598066Y-86880996D01*
X205517755Y-86877966D01*
X205493203Y-86902283D01*
X205519654Y-86948589D01*
X205528157Y-86950097D01*
X205573547Y-86985373D01*
X205645841Y-87073545D01*
X205675330Y-87115183D01*
X205744245Y-87235653D01*
X205750609Y-87309917D01*
X205735872Y-87331624D01*
X205686410Y-87340652D01*
X205606269Y-87287339D01*
X205484517Y-87164397D01*
X205483838Y-87163654D01*
X205283479Y-86944010D01*
X205079545Y-87016802D01*
X204822533Y-87076906D01*
X204598704Y-87066477D01*
X204420034Y-86988117D01*
X204300070Y-86847489D01*
X204257980Y-86690634D01*
X204255021Y-86543717D01*
X204413643Y-86543717D01*
X204441777Y-86712266D01*
X204465851Y-86770182D01*
X204492173Y-86771877D01*
X204512579Y-86740054D01*
X205073754Y-86740054D01*
X205097056Y-86763357D01*
X205120359Y-86740054D01*
X205097056Y-86716751D01*
X205073754Y-86740054D01*
X204512579Y-86740054D01*
X204512580Y-86740052D01*
X204533638Y-86707220D01*
X204588165Y-86597194D01*
X204625860Y-86530684D01*
X204936991Y-86530684D01*
X204948564Y-86554819D01*
X204974598Y-86588588D01*
X205042624Y-86661042D01*
X205072989Y-86660728D01*
X205073754Y-86652550D01*
X205062703Y-86639049D01*
X205605318Y-86639049D01*
X205639249Y-86674982D01*
X205723025Y-86713492D01*
X205745469Y-86682281D01*
X205716710Y-86597955D01*
X205674145Y-86520432D01*
X205641911Y-86522006D01*
X205619077Y-86556900D01*
X205605318Y-86639049D01*
X205062703Y-86639049D01*
X205062702Y-86639048D01*
X205041905Y-86613646D01*
X204992195Y-86570991D01*
X204957784Y-86545866D01*
X204957783Y-86545865D01*
X205089288Y-86545865D01*
X205095686Y-86573572D01*
X205120359Y-86576935D01*
X205158721Y-86559882D01*
X205151430Y-86545865D01*
X205096120Y-86540287D01*
X205089288Y-86545865D01*
X204957783Y-86545865D01*
X204936991Y-86530684D01*
X204625860Y-86530684D01*
X204625861Y-86530683D01*
X204671224Y-86450647D01*
X204761094Y-86329893D01*
X204804125Y-86288128D01*
X204952997Y-86218385D01*
X205092511Y-86227846D01*
X205201026Y-86306705D01*
X205256907Y-86445156D01*
X205260176Y-86494831D01*
X205277248Y-86593107D01*
X205323390Y-86608473D01*
X205390990Y-86543708D01*
X205463153Y-86420699D01*
X205523402Y-86238778D01*
X205546595Y-86058034D01*
X205775952Y-86058034D01*
X205775961Y-86064275D01*
X205786702Y-86162405D01*
X205812546Y-86274226D01*
X205845594Y-86377394D01*
X205877946Y-86449570D01*
X205901699Y-86468407D01*
X205908868Y-86440122D01*
X205956197Y-86326424D01*
X206064317Y-86226580D01*
X206201465Y-86165603D01*
X206267674Y-86157485D01*
X206420018Y-86196556D01*
X206520158Y-86309926D01*
X206563619Y-86491824D01*
X206565130Y-86540699D01*
X206576769Y-86669661D01*
X206615202Y-86711104D01*
X206685699Y-86668199D01*
X206719249Y-86633485D01*
X206820522Y-86477575D01*
X206899024Y-86278151D01*
X206936113Y-86084824D01*
X206936950Y-86054120D01*
X206901819Y-85844671D01*
X206810013Y-85645935D01*
X206677744Y-85478408D01*
X206521223Y-85362577D01*
X206356658Y-85318936D01*
X206355403Y-85318935D01*
X206189511Y-85362038D01*
X206032832Y-85477810D01*
X205901151Y-85645941D01*
X205810261Y-85846119D01*
X205775952Y-86058034D01*
X205546595Y-86058034D01*
X205546595Y-86058033D01*
X205550902Y-86024466D01*
X205545118Y-85812214D01*
X205505512Y-85636464D01*
X205476312Y-85578161D01*
X205362599Y-85476695D01*
X205212220Y-85458358D01*
X205029897Y-85522767D01*
X204872286Y-85627281D01*
X204680036Y-85819984D01*
X204533404Y-86052354D01*
X204441551Y-86301297D01*
X204413643Y-86543717D01*
X204255021Y-86543717D01*
X204253740Y-86480150D01*
X204284216Y-86246121D01*
X204346266Y-86018635D01*
X204399542Y-85893435D01*
X204505997Y-85683159D01*
X204393729Y-85788630D01*
X204315921Y-85879074D01*
X204281547Y-85953360D01*
X204281460Y-85955885D01*
X204253463Y-86012502D01*
X204234856Y-86017669D01*
X204192621Y-86055018D01*
X204188250Y-86082249D01*
X204167784Y-86167112D01*
X204118629Y-86280324D01*
X204058222Y-86490485D01*
X203838622Y-86490485D01*
X203838622Y-86490483D01*
X203846560Y-86420470D01*
X203877796Y-86291235D01*
X203912994Y-86164760D01*
X203915648Y-86102535D01*
X203881885Y-86080125D01*
X203843670Y-86075708D01*
X203758001Y-86049156D01*
X203730555Y-86019449D01*
X203686559Y-85990895D01*
X203671608Y-85996825D01*
X203631926Y-85988220D01*
X203628983Y-85971063D01*
X203604452Y-85937568D01*
X203590837Y-85942534D01*
X203542351Y-85923977D01*
X203461711Y-85852968D01*
X203370157Y-85753463D01*
X203288922Y-85649413D01*
X203239243Y-85564768D01*
X203232837Y-85538743D01*
X203194599Y-85484814D01*
X203098026Y-85468877D01*
X202970323Y-85491900D01*
X202886938Y-85526427D01*
X202786230Y-85572547D01*
X202727312Y-85588431D01*
X202724419Y-85587512D01*
X202681033Y-85607520D01*
X202600245Y-85673025D01*
X202584112Y-85687904D01*
X202463846Y-85800890D01*
X202454431Y-85501480D01*
X202447949Y-85276338D01*
X202447906Y-85269253D01*
X202649552Y-85269253D01*
X202654322Y-85340696D01*
X202681776Y-85357529D01*
X202724502Y-85344043D01*
X202824960Y-85316494D01*
X202970648Y-85291329D01*
X203026151Y-85284539D01*
X203141300Y-85275804D01*
X203222089Y-85289489D01*
X203295716Y-85340034D01*
X203389381Y-85441879D01*
X203443554Y-85506194D01*
X203621400Y-85688264D01*
X203798471Y-85815036D01*
X203956077Y-85873664D01*
X203981899Y-85876029D01*
X204033148Y-85843988D01*
X204127909Y-85756743D01*
X204249462Y-85630228D01*
X204308138Y-85565084D01*
X204338518Y-85528312D01*
X204654303Y-85528312D01*
X204677607Y-85551613D01*
X204700909Y-85528311D01*
X204677607Y-85505008D01*
X204654303Y-85528312D01*
X204338518Y-85528312D01*
X204338519Y-85528311D01*
X204429613Y-85418048D01*
X204475275Y-85353497D01*
X205571981Y-85353497D01*
X205602047Y-85416660D01*
X205615793Y-85437838D01*
X205687643Y-85547490D01*
X205796184Y-85421387D01*
X205863859Y-85334942D01*
X205891116Y-85284015D01*
X205890148Y-85280627D01*
X205839566Y-85278697D01*
X205733662Y-85292771D01*
X205709761Y-85297074D01*
X205602700Y-85321406D01*
X205571981Y-85353497D01*
X204475275Y-85353497D01*
X204519899Y-85290412D01*
X204565561Y-85202039D01*
X204568072Y-85180789D01*
X204569073Y-85140948D01*
X204613930Y-85166543D01*
X204646290Y-85194821D01*
X204757181Y-85256843D01*
X204853946Y-85250375D01*
X204912154Y-85184730D01*
X204913870Y-85092817D01*
X204898177Y-85009787D01*
X204914868Y-85008749D01*
X204954844Y-85057214D01*
X205014701Y-85143270D01*
X205038088Y-85188287D01*
X205087658Y-85206161D01*
X205175260Y-85184476D01*
X205250886Y-85148312D01*
X205277919Y-85097362D01*
X205266758Y-85000030D01*
X205254516Y-84943645D01*
X205152242Y-84653781D01*
X204986254Y-84421660D01*
X204752274Y-84244227D01*
X204446025Y-84118423D01*
X204063224Y-84041192D01*
X203977558Y-84031352D01*
X203611219Y-84024108D01*
X203307321Y-84085306D01*
X203063582Y-84216845D01*
X202877713Y-84420627D01*
X202747430Y-84698546D01*
X202670448Y-85052504D01*
X202662091Y-85124280D01*
X202649552Y-85269253D01*
X202447906Y-85269253D01*
X202447906Y-85269251D01*
X202446971Y-85115014D01*
X202454002Y-84988170D01*
X202471573Y-84866459D01*
X202502196Y-84720544D01*
X202532873Y-84587777D01*
X202585689Y-84450305D01*
X202655448Y-84345047D01*
X202720491Y-84261684D01*
X202743477Y-84209226D01*
X202774708Y-84150162D01*
X202836690Y-84083539D01*
X202903713Y-84034982D01*
X202929900Y-84038618D01*
X202952968Y-84041401D01*
X202988157Y-84005843D01*
X203079744Y-83944010D01*
X203236395Y-83886118D01*
X203430001Y-83838829D01*
X203632461Y-83808809D01*
X203815667Y-83802720D01*
X203838709Y-83804199D01*
X204179456Y-83837055D01*
X204435573Y-83875083D01*
X204615577Y-83919938D01*
X204727982Y-83973289D01*
X204736338Y-83979553D01*
X204811705Y-84028902D01*
X204932404Y-84098732D01*
X204986330Y-84128132D01*
X205120929Y-84231874D01*
X205138315Y-84252006D01*
X205120359Y-84269962D01*
X205143662Y-84293265D01*
X205159913Y-84277014D01*
X205253656Y-84385557D01*
X205364528Y-84559653D01*
X205433564Y-84724640D01*
X205446598Y-84808249D01*
X205477272Y-84883089D01*
X205518551Y-84899135D01*
X205573703Y-84934936D01*
X205576806Y-84980696D01*
X205601310Y-85053342D01*
X205667744Y-85077118D01*
X205742663Y-85073523D01*
X205745795Y-85022828D01*
X205744317Y-85018862D01*
X205750024Y-84960065D01*
X205807481Y-84947071D01*
X205884872Y-84984393D01*
X205898640Y-84996977D01*
X205979627Y-85025227D01*
X206049725Y-85016522D01*
X206092873Y-84988722D01*
X207264213Y-84988722D01*
X207296739Y-85037790D01*
X207382071Y-85129708D01*
X207501827Y-85247138D01*
X207637634Y-85372752D01*
X207771118Y-85489216D01*
X207883900Y-85579195D01*
X207909682Y-85597567D01*
X208228751Y-85760329D01*
X208595418Y-85847538D01*
X208955288Y-85859389D01*
X209197973Y-85835760D01*
X209363664Y-85793535D01*
X209437981Y-85753985D01*
X209562680Y-85669110D01*
X209703151Y-85579277D01*
X209712565Y-85573496D01*
X209867272Y-85478864D01*
X209600818Y-85181884D01*
X209334365Y-84884903D01*
X209131687Y-85019029D01*
X208983009Y-85101994D01*
X208827442Y-85148320D01*
X208622728Y-85170455D01*
X208616354Y-85170822D01*
X208341298Y-85162776D01*
X208118546Y-85097756D01*
X207920656Y-84967041D01*
X207890229Y-84940146D01*
X207825422Y-84891785D01*
X207752440Y-84874243D01*
X207640463Y-84884558D01*
X207529035Y-84905426D01*
X207386927Y-84938700D01*
X207290807Y-84970268D01*
X207264213Y-84988722D01*
X206092873Y-84988722D01*
X206121891Y-84970028D01*
X206118130Y-84883728D01*
X206100541Y-84814908D01*
X206124384Y-84818133D01*
X206178111Y-84864183D01*
X206302679Y-84933511D01*
X206424450Y-84934503D01*
X206513559Y-84867157D01*
X206515355Y-84864183D01*
X206560683Y-84811158D01*
X206601450Y-84840534D01*
X206605345Y-84846322D01*
X206655606Y-84884558D01*
X206745126Y-84876891D01*
X206804271Y-84859650D01*
X206953965Y-84817360D01*
X207089841Y-84787314D01*
X207217025Y-84762688D01*
X207299566Y-84743363D01*
X207408170Y-84716207D01*
X207503297Y-84694259D01*
X207625870Y-84667138D01*
X207537118Y-84487752D01*
X207477983Y-84331865D01*
X207445252Y-84175946D01*
X207443438Y-84149347D01*
X207447978Y-84070877D01*
X207660042Y-84070877D01*
X207697483Y-84292368D01*
X207819459Y-84530120D01*
X207889709Y-84628491D01*
X208096938Y-84836976D01*
X208330549Y-84958951D01*
X208583453Y-84992288D01*
X208848559Y-84934854D01*
X208874582Y-84924408D01*
X208995821Y-84860444D01*
X209153630Y-84759724D01*
X209304187Y-84651264D01*
X209738055Y-84368327D01*
X210185026Y-84177048D01*
X210647745Y-84076457D01*
X210922746Y-84059304D01*
X211202378Y-84056990D01*
X210910814Y-83779885D01*
X210615834Y-83539771D01*
X210263349Y-83331003D01*
X210188428Y-83293715D01*
X209864670Y-83149179D01*
X209582615Y-83055410D01*
X209310922Y-83005280D01*
X209018247Y-82991662D01*
X208876424Y-82995327D01*
X208667454Y-83008899D01*
X208517642Y-83034270D01*
X208392980Y-83080163D01*
X208264049Y-83152468D01*
X208006448Y-83365574D01*
X207800907Y-83650532D01*
X207704633Y-83855200D01*
X207660042Y-84070877D01*
X207447978Y-84070877D01*
X207447978Y-84070876D01*
X207451566Y-84008837D01*
X207478707Y-83855439D01*
X207517404Y-83716976D01*
X207560198Y-83621267D01*
X207592246Y-83594182D01*
X207628470Y-83555069D01*
X207637056Y-83499509D01*
X207667305Y-83409941D01*
X207706698Y-83378111D01*
X207756283Y-83337626D01*
X207754961Y-83316799D01*
X207772521Y-83267081D01*
X207842004Y-83183164D01*
X207878950Y-83146910D01*
X207958218Y-83080579D01*
X207993651Y-83066481D01*
X207990351Y-83081521D01*
X207976285Y-83120496D01*
X208011275Y-83085053D01*
X208018276Y-83076654D01*
X208113224Y-83001502D01*
X208184850Y-82968648D01*
X208266033Y-82926781D01*
X208289532Y-82891959D01*
X208328474Y-82856285D01*
X208379994Y-82848497D01*
X208466536Y-82831004D01*
X208494223Y-82810039D01*
X208546398Y-82796816D01*
X208668913Y-82787595D01*
X208838977Y-82782357D01*
X209033811Y-82781087D01*
X209230622Y-82783766D01*
G37*
G36*
X224490269Y-80291444D02*
G01*
X224536135Y-80412492D01*
X224544609Y-80518348D01*
X224518487Y-80592637D01*
X224460576Y-80618986D01*
X224435017Y-80614386D01*
X224380049Y-80564502D01*
X224341222Y-80473714D01*
X224330556Y-80376133D01*
X224338126Y-80339150D01*
X224386415Y-80250867D01*
X224438768Y-80234686D01*
X224490269Y-80291444D01*
G37*
G36*
X222252799Y-77200780D02*
G01*
X222308808Y-77263237D01*
X222352939Y-77363340D01*
X222371457Y-77457131D01*
X222373649Y-77569045D01*
X222348023Y-77620036D01*
X222287139Y-77621521D01*
X222267771Y-77616186D01*
X222190667Y-77560040D01*
X222141507Y-77463600D01*
X222124614Y-77352660D01*
X222144309Y-77253002D01*
X222197015Y-77194212D01*
X222252799Y-77200780D01*
G37*
G36*
X223424492Y-76704661D02*
G01*
X223480576Y-76796882D01*
X223519382Y-76952252D01*
X223519468Y-76952806D01*
X223511322Y-77054037D01*
X223463401Y-77120601D01*
X223393287Y-77138744D01*
X223326900Y-77103433D01*
X223275385Y-77018136D01*
X223247662Y-76904953D01*
X223247917Y-76795800D01*
X223277337Y-76725468D01*
X223355344Y-76679538D01*
X223424492Y-76704661D01*
G37*
G36*
X224368309Y-79591697D02*
G01*
X224389978Y-79653794D01*
X224416882Y-79791609D01*
X224412889Y-79905058D01*
X224381221Y-79978690D01*
X224325109Y-79997052D01*
X224318659Y-79995371D01*
X224267018Y-79948137D01*
X224220700Y-79858547D01*
X224192858Y-79758982D01*
X224194113Y-79688728D01*
X224243912Y-79607129D01*
X224286659Y-79572650D01*
X224336591Y-79557652D01*
X224368309Y-79591697D01*
G37*
G36*
X225291305Y-73874547D02*
G01*
X225293567Y-73926897D01*
X225280344Y-74023417D01*
X225270466Y-74072205D01*
X225249532Y-74201791D01*
X225253290Y-74279531D01*
X225279500Y-74298437D01*
X225325932Y-74251514D01*
X225327185Y-74249653D01*
X225414403Y-74164536D01*
X225549073Y-74081834D01*
X225708206Y-74010780D01*
X225868800Y-73960611D01*
X226007859Y-73940571D01*
X226077041Y-73948444D01*
X226073940Y-73981803D01*
X226037137Y-74060230D01*
X225978571Y-74160238D01*
X225911504Y-74272245D01*
X225864197Y-74361895D01*
X225847983Y-74405354D01*
X225878991Y-74429201D01*
X225959520Y-74436163D01*
X225987834Y-74434367D01*
X226126839Y-74435700D01*
X226254927Y-74460974D01*
X226350914Y-74503695D01*
X226393619Y-74557366D01*
X226393832Y-74558883D01*
X226379321Y-74602593D01*
X226318304Y-74655104D01*
X226200102Y-74725132D01*
X226171420Y-74740541D01*
X226032873Y-74821343D01*
X225962967Y-74880345D01*
X225953439Y-74909639D01*
X225995774Y-75127103D01*
X226030723Y-75406651D01*
X226056802Y-75735463D01*
X226063650Y-75861722D01*
X226072813Y-76050677D01*
X226081077Y-76218250D01*
X226087569Y-76346912D01*
X226091414Y-76419138D01*
X226091548Y-76421383D01*
X226102652Y-76523833D01*
X226123552Y-76658762D01*
X226149729Y-76802172D01*
X226176666Y-76930060D01*
X226199839Y-77018432D01*
X226207908Y-77039053D01*
X226208926Y-77094014D01*
X226158514Y-77122336D01*
X226078966Y-77111942D01*
X226075761Y-77110658D01*
X226007214Y-77093716D01*
X225981827Y-77096770D01*
X225973071Y-77137431D01*
X225967962Y-77238507D01*
X225966827Y-77385341D01*
X225969999Y-77563273D01*
X225970723Y-77587270D01*
X225972296Y-77802277D01*
X225965058Y-78021470D01*
X225950387Y-78217169D01*
X225932866Y-78345654D01*
X225900171Y-78514640D01*
X225872193Y-78637030D01*
X225840574Y-78740229D01*
X225796964Y-78851644D01*
X225735799Y-78992376D01*
X225683254Y-79111434D01*
X225642763Y-79203410D01*
X225624851Y-79244358D01*
X225631565Y-79286360D01*
X225656725Y-79382958D01*
X225695526Y-79518646D01*
X225743174Y-79677931D01*
X225794869Y-79845312D01*
X225845808Y-80005290D01*
X225891196Y-80142371D01*
X225926229Y-80241052D01*
X225946111Y-80285835D01*
X225947720Y-80286974D01*
X225985550Y-80279123D01*
X226076857Y-80258725D01*
X226201899Y-80230191D01*
X226202401Y-80230075D01*
X226476979Y-80191740D01*
X226740656Y-80201343D01*
X226971273Y-80257633D01*
X227015150Y-80276056D01*
X227104782Y-80321561D01*
X227155555Y-80355844D01*
X227160177Y-80364054D01*
X227131249Y-80392755D01*
X227053095Y-80463277D01*
X226933648Y-80568657D01*
X226780833Y-80701927D01*
X226602585Y-80856122D01*
X226474233Y-80966511D01*
X225794026Y-81550203D01*
X225620229Y-81500023D01*
X225446431Y-81449841D01*
X225465679Y-81617344D01*
X225473182Y-81701481D01*
X225466281Y-81764973D01*
X225434864Y-81820295D01*
X225368808Y-81879938D01*
X225258000Y-81956383D01*
X225118860Y-82045293D01*
X224843767Y-82219613D01*
X224710562Y-82021032D01*
X224589492Y-81843238D01*
X224501462Y-81721378D01*
X224439869Y-81647532D01*
X224398114Y-81613790D01*
X224369614Y-81612229D01*
X224313931Y-81631647D01*
X224210722Y-81661770D01*
X224116654Y-81687059D01*
X223902876Y-81742574D01*
X223893666Y-82209301D01*
X223888603Y-82390619D01*
X223881506Y-82544881D01*
X223873296Y-82656378D01*
X223864887Y-82709405D01*
X223864384Y-82710405D01*
X223824856Y-82708548D01*
X223732070Y-82678075D01*
X223599885Y-82624183D01*
X223442191Y-82552089D01*
X223268739Y-82467294D01*
X223152327Y-82404710D01*
X223081288Y-82356094D01*
X223043962Y-82313201D01*
X223028690Y-82267782D01*
X223027407Y-82258888D01*
X223010509Y-82165144D01*
X222981514Y-82133908D01*
X222925232Y-82161536D01*
X222856791Y-82218001D01*
X222759360Y-82292033D01*
X222687597Y-82317649D01*
X222653098Y-82315170D01*
X222596619Y-82296960D01*
X222482354Y-82255135D01*
X222322190Y-82194221D01*
X222128022Y-82118750D01*
X221911736Y-82033254D01*
X221876487Y-82019194D01*
X221522806Y-81877928D01*
X221173712Y-81738494D01*
X221464494Y-81584441D01*
X221646285Y-81499086D01*
X221870623Y-81409768D01*
X222109516Y-81326327D01*
X222334972Y-81258600D01*
X222504147Y-81219051D01*
X222559309Y-81177927D01*
X222573757Y-81094722D01*
X222552101Y-80987307D01*
X222498944Y-80873549D01*
X222429495Y-80784858D01*
X222718979Y-80784858D01*
X222734578Y-80932788D01*
X222774568Y-81212354D01*
X223014037Y-81224420D01*
X223167998Y-81240036D01*
X223341095Y-81269919D01*
X223516703Y-81309608D01*
X223678197Y-81354642D01*
X223808946Y-81400564D01*
X223892324Y-81442912D01*
X223912975Y-81465535D01*
X223960228Y-81500418D01*
X224055084Y-81495785D01*
X224181939Y-81452768D01*
X224199209Y-81444777D01*
X224251548Y-81396638D01*
X224242607Y-81346315D01*
X224232767Y-81317008D01*
X224241335Y-81285638D01*
X224276532Y-81245063D01*
X224346573Y-81188133D01*
X224459683Y-81107705D01*
X224624083Y-80996632D01*
X224712983Y-80937407D01*
X224839903Y-80853026D01*
X224922460Y-80798140D01*
X224726695Y-80012466D01*
X224668200Y-79781313D01*
X224614617Y-79576445D01*
X224568894Y-79408521D01*
X224533947Y-79288197D01*
X224512709Y-79226131D01*
X224508813Y-79220024D01*
X224451977Y-79225537D01*
X224341758Y-79253554D01*
X224194535Y-79298650D01*
X224026691Y-79355407D01*
X223854607Y-79418401D01*
X223694666Y-79482209D01*
X223624097Y-79512848D01*
X223310729Y-79653864D01*
X223079555Y-79484775D01*
X222969554Y-79409253D01*
X222885856Y-79361125D01*
X222843363Y-79348703D01*
X222840994Y-79351722D01*
X222841822Y-79404249D01*
X222850794Y-79509966D01*
X222866043Y-79647586D01*
X222868889Y-79670711D01*
X222882154Y-79836605D01*
X222873955Y-79987711D01*
X222840929Y-80154613D01*
X222799380Y-80303440D01*
X222747494Y-80493843D01*
X222721705Y-80644482D01*
X222718979Y-80784858D01*
X222429495Y-80784858D01*
X222418892Y-80771317D01*
X222380012Y-80737377D01*
X222326367Y-80704681D01*
X222271083Y-80701516D01*
X222191368Y-80731162D01*
X222100670Y-80777516D01*
X221941426Y-80851057D01*
X221819674Y-80875920D01*
X221716108Y-80852639D01*
X221622260Y-80790765D01*
X221528982Y-80674443D01*
X221518764Y-80661701D01*
X221482527Y-80500276D01*
X221483512Y-80494268D01*
X221688381Y-80494268D01*
X221705301Y-80575852D01*
X221707218Y-80579671D01*
X221765433Y-80647137D01*
X221806388Y-80670146D01*
X221870824Y-80666250D01*
X221959694Y-80635564D01*
X222049212Y-80590222D01*
X222115595Y-80542360D01*
X222135059Y-80504100D01*
X222134454Y-80502806D01*
X222091441Y-80457293D01*
X222010883Y-80394462D01*
X221914270Y-80328568D01*
X221823105Y-80273861D01*
X221758879Y-80244591D01*
X221743794Y-80243831D01*
X221711152Y-80295901D01*
X221691504Y-80390167D01*
X221688381Y-80494268D01*
X221483512Y-80494268D01*
X221513977Y-80308498D01*
X221516807Y-80299748D01*
X221538505Y-80187962D01*
X221534158Y-80126185D01*
X221531900Y-80094077D01*
X221525285Y-80077439D01*
X221515569Y-80028107D01*
X221518838Y-80013281D01*
X221746502Y-80013281D01*
X221785644Y-80045892D01*
X221800197Y-80043621D01*
X221845726Y-80056886D01*
X221936323Y-80111777D01*
X222060615Y-80200301D01*
X222207227Y-80314473D01*
X222325907Y-80412905D01*
X222413943Y-80481016D01*
X222479564Y-80519360D01*
X222499756Y-80522604D01*
X222523199Y-80481990D01*
X222559833Y-80387912D01*
X222602446Y-80259233D01*
X222610169Y-80233932D01*
X222649966Y-80071295D01*
X222674767Y-79908834D01*
X222679214Y-79782307D01*
X222662112Y-79556980D01*
X222651051Y-79395510D01*
X222646719Y-79286795D01*
X222649799Y-79219734D01*
X222660983Y-79183230D01*
X222680949Y-79166175D01*
X222710385Y-79157473D01*
X222717913Y-79155650D01*
X222790559Y-79114301D01*
X222876754Y-79034000D01*
X222911611Y-78992584D01*
X223052206Y-78837889D01*
X223233011Y-78677174D01*
X223425621Y-78535080D01*
X223475659Y-78503288D01*
X223558733Y-78442985D01*
X223584874Y-78390429D01*
X223577044Y-78349805D01*
X223551827Y-78309509D01*
X223503656Y-78298758D01*
X223413607Y-78316376D01*
X223346853Y-78335490D01*
X223207898Y-78384755D01*
X223110213Y-78443344D01*
X223032053Y-78517843D01*
X222942258Y-78605086D01*
X222856721Y-78672021D01*
X222837689Y-78683432D01*
X222772801Y-78704653D01*
X222741789Y-78668822D01*
X222737131Y-78651830D01*
X222703127Y-78585796D01*
X222645941Y-78587234D01*
X222561924Y-78656576D01*
X222545202Y-78674603D01*
X222465064Y-78747687D01*
X222404042Y-78763111D01*
X222396029Y-78761152D01*
X222349586Y-78714543D01*
X222341598Y-78637007D01*
X222370631Y-78561302D01*
X222406143Y-78529891D01*
X222451238Y-78486236D01*
X222452137Y-78459139D01*
X222413750Y-78453757D01*
X222343510Y-78492818D01*
X222257709Y-78563076D01*
X222172643Y-78651282D01*
X222107540Y-78739329D01*
X222058924Y-78856347D01*
X222069075Y-78973971D01*
X222076015Y-78996119D01*
X222108100Y-79097141D01*
X222128428Y-79171382D01*
X222129764Y-79177855D01*
X222115898Y-79228762D01*
X222071269Y-79329280D01*
X222003109Y-79464180D01*
X221930529Y-79597256D01*
X221849304Y-79748959D01*
X221787402Y-79879162D01*
X221751441Y-79972893D01*
X221746502Y-80013281D01*
X221518838Y-80013281D01*
X221532083Y-79953202D01*
X221579021Y-79841423D01*
X221660578Y-79681476D01*
X221698237Y-79611733D01*
X221789765Y-79440270D01*
X221848113Y-79318568D01*
X221878253Y-79231625D01*
X221885148Y-79164454D01*
X221873771Y-79102062D01*
X221870620Y-79091622D01*
X221853285Y-78936300D01*
X221880156Y-78761222D01*
X221898790Y-78714545D01*
X221925158Y-78648501D01*
X221943970Y-78601380D01*
X221984899Y-78541176D01*
X222034240Y-78456395D01*
X222025234Y-78387311D01*
X222023730Y-78375774D01*
X222012444Y-78352510D01*
X221973928Y-78238016D01*
X221954533Y-78095353D01*
X221956228Y-77996016D01*
X222146291Y-77996016D01*
X222150386Y-78113291D01*
X222170959Y-78218263D01*
X222199658Y-78294568D01*
X222237210Y-78309223D01*
X222247603Y-78304204D01*
X222628157Y-78304204D01*
X222635103Y-78323041D01*
X222661759Y-78343893D01*
X222668977Y-78333398D01*
X222652015Y-78291914D01*
X222645457Y-78289162D01*
X222628157Y-78304204D01*
X222247603Y-78304204D01*
X222307238Y-78275404D01*
X222412783Y-78241014D01*
X222507159Y-78242242D01*
X222572198Y-78248693D01*
X222584341Y-78229562D01*
X222713067Y-78229562D01*
X222771673Y-78280097D01*
X222863758Y-78315090D01*
X222949790Y-78321502D01*
X222970992Y-78314666D01*
X223039668Y-78295733D01*
X223067094Y-78301041D01*
X223125362Y-78305912D01*
X223192592Y-78292245D01*
X223255520Y-78261262D01*
X223255652Y-78212132D01*
X223242849Y-78185493D01*
X223227374Y-78112594D01*
X223250959Y-78080694D01*
X223306321Y-78088218D01*
X223344585Y-78136727D01*
X223395614Y-78192404D01*
X223481706Y-78208526D01*
X223535311Y-78205538D01*
X223664903Y-78187254D01*
X223732498Y-78156724D01*
X223751207Y-78104342D01*
X223743124Y-78053058D01*
X223735494Y-77967224D01*
X223759018Y-77941611D01*
X223797616Y-77977995D01*
X223825820Y-78043922D01*
X223855169Y-78119795D01*
X223895861Y-78148492D01*
X223974142Y-78142578D01*
X224015366Y-78134635D01*
X224150090Y-78102313D01*
X224225182Y-78065430D01*
X224255824Y-78012264D01*
X224258344Y-77946933D01*
X224267105Y-77872317D01*
X224295902Y-77844435D01*
X224334414Y-77880734D01*
X224339694Y-77927138D01*
X224351238Y-78022234D01*
X224393647Y-78057145D01*
X224448540Y-78052030D01*
X224524853Y-78050572D01*
X224545634Y-78080916D01*
X224508424Y-78121657D01*
X224458860Y-78141738D01*
X224384828Y-78172430D01*
X224367678Y-78222237D01*
X224376372Y-78269068D01*
X224380433Y-78338946D01*
X224357579Y-78363805D01*
X224316984Y-78329595D01*
X224292057Y-78269877D01*
X224260668Y-78204393D01*
X224195805Y-78189110D01*
X224163849Y-78192053D01*
X224019379Y-78214017D01*
X223936782Y-78239840D01*
X223902888Y-78277398D01*
X223904529Y-78334565D01*
X223907101Y-78345616D01*
X223912981Y-78429755D01*
X223886396Y-78460816D01*
X223840896Y-78429325D01*
X223824074Y-78403653D01*
X223782138Y-78330200D01*
X223785667Y-78421691D01*
X223764319Y-78512054D01*
X223707588Y-78609301D01*
X223701028Y-78617315D01*
X223612856Y-78721448D01*
X223968661Y-78690245D01*
X224160774Y-78677692D01*
X224358528Y-78671772D01*
X224527076Y-78673344D01*
X224567238Y-78675442D01*
X224694818Y-78682883D01*
X224789681Y-78686211D01*
X224829387Y-78684922D01*
X224830731Y-78647514D01*
X224820885Y-78549827D01*
X224801566Y-78405614D01*
X224774475Y-78228617D01*
X224766418Y-78179207D01*
X224735540Y-77991028D01*
X224709041Y-77827407D01*
X224689396Y-77703765D01*
X224679078Y-77635527D01*
X224678319Y-77629606D01*
X224639212Y-77603521D01*
X224535325Y-77594096D01*
X224375068Y-77600950D01*
X224166850Y-77623714D01*
X223919083Y-77662013D01*
X223909151Y-77663744D01*
X223778607Y-77689737D01*
X223661855Y-77722367D01*
X223540199Y-77768993D01*
X223394942Y-77836986D01*
X223207399Y-77933713D01*
X223159577Y-77959061D01*
X222994397Y-78049131D01*
X222857508Y-78128072D01*
X222760475Y-78188874D01*
X222714870Y-78224531D01*
X222713067Y-78229562D01*
X222584341Y-78229562D01*
X222584917Y-78228655D01*
X222607216Y-78195749D01*
X222685573Y-78138610D01*
X222807482Y-78063777D01*
X222960438Y-77977776D01*
X223131935Y-77887144D01*
X223309469Y-77798414D01*
X223480532Y-77718122D01*
X223632622Y-77652794D01*
X223753235Y-77608972D01*
X223790547Y-77598767D01*
X224096672Y-77538659D01*
X224379637Y-77508237D01*
X224528820Y-77502342D01*
X224744116Y-77498105D01*
X224849721Y-78129593D01*
X224884063Y-78338645D01*
X224912892Y-78521255D01*
X224934309Y-78664811D01*
X224946421Y-78756715D01*
X224948192Y-78784413D01*
X224910641Y-78793342D01*
X224824949Y-78787882D01*
X224786071Y-78782268D01*
X224620748Y-78765822D01*
X224414694Y-78761337D01*
X224185299Y-78767458D01*
X223949954Y-78782837D01*
X223726053Y-78806122D01*
X223530986Y-78835956D01*
X223382139Y-78871002D01*
X223317696Y-78896315D01*
X223242366Y-78952111D01*
X223163790Y-79033149D01*
X223098810Y-79118502D01*
X223064277Y-79187248D01*
X223064534Y-79210719D01*
X223102270Y-79247967D01*
X223179446Y-79308256D01*
X223216492Y-79334816D01*
X223304727Y-79390594D01*
X223371341Y-79404508D01*
X223450285Y-79377980D01*
X223510312Y-79347174D01*
X223676293Y-79272388D01*
X223866420Y-79204098D01*
X224745793Y-79204098D01*
X224752302Y-79245934D01*
X224774537Y-79349387D01*
X224809901Y-79503193D01*
X224855792Y-79696090D01*
X224909605Y-79916817D01*
X224922558Y-79969240D01*
X225106366Y-80711345D01*
X225430884Y-80538795D01*
X225755404Y-80366245D01*
X225674559Y-80121983D01*
X225585483Y-79852296D01*
X225517948Y-79644431D01*
X225469876Y-79488872D01*
X225439193Y-79376098D01*
X225423821Y-79296589D01*
X225421680Y-79240832D01*
X225430701Y-79199305D01*
X225448799Y-79162493D01*
X225460838Y-79142499D01*
X225535146Y-78992315D01*
X225610440Y-78791566D01*
X225679495Y-78564385D01*
X225735092Y-78334905D01*
X225770008Y-78127256D01*
X225773056Y-78099080D01*
X225781924Y-77965782D01*
X225786728Y-77801477D01*
X225787700Y-77624459D01*
X225785088Y-77453022D01*
X225779128Y-77305467D01*
X225770058Y-77200083D01*
X225760732Y-77158451D01*
X225722507Y-77150988D01*
X225645405Y-77154395D01*
X225563328Y-77165131D01*
X225510179Y-77179661D01*
X225504647Y-77185183D01*
X225506766Y-77229238D01*
X225515075Y-77325170D01*
X225524895Y-77424050D01*
X225535081Y-77690353D01*
X225516587Y-77981609D01*
X225473137Y-78278957D01*
X225408448Y-78563533D01*
X225326235Y-78816471D01*
X225230227Y-79018908D01*
X225201624Y-79063616D01*
X225152179Y-79126032D01*
X225098237Y-79157838D01*
X225012060Y-79170819D01*
X224941389Y-79174187D01*
X224832298Y-79182284D01*
X224760800Y-79195417D01*
X224745793Y-79204098D01*
X223866420Y-79204098D01*
X223889186Y-79195921D01*
X224128981Y-79123047D01*
X224375663Y-79059045D01*
X224609234Y-79009182D01*
X224809676Y-78978733D01*
X224934017Y-78971921D01*
X224990027Y-78957458D01*
X225043926Y-78904379D01*
X225103250Y-78801983D01*
X225175543Y-78639574D01*
X225185705Y-78614916D01*
X225237100Y-78461545D01*
X225283302Y-78276000D01*
X225311599Y-78116217D01*
X225326472Y-77961433D01*
X225334598Y-77786756D01*
X225336302Y-77609041D01*
X225331918Y-77445142D01*
X225321774Y-77311910D01*
X225306203Y-77226203D01*
X225293759Y-77204199D01*
X225244279Y-77201371D01*
X225142981Y-77210529D01*
X225013129Y-77229476D01*
X224893265Y-77248711D01*
X224814281Y-77250648D01*
X224769079Y-77223973D01*
X224750559Y-77157374D01*
X224750701Y-77141988D01*
X224751632Y-77039536D01*
X224765189Y-76859148D01*
X224766971Y-76837100D01*
X224777333Y-76695050D01*
X224783356Y-76584880D01*
X224784071Y-76525453D01*
X224783192Y-76520483D01*
X224743203Y-76512000D01*
X224649819Y-76509067D01*
X224524528Y-76510857D01*
X224388811Y-76516550D01*
X224264158Y-76525317D01*
X224172049Y-76536334D01*
X224137824Y-76545260D01*
X224101197Y-76584245D01*
X224102389Y-76600666D01*
X224105408Y-76663310D01*
X224084987Y-76772723D01*
X224047779Y-76906818D01*
X224000431Y-77043503D01*
X223949605Y-77160693D01*
X223916459Y-77217959D01*
X223774586Y-77367156D01*
X223599094Y-77451045D01*
X223480109Y-77472030D01*
X223349329Y-77459169D01*
X223213184Y-77407966D01*
X223102133Y-77332456D01*
X223058151Y-77277582D01*
X222999286Y-77233470D01*
X222958894Y-77231268D01*
X222871405Y-77240578D01*
X222778051Y-77243648D01*
X222679114Y-77252077D01*
X222660322Y-77257382D01*
X222613704Y-77270540D01*
X222587354Y-77296822D01*
X222608470Y-77337189D01*
X222657331Y-77385646D01*
X222741632Y-77452396D01*
X222814853Y-77492768D01*
X222817025Y-77493466D01*
X222878836Y-77539915D01*
X222874583Y-77617978D01*
X222824128Y-77699406D01*
X222677561Y-77847754D01*
X222526472Y-77925473D01*
X222359969Y-77936807D01*
X222263712Y-77917885D01*
X222156112Y-77888799D01*
X222146291Y-77996016D01*
X221956228Y-77996016D01*
X221956853Y-77959359D01*
X221977034Y-77876710D01*
X221982245Y-77799609D01*
X221945872Y-77672529D01*
X221908267Y-77581357D01*
X221902899Y-77568334D01*
X221834987Y-77387453D01*
X221805312Y-77222606D01*
X221802562Y-77091815D01*
X221804933Y-76997387D01*
X222003475Y-76997387D01*
X222004320Y-77201162D01*
X222053222Y-77403595D01*
X222089303Y-77485100D01*
X222192354Y-77643424D01*
X222302384Y-77728064D01*
X222421918Y-77740358D01*
X222510942Y-77707520D01*
X222600080Y-77651018D01*
X222657820Y-77598808D01*
X222662005Y-77592518D01*
X222665540Y-77552766D01*
X222629643Y-77496064D01*
X222545304Y-77409277D01*
X222519973Y-77385418D01*
X222430273Y-77300915D01*
X222366590Y-77239365D01*
X222344452Y-77216164D01*
X222374852Y-77206339D01*
X222459314Y-77192533D01*
X222540782Y-77182268D01*
X222658830Y-77166777D01*
X222744889Y-77151681D01*
X222771612Y-77144024D01*
X222789321Y-77095926D01*
X222778988Y-77000715D01*
X222745189Y-76878992D01*
X222692488Y-76751347D01*
X222678440Y-76723821D01*
X222650951Y-76684982D01*
X223024713Y-76684982D01*
X223092630Y-76935119D01*
X223127849Y-77008794D01*
X223194677Y-77124139D01*
X223254289Y-77191502D01*
X223328888Y-77232047D01*
X223380120Y-77249299D01*
X223509130Y-77272187D01*
X223612073Y-77244523D01*
X223708316Y-77158014D01*
X223763451Y-77085152D01*
X223855162Y-76895246D01*
X223898742Y-76672307D01*
X223892431Y-76442430D01*
X223890383Y-76434984D01*
X223834470Y-76231710D01*
X223822678Y-76206324D01*
X223710766Y-76034039D01*
X223978808Y-76034039D01*
X224027759Y-76181101D01*
X224062518Y-76274021D01*
X224090296Y-76328688D01*
X224096159Y-76334107D01*
X224139823Y-76334938D01*
X224240862Y-76332243D01*
X224381625Y-76326575D01*
X224466589Y-76322539D01*
X224619423Y-76314921D01*
X224740066Y-76308930D01*
X224811686Y-76305398D01*
X224824068Y-76304807D01*
X224832137Y-76270334D01*
X224848186Y-76178367D01*
X224869344Y-76045772D01*
X224879340Y-75980179D01*
X224901103Y-75805587D01*
X224903394Y-75689008D01*
X224885776Y-75615744D01*
X224867597Y-75588765D01*
X224826408Y-75552147D01*
X224783747Y-75551343D01*
X224717441Y-75591027D01*
X224662677Y-75631945D01*
X224557157Y-75704737D01*
X224414015Y-75793615D01*
X224262535Y-75880468D01*
X224248542Y-75888082D01*
X223978808Y-76034039D01*
X223710766Y-76034039D01*
X223710215Y-76033191D01*
X223582473Y-75928432D01*
X223448171Y-75892363D01*
X223316019Y-75925313D01*
X223194740Y-76027602D01*
X223101918Y-76179581D01*
X223027658Y-76428334D01*
X223024713Y-76684982D01*
X222650951Y-76684982D01*
X222577300Y-76580922D01*
X222468478Y-76514413D01*
X222463746Y-76511522D01*
X222335499Y-76514656D01*
X222258856Y-76546424D01*
X222133785Y-76653175D01*
X222047643Y-76809111D01*
X222003475Y-76997387D01*
X221804933Y-76997387D01*
X221808506Y-76855061D01*
X221694775Y-76844644D01*
X221550031Y-76795961D01*
X221411634Y-76683645D01*
X221293032Y-76518904D01*
X221293016Y-76518883D01*
X221284334Y-76502928D01*
X221239464Y-76406574D01*
X221228258Y-76338503D01*
X221429913Y-76338503D01*
X221458754Y-76430789D01*
X221551189Y-76557787D01*
X221660295Y-76637895D01*
X221771311Y-76666531D01*
X221869475Y-76639117D01*
X221927433Y-76576213D01*
X221987043Y-76505324D01*
X222078784Y-76428486D01*
X222132551Y-76392435D01*
X222697888Y-76392435D01*
X222726561Y-76439710D01*
X222727467Y-76440697D01*
X222789153Y-76484713D01*
X222823928Y-76463853D01*
X222826327Y-76412770D01*
X222813477Y-76364244D01*
X222806130Y-76359677D01*
X222762616Y-76369662D01*
X222733026Y-76373908D01*
X222697888Y-76392435D01*
X222132551Y-76392435D01*
X222181790Y-76359420D01*
X222275207Y-76311853D01*
X222338172Y-76299500D01*
X222344422Y-76301933D01*
X222407679Y-76314007D01*
X222445495Y-76284370D01*
X222434059Y-76233432D01*
X222429930Y-76228642D01*
X222401769Y-76175613D01*
X222390891Y-76155122D01*
X222369120Y-76066904D01*
X222369019Y-76047999D01*
X222501984Y-76047999D01*
X222522924Y-76111198D01*
X222559567Y-76166607D01*
X222584790Y-76156218D01*
X222596987Y-76130440D01*
X222609113Y-76051541D01*
X222600490Y-76016977D01*
X222552347Y-75990710D01*
X222526428Y-75997738D01*
X222501984Y-76047999D01*
X222369019Y-76047999D01*
X222368705Y-75989142D01*
X222405303Y-75940654D01*
X222485086Y-75900117D01*
X222575872Y-75869177D01*
X222631590Y-75881337D01*
X222675384Y-75931924D01*
X222717884Y-76036738D01*
X222725903Y-76126979D01*
X222721729Y-76210321D01*
X222725510Y-76252103D01*
X222761037Y-76254619D01*
X222820938Y-76222752D01*
X222876767Y-76175575D01*
X222900075Y-76135074D01*
X222928906Y-76063688D01*
X222996109Y-75966815D01*
X223062618Y-75890502D01*
X223082670Y-75867496D01*
X223169585Y-75788779D01*
X223204843Y-75765617D01*
X223288336Y-75693873D01*
X223317597Y-75649444D01*
X223444574Y-75649444D01*
X223454668Y-75682046D01*
X223528023Y-75701406D01*
X223608889Y-75694281D01*
X223630644Y-75646090D01*
X223616630Y-75607051D01*
X223567567Y-75584501D01*
X223508271Y-75603346D01*
X223444574Y-75649444D01*
X223317597Y-75649444D01*
X223347823Y-75603549D01*
X223430661Y-75483821D01*
X223548051Y-75429171D01*
X223607443Y-75424447D01*
X223687430Y-75446649D01*
X223731052Y-75519683D01*
X223744699Y-75646961D01*
X223781423Y-75797623D01*
X223823313Y-75863077D01*
X223900534Y-75957388D01*
X224218809Y-75771403D01*
X224355752Y-75688435D01*
X224465647Y-75616291D01*
X224533757Y-75564956D01*
X224548477Y-75548154D01*
X224528784Y-75507113D01*
X224499738Y-75492504D01*
X224429417Y-75444651D01*
X224409056Y-75416662D01*
X224354009Y-75373978D01*
X224341666Y-75370091D01*
X224258585Y-75343927D01*
X224241404Y-75341269D01*
X224132520Y-75311419D01*
X224049814Y-75262528D01*
X224044256Y-75256852D01*
X223968219Y-75221064D01*
X223829527Y-75205249D01*
X223733286Y-75207092D01*
X223637839Y-75208924D01*
X223402807Y-75231601D01*
X223134090Y-75272797D01*
X222928330Y-75312981D01*
X222618706Y-75394002D01*
X222330548Y-75498756D01*
X222070597Y-75622114D01*
X221845595Y-75758951D01*
X221662284Y-75904136D01*
X221527405Y-76052542D01*
X221447700Y-76199039D01*
X221429913Y-76338503D01*
X221228258Y-76338503D01*
X221226184Y-76325905D01*
X221243672Y-76229672D01*
X221274610Y-76133899D01*
X221338789Y-75986637D01*
X221428790Y-75856299D01*
X221555901Y-75731678D01*
X221731409Y-75601560D01*
X221946246Y-75466813D01*
X222130606Y-75362419D01*
X222283597Y-75290723D01*
X222434083Y-75239481D01*
X222553931Y-75209101D01*
X222858018Y-75141650D01*
X224521497Y-75141650D01*
X224550408Y-75259102D01*
X224620257Y-75324878D01*
X224622741Y-75325840D01*
X224694083Y-75343959D01*
X224732774Y-75317217D01*
X224738659Y-75299328D01*
X224960614Y-75299328D01*
X224967606Y-75333777D01*
X225023651Y-75422541D01*
X225079562Y-75473597D01*
X225161871Y-75499833D01*
X225287440Y-75510867D01*
X225425985Y-75506974D01*
X225547229Y-75488424D01*
X225601855Y-75468936D01*
X225675939Y-75459767D01*
X225722151Y-75516235D01*
X225729525Y-75550594D01*
X225719873Y-75601390D01*
X225664311Y-75640629D01*
X225597578Y-75666346D01*
X225483870Y-75698690D01*
X225386647Y-75715733D01*
X225375100Y-75716368D01*
X225265662Y-75719047D01*
X225212270Y-75720394D01*
X225155081Y-75736734D01*
X225122331Y-75795354D01*
X225107533Y-75863562D01*
X225086589Y-75982821D01*
X225067773Y-76084943D01*
X225066306Y-76092530D01*
X225048669Y-76201619D01*
X225038812Y-76280925D01*
X225024418Y-76393365D01*
X225007052Y-76503917D01*
X224982742Y-76673481D01*
X224970100Y-76827388D01*
X224969688Y-76948320D01*
X224982074Y-77018964D01*
X224989880Y-77028813D01*
X225044746Y-77033836D01*
X225145408Y-77023625D01*
X225214608Y-77011429D01*
X225356687Y-76986050D01*
X225493466Y-76966950D01*
X225537863Y-76962538D01*
X225662312Y-76952660D01*
X225773683Y-76943731D01*
X225774206Y-76943688D01*
X225886646Y-76919867D01*
X225939101Y-76862805D01*
X225941199Y-76758727D01*
X225933397Y-76716038D01*
X225920391Y-76647588D01*
X225909406Y-76571028D01*
X225899625Y-76475336D01*
X225890238Y-76349490D01*
X225880430Y-76182469D01*
X225869388Y-75963248D01*
X225856299Y-75680809D01*
X225855185Y-75656159D01*
X225843560Y-75465926D01*
X225827451Y-75291713D01*
X225809063Y-75153788D01*
X225792108Y-75076591D01*
X225749552Y-74951460D01*
X225602936Y-75057220D01*
X225502651Y-75121733D01*
X225422925Y-75144836D01*
X225328579Y-75135520D01*
X225310906Y-75131863D01*
X225180304Y-75125876D01*
X225067070Y-75158446D01*
X224988180Y-75219592D01*
X224960614Y-75299328D01*
X224738659Y-75299328D01*
X224760307Y-75233527D01*
X224801784Y-75129833D01*
X224832889Y-75078159D01*
X224861317Y-75030933D01*
X224926579Y-74927623D01*
X224937622Y-74904446D01*
X225159596Y-74904446D01*
X225266476Y-74926858D01*
X225335056Y-74931271D01*
X225416575Y-74911977D01*
X225528981Y-74863003D01*
X225654509Y-74797740D01*
X225787888Y-74724969D01*
X225861801Y-74680713D01*
X225883294Y-74658514D01*
X225859417Y-74651914D01*
X225811898Y-74653557D01*
X225698432Y-74676181D01*
X225569822Y-74723318D01*
X225538009Y-74738702D01*
X225387876Y-74816502D01*
X225548585Y-74518492D01*
X225622267Y-74379400D01*
X225661422Y-74295946D01*
X225668510Y-74258346D01*
X225645991Y-74256826D01*
X225610109Y-74274048D01*
X225499566Y-74360939D01*
X225382236Y-74497744D01*
X225275092Y-74663083D01*
X225228133Y-74755208D01*
X225159596Y-74904446D01*
X224937622Y-74904446D01*
X224978863Y-74817888D01*
X225010636Y-74721960D01*
X225014360Y-74660072D01*
X225003814Y-74648351D01*
X224952764Y-74658856D01*
X224858965Y-74697864D01*
X224766397Y-74744468D01*
X224651268Y-74811381D01*
X224585797Y-74867515D01*
X224551041Y-74932768D01*
X224536825Y-74985580D01*
X224521497Y-75141650D01*
X222858018Y-75141650D01*
X222880411Y-75136683D01*
X223151135Y-75082565D01*
X223382409Y-75043748D01*
X223590541Y-75017220D01*
X223600349Y-75016193D01*
X223737898Y-75000319D01*
X223817413Y-74984044D01*
X223855748Y-74960760D01*
X223867573Y-74929628D01*
X224074335Y-74929628D01*
X224106892Y-75008444D01*
X224176475Y-75107530D01*
X224238931Y-75131965D01*
X224292483Y-75081927D01*
X224328052Y-74987155D01*
X224365256Y-74870153D01*
X224405554Y-74775079D01*
X224416724Y-74755554D01*
X224458721Y-74669749D01*
X224443462Y-74631310D01*
X224419944Y-74634525D01*
X224372648Y-74640998D01*
X224268091Y-74688681D01*
X224139820Y-74768856D01*
X224077543Y-74844594D01*
X224074335Y-74929628D01*
X223867573Y-74929628D01*
X223869762Y-74923865D01*
X223871662Y-74909867D01*
X223928586Y-74731158D01*
X224048942Y-74576461D01*
X224222196Y-74456463D01*
X224254022Y-74444176D01*
X224777939Y-74444176D01*
X224809626Y-74474992D01*
X224879321Y-74478791D01*
X224980138Y-74467602D01*
X225026696Y-74444078D01*
X225039846Y-74393605D01*
X225040420Y-74365934D01*
X225037474Y-74294469D01*
X225015779Y-74273290D01*
X224956847Y-74297027D01*
X224903771Y-74326213D01*
X224809760Y-74391837D01*
X224777939Y-74444176D01*
X224254022Y-74444176D01*
X224377557Y-74396484D01*
X224444263Y-74371195D01*
X224490473Y-74328355D01*
X224529457Y-74249287D01*
X224572229Y-74122516D01*
X224647814Y-73881826D01*
X224740089Y-74001694D01*
X224832367Y-74121562D01*
X225053702Y-73982758D01*
X225168442Y-73916198D01*
X225252837Y-73877660D01*
X225291166Y-73874304D01*
X225291305Y-73874547D01*
G37*
%LPC*%
D16*
X193525000Y-160925000D03*
X218200000Y-160925000D03*
X157118565Y-133164714D03*
D17*
X219605556Y-84222313D03*
D18*
X220726899Y-83626083D03*
D16*
X254494365Y-133164711D03*
D19*
X128239013Y-127028304D03*
X133497094Y-117139291D03*
D20*
X123513741Y-121004867D03*
X125861099Y-116590129D03*
D21*
X136316481Y-127812203D03*
D22*
X138663838Y-123397467D03*
X137490160Y-125604835D03*
D16*
X185150000Y-133900000D03*
X230872274Y-170597886D03*
D23*
X278078279Y-117068654D03*
X283336360Y-126957667D03*
D20*
X285714275Y-116519491D03*
X288061630Y-120934228D03*
D24*
X272911534Y-123326828D03*
D22*
X275258891Y-127741566D03*
X274085212Y-125534195D03*
D16*
X284635100Y-68438087D03*
X126977827Y-68438087D03*
D25*
X198006462Y-162821682D03*
D26*
X200006464Y-162821684D03*
D16*
X236654447Y-99612701D03*
X226550000Y-133900000D03*
X174958486Y-99612703D03*
X302475018Y-101990096D03*
D27*
X230439162Y-74180268D03*
X235537760Y-69383987D03*
D28*
X212806466Y-164321686D03*
X210806467Y-164321687D03*
X208806465Y-164321684D03*
X206806466Y-164321686D03*
D29*
X215206466Y-166571686D03*
X204406466Y-166571686D03*
D16*
X109137913Y-101990096D03*
X180740646Y-170597884D03*
D30*
X177764560Y-85815024D03*
D31*
X170114992Y-88486469D03*
D32*
X172908348Y-83232930D03*
D31*
X166733092Y-84196626D03*
D30*
X168052136Y-80650836D03*
X299052997Y-63603383D03*
D31*
X296990141Y-71439016D03*
D32*
X294196785Y-66185477D03*
D31*
X291542565Y-71843888D03*
D30*
X289340573Y-68767571D03*
X144682021Y-67092160D03*
D31*
X137032453Y-69763605D03*
D32*
X139825809Y-64510066D03*
D31*
X133650553Y-65473762D03*
D30*
X134969597Y-61927972D03*
X316892915Y-97155395D03*
D31*
X314830059Y-104991028D03*
D32*
X312036703Y-99737489D03*
D31*
X309382483Y-105395900D03*
D30*
X307180491Y-102319583D03*
X230513559Y-177631168D03*
D32*
X229938650Y-183101039D03*
D31*
X235856054Y-183722983D03*
X233145467Y-188465630D03*
D30*
X229363741Y-188570910D03*
X168844602Y-102591030D03*
D31*
X161195034Y-105262475D03*
D32*
X163988390Y-100008936D03*
D31*
X157813134Y-100972632D03*
D30*
X159132178Y-97426842D03*
X261603192Y-140144298D03*
D31*
X259540336Y-147979931D03*
D32*
X256746980Y-142726392D03*
D31*
X254092760Y-148384803D03*
D30*
X251890768Y-145308486D03*
X159722164Y-145308493D03*
D31*
X152072596Y-147979938D03*
D32*
X154865952Y-142726399D03*
D31*
X148690696Y-143690095D03*
D30*
X150009740Y-140144305D03*
X228662678Y-93102585D03*
D31*
X226599822Y-100938218D03*
D32*
X223806466Y-95684679D03*
D31*
X221152246Y-101343090D03*
D30*
X218950254Y-98266773D03*
X264562046Y-79677411D03*
D31*
X262499190Y-87513044D03*
D32*
X259705834Y-82259505D03*
D31*
X257051614Y-87917916D03*
D30*
X254849622Y-84841599D03*
X126842106Y-100644169D03*
D31*
X119192538Y-103315614D03*
D32*
X121985894Y-98062075D03*
D31*
X115810638Y-99025771D03*
D30*
X117129682Y-95479981D03*
X113352400Y-85543573D03*
D31*
X105702832Y-88215018D03*
D32*
X108496188Y-82961479D03*
D31*
X102320932Y-83925175D03*
D30*
X103639976Y-80379385D03*
X276643333Y-61927973D03*
D31*
X274580477Y-69763606D03*
D32*
X271787121Y-64510067D03*
D31*
X269132901Y-70168478D03*
D30*
X266930909Y-67092161D03*
X261400713Y-114202844D03*
D31*
X259337857Y-122038477D03*
D32*
X256544501Y-116784938D03*
D31*
X253890281Y-122443349D03*
D30*
X251688289Y-119367032D03*
D33*
X213426466Y-83984679D03*
X213426467Y-86524677D03*
X213426466Y-89064678D03*
X213426466Y-91604682D03*
X213426465Y-94144678D03*
X213426466Y-96684678D03*
X213426465Y-99224678D03*
X213426467Y-101764676D03*
X213426466Y-104304678D03*
X213426467Y-106844679D03*
X213426466Y-109384677D03*
X213426466Y-111924678D03*
X198186466Y-111924678D03*
X198186466Y-109384677D03*
X198186465Y-106844679D03*
X198186466Y-104304678D03*
X198186466Y-101764674D03*
X198186467Y-99224678D03*
X198186466Y-96684678D03*
X198186467Y-94144678D03*
X198186465Y-91604680D03*
X198186466Y-89064678D03*
X198186465Y-86524677D03*
X198186466Y-83984679D03*
X200726466Y-109384678D03*
X203266466Y-109384679D03*
X205806466Y-109384678D03*
D30*
X104432441Y-102319578D03*
D31*
X96782873Y-104991023D03*
D32*
X99576229Y-99737484D03*
D31*
X93400973Y-100701180D03*
D30*
X94720017Y-97155390D03*
X255642082Y-62901400D03*
D31*
X253579226Y-70737033D03*
D32*
X250785870Y-65483494D03*
D31*
X248131650Y-71141905D03*
D30*
X245929658Y-68065588D03*
X135762064Y-83868162D03*
D31*
X128112496Y-86539607D03*
D32*
X130905852Y-81286068D03*
D31*
X124730596Y-82249764D03*
D30*
X126049640Y-78703974D03*
X294483249Y-95479979D03*
D31*
X292420393Y-103315612D03*
D32*
X289627037Y-98062073D03*
D31*
X286972817Y-103720484D03*
D30*
X284770825Y-100644167D03*
X307972958Y-80379384D03*
D31*
X305910102Y-88215017D03*
D32*
X303116746Y-82961478D03*
D31*
X300462526Y-88619889D03*
D30*
X298260534Y-85543572D03*
X241385111Y-155011977D03*
D31*
X243242324Y-162898882D03*
D32*
X238309550Y-159571684D03*
D31*
X238622477Y-165813848D03*
D30*
X235233989Y-164131391D03*
X252480759Y-97426842D03*
D31*
X250417903Y-105262475D03*
D32*
X247624547Y-100008936D03*
D31*
X244970327Y-105667347D03*
D30*
X242768335Y-102591030D03*
X285563295Y-78703972D03*
D31*
X283500439Y-86539605D03*
D32*
X280707083Y-81286066D03*
D31*
X278052863Y-86944477D03*
D30*
X275850871Y-83868160D03*
X122272358Y-68767567D03*
D31*
X114622790Y-71439012D03*
D32*
X117416146Y-66185473D03*
D31*
X111240890Y-67149169D03*
D30*
X112559934Y-63603379D03*
X156763313Y-84841595D03*
D31*
X149113745Y-87513040D03*
D32*
X151907101Y-82259501D03*
D31*
X145731845Y-83223197D03*
D30*
X147050889Y-79677407D03*
X182249190Y-188570907D03*
D31*
X175756877Y-183722982D03*
D32*
X181674282Y-183101037D03*
D31*
X177422183Y-178520409D03*
D30*
X181099374Y-177631167D03*
X176378942Y-164131389D03*
D31*
X168370607Y-162898880D03*
D32*
X173303381Y-159571682D03*
D31*
X167398526Y-157523467D03*
D30*
X170227820Y-155011975D03*
X192662673Y-98266778D03*
D31*
X185013105Y-100938223D03*
D32*
X187806461Y-95684684D03*
D31*
X181631205Y-96648380D03*
D30*
X182950249Y-93102590D03*
X273482005Y-96453408D03*
D31*
X271419149Y-104289041D03*
D32*
X268625793Y-99035502D03*
D31*
X265971573Y-104693913D03*
D30*
X263769581Y-101617596D03*
X237582637Y-109878592D03*
D31*
X235519781Y-117714225D03*
D32*
X232726425Y-112460686D03*
D31*
X230072205Y-118119097D03*
D30*
X227870213Y-115042780D03*
X147843354Y-101617598D03*
D31*
X140193786Y-104289043D03*
D32*
X142987142Y-99035504D03*
D31*
X136811886Y-99999200D03*
D30*
X138130930Y-96453410D03*
X183742718Y-115042778D03*
D31*
X176093150Y-117714223D03*
D32*
X178886506Y-112460684D03*
D31*
X172711250Y-113424380D03*
D30*
X174030294Y-109878590D03*
X174822759Y-131818784D03*
D31*
X167173191Y-134490229D03*
D32*
X169966547Y-129236690D03*
D31*
X163791291Y-130200386D03*
D30*
X165110335Y-126654596D03*
X243560796Y-80650839D03*
D31*
X241497940Y-88486472D03*
D32*
X238704584Y-83232933D03*
D31*
X236050364Y-88891344D03*
D30*
X233848372Y-85815027D03*
X246502599Y-126654599D03*
D31*
X244439743Y-134490232D03*
D32*
X241646387Y-129236693D03*
D31*
X238992167Y-134895104D03*
D30*
X236790175Y-131818787D03*
X159924641Y-119367037D03*
D31*
X152275073Y-122038482D03*
D32*
X155068429Y-116784943D03*
D31*
X148893173Y-117748639D03*
D30*
X150212217Y-114202849D03*
X165683275Y-68065587D03*
D31*
X158033707Y-70737032D03*
D32*
X160827063Y-65483493D03*
D31*
X154651807Y-66447189D03*
D30*
X155970851Y-62901399D03*
%LPD*%
M02*
